<svg width="136" height="45" viewBox="0 0 136 45" fill="none" xmlns="http://www.w3.org/2000/svg">
    <path
        d="M37.126 22.812C37.638 21.8093 38.3633 21.0307 39.302 20.476C40.262 19.9213 41.4247 19.644 42.79 19.644V22.652H42.022C38.758 22.652 37.126 24.4227 37.126 27.964V37.5H34.214V19.964H37.126V22.812ZM62.1515 28.06C62.1515 28.6147 62.1195 29.2013 62.0555 29.82H48.0395C48.1462 31.548 48.7328 32.9027 49.7995 33.884C50.8875 34.844 52.1995 35.324 53.7355 35.324C54.9942 35.324 56.0395 35.036 56.8715 34.46C57.7248 33.8627 58.3222 33.0733 58.6635 32.092H61.7995C61.3302 33.7773 60.3915 35.1533 58.9835 36.22C57.5755 37.2653 55.8262 37.788 53.7355 37.788C52.0715 37.788 50.5782 37.4147 49.2555 36.668C47.9542 35.9213 46.9302 34.8653 46.1835 33.5C45.4368 32.1133 45.0635 30.5133 45.0635 28.7C45.0635 26.8867 45.4262 25.2973 46.1515 23.932C46.8768 22.5667 47.8902 21.5213 49.1915 20.796C50.5142 20.0493 52.0288 19.676 53.7355 19.676C55.3995 19.676 56.8715 20.0387 58.1515 20.764C59.4315 21.4893 60.4128 22.492 61.0955 23.772C61.7995 25.0307 62.1515 26.46 62.1515 28.06ZM59.1435 27.452C59.1435 26.3427 58.8982 25.3933 58.4075 24.604C57.9168 23.7933 57.2448 23.1853 56.3915 22.78C55.5595 22.3533 54.6315 22.14 53.6075 22.14C52.1355 22.14 50.8768 22.6093 49.8315 23.548C48.8075 24.4867 48.2208 25.788 48.0715 27.452H59.1435ZM81.9953 28.06C81.9953 28.6147 81.9633 29.2013 81.8993 29.82H67.8833C67.9899 31.548 68.5766 32.9027 69.6433 33.884C70.7313 34.844 72.0433 35.324 73.5793 35.324C74.8379 35.324 75.8833 35.036 76.7153 34.46C77.5686 33.8627 78.1659 33.0733 78.5073 32.092H81.6433C81.1739 33.7773 80.2353 35.1533 78.8273 36.22C77.4193 37.2653 75.6699 37.788 73.5793 37.788C71.9153 37.788 70.4219 37.4147 69.0993 36.668C67.7979 35.9213 66.7739 34.8653 66.0273 33.5C65.2806 32.1133 64.9073 30.5133 64.9073 28.7C64.9073 26.8867 65.2699 25.2973 65.9953 23.932C66.7206 22.5667 67.7339 21.5213 69.0353 20.796C70.3579 20.0493 71.8726 19.676 73.5793 19.676C75.2433 19.676 76.7153 20.0387 77.9953 20.764C79.2753 21.4893 80.2566 22.492 80.9393 23.772C81.6433 25.0307 81.9953 26.46 81.9953 28.06ZM78.9873 27.452C78.9873 26.3427 78.7419 25.3933 78.2513 24.604C77.7606 23.7933 77.0886 23.1853 76.2353 22.78C75.4033 22.3533 74.4753 22.14 73.4513 22.14C71.9793 22.14 70.7206 22.6093 69.6753 23.548C68.6513 24.4867 68.0646 25.788 67.9153 27.452H78.9873ZM94.383 19.644C96.5163 19.644 98.2443 20.2947 99.567 21.596C100.89 22.876 101.551 24.732 101.551 27.164V37.5H98.671V27.58C98.671 25.8307 98.2337 24.4973 97.359 23.58C96.4843 22.6413 95.2897 22.172 93.775 22.172C92.239 22.172 91.0123 22.652 90.095 23.612C89.199 24.572 88.751 25.9693 88.751 27.804V37.5H85.839V19.964H88.751V22.46C89.327 21.564 90.1057 20.8707 91.087 20.38C92.0897 19.8893 93.1883 19.644 94.383 19.644Z"
        fill="white" />
    <path
        d="M104.75 38.01H111.79C111.79 38.01 115.423 21.3527 135.236 6.84348C135.236 6.84348 119.113 11.4532 104.75 38.01Z"
        fill="url(#paint0_linear_72_1116)" />
    <path d="M114.99 21.0654L112.482 23.9965L106.68 14.6214H111.393L114.99 21.0654Z"
        fill="url(#paint1_linear_72_1116)" />
    <path d="M125.342 36.8103H120.773L116.405 29.248L118.426 25.7494L125.342 36.8103Z"
        fill="url(#paint2_linear_72_1116)" />
    <path fill-rule="evenodd" clip-rule="evenodd"
        d="M16.0567 19.1161H31.3586V23.005H31.3633V29.0444C31.3633 33.2709 29.6512 37.0976 26.8805 39.8682C24.1099 42.6389 20.2833 44.351 16.0567 44.351V37.7322C11.8301 37.7322 8.00343 36.0176 5.23281 33.2494C2.46458 30.4812 0.75 26.6545 0.75 22.4279C0.75 18.2013 2.46458 14.3723 5.23281 11.6017C8.00343 8.83103 11.8301 7.11884 16.0567 7.11884H22.6635V11.0988H26.6363V7.11884H22.6635V0.5H16.0567V13.7377C13.6572 13.7377 11.4853 14.7099 9.91437 16.2832C8.34108 17.8565 7.36884 20.0285 7.36884 22.4279C7.36884 24.8274 8.34108 26.9993 9.91437 28.5702C11.4853 30.1435 13.6572 31.1157 16.0567 31.1157V37.7346C18.4561 37.7346 20.6281 36.7624 22.2014 35.1891C23.7747 33.6158 24.7469 31.4438 24.7469 29.0444H24.7541V25.7349H16.0567V19.1161ZM27.678 6.07477H29.7613V3.98902H27.678V6.07717V6.07477Z"
        fill="url(#paint3_linear_72_1116)" />
    <defs>
        <linearGradient id="paint0_linear_72_1116" x1="104.75" y1="22.4279" x2="135.236"
            y2="22.4279" gradientUnits="userSpaceOnUse">
            <stop stop-color="#99B0A4" />
            <stop offset="1" stop-color="#ECF3E6" />
        </linearGradient>
        <linearGradient id="paint1_linear_72_1116" x1="106.68" y1="19.3101" x2="114.99" y2="19.3101"
            gradientUnits="userSpaceOnUse">
            <stop stop-color="#99B1A4" />
            <stop offset="1" stop-color="#EDF4E7" />
        </linearGradient>
        <linearGradient id="paint2_linear_72_1116" x1="116.405" y1="31.281" x2="125.342" y2="31.281"
            gradientUnits="userSpaceOnUse">
            <stop stop-color="#98B0A3" />
            <stop offset="1" stop-color="#EDF4E7" />
        </linearGradient>
        <linearGradient id="paint3_linear_72_1116" x1="6.12601" y1="33.144" x2="31.8088"
            y2="11.5154" gradientUnits="userSpaceOnUse">
            <stop stop-color="#98B0A3" />
            <stop offset="1" stop-color="#F5FBED" />
        </linearGradient>
    </defs>
</svg>