<svg width="346" height="311" viewBox="0 0 346 311" fill="none" xmlns="http://www.w3.org/2000/svg">
<rect width="346" height="311" rx="16" fill="white"/>
<path d="M26.6761 65H22.4382V51.9091H26.8104C28.093 51.9091 29.1946 52.1712 30.1151 52.6953C31.0355 53.2152 31.7408 53.9631 32.2308 54.9389C32.7251 55.9105 32.9723 57.076 32.9723 58.4354C32.9723 59.799 32.723 60.9709 32.2244 61.951C31.7301 62.9311 31.0142 63.6854 30.0767 64.2138C29.1392 64.7379 28.0057 65 26.6761 65ZM24.4134 63.2741H26.5675C27.5646 63.2741 28.3935 63.0866 29.054 62.7116C29.7145 62.3324 30.2088 61.7848 30.5369 61.0689C30.8651 60.3487 31.0291 59.4709 31.0291 58.4354C31.0291 57.4084 30.8651 56.5369 30.5369 55.821C30.2131 55.1051 29.7294 54.5618 29.0859 54.1911C28.4425 53.8203 27.6435 53.6349 26.6889 53.6349H24.4134V63.2741ZM38.1323 65.2173C37.5101 65.2173 36.9476 65.1023 36.4448 64.8722C35.9419 64.6378 35.5435 64.299 35.2495 63.8558C34.9597 63.4126 34.8148 62.8693 34.8148 62.2259C34.8148 61.6719 34.9213 61.2159 35.1344 60.858C35.3475 60.5 35.6351 60.2166 35.9973 60.0078C36.3596 59.799 36.7644 59.6413 37.2118 59.5348C37.6593 59.4283 38.1152 59.3473 38.5797 59.2919C39.1678 59.2237 39.6451 59.1683 40.0115 59.1257C40.378 59.0788 40.6444 59.0043 40.8105 58.902C40.9767 58.7997 41.0598 58.6335 41.0598 58.4034V58.3587C41.0598 57.8004 40.9022 57.3679 40.5868 57.0611C40.2757 56.7543 39.8113 56.6009 39.1934 56.6009C38.5499 56.6009 38.0428 56.7436 37.6721 57.0291C37.3056 57.3104 37.052 57.6236 36.9114 57.9688L35.1152 57.5597C35.3283 56.9631 35.6394 56.4815 36.0485 56.1151C36.4618 55.7443 36.937 55.4759 37.4739 55.3097C38.0108 55.1392 38.5755 55.054 39.1678 55.054C39.5598 55.054 39.9753 55.1009 40.4142 55.1946C40.8574 55.2841 41.2708 55.4503 41.6543 55.6932C42.0421 55.9361 42.3596 56.2834 42.6067 56.7351C42.8539 57.1825 42.9775 57.7642 42.9775 58.4801V65H41.111V63.6577H41.0343C40.9107 63.9048 40.7253 64.1477 40.4782 64.3864C40.231 64.625 39.9135 64.8232 39.5257 64.9808C39.138 65.1385 38.6735 65.2173 38.1323 65.2173ZM38.5478 63.6832C39.0762 63.6832 39.5279 63.5788 39.9029 63.37C40.2821 63.1612 40.5698 62.8885 40.7658 62.5518C40.9661 62.2109 41.0662 61.8466 41.0662 61.4588V60.1932C40.998 60.2614 40.8659 60.3253 40.6699 60.3849C40.4782 60.4403 40.2587 60.4893 40.0115 60.532C39.7644 60.5703 39.5236 60.6065 39.2892 60.6406C39.0549 60.6705 38.8588 60.696 38.7012 60.7173C38.3304 60.7642 37.9917 60.843 37.6848 60.9538C37.3823 61.0646 37.1394 61.2244 36.9561 61.4332C36.7772 61.6378 36.6877 61.9105 36.6877 62.2514C36.6877 62.7244 36.8624 63.0824 37.2118 63.3253C37.5613 63.5639 38.0066 63.6832 38.5478 63.6832ZM52.8803 57.5788L51.1481 57.8857C51.0756 57.6641 50.9606 57.4531 50.8029 57.2528C50.6495 57.0526 50.4407 56.8885 50.1765 56.7607C49.9123 56.6328 49.582 56.5689 49.1857 56.5689C48.6445 56.5689 48.1928 56.6903 47.8306 56.9332C47.4684 57.1719 47.2873 57.4808 47.2873 57.8601C47.2873 58.1882 47.4087 58.4524 47.6516 58.6527C47.8945 58.853 48.2866 59.017 48.8278 59.1449L50.3874 59.5028C51.2908 59.7116 51.9641 60.0334 52.4073 60.468C52.8505 60.9027 53.0721 61.4673 53.0721 62.1619C53.0721 62.75 52.9016 63.2741 52.5607 63.7344C52.2241 64.1903 51.7532 64.5483 51.1481 64.8082C50.5472 65.0682 49.8505 65.1982 49.0579 65.1982C47.9585 65.1982 47.0614 64.9638 46.3668 64.495C45.6722 64.022 45.2461 63.3509 45.0884 62.4815L46.9357 62.2003C47.0508 62.6818 47.2873 63.0462 47.6452 63.2933C48.0032 63.5362 48.4698 63.6577 49.0451 63.6577C49.6715 63.6577 50.1722 63.5277 50.5472 63.2678C50.9222 63.0036 51.1097 62.6818 51.1097 62.3026C51.1097 61.9957 50.9947 61.7379 50.7646 61.5291C50.5387 61.3203 50.1914 61.1626 49.7227 61.0561L48.0607 60.6918C47.1445 60.483 46.467 60.1506 46.0281 59.6946C45.5934 59.2386 45.3761 58.6612 45.3761 57.9624C45.3761 57.3828 45.538 56.8757 45.8619 56.4411C46.1857 56.0064 46.6332 55.6676 47.2042 55.4247C47.7752 55.1776 48.4293 55.054 49.1665 55.054C50.2276 55.054 51.0629 55.2841 51.6722 55.7443C52.2816 56.2003 52.6843 56.8118 52.8803 57.5788ZM57.0847 59.1705V65H55.1735V51.9091H57.0591V56.7798H57.1806C57.4107 56.2514 57.7623 55.8317 58.2353 55.5206C58.7083 55.2095 59.3262 55.054 60.089 55.054C60.7623 55.054 61.3503 55.1925 61.8532 55.4695C62.3603 55.7464 62.7523 56.1598 63.0293 56.7095C63.3105 57.255 63.4512 57.9368 63.4512 58.755V65H61.54V58.9851C61.54 58.2649 61.3546 57.7067 60.9838 57.3104C60.6131 56.9098 60.0975 56.7095 59.437 56.7095C58.9853 56.7095 58.5804 56.8054 58.2225 56.9972C57.8688 57.1889 57.5897 57.4702 57.3851 57.8409C57.1848 58.2074 57.0847 58.6506 57.0847 59.1705ZM66.155 65V51.9091H68.0662V56.7734H68.1813C68.2921 56.5689 68.4519 56.3324 68.6607 56.0639C68.8695 55.7955 69.1593 55.5611 69.53 55.3608C69.9007 55.1562 70.3908 55.054 71.0002 55.054C71.7928 55.054 72.5002 55.2543 73.1223 55.6548C73.7445 56.0554 74.2324 56.6328 74.5861 57.3871C74.9441 58.1413 75.123 59.049 75.123 60.1101C75.123 61.1712 74.9462 62.081 74.5925 62.8395C74.2388 63.5937 73.753 64.1754 73.1351 64.5845C72.5172 64.9893 71.812 65.1918 71.0194 65.1918C70.4228 65.1918 69.9348 65.0916 69.5556 64.8913C69.1806 64.6911 68.8865 64.4567 68.6735 64.1882C68.4604 63.9197 68.2963 63.6811 68.1813 63.4723H68.0215V65H66.155ZM68.0279 60.0909C68.0279 60.7812 68.128 61.3864 68.3283 61.9062C68.5286 62.4261 68.8184 62.8331 69.1976 63.1271C69.5769 63.4169 70.0414 63.5618 70.5911 63.5618C71.1621 63.5618 71.6394 63.4105 72.0229 63.108C72.4064 62.8011 72.6962 62.3857 72.8922 61.8615C73.0925 61.3374 73.1926 60.7472 73.1926 60.0909C73.1926 59.4432 73.0946 58.8615 72.8986 58.3459C72.7069 57.8303 72.4171 57.4233 72.0293 57.125C71.6458 56.8267 71.1664 56.6776 70.5911 56.6776C70.0371 56.6776 69.5684 56.8203 69.1848 57.1058C68.8056 57.3913 68.5179 57.7898 68.3219 58.3011C68.1259 58.8125 68.0279 59.4091 68.0279 60.0909ZM81.4048 65.1982C80.4844 65.1982 79.6811 64.9872 78.995 64.5653C78.3089 64.1435 77.7763 63.5533 77.397 62.7947C77.0178 62.0362 76.8281 61.1499 76.8281 60.1357C76.8281 59.1172 77.0178 58.2266 77.397 57.4638C77.7763 56.701 78.3089 56.1087 78.995 55.6868C79.6811 55.2649 80.4844 55.054 81.4048 55.054C82.3253 55.054 83.1286 55.2649 83.8146 55.6868C84.5007 56.1087 85.0334 56.701 85.4126 57.4638C85.7919 58.2266 85.9815 59.1172 85.9815 60.1357C85.9815 61.1499 85.7919 62.0362 85.4126 62.7947C85.0334 63.5533 84.5007 64.1435 83.8146 64.5653C83.1286 64.9872 82.3253 65.1982 81.4048 65.1982ZM81.4112 63.5938C82.0078 63.5938 82.5021 63.4361 82.8942 63.1207C83.2862 62.8054 83.576 62.3857 83.7635 61.8615C83.9553 61.3374 84.0511 60.7599 84.0511 60.1293C84.0511 59.5028 83.9553 58.9276 83.7635 58.4034C83.576 57.875 83.2862 57.451 82.8942 57.1314C82.5021 56.8118 82.0078 56.652 81.4112 56.652C80.8104 56.652 80.3118 56.8118 79.9155 57.1314C79.5234 57.451 79.2315 57.875 79.0398 58.4034C78.8523 58.9276 78.7585 59.5028 78.7585 60.1293C78.7585 60.7599 78.8523 61.3374 79.0398 61.8615C79.2315 62.3857 79.5234 62.8054 79.9155 63.1207C80.3118 63.4361 80.8104 63.5938 81.4112 63.5938ZM90.9721 65.2173C90.35 65.2173 89.7875 65.1023 89.2846 64.8722C88.7818 64.6378 88.3833 64.299 88.0893 63.8558C87.7995 63.4126 87.6547 62.8693 87.6547 62.2259C87.6547 61.6719 87.7612 61.2159 87.9743 60.858C88.1873 60.5 88.475 60.2166 88.8372 60.0078C89.1994 59.799 89.6042 59.6413 90.0517 59.5348C90.4991 59.4283 90.9551 59.3473 91.4196 59.2919C92.0076 59.2237 92.4849 59.1683 92.8514 59.1257C93.2179 59.0788 93.4842 59.0043 93.6504 58.902C93.8166 58.7997 93.8997 58.6335 93.8997 58.4034V58.3587C93.8997 57.8004 93.742 57.3679 93.4267 57.0611C93.1156 56.7543 92.6511 56.6009 92.0332 56.6009C91.3897 56.6009 90.8826 56.7436 90.5119 57.0291C90.1454 57.3104 89.8919 57.6236 89.7512 57.9688L87.9551 57.5597C88.1681 56.9631 88.4792 56.4815 88.8883 56.1151C89.3017 55.7443 89.7768 55.4759 90.3137 55.3097C90.8507 55.1392 91.4153 55.054 92.0076 55.054C92.3997 55.054 92.8152 55.1009 93.2541 55.1946C93.6973 55.2841 94.1106 55.4503 94.4941 55.6932C94.8819 55.9361 95.1994 56.2834 95.4466 56.7351C95.6937 57.1825 95.8173 57.7642 95.8173 58.4801V65H93.9508V63.6577H93.8741C93.7505 63.9048 93.5652 64.1477 93.318 64.3864C93.0708 64.625 92.7534 64.8232 92.3656 64.9808C91.9778 65.1385 91.5133 65.2173 90.9721 65.2173ZM91.3876 63.6832C91.916 63.6832 92.3677 63.5788 92.7427 63.37C93.122 63.1612 93.4096 62.8885 93.6056 62.5518C93.8059 62.2109 93.9061 61.8466 93.9061 61.4588V60.1932C93.8379 60.2614 93.7058 60.3253 93.5098 60.3849C93.318 60.4403 93.0985 60.4893 92.8514 60.532C92.6042 60.5703 92.3635 60.6065 92.1291 60.6406C91.8947 60.6705 91.6987 60.696 91.541 60.7173C91.1703 60.7642 90.8315 60.843 90.5247 60.9538C90.2221 61.0646 89.9792 61.2244 89.796 61.4332C89.617 61.6378 89.5275 61.9105 89.5275 62.2514C89.5275 62.7244 89.7022 63.0824 90.0517 63.3253C90.4011 63.5639 90.8464 63.6832 91.3876 63.6832ZM98.3629 65V55.1818H100.21V56.7415H100.312C100.491 56.2131 100.807 55.7976 101.259 55.495C101.714 55.1882 102.23 55.0348 102.805 55.0348C102.925 55.0348 103.065 55.0391 103.227 55.0476C103.393 55.0561 103.523 55.0668 103.617 55.0795V56.9077C103.54 56.8864 103.404 56.8629 103.208 56.8374C103.012 56.8075 102.816 56.7926 102.62 56.7926C102.168 56.7926 101.766 56.8885 101.412 57.0803C101.063 57.2678 100.786 57.5298 100.581 57.8665C100.376 58.1989 100.274 58.5781 100.274 59.0043V65H98.3629ZM108.595 65.1918C107.802 65.1918 107.095 64.9893 106.473 64.5845C105.855 64.1754 105.369 63.5937 105.015 62.8395C104.666 62.081 104.491 61.1712 104.491 60.1101C104.491 59.049 104.668 58.1413 105.022 57.3871C105.38 56.6328 105.87 56.0554 106.492 55.6548C107.114 55.2543 107.819 55.054 108.608 55.054C109.217 55.054 109.707 55.1562 110.078 55.3608C110.453 55.5611 110.743 55.7955 110.947 56.0639C111.156 56.3324 111.318 56.5689 111.433 56.7734H111.548V51.9091H113.459V65H111.593V63.4723H111.433C111.318 63.6811 111.152 63.9197 110.934 64.1882C110.721 64.4567 110.427 64.6911 110.052 64.8913C109.677 65.0916 109.192 65.1918 108.595 65.1918ZM109.017 63.5618C109.567 63.5618 110.031 63.4169 110.41 63.1271C110.794 62.8331 111.084 62.4261 111.28 61.9062C111.48 61.3864 111.58 60.7812 111.58 60.0909C111.58 59.4091 111.482 58.8125 111.286 58.3011C111.09 57.7898 110.802 57.3913 110.423 57.1058C110.044 56.8203 109.575 56.6776 109.017 56.6776C108.442 56.6776 107.962 56.8267 107.579 57.125C107.195 57.4233 106.905 57.8303 106.709 58.3459C106.518 58.8615 106.422 59.4432 106.422 60.0909C106.422 60.7472 106.52 61.3374 106.716 61.8615C106.912 62.3857 107.202 62.8011 107.585 63.108C107.973 63.4105 108.45 63.5618 109.017 63.5618Z" fill="black"/>
<circle cx="27" cy="21" r="5" fill="#FF0606"/>
<circle cx="44.5" cy="21" r="5" fill="#30C1FF"/>
<circle cx="62" cy="21" r="5" fill="#A3DC2F"/>
<rect x="292" y="48" width="35" height="20" rx="10" fill="#A3DC2F"/>
<circle cx="317" cy="58" r="8" fill="white"/>
<line x1="24" y1="93.5" x2="327" y2="93.5" stroke="#D8D8D8"/>
<rect x="23" y="123" width="302" height="10" rx="5" fill="#EFEFEF"/>
<rect x="23" y="143" width="302" height="10" rx="5" fill="#EFEFEF"/>
<rect x="23" y="163" width="199" height="10" rx="5" fill="#EFEFEF"/>
<rect x="29" y="221" width="182" height="10" rx="5" fill="#EFEFEF"/>
<rect x="29" y="241" width="99" height="10" rx="5" fill="#EFEFEF"/>
<rect x="292" y="188" width="35" height="20" rx="10" fill="#A3DC2F"/>
<circle cx="317" cy="198" r="8" fill="white"/>
<rect width="35" height="20" rx="10" transform="matrix(-1 0 0 1 327 231)" fill="#D8D8D8"/>
<circle cx="8" cy="8" r="8" transform="matrix(-1 0 0 1 310 233)" fill="white"/>
</svg>
