<svg width="346" height="139" viewBox="0 0 346 139" fill="none" xmlns="http://www.w3.org/2000/svg">
<rect width="346" height="139" rx="16" fill="white"/>
<path d="M29.25 49H25.6591V37.3636H29.4091C30.5379 37.3636 31.5038 37.5966 32.3068 38.0625C33.1098 38.5246 33.7254 39.1894 34.1534 40.0568C34.5814 40.9205 34.7955 41.9545 34.7955 43.1591C34.7955 44.3712 34.5795 45.4148 34.1477 46.2898C33.7159 47.161 33.0871 47.8314 32.2614 48.3011C31.4356 48.767 30.4318 49 29.25 49ZM27.0682 47.75H29.1591C30.1212 47.75 30.9186 47.5644 31.5511 47.1932C32.1837 46.822 32.6553 46.2936 32.9659 45.608C33.2765 44.9223 33.4318 44.1061 33.4318 43.1591C33.4318 42.2197 33.2784 41.411 32.9716 40.733C32.6648 40.0511 32.2064 39.5284 31.5966 39.1648C30.9867 38.7973 30.2273 38.6136 29.3182 38.6136H27.0682V47.75ZM40.6364 49.1818C39.7955 49.1818 39.0701 48.9962 38.4602 48.625C37.8542 48.25 37.3864 47.7273 37.0568 47.0568C36.7311 46.3826 36.5682 45.5985 36.5682 44.7045C36.5682 43.8106 36.7311 43.0227 37.0568 42.3409C37.3864 41.6553 37.8447 41.1212 38.4318 40.7386C39.0227 40.3523 39.7121 40.1591 40.5 40.1591C40.9545 40.1591 41.4034 40.2348 41.8466 40.3864C42.2898 40.5379 42.6932 40.7841 43.0568 41.125C43.4205 41.4621 43.7102 41.9091 43.9261 42.4659C44.142 43.0227 44.25 43.7083 44.25 44.5227V45.0909H37.5227V43.9318H42.8864C42.8864 43.4394 42.7879 43 42.5909 42.6136C42.3977 42.2273 42.1212 41.9223 41.7614 41.6989C41.4053 41.4754 40.9848 41.3636 40.5 41.3636C39.9659 41.3636 39.5038 41.4962 39.1136 41.7614C38.7273 42.0227 38.4299 42.3636 38.2216 42.7841C38.0133 43.2045 37.9091 43.6553 37.9091 44.1364V44.9091C37.9091 45.5682 38.0227 46.1269 38.25 46.5852C38.4811 47.0398 38.8011 47.3864 39.2102 47.625C39.6193 47.8598 40.0947 47.9773 40.6364 47.9773C40.9886 47.9773 41.3068 47.928 41.5909 47.8295C41.8788 47.7273 42.1269 47.5758 42.3352 47.375C42.5436 47.1705 42.7045 46.9167 42.8182 46.6136L44.1136 46.9773C43.9773 47.4167 43.7481 47.803 43.4261 48.1364C43.1042 48.4659 42.7064 48.7235 42.233 48.9091C41.7595 49.0909 41.2273 49.1818 40.6364 49.1818ZM53.1605 40.2727L49.9332 49H48.5696L45.3423 40.2727H46.7969L49.206 47.2273H49.2969L51.706 40.2727H53.1605ZM54.9304 49V40.2727H56.2713V49H54.9304ZM55.6122 38.8182C55.3509 38.8182 55.1255 38.7292 54.9361 38.5511C54.7505 38.3731 54.6577 38.1591 54.6577 37.9091C54.6577 37.6591 54.7505 37.4451 54.9361 37.267C55.1255 37.089 55.3509 37 55.6122 37C55.8736 37 56.0971 37.089 56.2827 37.267C56.4721 37.4451 56.5668 37.6591 56.5668 37.9091C56.5668 38.1591 56.4721 38.3731 56.2827 38.5511C56.0971 38.7292 55.8736 38.8182 55.6122 38.8182ZM62.2727 49.1818C61.4545 49.1818 60.75 48.9886 60.1591 48.6023C59.5682 48.2159 59.1136 47.6837 58.7955 47.0057C58.4773 46.3277 58.3182 45.553 58.3182 44.6818C58.3182 43.7955 58.4811 43.0133 58.8068 42.3352C59.1364 41.6534 59.5947 41.1212 60.1818 40.7386C60.7727 40.3523 61.4621 40.1591 62.25 40.1591C62.8636 40.1591 63.4167 40.2727 63.9091 40.5C64.4015 40.7273 64.8049 41.0455 65.1193 41.4545C65.4337 41.8636 65.6288 42.3409 65.7045 42.8864H64.3636C64.2614 42.4886 64.0341 42.1364 63.6818 41.8295C63.3333 41.5189 62.8636 41.3636 62.2727 41.3636C61.75 41.3636 61.2917 41.5 60.8977 41.7727C60.5076 42.0417 60.2027 42.4223 59.983 42.9148C59.767 43.4034 59.6591 43.9773 59.6591 44.6364C59.6591 45.3106 59.7652 45.8977 59.9773 46.3977C60.1932 46.8977 60.4962 47.286 60.8864 47.5625C61.2803 47.839 61.7424 47.9773 62.2727 47.9773C62.6212 47.9773 62.9375 47.9167 63.2216 47.7955C63.5057 47.6742 63.7462 47.5 63.9432 47.2727C64.1402 47.0455 64.2803 46.7727 64.3636 46.4545H65.7045C65.6288 46.9697 65.4413 47.4337 65.142 47.8466C64.8466 48.2557 64.4545 48.5814 63.9659 48.8239C63.4811 49.0625 62.9167 49.1818 62.2727 49.1818ZM71.3239 49.1818C70.483 49.1818 69.7576 48.9962 69.1477 48.625C68.5417 48.25 68.0739 47.7273 67.7443 47.0568C67.4186 46.3826 67.2557 45.5985 67.2557 44.7045C67.2557 43.8106 67.4186 43.0227 67.7443 42.3409C68.0739 41.6553 68.5322 41.1212 69.1193 40.7386C69.7102 40.3523 70.3996 40.1591 71.1875 40.1591C71.642 40.1591 72.0909 40.2348 72.5341 40.3864C72.9773 40.5379 73.3807 40.7841 73.7443 41.125C74.108 41.4621 74.3977 41.9091 74.6136 42.4659C74.8295 43.0227 74.9375 43.7083 74.9375 44.5227V45.0909H68.2102V43.9318H73.5739C73.5739 43.4394 73.4754 43 73.2784 42.6136C73.0852 42.2273 72.8087 41.9223 72.4489 41.6989C72.0928 41.4754 71.6723 41.3636 71.1875 41.3636C70.6534 41.3636 70.1913 41.4962 69.8011 41.7614C69.4148 42.0227 69.1174 42.3636 68.9091 42.7841C68.7008 43.2045 68.5966 43.6553 68.5966 44.1364V44.9091C68.5966 45.5682 68.7102 46.1269 68.9375 46.5852C69.1686 47.0398 69.4886 47.3864 69.8977 47.625C70.3068 47.8598 70.7822 47.9773 71.3239 47.9773C71.6761 47.9773 71.9943 47.928 72.2784 47.8295C72.5663 47.7273 72.8144 47.5758 73.0227 47.375C73.2311 47.1705 73.392 46.9167 73.5057 46.6136L74.8011 46.9773C74.6648 47.4167 74.4356 47.803 74.1136 48.1364C73.7917 48.4659 73.3939 48.7235 72.9205 48.9091C72.447 49.0909 71.9148 49.1818 71.3239 49.1818ZM88.0227 40.2727C87.9545 39.697 87.678 39.25 87.1932 38.9318C86.7083 38.6136 86.1136 38.4545 85.4091 38.4545C84.8939 38.4545 84.4432 38.5379 84.0568 38.7045C83.6742 38.8712 83.375 39.1004 83.1591 39.392C82.947 39.6837 82.8409 40.0152 82.8409 40.3864C82.8409 40.697 82.9148 40.964 83.0625 41.1875C83.214 41.4072 83.4072 41.5909 83.642 41.7386C83.8769 41.8826 84.1231 42.0019 84.3807 42.0966C84.6383 42.1875 84.875 42.2614 85.0909 42.3182L86.2727 42.6364C86.5758 42.7159 86.9129 42.8258 87.2841 42.9659C87.6591 43.1061 88.017 43.2973 88.358 43.5398C88.7027 43.7784 88.9867 44.0852 89.2102 44.4602C89.4337 44.8352 89.5455 45.2955 89.5455 45.8409C89.5455 46.4697 89.3807 47.0379 89.0511 47.5455C88.7254 48.053 88.2481 48.4564 87.6193 48.7557C86.9943 49.0549 86.2348 49.2045 85.3409 49.2045C84.5076 49.2045 83.786 49.0701 83.1761 48.8011C82.5701 48.5322 82.0928 48.1572 81.7443 47.6761C81.3996 47.1951 81.2045 46.6364 81.1591 46H82.6136C82.6515 46.4394 82.7992 46.803 83.0568 47.0909C83.3182 47.375 83.6477 47.5871 84.0455 47.7273C84.447 47.8636 84.8788 47.9318 85.3409 47.9318C85.8788 47.9318 86.3617 47.8447 86.7898 47.6705C87.2178 47.4924 87.5568 47.2462 87.8068 46.9318C88.0568 46.6136 88.1818 46.2424 88.1818 45.8182C88.1818 45.4318 88.0739 45.1174 87.858 44.875C87.642 44.6326 87.358 44.4356 87.0057 44.2841C86.6534 44.1326 86.2727 44 85.8636 43.8864L84.4318 43.4773C83.5227 43.2159 82.803 42.8428 82.2727 42.358C81.7424 41.8731 81.4773 41.2386 81.4773 40.4545C81.4773 39.803 81.6534 39.2348 82.0057 38.75C82.3617 38.2614 82.839 37.8826 83.4375 37.6136C84.0398 37.3409 84.7121 37.2045 85.4545 37.2045C86.2045 37.2045 86.8712 37.339 87.4545 37.608C88.0379 37.8731 88.5 38.2367 88.8409 38.6989C89.1856 39.161 89.3674 39.6856 89.3864 40.2727H88.0227ZM95.4759 40.2727V41.4091H90.9531V40.2727H95.4759ZM92.2713 38.1818H93.6122V46.5C93.6122 46.8788 93.6671 47.1629 93.777 47.3523C93.8906 47.5379 94.0346 47.6629 94.2088 47.7273C94.3868 47.7879 94.5743 47.8182 94.7713 47.8182C94.919 47.8182 95.0402 47.8106 95.1349 47.7955C95.2296 47.7765 95.3054 47.7614 95.3622 47.75L95.6349 48.9545C95.544 48.9886 95.4171 49.0227 95.2543 49.0568C95.0914 49.0947 94.8849 49.1136 94.6349 49.1136C94.2562 49.1136 93.8849 49.0322 93.5213 48.8693C93.1615 48.7064 92.8622 48.4583 92.6236 48.125C92.3887 47.7917 92.2713 47.3712 92.2713 46.8636V38.1818ZM100.061 49.2045C99.508 49.2045 99.0062 49.1004 98.5554 48.892C98.1046 48.6799 97.7467 48.375 97.4815 47.9773C97.2164 47.5758 97.0838 47.0909 97.0838 46.5227C97.0838 46.0227 97.1823 45.6174 97.3793 45.3068C97.5762 44.9924 97.8395 44.7462 98.169 44.5682C98.4986 44.3902 98.8622 44.2576 99.2599 44.1705C99.6615 44.0795 100.065 44.0076 100.47 43.9545C101 43.8864 101.43 43.8352 101.76 43.8011C102.093 43.7633 102.336 43.7008 102.487 43.6136C102.643 43.5265 102.72 43.375 102.72 43.1591V43.1136C102.72 42.553 102.567 42.1174 102.26 41.8068C101.957 41.4962 101.497 41.3409 100.879 41.3409C100.239 41.3409 99.7372 41.4811 99.3736 41.7614C99.0099 42.0417 98.7543 42.3409 98.6065 42.6591L97.3338 42.2045C97.5611 41.6742 97.8641 41.2614 98.2429 40.9659C98.6255 40.6667 99.0421 40.4583 99.4929 40.3409C99.9474 40.2197 100.394 40.1591 100.834 40.1591C101.114 40.1591 101.436 40.1932 101.8 40.2614C102.167 40.3258 102.521 40.4602 102.862 40.6648C103.207 40.8693 103.493 41.178 103.72 41.5909C103.947 42.0038 104.061 42.5568 104.061 43.25V49H102.72V47.8182H102.652C102.561 48.0076 102.41 48.2102 102.197 48.4261C101.985 48.642 101.703 48.8258 101.351 48.9773C100.999 49.1288 100.569 49.2045 100.061 49.2045ZM100.266 48C100.796 48 101.243 47.8958 101.607 47.6875C101.974 47.4792 102.25 47.2102 102.436 46.8807C102.625 46.5511 102.72 46.2045 102.72 45.8409V44.6136C102.663 44.6818 102.538 44.7443 102.345 44.8011C102.156 44.8542 101.936 44.9015 101.686 44.9432C101.44 44.9811 101.199 45.0152 100.964 45.0455C100.733 45.072 100.546 45.0947 100.402 45.1136C100.054 45.1591 99.7277 45.233 99.4247 45.3352C99.1255 45.4337 98.883 45.5833 98.6974 45.7841C98.5156 45.9811 98.4247 46.25 98.4247 46.5909C98.4247 47.0568 98.5971 47.4091 98.9418 47.6477C99.2902 47.8826 99.7315 48 100.266 48ZM110.304 40.2727V41.4091H105.781V40.2727H110.304ZM107.099 38.1818H108.44V46.5C108.44 46.8788 108.495 47.1629 108.605 47.3523C108.719 47.5379 108.863 47.6629 109.037 47.7273C109.215 47.7879 109.402 47.8182 109.599 47.8182C109.747 47.8182 109.868 47.8106 109.963 47.7955C110.058 47.7765 110.134 47.7614 110.19 47.75L110.463 48.9545C110.372 48.9886 110.245 49.0227 110.082 49.0568C109.92 49.0947 109.713 49.1136 109.463 49.1136C109.084 49.1136 108.713 49.0322 108.349 48.8693C107.99 48.7064 107.69 48.4583 107.452 48.125C107.217 47.7917 107.099 47.3712 107.099 46.8636V38.1818ZM117.821 45.4318V40.2727H119.162V49H117.821V47.5227H117.73C117.526 47.9659 117.207 48.3428 116.776 48.6534C116.344 48.9602 115.798 49.1136 115.139 49.1136C114.594 49.1136 114.109 48.9943 113.685 48.7557C113.26 48.5133 112.927 48.1496 112.685 47.6648C112.442 47.1761 112.321 46.5606 112.321 45.8182V40.2727H113.662V45.7273C113.662 46.3636 113.84 46.8712 114.196 47.25C114.556 47.6288 115.014 47.8182 115.571 47.8182C115.904 47.8182 116.243 47.733 116.588 47.5625C116.937 47.392 117.228 47.1307 117.463 46.7784C117.702 46.4261 117.821 45.9773 117.821 45.4318ZM127.8 42.2273L126.595 42.5682C126.519 42.3674 126.408 42.1723 126.26 41.983C126.116 41.7898 125.919 41.6307 125.669 41.5057C125.419 41.3807 125.099 41.3182 124.709 41.3182C124.175 41.3182 123.73 41.4413 123.374 41.6875C123.021 41.9299 122.845 42.2386 122.845 42.6136C122.845 42.947 122.966 43.2102 123.209 43.4034C123.451 43.5966 123.83 43.7576 124.345 43.8864L125.641 44.2045C126.421 44.3939 127.002 44.6837 127.385 45.0739C127.768 45.4602 127.959 45.9583 127.959 46.5682C127.959 47.0682 127.815 47.5152 127.527 47.9091C127.243 48.303 126.845 48.6136 126.334 48.8409C125.822 49.0682 125.228 49.1818 124.55 49.1818C123.66 49.1818 122.923 48.9886 122.339 48.6023C121.756 48.2159 121.387 47.6515 121.232 46.9091L122.504 46.5909C122.625 47.0606 122.855 47.4129 123.192 47.6477C123.533 47.8826 123.978 48 124.527 48C125.152 48 125.648 47.8674 126.016 47.6023C126.387 47.3333 126.572 47.0114 126.572 46.6364C126.572 46.3333 126.466 46.0795 126.254 45.875C126.042 45.6667 125.716 45.5114 125.277 45.4091L123.822 45.0682C123.023 44.8788 122.436 44.5852 122.061 44.1875C121.69 43.786 121.504 43.2841 121.504 42.6818C121.504 42.1894 121.643 41.7538 121.919 41.375C122.199 40.9962 122.58 40.6989 123.061 40.483C123.546 40.267 124.095 40.1591 124.709 40.1591C125.572 40.1591 126.25 40.3485 126.743 40.7273C127.239 41.1061 127.591 41.6061 127.8 42.2273Z" fill="black"/>
<path d="M48.1448 86.0909C48.1448 88.4418 47.7045 90.4553 46.8238 92.1314C45.9502 93.8004 44.757 95.0788 43.2442 95.9666C41.7385 96.8544 40.0305 97.2983 38.1199 97.2983C36.2094 97.2983 34.4978 96.8544 32.985 95.9666C31.4793 95.0717 30.2861 93.7898 29.4055 92.1207C28.5319 90.4446 28.0951 88.4347 28.0951 86.0909C28.0951 83.7401 28.5319 81.7301 29.4055 80.0611C30.2861 78.3849 31.4793 77.103 32.985 76.2152C34.4978 75.3274 36.2094 74.8835 38.1199 74.8835C40.0305 74.8835 41.7385 75.3274 43.2442 76.2152C44.757 77.103 45.9502 78.3849 46.8238 80.0611C47.7045 81.7301 48.1448 83.7401 48.1448 86.0909ZM44.1711 86.0909C44.1711 84.4361 43.9118 83.0405 43.3934 81.9041C42.882 80.7607 42.1718 79.8977 41.2627 79.3153C40.3536 78.7259 39.306 78.4311 38.1199 78.4311C36.9339 78.4311 35.8863 78.7259 34.9772 79.3153C34.0681 79.8977 33.3543 80.7607 32.8358 81.9041C32.3245 83.0405 32.0688 84.4361 32.0688 86.0909C32.0688 87.7457 32.3245 89.1449 32.8358 90.2884C33.3543 91.4247 34.0681 92.2876 34.9772 92.8771C35.8863 93.4595 36.9339 93.7507 38.1199 93.7507C39.306 93.7507 40.3536 93.4595 41.2627 92.8771C42.1718 92.2876 42.882 91.4247 43.3934 90.2884C43.9118 89.1449 44.1711 87.7457 44.1711 86.0909ZM55.5676 87.4119V97H51.711V80.6364H55.3971V83.4169H55.5889C55.9653 82.5007 56.5654 81.7727 57.3893 81.233C58.2203 80.6932 59.2465 80.4233 60.4681 80.4233C61.5974 80.4233 62.5811 80.6648 63.4191 81.1477C64.2643 81.6307 64.9177 82.3303 65.3794 83.2464C65.8481 84.1626 66.0789 85.2741 66.0718 86.581V97H62.2153V87.1776C62.2153 86.0838 61.9312 85.228 61.363 84.6101C60.8019 83.9922 60.0242 83.6832 59.0299 83.6832C58.3552 83.6832 57.7551 83.8324 57.2295 84.1307C56.711 84.4219 56.3026 84.8445 56.0044 85.3984C55.7132 85.9524 55.5676 86.6236 55.5676 87.4119ZM70.1627 97V75.1818H74.0193V83.3423H74.1791C74.3779 82.9446 74.6585 82.522 75.0207 82.0746C75.3829 81.62 75.873 81.233 76.4909 80.9134C77.1088 80.5866 77.8971 80.4233 78.8559 80.4233C80.1201 80.4233 81.26 80.7464 82.2757 81.3928C83.2984 82.032 84.108 82.9801 84.7046 84.2372C85.3083 85.4872 85.6102 87.0213 85.6102 88.8395C85.6102 90.6364 85.3154 92.1634 84.7259 93.4205C84.1365 94.6776 83.3339 95.6364 82.3183 96.2969C81.3026 96.9574 80.1521 97.2876 78.8666 97.2876C77.9291 97.2876 77.1514 97.1314 76.5335 96.8189C75.9156 96.5064 75.4184 96.13 75.042 95.6896C74.6727 95.2422 74.385 94.8196 74.1791 94.4219H73.9553V97H70.1627ZM73.9447 88.8182C73.9447 89.8764 74.0938 90.8033 74.3921 91.5987C74.6975 92.3942 75.1343 93.0156 75.7025 93.4631C76.2778 93.9034 76.9738 94.1236 77.7906 94.1236C78.6428 94.1236 79.3566 93.8963 79.9319 93.4418C80.5072 92.9801 80.9404 92.3516 81.2316 91.5561C81.5299 90.7536 81.6791 89.8409 81.6791 88.8182C81.6791 87.8026 81.5335 86.9006 81.2423 86.1122C80.9511 85.3239 80.5178 84.706 79.9426 84.2585C79.3673 83.8111 78.6499 83.5874 77.7906 83.5874C76.9667 83.5874 76.2671 83.804 75.6919 84.2372C75.1166 84.6705 74.6798 85.2777 74.3815 86.0589C74.0903 86.8402 73.9447 87.7599 73.9447 88.8182ZM96.0265 97.3196C94.4285 97.3196 93.0436 96.968 91.8717 96.2649C90.6998 95.5618 89.7907 94.5781 89.1444 93.3139C88.5052 92.0497 88.1856 90.5724 88.1856 88.8821C88.1856 87.1918 88.5052 85.7109 89.1444 84.4396C89.7907 83.1683 90.6998 82.1811 91.8717 81.478C93.0436 80.7749 94.4285 80.4233 96.0265 80.4233C97.6246 80.4233 99.0095 80.7749 100.181 81.478C101.353 82.1811 102.259 83.1683 102.898 84.4396C103.544 85.7109 103.867 87.1918 103.867 88.8821C103.867 90.5724 103.544 92.0497 102.898 93.3139C102.259 94.5781 101.353 95.5618 100.181 96.2649C99.0095 96.968 97.6246 97.3196 96.0265 97.3196ZM96.0479 94.2301C96.9143 94.2301 97.6388 93.9922 98.2211 93.5163C98.8035 93.0334 99.2368 92.3871 99.5209 91.5774C99.8121 90.7678 99.9577 89.8658 99.9577 88.8714C99.9577 87.87 99.8121 86.9645 99.5209 86.1548C99.2368 85.3381 98.8035 84.6882 98.2211 84.2053C97.6388 83.7223 96.9143 83.4808 96.0479 83.4808C95.1601 83.4808 94.4214 83.7223 93.8319 84.2053C93.2496 84.6882 92.8128 85.3381 92.5216 86.1548C92.2375 86.9645 92.0954 87.87 92.0954 88.8714C92.0954 89.8658 92.2375 90.7678 92.5216 91.5774C92.8128 92.3871 93.2496 93.0334 93.8319 93.5163C94.4214 93.9922 95.1601 94.2301 96.0479 94.2301ZM111.85 97.3303C110.813 97.3303 109.879 97.1456 109.048 96.7763C108.224 96.3999 107.57 95.8459 107.087 95.1143C106.612 94.3828 106.374 93.4808 106.374 92.4084C106.374 91.4851 106.544 90.7216 106.885 90.1179C107.226 89.5142 107.691 89.0312 108.281 88.669C108.87 88.3068 109.534 88.0334 110.273 87.8487C111.019 87.657 111.789 87.5185 112.585 87.4332C113.543 87.3338 114.321 87.245 114.918 87.1669C115.514 87.0817 115.948 86.9538 116.217 86.7834C116.494 86.6058 116.633 86.3324 116.633 85.9631V85.8991C116.633 85.0966 116.395 84.4751 115.919 84.0348C115.443 83.5945 114.758 83.3743 113.863 83.3743C112.918 83.3743 112.169 83.5803 111.615 83.9922C111.068 84.4041 110.699 84.8906 110.507 85.4517L106.906 84.9403C107.19 83.946 107.659 83.1151 108.313 82.4474C108.966 81.7727 109.765 81.2685 110.71 80.9347C111.654 80.5938 112.698 80.4233 113.842 80.4233C114.63 80.4233 115.415 80.5156 116.196 80.7003C116.977 80.8849 117.691 81.1903 118.337 81.6165C118.984 82.0355 119.502 82.6072 119.893 83.3317C120.291 84.0561 120.489 84.9616 120.489 86.0483V97H116.782V94.7521H116.654C116.42 95.2067 116.09 95.6328 115.663 96.0305C115.244 96.4212 114.715 96.7372 114.076 96.9787C113.444 97.2131 112.702 97.3303 111.85 97.3303ZM112.851 94.4964C113.625 94.4964 114.296 94.3437 114.864 94.0384C115.433 93.7259 115.869 93.3139 116.175 92.8026C116.487 92.2912 116.644 91.7337 116.644 91.13V89.2017C116.523 89.3011 116.317 89.3935 116.026 89.4787C115.742 89.5639 115.422 89.6385 115.067 89.7024C114.712 89.7663 114.36 89.8232 114.012 89.8729C113.664 89.9226 113.362 89.9652 113.107 90.0007C112.531 90.0788 112.016 90.2067 111.562 90.3842C111.107 90.5618 110.749 90.8104 110.486 91.13C110.223 91.4425 110.092 91.8473 110.092 92.3445C110.092 93.0547 110.351 93.5909 110.869 93.9531C111.388 94.3153 112.048 94.4964 112.851 94.4964ZM124.367 97V80.6364H128.107V83.3636H128.277C128.575 82.419 129.087 81.6911 129.811 81.1797C130.543 80.6612 131.377 80.402 132.315 80.402C132.528 80.402 132.766 80.4126 133.028 80.4339C133.298 80.4482 133.522 80.473 133.7 80.5085V84.0561C133.536 83.9993 133.277 83.9496 132.922 83.907C132.574 83.8572 132.237 83.8324 131.91 83.8324C131.207 83.8324 130.575 83.9851 130.014 84.2905C129.46 84.5888 129.023 85.0043 128.703 85.5369C128.384 86.0696 128.224 86.6839 128.224 87.38V97H124.367ZM141.66 97.2876C140.375 97.2876 139.224 96.9574 138.209 96.2969C137.193 95.6364 136.391 94.6776 135.801 93.4205C135.212 92.1634 134.917 90.6364 134.917 88.8395C134.917 87.0213 135.215 85.4872 135.812 84.2372C136.415 82.9801 137.229 82.032 138.251 81.3928C139.274 80.7464 140.414 80.4233 141.671 80.4233C142.63 80.4233 143.418 80.5866 144.036 80.9134C144.654 81.233 145.144 81.62 145.506 82.0746C145.869 82.522 146.149 82.9446 146.348 83.3423H146.508V75.1818H150.375V97H146.582V94.4219H146.348C146.149 94.8196 145.861 95.2422 145.485 95.6896C145.109 96.13 144.611 96.5064 143.994 96.8189C143.376 97.1314 142.598 97.2876 141.66 97.2876ZM142.736 94.1236C143.553 94.1236 144.249 93.9034 144.824 93.4631C145.4 93.0156 145.837 92.3942 146.135 91.5987C146.433 90.8033 146.582 89.8764 146.582 88.8182C146.582 87.7599 146.433 86.8402 146.135 86.0589C145.844 85.2777 145.41 84.6705 144.835 84.2372C144.267 83.804 143.567 83.5874 142.736 83.5874C141.877 83.5874 141.16 83.8111 140.584 84.2585C140.009 84.706 139.576 85.3239 139.285 86.1122C138.994 86.9006 138.848 87.8026 138.848 88.8182C138.848 89.8409 138.994 90.7536 139.285 91.5561C139.583 92.3516 140.02 92.9801 140.595 93.4418C141.177 93.8963 141.891 94.1236 142.736 94.1236Z" fill="black"/>
<circle cx="277" cy="70" r="46" stroke="#EFEFEF" stroke-width="8"/>
<mask id="path-5-inside-1_0_1" fill="white">
<path d="M237.251 100.332C242.415 107.099 249.222 112.436 257.026 115.837C264.83 119.238 273.373 120.59 281.846 119.765C290.319 118.939 298.441 115.965 305.442 111.122C312.444 106.28 318.093 99.7295 321.854 92.0927C325.616 84.4559 327.365 75.9851 326.937 67.483C326.508 58.9808 323.916 50.7289 319.405 43.509C314.895 36.2891 308.616 30.3403 301.163 26.2263C293.71 22.1123 285.331 19.9693 276.818 20.0003L276.846 27.6281C284.06 27.6018 291.161 29.4179 297.477 32.9043C303.793 36.3907 309.114 41.4319 312.936 47.5504C316.758 53.6688 318.955 60.6619 319.318 67.8669C319.682 75.072 318.199 82.2505 315.011 88.7223C311.824 95.1941 307.037 100.745 301.103 104.849C295.17 108.952 288.287 111.473 281.107 112.173C273.927 112.872 266.687 111.726 260.073 108.844C253.46 105.962 247.691 101.44 243.315 95.7044L237.251 100.332Z"/>
</mask>
<path d="M237.251 100.332C242.415 107.099 249.222 112.436 257.026 115.837C264.83 119.238 273.373 120.59 281.846 119.765C290.319 118.939 298.441 115.965 305.442 111.122C312.444 106.28 318.093 99.7295 321.854 92.0927C325.616 84.4559 327.365 75.9851 326.937 67.483C326.508 58.9808 323.916 50.7289 319.405 43.509C314.895 36.2891 308.616 30.3403 301.163 26.2263C293.71 22.1123 285.331 19.9693 276.818 20.0003L276.846 27.6281C284.06 27.6018 291.161 29.4179 297.477 32.9043C303.793 36.3907 309.114 41.4319 312.936 47.5504C316.758 53.6688 318.955 60.6619 319.318 67.8669C319.682 75.072 318.199 82.2505 315.011 88.7223C311.824 95.1941 307.037 100.745 301.103 104.849C295.17 108.952 288.287 111.473 281.107 112.173C273.927 112.872 266.687 111.726 260.073 108.844C253.46 105.962 247.691 101.44 243.315 95.7044L237.251 100.332Z" stroke="#A3DC2F" stroke-width="12" stroke-linejoin="bevel" mask="url(#path-5-inside-1_0_1)"/>
<path d="M265.411 75.1591C264.596 75.1591 263.876 75.0189 263.251 74.7386C262.63 74.4583 262.143 74.072 261.791 73.5795C261.439 73.0871 261.265 72.5265 261.268 71.8977C261.265 71.4053 261.365 70.9527 261.57 70.5398C261.778 70.1231 262.06 69.7765 262.416 69.5C262.772 69.2197 263.17 69.0417 263.609 68.9659V68.8977C263.03 68.7576 262.566 68.447 262.217 67.9659C261.869 67.4848 261.696 66.9318 261.7 66.3068C261.696 65.7121 261.854 65.1818 262.172 64.7159C262.494 64.2462 262.935 63.8769 263.496 63.608C264.056 63.339 264.695 63.2045 265.411 63.2045C266.119 63.2045 266.751 63.3409 267.308 63.6136C267.869 63.8826 268.31 64.2519 268.632 64.7216C268.954 65.1875 269.117 65.7159 269.121 66.3068C269.117 66.9318 268.939 67.4848 268.587 67.9659C268.234 68.447 267.776 68.7576 267.212 68.8977V68.9659C267.647 69.0417 268.039 69.2197 268.388 69.5C268.74 69.7765 269.02 70.1231 269.229 70.5398C269.441 70.9527 269.549 71.4053 269.553 71.8977C269.549 72.5265 269.371 73.0871 269.018 73.5795C268.666 74.072 268.178 74.4583 267.553 74.7386C266.931 75.0189 266.217 75.1591 265.411 75.1591ZM265.411 73.7216C265.892 73.7216 266.308 73.642 266.661 73.483C267.013 73.3201 267.286 73.0947 267.479 72.8068C267.672 72.5152 267.77 72.1742 267.774 71.7841C267.77 71.3788 267.664 71.0208 267.456 70.7102C267.251 70.3996 266.973 70.1553 266.621 69.9773C266.268 69.7992 265.865 69.7102 265.411 69.7102C264.952 69.7102 264.545 69.7992 264.189 69.9773C263.833 70.1553 263.553 70.3996 263.348 70.7102C263.143 71.0208 263.043 71.3788 263.047 71.7841C263.043 72.1742 263.136 72.5152 263.325 72.8068C263.518 73.0947 263.793 73.3201 264.149 73.483C264.505 73.642 264.926 73.7216 265.411 73.7216ZM265.411 68.3068C265.797 68.3068 266.14 68.2292 266.439 68.0739C266.738 67.9186 266.973 67.7027 267.143 67.4261C267.318 67.1496 267.407 66.8258 267.411 66.4545C267.407 66.0909 267.32 65.7727 267.149 65.5C266.982 65.2273 266.75 65.017 266.45 64.8693C266.151 64.7178 265.804 64.642 265.411 64.642C265.009 64.642 264.657 64.7178 264.354 64.8693C264.054 65.017 263.821 65.2273 263.655 65.5C263.488 65.7727 263.407 66.0909 263.411 66.4545C263.407 66.8258 263.49 67.1496 263.661 67.4261C263.831 67.7027 264.066 67.9186 264.365 68.0739C264.668 68.2292 265.017 68.3068 265.411 68.3068ZM275.429 75.1591C274.717 75.1591 274.077 75.0227 273.509 74.75C272.944 74.4735 272.493 74.0947 272.156 73.6136C271.819 73.1326 271.639 72.5833 271.616 71.9659H273.321C273.363 72.4659 273.584 72.8769 273.986 73.1989C274.387 73.5208 274.868 73.6818 275.429 73.6818C275.876 73.6818 276.272 73.5795 276.616 73.375C276.965 73.1667 277.238 72.8807 277.435 72.517C277.635 72.1534 277.736 71.7386 277.736 71.2727C277.736 70.7992 277.634 70.3769 277.429 70.0057C277.224 69.6345 276.942 69.3428 276.582 69.1307C276.226 68.9186 275.817 68.8106 275.355 68.8068C275.003 68.8068 274.649 68.8674 274.293 68.9886C273.937 69.1098 273.649 69.2689 273.429 69.4659L271.821 69.2273L272.474 63.3636H278.872V64.8693H273.935L273.565 68.125H273.634C273.861 67.9053 274.162 67.7216 274.537 67.5739C274.916 67.4261 275.321 67.3523 275.753 67.3523C276.461 67.3523 277.092 67.5208 277.645 67.858C278.202 68.1951 278.639 68.6553 278.957 69.2386C279.279 69.8182 279.438 70.4848 279.435 71.2386C279.438 71.9924 279.268 72.6648 278.923 73.2557C278.582 73.8466 278.109 74.3125 277.503 74.6534C276.901 74.9905 276.209 75.1591 275.429 75.1591ZM287.584 72.8182V72.2045C287.584 71.7652 287.675 71.3636 287.857 71C288.042 70.6326 288.311 70.339 288.663 70.1193C289.019 69.8958 289.449 69.7841 289.953 69.7841C290.468 69.7841 290.9 69.8939 291.249 70.1136C291.597 70.3333 291.86 70.6269 292.038 70.9943C292.22 71.3617 292.311 71.7652 292.311 72.2045V72.8182C292.311 73.2576 292.22 73.661 292.038 74.0284C291.857 74.392 291.589 74.6856 291.237 74.9091C290.889 75.1288 290.461 75.2386 289.953 75.2386C289.442 75.2386 289.01 75.1288 288.658 74.9091C288.305 74.6856 288.038 74.392 287.857 74.0284C287.675 73.661 287.584 73.2576 287.584 72.8182ZM288.908 72.2045V72.8182C288.908 73.1439 288.985 73.4394 289.141 73.7045C289.296 73.9697 289.567 74.1023 289.953 74.1023C290.336 74.1023 290.603 73.9697 290.754 73.7045C290.906 73.4394 290.982 73.1439 290.982 72.8182V72.2045C290.982 71.8788 290.908 71.5833 290.76 71.3182C290.616 71.053 290.347 70.9205 289.953 70.9205C289.574 70.9205 289.305 71.053 289.146 71.3182C288.987 71.5833 288.908 71.8788 288.908 72.2045ZM281.732 66.1591V65.5455C281.732 65.1061 281.822 64.7027 282.004 64.3352C282.19 63.9678 282.459 63.6742 282.811 63.4545C283.167 63.2348 283.597 63.125 284.101 63.125C284.616 63.125 285.048 63.2348 285.396 63.4545C285.745 63.6742 286.008 63.9678 286.186 64.3352C286.364 64.7027 286.453 65.1061 286.453 65.5455V66.1591C286.453 66.5985 286.362 67.0019 286.18 67.3693C286.002 67.733 285.737 68.0265 285.385 68.25C285.036 68.4697 284.608 68.5795 284.101 68.5795C283.586 68.5795 283.152 68.4697 282.8 68.25C282.451 68.0265 282.186 67.733 282.004 67.3693C281.822 67.0019 281.732 66.5985 281.732 66.1591ZM283.061 65.5455V66.1591C283.061 66.4848 283.137 66.7803 283.288 67.0455C283.444 67.3106 283.714 67.4432 284.101 67.4432C284.48 67.4432 284.745 67.3106 284.896 67.0455C285.052 66.7803 285.129 66.4848 285.129 66.1591V65.5455C285.129 65.2197 285.055 64.9242 284.908 64.6591C284.76 64.3939 284.491 64.2614 284.101 64.2614C283.722 64.2614 283.453 64.3939 283.294 64.6591C283.139 64.9242 283.061 65.2197 283.061 65.5455ZM282.271 75L290.271 63.3636H291.629L283.629 75H282.271Z" fill="black"/>
</svg>
