<svg width="346" height="349" viewBox="0 0 346 349" fill="none" xmlns="http://www.w3.org/2000/svg">
<rect width="346" height="349" rx="16" fill="white"/>
<path d="M33.3111 59.1662H31.3168C31.2401 58.7401 31.0973 58.3651 30.8885 58.0412C30.6797 57.7173 30.424 57.4425 30.1214 57.2166C29.8189 56.9908 29.4801 56.8203 29.1051 56.7053C28.7344 56.5902 28.3402 56.5327 27.9226 56.5327C27.1683 56.5327 26.4929 56.7223 25.8963 57.1016C25.304 57.4808 24.8352 58.0369 24.4901 58.7699C24.1491 59.5028 23.9787 60.3977 23.9787 61.4545C23.9787 62.5199 24.1491 63.419 24.4901 64.152C24.8352 64.8849 25.3061 65.4389 25.9027 65.8139C26.4993 66.1889 27.1705 66.3764 27.9162 66.3764C28.3295 66.3764 28.7216 66.321 29.0923 66.2102C29.4673 66.0952 29.8061 65.9268 30.1087 65.7053C30.4112 65.4837 30.6669 65.2131 30.8757 64.8935C31.0888 64.5696 31.2358 64.1989 31.3168 63.7812L33.3111 63.7876C33.2045 64.4311 32.9979 65.0234 32.6911 65.5646C32.3885 66.1016 31.9986 66.5661 31.5213 66.9581C31.0483 67.3459 30.5071 67.6463 29.8977 67.8594C29.2884 68.0724 28.6236 68.179 27.9034 68.179C26.7699 68.179 25.7599 67.9105 24.8736 67.3736C23.9872 66.8324 23.2884 66.0589 22.777 65.0533C22.2699 64.0476 22.0163 62.848 22.0163 61.4545C22.0163 60.0568 22.272 58.8572 22.7834 57.8558C23.2947 56.8501 23.9936 56.0788 24.88 55.5419C25.7663 55.0007 26.7741 54.7301 27.9034 54.7301C28.598 54.7301 29.2457 54.8303 29.8466 55.0305C30.4517 55.2266 30.995 55.5163 31.4766 55.8999C31.9581 56.2791 32.3565 56.7436 32.6719 57.2933C32.9872 57.8388 33.2003 58.4631 33.3111 59.1662ZM39.6568 68.1982C38.7363 68.1982 37.9331 67.9872 37.247 67.5653C36.5609 67.1435 36.0282 66.5533 35.649 65.7947C35.2697 65.0362 35.0801 64.1499 35.0801 63.1357C35.0801 62.1172 35.2697 61.2266 35.649 60.4638C36.0282 59.701 36.5609 59.1087 37.247 58.6868C37.9331 58.2649 38.7363 58.054 39.6568 58.054C40.5772 58.054 41.3805 58.2649 42.0666 58.6868C42.7527 59.1087 43.2853 59.701 43.6646 60.4638C44.0439 61.2266 44.2335 62.1172 44.2335 63.1357C44.2335 64.1499 44.0439 65.0362 43.6646 65.7947C43.2853 66.5533 42.7527 67.1435 42.0666 67.5653C41.3805 67.9872 40.5772 68.1982 39.6568 68.1982ZM39.6632 66.5938C40.2598 66.5938 40.7541 66.4361 41.1461 66.1207C41.5382 65.8054 41.8279 65.3857 42.0154 64.8615C42.2072 64.3374 42.3031 63.7599 42.3031 63.1293C42.3031 62.5028 42.2072 61.9276 42.0154 61.4034C41.8279 60.875 41.5382 60.451 41.1461 60.1314C40.7541 59.8118 40.2598 59.652 39.6632 59.652C39.0623 59.652 38.5637 59.8118 38.1674 60.1314C37.7754 60.451 37.4835 60.875 37.2917 61.4034C37.1042 61.9276 37.0105 62.5028 37.0105 63.1293C37.0105 63.7599 37.1042 64.3374 37.2917 64.8615C37.4835 65.3857 37.7754 65.8054 38.1674 66.1207C38.5637 66.4361 39.0623 66.5938 39.6632 66.5938ZM46.3413 68V66.5682L50.771 61.9787C51.244 61.4801 51.6339 61.0433 51.9407 60.6683C52.2518 60.2891 52.484 59.929 52.6374 59.5881C52.7908 59.2472 52.8675 58.8849 52.8675 58.5014C52.8675 58.0668 52.7653 57.6918 52.5607 57.3764C52.3562 57.0568 52.0771 56.8118 51.7234 56.6413C51.3697 56.4666 50.9712 56.3793 50.5281 56.3793C50.0593 56.3793 49.6502 56.4751 49.3008 56.6669C48.9513 56.8587 48.6829 57.1293 48.4954 57.4787C48.3079 57.8281 48.2141 58.2372 48.2141 58.706H46.3285C46.3285 57.9091 46.5117 57.2124 46.8782 56.6158C47.2447 56.0192 47.7475 55.5568 48.3867 55.2287C49.0259 54.8963 49.7525 54.7301 50.5664 54.7301C51.3888 54.7301 52.1133 54.8942 52.7397 55.2223C53.3704 55.5462 53.8626 55.9893 54.2163 56.5518C54.57 57.1101 54.7468 57.7408 54.7468 58.4439C54.7468 58.9297 54.6552 59.4048 54.4719 59.8693C54.293 60.3338 53.9798 60.8516 53.5323 61.4226C53.0849 61.9893 52.4627 62.6776 51.6658 63.4872L49.0643 66.2102V66.3061H54.9577V68H46.3413ZM62.323 68V54.9091H70.5304V56.6094H64.2981V60.598H70.1021V62.2919H64.2981V66.2997H70.6071V68H62.323ZM73.0153 68V58.1818H74.8498V59.7798H74.9712C75.1758 59.2386 75.5103 58.8168 75.9748 58.5142C76.4393 58.2074 76.9954 58.054 77.6431 58.054C78.2994 58.054 78.8491 58.2074 79.2923 58.5142C79.7397 58.821 80.07 59.2429 80.283 59.7798H80.3853C80.6197 59.2557 80.9925 58.8381 81.5039 58.527C82.0153 58.2116 82.6246 58.054 83.332 58.054C84.2227 58.054 84.9492 58.3331 85.5117 58.8913C86.0785 59.4496 86.3619 60.2912 86.3619 61.4162V68H84.4506V61.5952C84.4506 60.9304 84.2695 60.4489 83.9073 60.1506C83.5451 59.8523 83.1126 59.7031 82.6097 59.7031C81.9876 59.7031 81.5039 59.8949 81.1587 60.2784C80.8136 60.6577 80.641 61.1456 80.641 61.7422V68H78.7362V61.4737C78.7362 60.9411 78.57 60.5128 78.2376 60.1889C77.9052 59.8651 77.4727 59.7031 76.94 59.7031C76.5778 59.7031 76.2433 59.799 75.9364 59.9908C75.6339 60.1783 75.3888 60.4403 75.2013 60.777C75.0181 61.1136 74.9265 61.5036 74.9265 61.9467V68H73.0153ZM88.9235 68V58.1818H90.8347V68H88.9235ZM89.8887 56.6669C89.5563 56.6669 89.2708 56.5561 89.0321 56.3345C88.7978 56.1087 88.6806 55.8402 88.6806 55.5291C88.6806 55.2138 88.7978 54.9453 89.0321 54.7237C89.2708 54.4979 89.5563 54.3849 89.8887 54.3849C90.2211 54.3849 90.5044 54.4979 90.7388 54.7237C90.9775 54.9453 91.0968 55.2138 91.0968 55.5291C91.0968 55.8402 90.9775 56.1087 90.7388 56.3345C90.5044 56.5561 90.2211 56.6669 89.8887 56.6669ZM100.763 60.5788L99.0309 60.8857C98.9585 60.6641 98.8434 60.4531 98.6857 60.2528C98.5323 60.0526 98.3235 59.8885 98.0593 59.7607C97.7951 59.6328 97.4648 59.5689 97.0685 59.5689C96.5273 59.5689 96.0756 59.6903 95.7134 59.9332C95.3512 60.1719 95.1701 60.4808 95.1701 60.8601C95.1701 61.1882 95.2915 61.4524 95.5344 61.6527C95.7773 61.853 96.1694 62.017 96.7106 62.1449L98.2702 62.5028C99.1737 62.7116 99.8469 63.0334 100.29 63.468C100.733 63.9027 100.955 64.4673 100.955 65.1619C100.955 65.75 100.784 66.2741 100.444 66.7344C100.107 67.1903 99.636 67.5483 99.0309 67.8082C98.43 68.0682 97.7333 68.1982 96.9407 68.1982C95.8413 68.1982 94.9442 67.9638 94.2496 67.495C93.555 67.022 93.1289 66.3509 92.9712 65.4815L94.8185 65.2003C94.9336 65.6818 95.1701 66.0462 95.5281 66.2933C95.886 66.5362 96.3526 66.6577 96.9279 66.6577C97.5543 66.6577 98.055 66.5277 98.43 66.2678C98.805 66.0036 98.9925 65.6818 98.9925 65.3026C98.9925 64.9957 98.8775 64.7379 98.6474 64.5291C98.4215 64.3203 98.0742 64.1626 97.6055 64.0561L95.9435 63.6918C95.0273 63.483 94.3498 63.1506 93.9109 62.6946C93.4762 62.2386 93.2589 61.6612 93.2589 60.9624C93.2589 60.3828 93.4208 59.8757 93.7447 59.4411C94.0685 59.0064 94.516 58.6676 95.087 58.4247C95.658 58.1776 96.3121 58.054 97.0494 58.054C98.1104 58.054 98.9457 58.2841 99.555 58.7443C100.164 59.2003 100.567 59.8118 100.763 60.5788ZM110.414 60.5788L108.681 60.8857C108.609 60.6641 108.494 60.4531 108.336 60.2528C108.183 60.0526 107.974 59.8885 107.71 59.7607C107.445 59.6328 107.115 59.5689 106.719 59.5689C106.178 59.5689 105.726 59.6903 105.364 59.9332C105.002 60.1719 104.82 60.4808 104.82 60.8601C104.82 61.1882 104.942 61.4524 105.185 61.6527C105.428 61.853 105.82 62.017 106.361 62.1449L107.921 62.5028C108.824 62.7116 109.497 63.0334 109.941 63.468C110.384 63.9027 110.605 64.4673 110.605 65.1619C110.605 65.75 110.435 66.2741 110.094 66.7344C109.757 67.1903 109.286 67.5483 108.681 67.8082C108.08 68.0682 107.384 68.1982 106.591 68.1982C105.492 68.1982 104.595 67.9638 103.9 67.495C103.205 67.022 102.779 66.3509 102.622 65.4815L104.469 65.2003C104.584 65.6818 104.82 66.0462 105.178 66.2933C105.536 66.5362 106.003 66.6577 106.578 66.6577C107.205 66.6577 107.705 66.5277 108.08 66.2678C108.455 66.0036 108.643 65.6818 108.643 65.3026C108.643 64.9957 108.528 64.7379 108.298 64.5291C108.072 64.3203 107.725 64.1626 107.256 64.0561L105.594 63.6918C104.678 63.483 104 63.1506 103.561 62.6946C103.127 62.2386 102.909 61.6612 102.909 60.9624C102.909 60.3828 103.071 59.8757 103.395 59.4411C103.719 59.0064 104.166 58.6676 104.737 58.4247C105.308 58.1776 105.963 58.054 106.7 58.054C107.761 58.054 108.596 58.2841 109.205 58.7443C109.815 59.2003 110.218 59.8118 110.414 60.5788ZM112.707 68V58.1818H114.618V68H112.707ZM113.672 56.6669C113.339 56.6669 113.054 56.5561 112.815 56.3345C112.581 56.1087 112.464 55.8402 112.464 55.5291C112.464 55.2138 112.581 54.9453 112.815 54.7237C113.054 54.4979 113.339 54.3849 113.672 54.3849C114.004 54.3849 114.288 54.4979 114.522 54.7237C114.761 54.9453 114.88 55.2138 114.88 55.5291C114.88 55.8402 114.761 56.1087 114.522 56.3345C114.288 56.5561 114.004 56.6669 113.672 56.6669ZM121.325 68.1982C120.404 68.1982 119.601 67.9872 118.915 67.5653C118.229 67.1435 117.696 66.5533 117.317 65.7947C116.938 65.0362 116.748 64.1499 116.748 63.1357C116.748 62.1172 116.938 61.2266 117.317 60.4638C117.696 59.701 118.229 59.1087 118.915 58.6868C119.601 58.2649 120.404 58.054 121.325 58.054C122.245 58.054 123.048 58.2649 123.735 58.6868C124.421 59.1087 124.953 59.701 125.333 60.4638C125.712 61.2266 125.901 62.1172 125.901 63.1357C125.901 64.1499 125.712 65.0362 125.333 65.7947C124.953 66.5533 124.421 67.1435 123.735 67.5653C123.048 67.9872 122.245 68.1982 121.325 68.1982ZM121.331 66.5938C121.928 66.5938 122.422 66.4361 122.814 66.1207C123.206 65.8054 123.496 65.3857 123.683 64.8615C123.875 64.3374 123.971 63.7599 123.971 63.1293C123.971 62.5028 123.875 61.9276 123.683 61.4034C123.496 60.875 123.206 60.451 122.814 60.1314C122.422 59.8118 121.928 59.652 121.331 59.652C120.73 59.652 120.232 59.8118 119.835 60.1314C119.443 60.451 119.151 60.875 118.96 61.4034C118.772 61.9276 118.678 62.5028 118.678 63.1293C118.678 63.7599 118.772 64.3374 118.96 64.8615C119.151 65.3857 119.443 65.8054 119.835 66.1207C120.232 66.4361 120.73 66.5938 121.331 66.5938ZM129.946 62.1705V68H128.035V58.1818H129.869V59.7798H129.991C130.217 59.2599 130.57 58.8423 131.052 58.527C131.538 58.2116 132.149 58.054 132.886 58.054C133.555 58.054 134.141 58.1946 134.644 58.4759C135.147 58.7528 135.537 59.1662 135.814 59.7159C136.091 60.2656 136.229 60.9453 136.229 61.755V68H134.318V61.9851C134.318 61.2734 134.133 60.7173 133.762 60.3168C133.391 59.9119 132.882 59.7095 132.234 59.7095C131.791 59.7095 131.397 59.8054 131.052 59.9972C130.711 60.1889 130.44 60.4702 130.24 60.8409C130.044 61.2074 129.946 61.6506 129.946 62.1705ZM147.948 68H143.71V54.9091H148.082C149.365 54.9091 150.466 55.1712 151.387 55.6953C152.307 56.2152 153.012 56.9631 153.502 57.9389C153.997 58.9105 154.244 60.076 154.244 61.4354C154.244 62.799 153.994 63.9709 153.496 64.951C153.002 65.9311 152.286 66.6854 151.348 67.2138C150.411 67.7379 149.277 68 147.948 68ZM145.685 66.2741H147.839C148.836 66.2741 149.665 66.0866 150.325 65.7116C150.986 65.3324 151.48 64.7848 151.808 64.0689C152.137 63.3487 152.301 62.4709 152.301 61.4354C152.301 60.4084 152.137 59.5369 151.808 58.821C151.485 58.1051 151.001 57.5618 150.357 57.1911C149.714 56.8203 148.915 56.6349 147.96 56.6349H145.685V66.2741ZM160.778 68.1982C159.811 68.1982 158.978 67.9915 158.279 67.5781C157.584 67.1605 157.047 66.5746 156.668 65.8203C156.293 65.0618 156.105 64.1733 156.105 63.1548C156.105 62.1491 156.293 61.2628 156.668 60.4957C157.047 59.7287 157.576 59.13 158.253 58.6996C158.935 58.2692 159.732 58.054 160.644 58.054C161.198 58.054 161.735 58.1456 162.255 58.3288C162.775 58.5121 163.241 58.7997 163.654 59.1918C164.068 59.5838 164.394 60.093 164.632 60.7195C164.871 61.3416 164.99 62.098 164.99 62.9886V63.6662H157.186V62.2344H163.118C163.118 61.7315 163.015 61.2862 162.811 60.8984C162.606 60.5064 162.319 60.1974 161.948 59.9716C161.581 59.7457 161.151 59.6328 160.657 59.6328C160.12 59.6328 159.651 59.7649 159.25 60.0291C158.854 60.2891 158.547 60.63 158.33 61.0518C158.117 61.4695 158.01 61.9233 158.01 62.4134V63.532C158.01 64.1882 158.125 64.7464 158.355 65.2067C158.59 65.6669 158.916 66.0185 159.333 66.2614C159.751 66.5 160.239 66.6193 160.797 66.6193C161.159 66.6193 161.49 66.5682 161.788 66.4659C162.086 66.3594 162.344 66.2017 162.561 65.9929C162.779 65.7841 162.945 65.5263 163.06 65.2195L164.869 65.5455C164.724 66.0781 164.464 66.5447 164.089 66.9453C163.718 67.3416 163.252 67.6506 162.689 67.8722C162.131 68.0895 161.494 68.1982 160.778 68.1982ZM175.229 58.1818L171.669 68H169.623L166.056 58.1818H168.108L170.595 65.7372H170.697L173.177 58.1818H175.229ZM177.025 68V58.1818H178.936V68H177.025ZM177.99 56.6669C177.658 56.6669 177.372 56.5561 177.134 56.3345C176.899 56.1087 176.782 55.8402 176.782 55.5291C176.782 55.2138 176.899 54.9453 177.134 54.7237C177.372 54.4979 177.658 54.3849 177.99 54.3849C178.323 54.3849 178.606 54.4979 178.84 54.7237C179.079 54.9453 179.198 55.2138 179.198 55.5291C179.198 55.8402 179.079 56.1087 178.84 56.3345C178.606 56.5561 178.323 56.6669 177.99 56.6669ZM185.643 68.1982C184.693 68.1982 183.875 67.983 183.189 67.5526C182.507 67.1179 181.983 66.5192 181.616 65.7564C181.25 64.9936 181.066 64.12 181.066 63.1357C181.066 62.1385 181.254 61.2585 181.629 60.4957C182.004 59.7287 182.532 59.13 183.214 58.6996C183.896 58.2692 184.699 58.054 185.624 58.054C186.37 58.054 187.034 58.1925 187.618 58.4695C188.202 58.7422 188.673 59.1257 189.031 59.62C189.393 60.1143 189.608 60.6918 189.676 61.3523H187.816C187.714 60.892 187.48 60.4957 187.113 60.1634C186.751 59.831 186.265 59.6648 185.656 59.6648C185.123 59.6648 184.657 59.8054 184.256 60.0866C183.86 60.3636 183.551 60.7599 183.329 61.2756C183.108 61.7869 182.997 62.392 182.997 63.0909C182.997 63.8068 183.105 64.4247 183.323 64.9446C183.54 65.4645 183.847 65.8672 184.243 66.1527C184.644 66.4382 185.115 66.581 185.656 66.581C186.018 66.581 186.346 66.5149 186.64 66.3828C186.939 66.2464 187.188 66.0526 187.388 65.8011C187.593 65.5497 187.735 65.2472 187.816 64.8935H189.676C189.608 65.5284 189.402 66.0952 189.056 66.5938C188.711 67.0923 188.249 67.4844 187.669 67.7699C187.094 68.0554 186.419 68.1982 185.643 68.1982ZM195.952 68.1982C194.985 68.1982 194.151 67.9915 193.453 67.5781C192.758 67.1605 192.221 66.5746 191.842 65.8203C191.467 65.0618 191.279 64.1733 191.279 63.1548C191.279 62.1491 191.467 61.2628 191.842 60.4957C192.221 59.7287 192.749 59.13 193.427 58.6996C194.109 58.2692 194.906 58.054 195.818 58.054C196.372 58.054 196.909 58.1456 197.428 58.3288C197.948 58.5121 198.415 58.7997 198.828 59.1918C199.242 59.5838 199.568 60.093 199.806 60.7195C200.045 61.3416 200.164 62.098 200.164 62.9886V63.6662H192.36V62.2344H198.291C198.291 61.7315 198.189 61.2862 197.985 60.8984C197.78 60.5064 197.492 60.1974 197.122 59.9716C196.755 59.7457 196.325 59.6328 195.83 59.6328C195.294 59.6328 194.825 59.7649 194.424 60.0291C194.028 60.2891 193.721 60.63 193.504 61.0518C193.291 61.4695 193.184 61.9233 193.184 62.4134V63.532C193.184 64.1882 193.299 64.7464 193.529 65.2067C193.764 65.6669 194.09 66.0185 194.507 66.2614C194.925 66.5 195.413 66.6193 195.971 66.6193C196.333 66.6193 196.664 66.5682 196.962 66.4659C197.26 66.3594 197.518 66.2017 197.735 65.9929C197.953 65.7841 198.119 65.5263 198.234 65.2195L200.043 65.5455C199.898 66.0781 199.638 66.5447 199.263 66.9453C198.892 67.3416 198.426 67.6506 197.863 67.8722C197.305 68.0895 196.668 68.1982 195.952 68.1982ZM209.642 60.5788L207.91 60.8857C207.837 60.6641 207.722 60.4531 207.565 60.2528C207.411 60.0526 207.202 59.8885 206.938 59.7607C206.674 59.6328 206.344 59.5689 205.947 59.5689C205.406 59.5689 204.955 59.6903 204.592 59.9332C204.23 60.1719 204.049 60.4808 204.049 60.8601C204.049 61.1882 204.17 61.4524 204.413 61.6527C204.656 61.853 205.048 62.017 205.589 62.1449L207.149 62.5028C208.053 62.7116 208.726 63.0334 209.169 63.468C209.612 63.9027 209.834 64.4673 209.834 65.1619C209.834 65.75 209.663 66.2741 209.322 66.7344C208.986 67.1903 208.515 67.5483 207.91 67.8082C207.309 68.0682 206.612 68.1982 205.82 68.1982C204.72 68.1982 203.823 67.9638 203.129 67.495C202.434 67.022 202.008 66.3509 201.85 65.4815L203.697 65.2003C203.813 65.6818 204.049 66.0462 204.407 66.2933C204.765 66.5362 205.232 66.6577 205.807 66.6577C206.433 66.6577 206.934 66.5277 207.309 66.2678C207.684 66.0036 207.871 65.6818 207.871 65.3026C207.871 64.9957 207.756 64.7379 207.526 64.5291C207.3 64.3203 206.953 64.1626 206.484 64.0561L204.822 63.6918C203.906 63.483 203.229 63.1506 202.79 62.6946C202.355 62.2386 202.138 61.6612 202.138 60.9624C202.138 60.3828 202.3 59.8757 202.624 59.4411C202.947 59.0064 203.395 58.6676 203.966 58.4247C204.537 58.1776 205.191 58.054 205.928 58.054C206.989 58.054 207.825 58.2841 208.434 58.7443C209.043 59.2003 209.446 59.8118 209.642 60.5788Z" fill="black"/>
<circle cx="26" cy="24" r="5" fill="#FF0606"/>
<circle cx="43.5" cy="24" r="5" fill="#30C1FF"/>
<circle cx="61" cy="24" r="5" fill="#A3DC2F"/>
<path d="M25 212.432L47.9496 177.576L56.6749 188.648L89.347 137.888L115.719 230.906L139.282 177.576L168.462 188.648L179.431 137.888L196.861 132.081L238.611 159.084L272.367 72L318 95.3421" stroke="#003FDB" stroke-width="2" stroke-linecap="round" stroke-linejoin="round"/>
<path d="M26 256.976L49.7151 208.459L57.6763 241.496L89.2402 204.679L116.723 269L140.287 234.29L169.468 241.496L180.438 208.459L197.869 204.679L244.179 241.496L285.285 155.807L309 208.459" stroke="#BDBDBD" stroke-width="2" stroke-linecap="round" stroke-linejoin="round" stroke-dasharray="8 8"/>
<path d="M28.5852 302.097C28.1364 302.095 27.7528 301.976 27.4347 301.741C27.1165 301.507 26.8731 301.165 26.7045 300.716C26.536 300.267 26.4517 299.726 26.4517 299.094C26.4517 298.463 26.536 297.924 26.7045 297.477C26.875 297.03 27.1193 296.689 27.4375 296.455C27.7576 296.22 28.1402 296.102 28.5852 296.102C29.0303 296.102 29.4119 296.221 29.7301 296.457C30.0483 296.692 30.2917 297.033 30.4602 297.48C30.6307 297.925 30.7159 298.463 30.7159 299.094C30.7159 299.728 30.6316 300.27 30.4631 300.719C30.2945 301.166 30.0511 301.508 29.733 301.744C29.4148 301.979 29.0322 302.097 28.5852 302.097ZM28.5852 301.338C28.9792 301.338 29.2869 301.146 29.5085 300.761C29.732 300.377 29.8438 299.821 29.8438 299.094C29.8438 298.611 29.7926 298.203 29.6903 297.869C29.59 297.534 29.4451 297.28 29.2557 297.108C29.0682 296.934 28.8447 296.847 28.5852 296.847C28.1932 296.847 27.8854 297.04 27.6619 297.426C27.4384 297.812 27.3258 298.368 27.3239 299.094C27.3239 299.579 27.3741 299.989 27.4744 300.324C27.5767 300.657 27.7216 300.91 27.9091 301.082C28.0966 301.253 28.322 301.338 28.5852 301.338ZM33.9311 296.182V302H33.0504V297.062H33.0163L31.6243 297.972V297.131L33.076 296.182H33.9311ZM36.076 301.278C35.9207 301.278 35.7872 301.223 35.6754 301.114C35.5637 301.002 35.5078 300.867 35.5078 300.71C35.5078 300.555 35.5637 300.422 35.6754 300.312C35.7872 300.201 35.9207 300.145 36.076 300.145C36.2313 300.145 36.3648 300.201 36.4766 300.312C36.5883 300.422 36.6442 300.555 36.6442 300.71C36.6442 300.814 36.6177 300.91 36.5646 300.997C36.5135 301.082 36.4453 301.151 36.3601 301.202C36.2749 301.253 36.1802 301.278 36.076 301.278ZM36.076 298.364C35.9207 298.364 35.7872 298.309 35.6754 298.199C35.5637 298.087 35.5078 297.953 35.5078 297.795C35.5078 297.64 35.5637 297.508 35.6754 297.398C35.7872 297.286 35.9207 297.23 36.076 297.23C36.2313 297.23 36.3648 297.286 36.4766 297.398C36.5883 297.508 36.6442 297.64 36.6442 297.795C36.6442 297.9 36.6177 297.995 36.5646 298.082C36.5135 298.168 36.4453 298.236 36.3601 298.287C36.2749 298.338 36.1802 298.364 36.076 298.364ZM39.7962 302.097C39.3473 302.095 38.9638 301.976 38.6456 301.741C38.3274 301.507 38.084 301.165 37.9155 300.716C37.7469 300.267 37.6626 299.726 37.6626 299.094C37.6626 298.463 37.7469 297.924 37.9155 297.477C38.0859 297.03 38.3303 296.689 38.6484 296.455C38.9685 296.22 39.3511 296.102 39.7962 296.102C40.2412 296.102 40.6229 296.221 40.9411 296.457C41.2592 296.692 41.5026 297.033 41.6712 297.48C41.8416 297.925 41.9268 298.463 41.9268 299.094C41.9268 299.728 41.8426 300.27 41.674 300.719C41.5054 301.166 41.2621 301.508 40.9439 301.744C40.6257 301.979 40.2431 302.097 39.7962 302.097ZM39.7962 301.338C40.1901 301.338 40.4979 301.146 40.7195 300.761C40.9429 300.377 41.0547 299.821 41.0547 299.094C41.0547 298.611 41.0036 298.203 40.9013 297.869C40.8009 297.534 40.656 297.28 40.4666 297.108C40.2791 296.934 40.0556 296.847 39.7962 296.847C39.4041 296.847 39.0964 297.04 38.8729 297.426C38.6494 297.812 38.5367 298.368 38.5348 299.094C38.5348 299.579 38.585 299.989 38.6854 300.324C38.7876 300.657 38.9325 300.91 39.12 301.082C39.3075 301.253 39.5329 301.338 39.7962 301.338ZM44.9602 302.097C44.5114 302.095 44.1278 301.976 43.8097 301.741C43.4915 301.507 43.2481 301.165 43.0795 300.716C42.911 300.267 42.8267 299.726 42.8267 299.094C42.8267 298.463 42.911 297.924 43.0795 297.477C43.25 297.03 43.4943 296.689 43.8125 296.455C44.1326 296.22 44.5152 296.102 44.9602 296.102C45.4053 296.102 45.7869 296.221 46.1051 296.457C46.4233 296.692 46.6667 297.033 46.8352 297.48C47.0057 297.925 47.0909 298.463 47.0909 299.094C47.0909 299.728 47.0066 300.27 46.8381 300.719C46.6695 301.166 46.4261 301.508 46.108 301.744C45.7898 301.979 45.4072 302.097 44.9602 302.097ZM44.9602 301.338C45.3542 301.338 45.6619 301.146 45.8835 300.761C46.107 300.377 46.2188 299.821 46.2188 299.094C46.2188 298.611 46.1676 298.203 46.0653 297.869C45.965 297.534 45.8201 297.28 45.6307 297.108C45.4432 296.934 45.2197 296.847 44.9602 296.847C44.5682 296.847 44.2604 297.04 44.0369 297.426C43.8134 297.812 43.7008 298.368 43.6989 299.094C43.6989 299.579 43.7491 299.989 43.8494 300.324C43.9517 300.657 44.0966 300.91 44.2841 301.082C44.4716 301.253 44.697 301.338 44.9602 301.338ZM48.1783 302V296.182H50.2521C50.7048 296.182 51.0798 296.264 51.3771 296.429C51.6745 296.594 51.897 296.819 52.0447 297.105C52.1925 297.389 52.2663 297.709 52.2663 298.065C52.2663 298.423 52.1915 298.745 52.0419 299.031C51.8942 299.315 51.6707 299.541 51.3714 299.707C51.0741 299.872 50.7 299.955 50.2493 299.955H48.8232V299.21H50.1697C50.4557 299.21 50.6877 299.161 50.8658 299.062C51.0438 298.962 51.1745 298.826 51.2578 298.653C51.3411 298.481 51.3828 298.285 51.3828 298.065C51.3828 297.846 51.3411 297.651 51.2578 297.48C51.1745 297.31 51.0429 297.176 50.8629 297.08C50.6849 296.983 50.45 296.935 50.1584 296.935H49.0561V302H48.1783ZM53.2955 296.182H54.3608L56.2131 300.705H56.2812L58.1335 296.182H59.1989V302H58.3636V297.79H58.3097L56.5938 301.991H55.9006L54.1847 297.787H54.1307V302H53.2955V296.182ZM92.0618 302.097C91.6129 302.095 91.2294 301.976 90.9112 301.741C90.593 301.507 90.3497 301.165 90.1811 300.716C90.0125 300.267 89.9283 299.726 89.9283 299.094C89.9283 298.463 90.0125 297.924 90.1811 297.477C90.3516 297.03 90.5959 296.689 90.9141 296.455C91.2341 296.22 91.6167 296.102 92.0618 296.102C92.5069 296.102 92.8885 296.221 93.2067 296.457C93.5249 296.692 93.7682 297.033 93.9368 297.48C94.1072 297.925 94.1925 298.463 94.1925 299.094C94.1925 299.728 94.1082 300.27 93.9396 300.719C93.7711 301.166 93.5277 301.508 93.2095 301.744C92.8913 301.979 92.5088 302.097 92.0618 302.097ZM92.0618 301.338C92.4557 301.338 92.7635 301.146 92.9851 300.761C93.2086 300.377 93.3203 299.821 93.3203 299.094C93.3203 298.611 93.2692 298.203 93.1669 297.869C93.0665 297.534 92.9216 297.28 92.7322 297.108C92.5447 296.934 92.3213 296.847 92.0618 296.847C91.6697 296.847 91.362 297.04 91.1385 297.426C90.915 297.812 90.8023 298.368 90.8004 299.094C90.8004 299.579 90.8506 299.989 90.951 300.324C91.0533 300.657 91.1982 300.91 91.3857 301.082C91.5732 301.253 91.7985 301.338 92.0618 301.338ZM95.2003 302V301.364L97.169 299.324C97.3793 299.102 97.5526 298.908 97.6889 298.741C97.8272 298.573 97.9304 298.413 97.9986 298.261C98.0668 298.11 98.1009 297.949 98.1009 297.778C98.1009 297.585 98.0554 297.419 97.9645 297.278C97.8736 297.136 97.7495 297.027 97.5923 296.952C97.4351 296.874 97.258 296.835 97.0611 296.835C96.8527 296.835 96.6709 296.878 96.5156 296.963C96.3603 297.048 96.241 297.169 96.1577 297.324C96.0743 297.479 96.0327 297.661 96.0327 297.869H95.1946C95.1946 297.515 95.276 297.205 95.4389 296.94C95.6018 296.675 95.8253 296.47 96.1094 296.324C96.3935 296.176 96.7164 296.102 97.0781 296.102C97.4437 296.102 97.7656 296.175 98.044 296.321C98.3243 296.465 98.5431 296.662 98.7003 296.912C98.8575 297.16 98.9361 297.44 98.9361 297.753C98.9361 297.969 98.8954 298.18 98.8139 298.386C98.7344 298.593 98.5952 298.823 98.3963 299.077C98.1974 299.329 97.9209 299.634 97.5668 299.994L96.4105 301.205V301.247H99.0298V302H95.2003ZM100.678 301.278C100.522 301.278 100.389 301.223 100.277 301.114C100.165 301.002 100.109 300.867 100.109 300.71C100.109 300.555 100.165 300.422 100.277 300.312C100.389 300.201 100.522 300.145 100.678 300.145C100.833 300.145 100.966 300.201 101.078 300.312C101.19 300.422 101.246 300.555 101.246 300.71C101.246 300.814 101.219 300.91 101.166 300.997C101.115 301.082 101.047 301.151 100.962 301.202C100.876 301.253 100.782 301.278 100.678 301.278ZM100.678 298.364C100.522 298.364 100.389 298.309 100.277 298.199C100.165 298.087 100.109 297.953 100.109 297.795C100.109 297.64 100.165 297.508 100.277 297.398C100.389 297.286 100.522 297.23 100.678 297.23C100.833 297.23 100.966 297.286 101.078 297.398C101.19 297.508 101.246 297.64 101.246 297.795C101.246 297.9 101.219 297.995 101.166 298.082C101.115 298.168 101.047 298.236 100.962 298.287C100.876 298.338 100.782 298.364 100.678 298.364ZM104.398 302.097C103.949 302.095 103.565 301.976 103.247 301.741C102.929 301.507 102.686 301.165 102.517 300.716C102.348 300.267 102.264 299.726 102.264 299.094C102.264 298.463 102.348 297.924 102.517 297.477C102.688 297.03 102.932 296.689 103.25 296.455C103.57 296.22 103.953 296.102 104.398 296.102C104.843 296.102 105.224 296.221 105.543 296.457C105.861 296.692 106.104 297.033 106.273 297.48C106.443 297.925 106.528 298.463 106.528 299.094C106.528 299.728 106.444 300.27 106.276 300.719C106.107 301.166 105.864 301.508 105.545 301.744C105.227 301.979 104.845 302.097 104.398 302.097ZM104.398 301.338C104.792 301.338 105.099 301.146 105.321 300.761C105.545 300.377 105.656 299.821 105.656 299.094C105.656 298.611 105.605 298.203 105.503 297.869C105.402 297.534 105.258 297.28 105.068 297.108C104.881 296.934 104.657 296.847 104.398 296.847C104.006 296.847 103.698 297.04 103.474 297.426C103.251 297.812 103.138 298.368 103.136 299.094C103.136 299.579 103.187 299.989 103.287 300.324C103.389 300.657 103.534 300.91 103.722 301.082C103.909 301.253 104.134 301.338 104.398 301.338ZM109.562 302.097C109.113 302.095 108.729 301.976 108.411 301.741C108.093 301.507 107.85 301.165 107.681 300.716C107.513 300.267 107.428 299.726 107.428 299.094C107.428 298.463 107.513 297.924 107.681 297.477C107.852 297.03 108.096 296.689 108.414 296.455C108.734 296.22 109.117 296.102 109.562 296.102C110.007 296.102 110.388 296.221 110.707 296.457C111.025 296.692 111.268 297.033 111.437 297.48C111.607 297.925 111.692 298.463 111.692 299.094C111.692 299.728 111.608 300.27 111.44 300.719C111.271 301.166 111.028 301.508 110.71 301.744C110.391 301.979 110.009 302.097 109.562 302.097ZM109.562 301.338C109.956 301.338 110.263 301.146 110.485 300.761C110.709 300.377 110.82 299.821 110.82 299.094C110.82 298.611 110.769 298.203 110.667 297.869C110.567 297.534 110.422 297.28 110.232 297.108C110.045 296.934 109.821 296.847 109.562 296.847C109.17 296.847 108.862 297.04 108.638 297.426C108.415 297.812 108.302 298.368 108.3 299.094C108.3 299.579 108.351 299.989 108.451 300.324C108.553 300.657 108.698 300.91 108.886 301.082C109.073 301.253 109.299 301.338 109.562 301.338ZM112.78 302V296.182H114.854C115.306 296.182 115.681 296.264 115.979 296.429C116.276 296.594 116.499 296.819 116.646 297.105C116.794 297.389 116.868 297.709 116.868 298.065C116.868 298.423 116.793 298.745 116.643 299.031C116.496 299.315 116.272 299.541 115.973 299.707C115.676 299.872 115.302 299.955 114.851 299.955H113.425V299.21H114.771C115.057 299.21 115.289 299.161 115.467 299.062C115.645 298.962 115.776 298.826 115.859 298.653C115.943 298.481 115.984 298.285 115.984 298.065C115.984 297.846 115.943 297.651 115.859 297.48C115.776 297.31 115.644 297.176 115.464 297.08C115.286 296.983 115.052 296.935 114.76 296.935H113.658V302H112.78ZM117.897 296.182H118.962L120.815 300.705H120.883L122.735 296.182H123.8V302H122.965V297.79H122.911L121.195 301.991H120.502L118.786 297.787H118.732V302H117.897V296.182ZM156.663 302.097C156.214 302.095 155.831 301.976 155.513 301.741C155.195 301.507 154.951 301.165 154.783 300.716C154.614 300.267 154.53 299.726 154.53 299.094C154.53 298.463 154.614 297.924 154.783 297.477C154.953 297.03 155.197 296.689 155.516 296.455C155.836 296.22 156.218 296.102 156.663 296.102C157.108 296.102 157.49 296.221 157.808 296.457C158.126 296.692 158.37 297.033 158.538 297.48C158.709 297.925 158.794 298.463 158.794 299.094C158.794 299.728 158.71 300.27 158.541 300.719C158.373 301.166 158.129 301.508 157.811 301.744C157.493 301.979 157.11 302.097 156.663 302.097ZM156.663 301.338C157.057 301.338 157.365 301.146 157.587 300.761C157.81 300.377 157.922 299.821 157.922 299.094C157.922 298.611 157.871 298.203 157.768 297.869C157.668 297.534 157.523 297.28 157.334 297.108C157.146 296.934 156.923 296.847 156.663 296.847C156.271 296.847 155.964 297.04 155.74 297.426C155.517 297.812 155.404 298.368 155.402 299.094C155.402 299.579 155.452 299.989 155.553 300.324C155.655 300.657 155.8 300.91 155.987 301.082C156.175 301.253 156.4 301.338 156.663 301.338ZM161.827 302.08C161.437 302.08 161.089 302.012 160.782 301.878C160.477 301.743 160.236 301.557 160.058 301.318C159.881 301.078 159.787 300.799 159.773 300.483H160.665C160.677 300.655 160.735 300.805 160.839 300.932C160.945 301.057 161.083 301.153 161.254 301.222C161.424 301.29 161.613 301.324 161.822 301.324C162.051 301.324 162.254 301.284 162.43 301.205C162.608 301.125 162.747 301.014 162.847 300.872C162.948 300.728 162.998 300.562 162.998 300.375C162.998 300.18 162.948 300.009 162.847 299.861C162.749 299.711 162.604 299.594 162.413 299.509C162.223 299.423 161.994 299.381 161.725 299.381H161.234V298.665H161.725C161.941 298.665 162.13 298.626 162.293 298.548C162.458 298.471 162.587 298.363 162.68 298.224C162.772 298.084 162.819 297.92 162.819 297.733C162.819 297.553 162.778 297.397 162.697 297.264C162.617 297.13 162.504 297.025 162.356 296.949C162.21 296.873 162.038 296.835 161.839 296.835C161.649 296.835 161.472 296.87 161.308 296.94C161.145 297.009 161.012 297.107 160.91 297.236C160.808 297.363 160.753 297.515 160.745 297.693H159.896C159.905 297.379 159.998 297.102 160.174 296.864C160.352 296.625 160.587 296.438 160.879 296.304C161.17 296.17 161.494 296.102 161.85 296.102C162.223 296.102 162.545 296.175 162.816 296.321C163.089 296.465 163.299 296.657 163.447 296.898C163.596 297.138 163.67 297.402 163.668 297.688C163.67 298.013 163.579 298.29 163.396 298.517C163.214 298.744 162.971 298.897 162.668 298.974V299.02C163.055 299.079 163.354 299.232 163.566 299.48C163.78 299.728 163.886 300.036 163.884 300.403C163.886 300.723 163.797 301.01 163.617 301.264C163.439 301.518 163.196 301.718 162.887 301.864C162.578 302.008 162.225 302.08 161.827 302.08ZM165.529 301.278C165.374 301.278 165.24 301.223 165.129 301.114C165.017 301.002 164.961 300.867 164.961 300.71C164.961 300.555 165.017 300.422 165.129 300.312C165.24 300.201 165.374 300.145 165.529 300.145C165.684 300.145 165.818 300.201 165.93 300.312C166.041 300.422 166.097 300.555 166.097 300.71C166.097 300.814 166.071 300.91 166.018 300.997C165.967 301.082 165.898 301.151 165.813 301.202C165.728 301.253 165.633 301.278 165.529 301.278ZM165.529 298.364C165.374 298.364 165.24 298.309 165.129 298.199C165.017 298.087 164.961 297.953 164.961 297.795C164.961 297.64 165.017 297.508 165.129 297.398C165.24 297.286 165.374 297.23 165.529 297.23C165.684 297.23 165.818 297.286 165.93 297.398C166.041 297.508 166.097 297.64 166.097 297.795C166.097 297.9 166.071 297.995 166.018 298.082C165.967 298.168 165.898 298.236 165.813 298.287C165.728 298.338 165.633 298.364 165.529 298.364ZM169.249 302.097C168.8 302.095 168.417 301.976 168.099 301.741C167.781 301.507 167.537 301.165 167.369 300.716C167.2 300.267 167.116 299.726 167.116 299.094C167.116 298.463 167.2 297.924 167.369 297.477C167.539 297.03 167.783 296.689 168.102 296.455C168.422 296.22 168.804 296.102 169.249 296.102C169.694 296.102 170.076 296.221 170.394 296.457C170.712 296.692 170.956 297.033 171.124 297.48C171.295 297.925 171.38 298.463 171.38 299.094C171.38 299.728 171.296 300.27 171.127 300.719C170.959 301.166 170.715 301.508 170.397 301.744C170.079 301.979 169.696 302.097 169.249 302.097ZM169.249 301.338C169.643 301.338 169.951 301.146 170.173 300.761C170.396 300.377 170.508 299.821 170.508 299.094C170.508 298.611 170.457 298.203 170.354 297.869C170.254 297.534 170.109 297.28 169.92 297.108C169.732 296.934 169.509 296.847 169.249 296.847C168.857 296.847 168.549 297.04 168.326 297.426C168.103 297.812 167.99 298.368 167.988 299.094C167.988 299.579 168.038 299.989 168.138 300.324C168.241 300.657 168.386 300.91 168.573 301.082C168.761 301.253 168.986 301.338 169.249 301.338ZM174.413 302.097C173.964 302.095 173.581 301.976 173.263 301.741C172.945 301.507 172.701 301.165 172.533 300.716C172.364 300.267 172.28 299.726 172.28 299.094C172.28 298.463 172.364 297.924 172.533 297.477C172.703 297.03 172.947 296.689 173.266 296.455C173.586 296.22 173.968 296.102 174.413 296.102C174.858 296.102 175.24 296.221 175.558 296.457C175.876 296.692 176.12 297.033 176.288 297.48C176.459 297.925 176.544 298.463 176.544 299.094C176.544 299.728 176.46 300.27 176.291 300.719C176.123 301.166 175.879 301.508 175.561 301.744C175.243 301.979 174.86 302.097 174.413 302.097ZM174.413 301.338C174.807 301.338 175.115 301.146 175.337 300.761C175.56 300.377 175.672 299.821 175.672 299.094C175.672 298.611 175.621 298.203 175.518 297.869C175.418 297.534 175.273 297.28 175.084 297.108C174.896 296.934 174.673 296.847 174.413 296.847C174.021 296.847 173.714 297.04 173.49 297.426C173.267 297.812 173.154 298.368 173.152 299.094C173.152 299.579 173.202 299.989 173.303 300.324C173.405 300.657 173.55 300.91 173.737 301.082C173.925 301.253 174.15 301.338 174.413 301.338ZM177.631 302V296.182H179.705C180.158 296.182 180.533 296.264 180.83 296.429C181.128 296.594 181.35 296.819 181.498 297.105C181.646 297.389 181.719 297.709 181.719 298.065C181.719 298.423 181.645 298.745 181.495 299.031C181.347 299.315 181.124 299.541 180.825 299.707C180.527 299.872 180.153 299.955 179.702 299.955H178.276V299.21H179.623C179.909 299.21 180.141 299.161 180.319 299.062C180.497 298.962 180.628 298.826 180.711 298.653C180.794 298.481 180.836 298.285 180.836 298.065C180.836 297.846 180.794 297.651 180.711 297.48C180.628 297.31 180.496 297.176 180.316 297.08C180.138 296.983 179.903 296.935 179.612 296.935H178.509V302H177.631ZM182.749 296.182H183.814L185.666 300.705H185.734L187.587 296.182H188.652V302H187.817V297.79H187.763L186.047 301.991H185.354L183.638 297.787H183.584V302H182.749V296.182ZM221.515 302.097C221.066 302.095 220.683 301.976 220.364 301.741C220.046 301.507 219.803 301.165 219.634 300.716C219.466 300.267 219.381 299.726 219.381 299.094C219.381 298.463 219.466 297.924 219.634 297.477C219.805 297.03 220.049 296.689 220.367 296.455C220.687 296.22 221.07 296.102 221.515 296.102C221.96 296.102 222.342 296.221 222.66 296.457C222.978 296.692 223.221 297.033 223.39 297.48C223.56 297.925 223.646 298.463 223.646 299.094C223.646 299.728 223.561 300.27 223.393 300.719C223.224 301.166 222.981 301.508 222.663 301.744C222.344 301.979 221.962 302.097 221.515 302.097ZM221.515 301.338C221.909 301.338 222.217 301.146 222.438 300.761C222.662 300.377 222.773 299.821 222.773 299.094C222.773 298.611 222.722 298.203 222.62 297.869C222.52 297.534 222.375 297.28 222.185 297.108C221.998 296.934 221.774 296.847 221.515 296.847C221.123 296.847 220.815 297.04 220.592 297.426C220.368 297.812 220.255 298.368 220.254 299.094C220.254 299.579 220.304 299.989 220.404 300.324C220.506 300.657 220.651 300.91 220.839 301.082C221.026 301.253 221.252 301.338 221.515 301.338ZM224.531 300.864V300.153L227.045 296.182H227.605V297.227H227.25L225.452 300.074V300.119H228.898V300.864H224.531ZM227.29 302V300.648L227.295 300.324V296.182H228.128V302H227.29ZM230.459 301.278C230.304 301.278 230.17 301.223 230.058 301.114C229.946 301.002 229.891 300.867 229.891 300.71C229.891 300.555 229.946 300.422 230.058 300.312C230.17 300.201 230.304 300.145 230.459 300.145C230.614 300.145 230.748 300.201 230.859 300.312C230.971 300.422 231.027 300.555 231.027 300.71C231.027 300.814 231 300.91 230.947 300.997C230.896 301.082 230.828 301.151 230.743 301.202C230.658 301.253 230.563 301.278 230.459 301.278ZM230.459 298.364C230.304 298.364 230.17 298.309 230.058 298.199C229.946 298.087 229.891 297.953 229.891 297.795C229.891 297.64 229.946 297.508 230.058 297.398C230.17 297.286 230.304 297.23 230.459 297.23C230.614 297.23 230.748 297.286 230.859 297.398C230.971 297.508 231.027 297.64 231.027 297.795C231.027 297.9 231 297.995 230.947 298.082C230.896 298.168 230.828 298.236 230.743 298.287C230.658 298.338 230.563 298.364 230.459 298.364ZM234.179 302.097C233.73 302.095 233.347 301.976 233.028 301.741C232.71 301.507 232.467 301.165 232.298 300.716C232.13 300.267 232.045 299.726 232.045 299.094C232.045 298.463 232.13 297.924 232.298 297.477C232.469 297.03 232.713 296.689 233.031 296.455C233.351 296.22 233.734 296.102 234.179 296.102C234.624 296.102 235.006 296.221 235.324 296.457C235.642 296.692 235.885 297.033 236.054 297.48C236.224 297.925 236.31 298.463 236.31 299.094C236.31 299.728 236.225 300.27 236.057 300.719C235.888 301.166 235.645 301.508 235.327 301.744C235.009 301.979 234.626 302.097 234.179 302.097ZM234.179 301.338C234.573 301.338 234.881 301.146 235.102 300.761C235.326 300.377 235.438 299.821 235.438 299.094C235.438 298.611 235.386 298.203 235.284 297.869C235.184 297.534 235.039 297.28 234.849 297.108C234.662 296.934 234.438 296.847 234.179 296.847C233.787 296.847 233.479 297.04 233.256 297.426C233.032 297.812 232.92 298.368 232.918 299.094C232.918 299.579 232.968 299.989 233.068 300.324C233.17 300.657 233.315 300.91 233.503 301.082C233.69 301.253 233.916 301.338 234.179 301.338ZM239.343 302.097C238.894 302.095 238.511 301.976 238.192 301.741C237.874 301.507 237.631 301.165 237.462 300.716C237.294 300.267 237.21 299.726 237.21 299.094C237.21 298.463 237.294 297.924 237.462 297.477C237.633 297.03 237.877 296.689 238.195 296.455C238.515 296.22 238.898 296.102 239.343 296.102C239.788 296.102 240.17 296.221 240.488 296.457C240.806 296.692 241.049 297.033 241.218 297.48C241.388 297.925 241.474 298.463 241.474 299.094C241.474 299.728 241.389 300.27 241.221 300.719C241.052 301.166 240.809 301.508 240.491 301.744C240.173 301.979 239.79 302.097 239.343 302.097ZM239.343 301.338C239.737 301.338 240.045 301.146 240.266 300.761C240.49 300.377 240.602 299.821 240.602 299.094C240.602 298.611 240.55 298.203 240.448 297.869C240.348 297.534 240.203 297.28 240.013 297.108C239.826 296.934 239.603 296.847 239.343 296.847C238.951 296.847 238.643 297.04 238.42 297.426C238.196 297.812 238.084 298.368 238.082 299.094C238.082 299.579 238.132 299.989 238.232 300.324C238.335 300.657 238.479 300.91 238.667 301.082C238.854 301.253 239.08 301.338 239.343 301.338ZM242.561 302V296.182H244.635C245.088 296.182 245.463 296.264 245.76 296.429C246.057 296.594 246.28 296.819 246.428 297.105C246.575 297.389 246.649 297.709 246.649 298.065C246.649 298.423 246.574 298.745 246.425 299.031C246.277 299.315 246.054 299.541 245.754 299.707C245.457 299.872 245.083 299.955 244.632 299.955H243.206V299.21H244.553C244.839 299.21 245.071 299.161 245.249 299.062C245.427 298.962 245.557 298.826 245.641 298.653C245.724 298.481 245.766 298.285 245.766 298.065C245.766 297.846 245.724 297.651 245.641 297.48C245.557 297.31 245.426 297.176 245.246 297.08C245.068 296.983 244.833 296.935 244.541 296.935H243.439V302H242.561ZM247.678 296.182H248.744L250.596 300.705H250.664L252.516 296.182H253.582V302H252.746V297.79H252.692L250.977 301.991H250.283L248.567 297.787H248.513V302H247.678V296.182ZM286.445 302.097C285.996 302.095 285.612 301.976 285.294 301.741C284.976 301.507 284.732 301.165 284.564 300.716C284.395 300.267 284.311 299.726 284.311 299.094C284.311 298.463 284.395 297.924 284.564 297.477C284.734 297.03 284.979 296.689 285.297 296.455C285.617 296.22 286 296.102 286.445 296.102C286.89 296.102 287.271 296.221 287.589 296.457C287.908 296.692 288.151 297.033 288.32 297.48C288.49 297.925 288.575 298.463 288.575 299.094C288.575 299.728 288.491 300.27 288.322 300.719C288.154 301.166 287.911 301.508 287.592 301.744C287.274 301.979 286.892 302.097 286.445 302.097ZM286.445 301.338C286.839 301.338 287.146 301.146 287.368 300.761C287.591 300.377 287.703 299.821 287.703 299.094C287.703 298.611 287.652 298.203 287.55 297.869C287.449 297.534 287.304 297.28 287.115 297.108C286.928 296.934 286.704 296.847 286.445 296.847C286.053 296.847 285.745 297.04 285.521 297.426C285.298 297.812 285.185 298.368 285.183 299.094C285.183 299.579 285.233 299.989 285.334 300.324C285.436 300.657 285.581 300.91 285.768 301.082C285.956 301.253 286.181 301.338 286.445 301.338ZM291.504 302.08C291.147 302.08 290.827 302.011 290.543 301.875C290.261 301.737 290.036 301.547 289.867 301.307C289.699 301.066 289.609 300.792 289.597 300.483H290.45C290.47 300.733 290.581 300.938 290.782 301.099C290.983 301.26 291.223 301.341 291.504 301.341C291.727 301.341 291.925 301.29 292.097 301.188C292.272 301.083 292.408 300.94 292.506 300.759C292.607 300.577 292.657 300.369 292.657 300.136C292.657 299.9 292.606 299.688 292.504 299.503C292.401 299.317 292.26 299.171 292.08 299.065C291.902 298.959 291.698 298.905 291.467 298.903C291.29 298.903 291.113 298.934 290.935 298.994C290.757 299.055 290.613 299.134 290.504 299.233L289.7 299.114L290.026 296.182H293.225V296.935H290.756L290.572 298.562H290.606C290.719 298.453 290.87 298.361 291.058 298.287C291.247 298.213 291.45 298.176 291.665 298.176C292.02 298.176 292.335 298.26 292.612 298.429C292.89 298.598 293.109 298.828 293.268 299.119C293.429 299.409 293.508 299.742 293.506 300.119C293.508 300.496 293.423 300.832 293.251 301.128C293.08 301.423 292.844 301.656 292.54 301.827C292.239 301.995 291.894 302.08 291.504 302.08ZM295.115 301.278C294.96 301.278 294.826 301.223 294.714 301.114C294.603 301.002 294.547 300.867 294.547 300.71C294.547 300.555 294.603 300.422 294.714 300.312C294.826 300.201 294.96 300.145 295.115 300.145C295.27 300.145 295.404 300.201 295.516 300.312C295.627 300.422 295.683 300.555 295.683 300.71C295.683 300.814 295.657 300.91 295.604 300.997C295.553 301.082 295.484 301.151 295.399 301.202C295.314 301.253 295.219 301.278 295.115 301.278ZM295.115 298.364C294.96 298.364 294.826 298.309 294.714 298.199C294.603 298.087 294.547 297.953 294.547 297.795C294.547 297.64 294.603 297.508 294.714 297.398C294.826 297.286 294.96 297.23 295.115 297.23C295.27 297.23 295.404 297.286 295.516 297.398C295.627 297.508 295.683 297.64 295.683 297.795C295.683 297.9 295.657 297.995 295.604 298.082C295.553 298.168 295.484 298.236 295.399 298.287C295.314 298.338 295.219 298.364 295.115 298.364ZM298.835 302.097C298.386 302.095 298.003 301.976 297.685 301.741C297.366 301.507 297.123 301.165 296.955 300.716C296.786 300.267 296.702 299.726 296.702 299.094C296.702 298.463 296.786 297.924 296.955 297.477C297.125 297.03 297.369 296.689 297.688 296.455C298.008 296.22 298.39 296.102 298.835 296.102C299.28 296.102 299.662 296.221 299.98 296.457C300.298 296.692 300.542 297.033 300.71 297.48C300.881 297.925 300.966 298.463 300.966 299.094C300.966 299.728 300.882 300.27 300.713 300.719C300.545 301.166 300.301 301.508 299.983 301.744C299.665 301.979 299.282 302.097 298.835 302.097ZM298.835 301.338C299.229 301.338 299.537 301.146 299.759 300.761C299.982 300.377 300.094 299.821 300.094 299.094C300.094 298.611 300.043 298.203 299.94 297.869C299.84 297.534 299.695 297.28 299.506 297.108C299.318 296.934 299.095 296.847 298.835 296.847C298.443 296.847 298.135 297.04 297.912 297.426C297.688 297.812 297.576 298.368 297.574 299.094C297.574 299.579 297.624 299.989 297.724 300.324C297.827 300.657 297.972 300.91 298.159 301.082C298.347 301.253 298.572 301.338 298.835 301.338ZM303.999 302.097C303.55 302.095 303.167 301.976 302.849 301.741C302.531 301.507 302.287 301.165 302.119 300.716C301.95 300.267 301.866 299.726 301.866 299.094C301.866 298.463 301.95 297.924 302.119 297.477C302.289 297.03 302.533 296.689 302.852 296.455C303.172 296.22 303.554 296.102 303.999 296.102C304.444 296.102 304.826 296.221 305.144 296.457C305.462 296.692 305.706 297.033 305.874 297.48C306.045 297.925 306.13 298.463 306.13 299.094C306.13 299.728 306.046 300.27 305.877 300.719C305.709 301.166 305.465 301.508 305.147 301.744C304.829 301.979 304.446 302.097 303.999 302.097ZM303.999 301.338C304.393 301.338 304.701 301.146 304.923 300.761C305.146 300.377 305.258 299.821 305.258 299.094C305.258 298.611 305.207 298.203 305.104 297.869C305.004 297.534 304.859 297.28 304.67 297.108C304.482 296.934 304.259 296.847 303.999 296.847C303.607 296.847 303.299 297.04 303.076 297.426C302.853 297.812 302.74 298.368 302.738 299.094C302.738 299.579 302.788 299.989 302.888 300.324C302.991 300.657 303.136 300.91 303.323 301.082C303.511 301.253 303.736 301.338 303.999 301.338ZM307.217 302V296.182H309.291C309.744 296.182 310.119 296.264 310.416 296.429C310.714 296.594 310.936 296.819 311.084 297.105C311.232 297.389 311.305 297.709 311.305 298.065C311.305 298.423 311.231 298.745 311.081 299.031C310.933 299.315 310.71 299.541 310.411 299.707C310.113 299.872 309.739 299.955 309.288 299.955H307.862V299.21H309.209C309.495 299.21 309.727 299.161 309.905 299.062C310.083 298.962 310.214 298.826 310.297 298.653C310.38 298.481 310.422 298.285 310.422 298.065C310.422 297.846 310.38 297.651 310.297 297.48C310.214 297.31 310.082 297.176 309.902 297.08C309.724 296.983 309.489 296.935 309.197 296.935H308.095V302H307.217ZM312.335 296.182H313.4L315.252 300.705H315.32L317.173 296.182H318.238V302H317.403V297.79H317.349L315.633 301.991H314.94L313.224 297.787H313.17V302H312.335V296.182Z" fill="black"/>
<rect x="25" y="316" width="294" height="10" rx="5" fill="#EFEFEF"/>
</svg>
