<svg width="42" height="42" viewBox="0 0 42 42" fill="none" xmlns="http://www.w3.org/2000/svg">
<g clip-path="url(#clip0_4008_7735)">
<path d="M35 27.7994C34.8919 27.9081 34.7634 27.9944 34.6219 28.0532C34.4803 28.1121 34.3285 28.1424 34.1752 28.1424C34.0219 28.1424 33.8701 28.1121 33.7285 28.0532C33.587 27.9944 33.4585 27.9081 33.3504 27.7994L31.7007 26.1497C31.592 26.0416 31.5057 25.9131 31.4468 25.7715C31.388 25.63 31.3577 25.4782 31.3577 25.3249C31.3577 25.1716 31.388 25.0198 31.4468 24.8782C31.5057 24.7367 31.592 24.6081 31.7007 24.5L35 21.2007C35.1083 21.0923 35.2369 21.0062 35.3784 20.9475C35.5199 20.8889 35.6716 20.8586 35.8249 20.8586C35.9781 20.8586 36.1298 20.8889 36.2713 20.9475C36.4129 21.0062 36.5415 21.0923 36.6497 21.2007L38.2994 22.8504C38.4081 22.9585 38.4944 23.087 38.5532 23.2285C38.6121 23.3701 38.6424 23.5219 38.6424 23.6752C38.6424 23.8285 38.6121 23.9803 38.5532 24.1219C38.4944 24.2634 38.4081 24.3919 38.2994 24.5L35 27.7994ZM17.5 10.2994C17.3919 10.4081 17.2634 10.4944 17.1219 10.5532C16.9803 10.6121 16.8285 10.6424 16.6752 10.6424C16.5219 10.6424 16.3701 10.6121 16.2285 10.5532C16.087 10.4944 15.9585 10.4081 15.8504 10.2994L14.2007 8.64971C14.092 8.54162 14.0057 8.41309 13.9468 8.27154C13.888 8.12998 13.8577 7.97819 13.8577 7.82488C13.8577 7.67157 13.888 7.51977 13.9468 7.37822C14.0057 7.23666 14.092 7.10814 14.2007 7.00004L17.5 3.70071C17.6083 3.59227 17.7369 3.50625 17.8784 3.44755C18.0199 3.38886 18.1717 3.35864 18.3249 3.35864C18.4781 3.35864 18.6298 3.38886 18.7713 3.44755C18.9129 3.50625 19.0415 3.59227 19.1497 3.70071L20.7994 5.35038C20.9081 5.45847 20.9944 5.58699 21.0532 5.72855C21.1121 5.8701 21.1424 6.0219 21.1424 6.17521C21.1424 6.32852 21.1121 6.48032 21.0532 6.62187C20.9944 6.76343 20.9081 6.89195 20.7994 7.00004L17.5 10.2994Z" fill="#66757F"/>
<path d="M2.33339 25.6667C4.66672 25.6667 15.1667 26.8333 15.1667 26.8333C15.1667 26.8333 16.3334 37.3333 16.3334 39.6667C16.3334 42 14.0001 42 12.8334 40.8333C11.6667 39.6667 8.16672 33.8333 8.16672 33.8333C8.16672 33.8333 2.33339 30.3333 1.16672 29.1667C5.39124e-05 28 5.39124e-05 25.6667 2.33339 25.6667ZM4.66672 7.04549C8.16672 6.99999 33.8334 8.16665 33.8334 8.16665C33.8334 8.16665 34.9114 33.8333 34.9557 37.3333C35.0001 40.8333 31.7322 42.0023 30.4501 37.3345C29.1679 32.6667 24.5001 17.5 24.5001 17.5C24.5001 17.5 8.21922 12.3468 4.66089 11.5477C5.37634e-05 10.5 1.16555 7.08982 4.66672 7.04549Z" fill="#2268D1"/>
<path d="M31.5 3.50001C33.8333 1.16667 39.6666 6.73532e-06 40.8333 1.16667C42 2.33334 40.8333 8.16667 38.5 10.5C36.1666 12.8333 16.3333 31.5 16.3333 31.5C16.3333 31.5 8.74996 36.75 6.99997 35C5.24997 33.25 10.5 25.6667 10.5 25.6667C10.5 25.6667 29.1666 5.83334 31.5 3.50001Z" fill="#CCD6DD"/>
<path d="M16.3332 25.6667C16.3332 25.6667 16.9166 26.25 11.6666 31.5C6.41658 36.75 5.83325 36.1667 5.83325 36.1667C5.83325 36.1667 5.24992 35.5833 10.4999 30.3333C15.7499 25.0833 16.3332 25.6667 16.3332 25.6667ZM33.8332 4.66667C34.7615 4.66667 35.6517 5.03542 36.3081 5.69179C36.9645 6.34817 37.3332 7.23841 37.3332 8.16667H38.2724C38.4054 7.79917 38.4999 7.41417 38.4999 7C38.4999 6.07174 38.1312 5.1815 37.4748 4.52513C36.8184 3.86875 35.9282 3.5 34.9999 3.5C34.5857 3.5 34.2007 3.5945 33.8332 3.7275V4.66667Z" fill="#66757F"/>
</g>
<defs>
<clipPath id="clip0_4008_7735">
<rect width="42" height="42" fill="white"/>
</clipPath>
</defs>
</svg>
