<svg width="46" height="46" viewBox="0 0 46 46" fill="none" xmlns="http://www.w3.org/2000/svg">
<path d="M43.4444 42.1667C43.4444 42.8445 43.1752 43.4945 42.6959 43.9737C42.2167 44.453 41.5667 44.7222 40.8889 44.7222H37.0556C36.3778 44.7222 35.7278 44.453 35.2485 43.9737C34.7692 43.4945 34.5 42.8445 34.5 42.1667V31.9445C34.5 31.2667 34.7692 30.6167 35.2485 30.1374C35.7278 29.6582 36.3778 29.3889 37.0556 29.3889H40.8889C41.5667 29.3889 42.2167 29.6582 42.6959 30.1374C43.1752 30.6167 43.4444 31.2667 43.4444 31.9445V42.1667ZM11.5 42.1667C11.5 42.8445 11.2308 43.4945 10.7515 43.9737C10.2722 44.453 9.62222 44.7222 8.94444 44.7222H5.11111C4.43334 44.7222 3.78332 44.453 3.30406 43.9737C2.8248 43.4945 2.55556 42.8445 2.55556 42.1667V31.9445C2.55556 31.2667 2.8248 30.6167 3.30406 30.1374C3.78332 29.6582 4.43334 29.3889 5.11111 29.3889H8.94444C9.62222 29.3889 10.2722 29.6582 10.7515 30.1374C11.2308 30.6167 11.5 31.2667 11.5 31.9445V42.1667ZM6.38889 19.8056C6.38889 20.3139 6.18696 20.8014 5.82751 21.1609C5.46807 21.5203 4.98055 21.7222 4.47222 21.7222H1.91667C1.40834 21.7222 0.920823 21.5203 0.561379 21.1609C0.201934 20.8014 0 20.3139 0 19.8056C0 19.2973 0.201934 18.8097 0.561379 18.4503C0.920823 18.0908 1.40834 17.8889 1.91667 17.8889H4.47222C4.98055 17.8889 5.46807 18.0908 5.82751 18.4503C6.18696 18.8097 6.38889 19.2973 6.38889 19.8056ZM39.6111 19.8056C39.6111 20.3139 39.813 20.8014 40.1725 21.1609C40.5319 21.5203 41.0194 21.7222 41.5278 21.7222H44.0833C44.5917 21.7222 45.0792 21.5203 45.4386 21.1609C45.7981 20.8014 46 20.3139 46 19.8056C46 19.2973 45.7981 18.8097 45.4386 18.4503C45.0792 18.0908 44.5917 17.8889 44.0833 17.8889H41.5278C41.0194 17.8889 40.5319 18.0908 40.1725 18.4503C39.813 18.8097 39.6111 19.2973 39.6111 19.8056Z" fill="#66757F"/>
<path d="M11.5001 6.389C16.6112 5.11122 29.389 5.11122 34.5001 6.389C39.4592 7.62844 40.889 20.4446 40.889 20.4446C40.889 20.4446 43.4446 20.4446 43.4446 25.5557V35.7779C43.4446 35.7779 43.4446 39.6112 39.6112 40.889C34.6138 42.5552 29.389 42.1668 23.0001 42.1668C16.6112 42.1668 11.3877 42.5552 6.389 40.889C2.55566 39.6112 2.55566 35.7779 2.55566 35.7779V25.5557C2.55566 25.5557 2.55566 20.4446 5.11122 20.4446C5.11122 20.4446 6.54233 7.62844 11.5001 6.389Z" fill="#CCD6DD"/>
<path d="M23.0001 26.8333C15.6938 26.8333 8.77077 26.7043 2.55566 26.4768V35.7778C2.55566 35.7778 2.55566 39.6111 6.389 40.8889C11.3877 42.5551 16.6112 42.1666 23.0001 42.1666C29.389 42.1666 34.6138 42.5551 39.6112 40.8889C43.4446 39.6111 43.4446 35.7778 43.4446 35.7778V26.4768C37.2294 26.7043 30.3064 26.8333 23.0001 26.8333Z" fill="#292F33"/>
<path d="M23.0001 19.1666C27.9898 19.1666 34.0184 19.4221 38.3334 19.8834L37.0556 12.7777C35.7779 8.94434 28.1112 8.94434 23.0001 8.94434C17.889 8.94434 10.2223 8.94434 8.94453 12.7777L7.66675 19.8834C11.9818 19.4221 18.0104 19.1666 23.0001 19.1666Z" fill="#2268D1"/>
<path d="M15.3333 30.6666C15.3333 31.3444 15.0641 31.9944 14.5848 32.4737C14.1055 32.9529 13.4555 33.2222 12.7778 33.2222H7.66664C6.98886 33.2222 6.33885 32.9529 5.85959 32.4737C5.38033 31.9944 5.11108 31.3444 5.11108 30.6666C5.11108 29.9889 5.38033 29.3388 5.85959 28.8596C6.33885 28.3803 6.98886 28.1111 7.66664 28.1111H12.7778C13.4555 28.1111 14.1055 28.3803 14.5848 28.8596C15.0641 29.3388 15.3333 29.9889 15.3333 30.6666ZM30.6666 30.6666C30.6666 31.3444 30.9359 31.9944 31.4151 32.4737C31.8944 32.9529 32.5444 33.2222 33.2222 33.2222H38.3333C39.0111 33.2222 39.6611 32.9529 40.1404 32.4737C40.6196 31.9944 40.8889 31.3444 40.8889 30.6666C40.8889 29.9889 40.6196 29.3388 40.1404 28.8596C39.6611 28.3803 39.0111 28.1111 38.3333 28.1111H33.2222C32.5444 28.1111 31.8944 28.3803 31.4151 28.8596C30.9359 29.3388 30.6666 29.9889 30.6666 30.6666Z" fill="#CCD6DD"/>
<path d="M37.0554 36.4167C37.0554 36.925 36.8535 37.4125 36.4941 37.772C36.1346 38.1314 35.6471 38.3333 35.1388 38.3333H10.861C10.3527 38.3333 9.86516 38.1314 9.50571 37.772C9.14627 37.4125 8.94434 36.925 8.94434 36.4167C8.94434 35.9083 9.14627 35.4208 9.50571 35.0614C9.86516 34.7019 10.3527 34.5 10.861 34.5H35.1388C35.6471 34.5 36.1346 34.7019 36.4941 35.0614C36.8535 35.4208 37.0554 35.9083 37.0554 36.4167Z" fill="#66757F"/>
<path d="M15.3319 26.8334C15.1403 26.8334 14.9448 26.7899 14.762 26.6992L7.09538 22.8659C6.79225 22.7142 6.56177 22.4484 6.45466 22.1268C6.34754 21.8052 6.37256 21.4542 6.52421 21.1511C6.67587 20.848 6.94173 20.6175 7.26331 20.5104C7.58489 20.4033 7.93586 20.4283 8.23899 20.5799L15.9057 24.4133C16.163 24.5422 16.3692 24.7543 16.491 25.0151C16.6127 25.276 16.6428 25.5703 16.5764 25.8503C16.51 26.1304 16.351 26.3799 16.1252 26.5583C15.8993 26.7367 15.6198 26.8336 15.3319 26.8334ZM30.6678 26.8334C30.3795 26.8342 30.0994 26.7376 29.873 26.5591C29.6466 26.3806 29.4872 26.1307 29.4207 25.8502C29.3542 25.5697 29.3846 25.2749 29.5069 25.0138C29.6291 24.7527 29.8361 24.5406 30.0941 24.412L37.7608 20.5787C38.0639 20.427 38.4149 20.402 38.7365 20.5091C39.058 20.6162 39.3239 20.8467 39.4755 21.1498C39.6272 21.453 39.6522 21.8039 39.5451 22.1255C39.438 22.4471 39.2075 22.7129 38.9044 22.8646L31.2377 26.6979C31.061 26.787 30.8658 26.8334 30.6678 26.8334Z" fill="#99AAB5"/>
</svg>
