<svg width="29" height="26" viewBox="0 0 29 26" fill="none" xmlns="http://www.w3.org/2000/svg">
<path d="M14.1843 25.9955H3.09765C1.07515 25.9944 0.0423423 24.9627 0.0412365 22.9502C0.0412365 22.3376 0.0744103 21.7238 0.0412365 21.1134C-0.154489 17.9409 0.380715 14.8425 0.92587 11.7385C1.47655 8.52953 1.98522 5.30836 2.50273 2.09271C2.70841 0.803358 3.54992 0.00829344 4.84701 0.00608186C11.0394 -0.00202729 17.2293 -0.00202729 23.4166 0.00608186C24.6949 0.00608186 25.5485 0.749174 25.7763 2.09271C26.337 5.39461 26.8678 8.70203 27.4096 12.0072C27.5965 13.1451 27.8221 14.2808 27.9525 15.4253C28.093 16.6593 28.1814 17.9011 28.2223 19.1418C28.2677 20.5008 28.2378 21.8621 28.2312 23.2222C28.2235 24.9085 27.1575 25.9867 25.4767 25.9933C21.7126 26.0014 17.9484 26.0022 14.1843 25.9955ZM26.2994 15.2273C26.1556 14.2708 26.0262 13.3983 25.8947 12.527C25.3694 9.06031 24.8386 5.59365 24.3244 2.12367C24.2614 1.69794 24.1276 1.50775 23.6455 1.50885C17.3447 1.52507 11.0439 1.52507 4.74306 1.50885C4.32397 1.50885 4.16474 1.60837 4.10502 2.06175C3.68703 5.22542 3.22924 8.38356 2.78913 11.5439C2.61994 12.7603 2.46513 13.9866 2.30037 15.2284L26.2994 15.2273ZM14.1489 24.1068C18.0723 24.1068 22.0001 24.098 25.9201 24.1157C26.5062 24.1157 26.7262 23.9244 26.7185 23.3284C26.6927 21.4463 26.6927 19.5642 26.7185 17.6822C26.7273 17.0552 26.4741 16.8429 25.8714 16.844C18.0247 16.8543 10.1777 16.8543 2.33023 16.844C1.75079 16.844 1.52853 17.053 1.53848 17.649C1.56612 19.5078 1.54622 21.3678 1.54954 23.2277C1.54954 24.0593 1.5993 24.1046 2.44633 24.1057L14.1489 24.1068Z" fill="#0490E7"/>
<path d="M9.07855 3.34424L9.14822 4.36488C9.96872 4.36488 10.7782 4.40027 11.581 4.35272C12.1339 4.31955 12.48 4.49205 12.7973 4.96754C14.0137 6.77109 15.2931 8.53041 16.5194 10.3273C16.7826 10.7132 17.0668 10.857 17.5213 10.8382C18.2953 10.805 19.0627 10.8161 19.8335 10.8382C20.5158 10.8548 20.7469 11.1224 20.7436 11.8179C20.7436 12.4283 20.4361 12.7479 19.828 12.7523C18.7222 12.7601 17.6031 12.7932 16.4951 12.7302C16.2032 12.7136 15.8405 12.4482 15.6613 12.1917C14.4184 10.4069 13.2076 8.60007 12.0056 6.78768C11.7712 6.43272 11.5301 6.24805 11.0789 6.28122C10.4508 6.32767 9.81612 6.29339 9.15153 6.29339C9.11725 6.71801 9.0885 7.08845 9.05312 7.54404L6.63696 5.72833L9.07855 3.34424Z" fill="#7A8CA6"/>
<path d="M19.4932 7.58402V6.31789C18.0557 6.31125 16.5397 5.84018 15.6749 7.6946L14.5061 6.2051C15.5732 4.49775 17.3226 4.02116 19.449 4.45241C19.4789 3.98245 19.4999 3.63302 19.5176 3.35547L21.8851 5.78821L19.4932 7.58402Z" fill="#7A8CA6"/>
<path d="M12.3552 8.91211L13.5716 10.2999C13.116 10.9634 12.614 11.7374 12.0611 12.4805C11.9405 12.6419 11.6364 12.7326 11.4142 12.7393C10.5074 12.768 9.59956 12.7326 8.69281 12.7569C7.97405 12.7769 7.87674 12.2848 7.86126 11.7695C7.84578 11.2542 8.02492 10.8262 8.66849 10.8307C9.31206 10.8351 9.94125 10.8683 10.5716 10.8108C10.8638 10.7728 11.1329 10.6316 11.3301 10.4127C11.6995 9.96482 11.9936 9.45063 12.3552 8.91211Z" fill="#7A8CA6"/>
<path d="M17.5364 20.9004H20.2909V22.2992H17.5364V20.9004Z" fill="#0490E7"/>
<path d="M22.2937 20.8877H25.0383V22.3031H22.2937V20.8877Z" fill="#0490E7"/>
<path d="M7.84619 20.9004H10.5709V22.2959H7.84619V20.9004Z" fill="#0490E7"/>
<path d="M15.3207 22.3051H12.585V20.9062H15.3207V22.3051Z" fill="#0490E7"/>
<path d="M10.5897 18.7026V20.0019H7.84619V18.7026H10.5897Z" fill="#0490E7"/>
<path d="M12.5735 20.0044V18.7007H15.328V20.0044H12.5735Z" fill="#0490E7"/>
<path d="M20.3062 18.7119V20.0156H17.5229V18.7119H20.3062Z" fill="#0490E7"/>
<path d="M22.2878 18.6714H25.0424V19.9983H22.2878V18.6714Z" fill="#0490E7"/>
<path d="M4.75541 21.2502C4.63089 21.2524 4.50723 21.2292 4.39201 21.1819C4.27679 21.1346 4.17245 21.0643 4.08537 20.9753C3.9983 20.8862 3.93033 20.7803 3.88563 20.6641C3.84093 20.5478 3.82045 20.4237 3.82544 20.2992C3.82544 19.7862 4.28434 19.304 4.77311 19.3593C5.29946 19.419 5.64668 19.7154 5.6688 20.2838C5.67719 20.4084 5.65972 20.5334 5.61749 20.6509C5.57527 20.7684 5.50919 20.8759 5.42341 20.9667C5.33763 21.0575 5.23401 21.1295 5.11905 21.1783C5.00409 21.2271 4.88029 21.2516 4.75541 21.2502Z" fill="#0490E7"/>
</svg>
