<svg width="22" height="23" viewBox="0 0 22 23" fill="none" xmlns="http://www.w3.org/2000/svg">
<circle cx="11.2617" cy="11.675" r="10.7206" fill="url(#paint0_linear_758_2704)"/>
<path d="M8.75671 13.1738C8.75671 14.1438 9.50673 14.9238 10.4267 14.9238H12.3067C13.1067 14.9238 13.7567 14.2438 13.7567 13.3938C13.7567 12.4838 13.3567 12.1538 12.7667 11.9438L9.75671 10.8938C9.16671 10.6838 8.76672 10.3638 8.76672 9.44382C8.76672 8.60382 9.41671 7.91382 10.2167 7.91382H12.0967C13.0167 7.91382 13.7667 8.69382 13.7667 9.66382" fill="url(#paint1_linear_758_2704)"/>
<path d="M8.75671 13.1738C8.75671 14.1438 9.50673 14.9238 10.4267 14.9238H12.3067C13.1067 14.9238 13.7567 14.2438 13.7567 13.3938C13.7567 12.4838 13.3567 12.1538 12.7667 11.9438L9.75671 10.8938C9.16671 10.6838 8.76672 10.3638 8.76672 9.44382C8.76672 8.60382 9.41671 7.91382 10.2167 7.91382H12.0967C13.0167 7.91382 13.7667 8.69382 13.7667 9.66382" stroke="#EFEFEF" stroke-width="1.5" stroke-linecap="round" stroke-linejoin="round"/>
<path d="M11.2567 6.92383V15.9238Z" fill="url(#paint2_linear_758_2704)"/>
<path d="M11.2567 6.92383V15.9238" stroke="#EFEFEF" stroke-width="1.5" stroke-linecap="round" stroke-linejoin="round"/>
<defs>
<linearGradient id="paint0_linear_758_2704" x1="11.2617" y1="-0.561064" x2="11.2617" y2="22.3956" gradientUnits="userSpaceOnUse">
<stop stop-color="#0490E7"/>
<stop offset="1" stop-color="#43909A"/>
</linearGradient>
<linearGradient id="paint1_linear_758_2704" x1="11.2617" y1="7.41837" x2="11.2617" y2="14.9238" gradientUnits="userSpaceOnUse">
<stop stop-color="#0490E7"/>
<stop offset="1" stop-color="#43909A"/>
</linearGradient>
<linearGradient id="paint2_linear_758_2704" x1="11.7567" y1="6.28773" x2="11.7567" y2="15.9238" gradientUnits="userSpaceOnUse">
<stop stop-color="#0490E7"/>
<stop offset="1" stop-color="#43909A"/>
</linearGradient>
</defs>
</svg>
