<svg width="24" height="24" viewBox="0 0 24 24" fill="none" xmlns="http://www.w3.org/2000/svg">
<path d="M3.15985 20.5C3.15985 15.8137 3.15985 8.5 3.15985 8.5C3.15985 5.78 4.69974 3.88 7.09408 3.56C7.3382 3.52 7.59172 3.5 7.85463 3.5H16.3052C16.5494 3.5 16.7841 3.50999 17.0094 3.54999C19.4319 3.84999 21 5.76 21 8.5V9.95001H19.047C18.5211 9.95001 18.0423 10.17 17.6949 10.55C17.3005 10.96 17.0752 11.55 17.1315 12.18C17.216 13.26 18.1456 14.05 19.1596 14.05H21V15.5C21 18.5 19.1221 20.5 16.3052 20.5H13.9578" fill="url(#paint0_linear_761_2725)"/>
<path d="M10.7516 16.8604V18.8904C10.7516 20.6104 9.15158 22.0004 7.18158 22.0004C5.21158 22.0004 3.60156 20.6104 3.60156 18.8904V16.8604C3.60156 18.5804 5.20158 19.8004 7.18158 19.8004C9.15158 19.8004 10.7516 18.5704 10.7516 16.8604Z" stroke="#5CB8F1" stroke-width="1.5" stroke-linecap="round" stroke-linejoin="round"/>
<path d="M10.75 14.11C10.75 14.61 10.61 15.07 10.37 15.47C9.78 16.44 8.56998 17.05 7.16998 17.05C5.76998 17.05 4.55997 16.43 3.96997 15.47C3.72997 15.07 3.59003 14.61 3.59003 14.11C3.59003 13.25 3.99 12.48 4.63 11.92C5.28 11.35 6.16997 11.01 7.15997 11.01C8.14997 11.01 9.04 11.36 9.69 11.92C10.35 12.47 10.75 13.25 10.75 14.11Z" fill="#0490E7" stroke="#5CB8F1" stroke-width="1.5" stroke-linecap="round" stroke-linejoin="round"/>
<path d="M10.7516 14.11V16.86C10.7516 18.58 9.15158 19.8 7.18158 19.8C5.21158 19.8 3.60156 18.57 3.60156 16.86V14.11C3.60156 12.39 5.20158 11 7.18158 11C8.17158 11 9.06161 11.35 9.71161 11.91C10.3516 12.47 10.7516 13.25 10.7516 14.11Z" stroke="#5CB8F1" stroke-width="1.5" stroke-linecap="round" stroke-linejoin="round"/>
<path d="M22.6042 10.95V13.0101C22.6042 13.5601 22.1642 14.01 21.6042 14.03H19.6442C18.5642 14.03 17.5742 13.24 17.4842 12.16C17.4242 11.53 17.6642 10.94 18.0842 10.53C18.4542 10.15 18.9642 9.93005 19.5242 9.93005H21.6042C22.1642 9.95005 22.6042 10.4 22.6042 10.95Z" fill="#0490E7" stroke="#292D32" stroke-width="1.5" stroke-linecap="round" stroke-linejoin="round"/>
<defs>
<linearGradient id="paint0_linear_761_2725" x1="12.0799" y1="3.5" x2="12.0799" y2="20.5" gradientUnits="userSpaceOnUse">
<stop stop-color="#0490E7"/>
<stop offset="1" stop-color="#87AFEC" stop-opacity="0.88"/>
</linearGradient>
</defs>
</svg>
