<svg width="18" height="22" viewBox="0 0 18 22" fill="none" xmlns="http://www.w3.org/2000/svg">
<path d="M9.23975 0.702637C6.96444 0.705238 4.78309 1.58223 3.1742 3.14124C1.56531 4.70025 0.660256 6.81397 0.657571 9.01874C0.654846 10.8205 1.26221 12.5733 2.38649 14.0084C2.38649 14.0084 2.62055 14.307 2.65878 14.3501L9.23975 21.8709L15.8238 14.3463C15.8582 14.3063 16.093 14.0084 16.093 14.0084L16.0938 14.0061C17.2175 12.5717 17.8246 10.8197 17.8219 9.01874C17.8192 6.81397 16.9142 4.70025 15.3053 3.14124C13.6964 1.58223 11.5151 0.705238 9.23975 0.702637ZM9.23975 12.0428C8.62251 12.0428 8.01914 11.8654 7.50593 11.5331C6.99272 11.2009 6.59272 10.7286 6.35651 10.176C6.12031 9.62342 6.0585 9.01539 6.17892 8.42878C6.29934 7.84218 6.59656 7.30334 7.03301 6.88042C7.46946 6.4575 8.02554 6.16949 8.63091 6.05281C9.23628 5.93613 9.86377 5.99601 10.434 6.22489C11.0043 6.45378 11.4917 6.84138 11.8346 7.33868C12.1775 7.83598 12.3605 8.42064 12.3605 9.01874C12.3595 9.82046 12.0304 10.5891 11.4453 11.156C10.8603 11.7229 10.0671 12.0418 9.23975 12.0428Z" fill="#0490E7"/>
<ellipse cx="9.2399" cy="9.04166" rx="3.30084" ry="3.20731" fill="white"/>
</svg>
