<svg width="29" height="29" viewBox="0 0 29 29" fill="none" xmlns="http://www.w3.org/2000/svg">
<path d="M29 14.5C29.0008 15.4625 28.907 16.4228 28.72 17.367H28.4783V17.4258H17.0637C16.3838 18.0947 15.5129 18.5358 14.5713 18.6882C13.6297 18.8405 12.6639 18.6965 11.8078 18.2762C10.9516 17.8558 10.2473 17.1798 9.79232 16.3417C9.33734 15.5036 9.15418 14.5448 9.26817 13.5981C9.38217 12.6514 9.78769 11.7635 10.4286 11.0572C11.0696 10.351 11.9142 9.86141 12.8457 9.65614C13.7772 9.45088 14.7495 9.54011 15.6281 9.91149C16.5066 10.2829 17.248 10.918 17.7496 11.7291H23.0132C22.4478 10.1715 21.4657 8.79872 20.1739 7.76039C18.8821 6.72206 17.3301 6.05795 15.6869 5.84035C14.0437 5.62276 12.3723 5.86004 10.8546 6.52635C9.33693 7.19266 8.03123 8.26245 7.07967 9.61924C6.12811 10.976 5.56716 12.5678 5.45791 14.2213C5.34866 15.8747 5.6953 17.5264 6.46007 18.9965C7.22485 20.4667 8.37845 21.6988 9.79526 22.5589C11.2121 23.419 12.8378 23.874 14.4953 23.8743C16.5764 23.8773 18.5939 23.157 20.2022 21.8368L20.2797 21.7789L21.1103 21.0652C21.6442 20.6309 22.3147 20.3996 23.0029 20.4121C23.7287 20.4035 24.434 20.6532 24.9926 21.1165C25.1946 21.2934 25.3703 21.4982 25.5143 21.7248C25.7332 22.0873 25.8365 22.5079 25.8105 22.9305C25.7845 23.3531 25.6304 23.7578 25.3687 24.0908C25.3592 24.109 25.3462 24.1252 25.3304 24.1384C25.2514 24.2298 25.1676 24.317 25.0794 24.3996C25.0701 24.4183 25.0505 24.4285 25.0309 24.4472C23.6811 25.8882 22.0493 27.0363 20.2368 27.8201C18.4244 28.604 16.4701 29.0069 14.4953 29.0037C6.48986 29 0 22.5029 0 14.5C0 6.49711 6.48986 0 14.4953 0C18.3421 0.000247407 22.0313 1.528 24.7514 4.24723C27.4715 6.96645 28.9998 10.6544 29 14.5Z" fill="url(#paint0_linear_182_3491)"/>
<defs>
<linearGradient id="paint0_linear_182_3491" x1="-0.493692" y1="14.5" x2="28.5063" y2="14.5" gradientUnits="userSpaceOnUse">
<stop stop-color="#02A0FC"/>
<stop offset="1" stop-color="#0E4082"/>
</linearGradient>
</defs>
</svg>
