<svg width="30" height="29" viewBox="0 0 30 29" fill="none" xmlns="http://www.w3.org/2000/svg">
<g clip-path="url(#clip0_335_2636)">
<path d="M29.0557 14.5C29.0565 15.4625 28.9627 16.4228 28.7757 17.367H28.534V17.4258H17.1193C16.4395 18.0947 15.5685 18.5358 14.6269 18.6882C13.6853 18.8405 12.7196 18.6965 11.8634 18.2762C11.0073 17.8558 10.303 17.1798 9.84799 16.3417C9.393 15.5036 9.20984 14.5448 9.32384 13.5981C9.43784 12.6514 9.84336 11.7635 10.4843 11.0572C11.1252 10.351 11.9699 9.86141 12.9014 9.65614C13.8329 9.45088 14.8052 9.54011 15.6837 9.91149C16.5623 10.2829 17.3037 10.918 17.8053 11.7291H23.0688C22.5034 10.1715 21.5214 8.79872 20.2296 7.76039C18.9378 6.72206 17.3858 6.05795 15.7426 5.84035C14.0994 5.62276 12.4279 5.86004 10.9103 6.52635C9.39259 7.19266 8.08689 8.26245 7.13533 9.61924C6.18377 10.976 5.62282 12.5678 5.51357 14.2213C5.40432 15.8747 5.75096 17.5264 6.51574 18.9965C7.28051 20.4667 8.43411 21.6988 9.85092 22.5589C11.2677 23.419 12.8934 23.874 14.551 23.8743C16.6321 23.8773 18.6495 23.157 20.2579 21.8368L20.3353 21.7789L21.1659 21.0652C21.6999 20.6309 22.3703 20.3996 23.0586 20.4121C23.7844 20.4035 24.4896 20.6532 25.0483 21.1165C25.2503 21.2934 25.4259 21.4982 25.57 21.7248C25.7889 22.0873 25.8922 22.5079 25.8662 22.9305C25.8402 23.3531 25.6861 23.7578 25.4244 24.0908C25.4149 24.109 25.4019 24.1252 25.3861 24.1384C25.3071 24.2298 25.2233 24.317 25.1351 24.3996C25.1257 24.4183 25.1061 24.4285 25.0865 24.4472C23.7367 25.8882 22.1049 27.0363 20.2925 27.8201C18.4801 28.604 16.5258 29.0069 14.551 29.0037C6.54553 29 0.0556641 22.5029 0.0556641 14.5C0.0556641 6.49711 6.54553 0 14.551 0C18.3978 0.000247407 22.087 1.528 24.8071 4.24723C27.5272 6.96645 29.0554 10.6544 29.0557 14.5Z" fill="url(#paint0_linear_335_2636)"/>
</g>
<defs>
<linearGradient id="paint0_linear_335_2636" x1="-0.438028" y1="14.5" x2="28.562" y2="14.5" gradientUnits="userSpaceOnUse">
<stop stop-color="#02A0FC"/>
<stop offset="1" stop-color="#0E4082"/>
</linearGradient>
<clipPath id="clip0_335_2636">
<rect width="29" height="29" fill="white" transform="translate(0.0556641)"/>
</clipPath>
</defs>
</svg>
