<svg width="100" height="101" viewBox="0 0 100 101" fill="none" xmlns="http://www.w3.org/2000/svg">
<rect y="0.5" width="100" height="100" rx="50" fill="url(#paint0_linear_236_1702)"/>
<g clip-path="url(#clip0_236_1702)">
<mask id="mask0_236_1702" style="mask-type:luminance" maskUnits="userSpaceOnUse" x="30" y="24" width="40" height="53">
<path d="M30.1123 24.5H69.8767V76.4059H30.1123V24.5Z" fill="white"/>
</mask>
<g mask="url(#mask0_236_1702)">
<path d="M66.4293 76.3919C66.5425 76.3919 66.6557 76.3864 66.7685 76.3754C66.881 76.3644 66.993 76.3478 67.104 76.3254C67.2154 76.3034 67.3249 76.2758 67.4333 76.2431C67.5417 76.2104 67.6483 76.1722 67.753 76.1288C67.8577 76.0854 67.9599 76.0369 68.0598 75.9836C68.1598 75.9304 68.2568 75.8719 68.3509 75.8091C68.445 75.7463 68.5361 75.6786 68.6236 75.607C68.711 75.535 68.7948 75.4592 68.8749 75.3791C68.955 75.299 69.0311 75.2152 69.1031 75.1274C69.1748 75.04 69.2424 74.9492 69.3052 74.8547C69.3681 74.7607 69.4261 74.6637 69.4798 74.5637C69.5331 74.4637 69.5816 74.3616 69.6249 74.2569C69.6683 74.1525 69.7062 74.0459 69.7392 73.9375C69.7719 73.8291 69.7995 73.7192 69.8215 73.6082C69.8436 73.4973 69.8605 73.3852 69.8715 73.2724C69.8825 73.1596 69.8881 73.0467 69.8881 72.9336V27.9723C69.8881 27.8591 69.8825 27.7463 69.8715 27.6335C69.8605 27.5206 69.8436 27.4089 69.8215 27.2976C69.7995 27.1866 69.7719 27.0767 69.7392 26.9683C69.7062 26.8599 69.6683 26.7537 69.6249 26.649C69.5816 26.5442 69.5331 26.4421 69.4798 26.3421C69.4261 26.2422 69.3681 26.1452 69.3052 26.0511C69.2424 25.9566 69.1748 25.8659 69.1031 25.7784C69.0311 25.691 68.955 25.6068 68.8749 25.5267C68.7948 25.4466 68.711 25.3709 68.6236 25.2989C68.5361 25.2272 68.445 25.1596 68.3509 25.0967C68.2568 25.0339 68.1598 24.9755 68.0598 24.9222C67.9599 24.8689 67.8577 24.8204 67.753 24.777C67.6483 24.7337 67.5417 24.6958 67.4333 24.6627C67.3249 24.63 67.2154 24.6025 67.104 24.5804C66.993 24.5584 66.881 24.5415 66.7685 24.5305C66.6557 24.5194 66.5425 24.5139 66.4293 24.5139H37.0298C36.9151 24.5143 36.8049 24.5367 36.6987 24.5804C36.5928 24.6245 36.4991 24.687 36.4175 24.7682L30.3648 30.8206C30.2843 30.9015 30.2218 30.9944 30.1781 31.0999C30.134 31.2057 30.1119 31.316 30.1123 31.431V72.9336C30.1123 73.0467 30.1178 73.1596 30.1288 73.2724C30.1402 73.3852 30.1568 73.4973 30.1788 73.6082C30.2009 73.7192 30.2284 73.8291 30.2611 73.9375C30.2942 74.0459 30.3324 74.1525 30.3758 74.2569C30.4192 74.3616 30.4673 74.4637 30.5206 74.5637C30.5742 74.6637 30.6323 74.7607 30.6951 74.8547C30.7583 74.9492 30.8256 75.04 30.8976 75.1274C30.9693 75.2152 31.0453 75.299 31.1255 75.3791C31.2056 75.4592 31.2894 75.535 31.3768 75.607C31.4646 75.6786 31.5554 75.7463 31.6495 75.8091C31.7436 75.8719 31.8409 75.9304 31.9405 75.9836C32.0405 76.0369 32.143 76.0854 32.2474 76.1288C32.3521 76.1722 32.4587 76.2104 32.5671 76.2431C32.6755 76.2758 32.7854 76.3034 32.8963 76.3254C33.0073 76.3478 33.1194 76.3644 33.2322 76.3754C33.3447 76.3864 33.4579 76.3919 33.571 76.3919H66.4293ZM36.1651 27.4659V28.837C36.1651 28.8936 36.1625 28.9501 36.157 29.0064C36.1515 29.063 36.143 29.1188 36.132 29.1743C36.121 29.2298 36.107 29.2849 36.0909 29.3389C36.0743 29.3933 36.0552 29.4466 36.0335 29.4988C36.0118 29.551 35.9876 29.6024 35.9611 29.6524C35.9343 29.702 35.9053 29.7505 35.8737 29.7979C35.8424 29.845 35.8086 29.8902 35.7726 29.9343C35.7366 29.978 35.6988 30.0199 35.6587 30.0599C35.6186 30.1 35.5767 30.1378 35.533 30.1739C35.4893 30.2099 35.4437 30.2433 35.3967 30.2749C35.3496 30.3065 35.3011 30.3355 35.2512 30.362C35.2012 30.3888 35.1501 30.4131 35.0976 30.4348C35.0454 30.4564 34.9921 30.4756 34.9377 30.4917C34.8837 30.5083 34.8289 30.5219 34.7731 30.5333C34.7176 30.5443 34.6617 30.5524 34.6055 30.5579C34.5489 30.5634 34.4923 30.5663 34.4357 30.5663H33.0643L36.1651 27.4659ZM31.8417 72.9336V32.2957H34.4357C34.5489 32.2957 34.6621 32.2902 34.7749 32.2788C34.8877 32.2678 34.9994 32.2512 35.1104 32.2292C35.2218 32.2071 35.3313 32.1796 35.4397 32.1465C35.5481 32.1138 35.6547 32.0756 35.7594 32.0322C35.8641 31.9888 35.9663 31.9407 36.0662 31.8871C36.1662 31.8338 36.2632 31.7757 36.3573 31.7129C36.4517 31.6497 36.5425 31.5824 36.6299 31.5104C36.7174 31.4387 36.8016 31.3627 36.8817 31.2825C36.9618 31.2024 37.0375 31.1186 37.1095 31.0312C37.1812 30.9437 37.2488 30.8526 37.3116 30.7585C37.3745 30.6644 37.4329 30.5674 37.4862 30.4675C37.5395 30.3675 37.588 30.2654 37.6313 30.1606C37.6747 30.0559 37.7129 29.9493 37.7456 29.8409C37.7787 29.7325 37.8059 29.623 37.8279 29.5117C37.8504 29.4007 37.8669 29.2886 37.8779 29.1761C37.8889 29.0633 37.8944 28.9501 37.8944 28.837V26.2433H66.4293C66.4859 26.2433 66.5425 26.2459 66.5987 26.2514C66.6553 26.2569 66.7112 26.2653 66.7667 26.2764C66.8222 26.2874 66.8773 26.3013 66.9313 26.3175C66.9857 26.334 67.039 26.3532 67.0912 26.3748C67.1433 26.3965 67.1948 26.4208 67.2444 26.4472C67.2944 26.4741 67.3429 26.5031 67.3903 26.5347C67.4373 26.5659 67.4825 26.5997 67.5266 26.6358C67.5704 26.6718 67.6123 26.7096 67.6523 26.7497C67.6924 26.7897 67.7302 26.8316 67.7662 26.8753C67.8022 26.9191 67.8357 26.9646 67.8673 27.0117C67.8989 27.0587 67.9279 27.1072 67.9544 27.1572C67.9812 27.2072 68.0055 27.2583 68.0271 27.3108C68.0488 27.363 68.0679 27.4163 68.0841 27.4703C68.1006 27.5247 68.1146 27.5794 68.1256 27.6349C68.1366 27.6904 68.1447 27.7466 68.1502 27.8029C68.1561 27.8595 68.1587 27.9157 68.1587 27.9723V72.9336C68.1587 72.9901 68.1561 73.0467 68.1502 73.103C68.1447 73.1592 68.1366 73.2154 68.1256 73.2709C68.1146 73.3264 68.1006 73.3811 68.0841 73.4355C68.0679 73.4896 68.0488 73.5428 68.0271 73.5954C68.0055 73.6476 67.9812 73.6986 67.9544 73.7486C67.9279 73.7986 67.8989 73.8471 67.8673 73.8941C67.8357 73.9412 67.8022 73.9868 67.7662 74.0305C67.7302 74.0742 67.6924 74.1161 67.6523 74.1562C67.6123 74.1962 67.5704 74.2344 67.5266 74.2701C67.4825 74.3061 67.4373 74.3399 67.3903 74.3711C67.3429 74.4027 67.2944 74.4318 67.2444 74.4586C67.1948 74.4854 67.1433 74.5093 67.0912 74.531C67.039 74.5527 66.9857 74.5718 66.9313 74.5883C66.8773 74.6049 66.8222 74.6185 66.7667 74.6295C66.7112 74.6405 66.6553 74.649 66.5987 74.6545C66.5425 74.66 66.4859 74.6629 66.4293 74.6629H33.571C33.5144 74.6629 33.4579 74.66 33.4016 74.6545C33.3454 74.649 33.2892 74.6405 33.2337 74.6295C33.1782 74.6185 33.1234 74.6049 33.0691 74.5883C33.015 74.5718 32.9618 74.5527 32.9092 74.531C32.857 74.5093 32.8059 74.4854 32.756 74.4586C32.706 74.4318 32.6575 74.4027 32.6104 74.3711C32.5634 74.3399 32.5178 74.3061 32.4741 74.2701C32.4304 74.2344 32.3885 74.1962 32.3484 74.1562C32.3084 74.1161 32.2702 74.0742 32.2341 74.0305C32.1985 73.9868 32.1647 73.9412 32.1331 73.8941C32.1019 73.8471 32.0728 73.7986 32.046 73.7486C32.0192 73.6986 31.9949 73.6476 31.9732 73.5954C31.9516 73.5428 31.9328 73.4896 31.9163 73.4355C31.8997 73.3811 31.8861 73.3264 31.8751 73.2709C31.8641 73.2154 31.8556 73.1592 31.8501 73.103C31.8446 73.0467 31.8417 72.9901 31.8417 72.9336Z" fill="white"/>
</g>
<path d="M43.9477 34.8894H56.0536C56.1102 34.8894 56.1664 34.8839 56.2223 34.8728C56.2778 34.8618 56.3322 34.8453 56.3843 34.8236C56.4369 34.8019 56.4869 34.7755 56.5339 34.7439C56.5813 34.7123 56.6247 34.6762 56.6651 34.6362C56.7052 34.5961 56.7408 34.5524 56.7724 34.5054C56.804 34.458 56.8308 34.4084 56.8525 34.3558C56.8742 34.3033 56.8904 34.2492 56.9018 34.1934C56.9128 34.1379 56.9183 34.0817 56.9183 34.0247V30.5663C56.9183 30.5094 56.9128 30.4532 56.9018 30.3977C56.8904 30.3418 56.8742 30.2878 56.8525 30.2356C56.8308 30.1831 56.804 30.1331 56.7724 30.086C56.7408 30.0386 56.7052 29.9949 56.6651 29.9549C56.6247 29.9148 56.5813 29.8788 56.5339 29.8476C56.4869 29.8159 56.4369 29.7891 56.3843 29.7674C56.3322 29.7458 56.2778 29.7292 56.2223 29.7182C56.1664 29.7072 56.1102 29.7017 56.0536 29.7017H43.9477C43.8911 29.7017 43.8349 29.7072 43.779 29.7182C43.7235 29.7292 43.6695 29.7458 43.617 29.7674C43.5644 29.7891 43.5148 29.8159 43.4674 29.8476C43.4204 29.8788 43.3766 29.9148 43.3366 29.9549C43.2961 29.9949 43.2605 30.0386 43.2289 30.086C43.1973 30.1331 43.1708 30.1831 43.1492 30.2356C43.1271 30.2878 43.1109 30.3418 43.0999 30.3977C43.0889 30.4532 43.083 30.5094 43.083 30.5663V34.0247C43.083 34.0817 43.0889 34.1379 43.0999 34.1934C43.1109 34.2492 43.1271 34.3033 43.1492 34.3558C43.1708 34.4084 43.1973 34.458 43.2289 34.5054C43.2605 34.5524 43.2961 34.5961 43.3366 34.6362C43.3766 34.6762 43.4204 34.7123 43.4674 34.7439C43.5148 34.7755 43.5644 34.8019 43.617 34.8236C43.6695 34.8453 43.7235 34.8618 43.779 34.8728C43.8349 34.8839 43.8911 34.8894 43.9477 34.8894ZM44.8127 31.431H55.1889V33.1604H44.8127V31.431Z" fill="white"/>
<path d="M34.436 72.9336H48.2713C48.3278 72.9336 48.3841 72.9281 48.4399 72.9171C48.4954 72.9057 48.5494 72.8895 48.602 72.8678C48.6545 72.8461 48.7041 72.8193 48.7516 72.7877C48.7986 72.7561 48.8423 72.7205 48.8824 72.6804C48.9228 72.64 48.9584 72.5966 48.99 72.5492C49.0217 72.5022 49.0481 72.4522 49.0698 72.3996C49.0918 72.3475 49.108 72.2931 49.119 72.2376C49.1304 72.1817 49.1359 72.1255 49.1359 72.0689V39.2128C49.1359 39.1559 49.1304 39.0996 49.119 39.0442C49.108 38.9883 49.0918 38.9343 49.0702 38.8817C49.0481 38.8295 49.0217 38.7796 48.99 38.7325C48.9584 38.6851 48.9228 38.6414 48.8824 38.6013C48.8423 38.5613 48.7986 38.5253 48.7516 38.4937C48.7041 38.4624 48.6545 38.4356 48.602 38.4139C48.5494 38.3922 48.4954 38.3757 48.4399 38.3647C48.3841 38.3537 48.3278 38.3481 48.2713 38.3481H34.436C34.3794 38.3481 34.3232 38.3537 34.2673 38.3647C34.2118 38.3757 34.1578 38.3922 34.1052 38.4139C34.0527 38.4356 34.0027 38.4624 33.9557 38.4937C33.9083 38.5253 33.8649 38.5613 33.8245 38.6013C33.7844 38.6414 33.7488 38.6851 33.7172 38.7325C33.6856 38.7796 33.6587 38.8295 33.6371 38.8817C33.6154 38.9343 33.5992 38.9883 33.5878 39.0442C33.5768 39.0996 33.5713 39.1559 33.5713 39.2128V72.0689C33.5713 72.1255 33.5768 72.1817 33.5878 72.2376C33.5992 72.2931 33.6154 72.3475 33.6371 72.3996C33.6587 72.4522 33.6856 72.5022 33.7172 72.5492C33.7488 72.5966 33.7844 72.64 33.8245 72.6804C33.8649 72.7205 33.9083 72.7561 33.9557 72.7877C34.0027 72.8193 34.0527 72.8461 34.1052 72.8678C34.1578 72.8895 34.2118 72.9057 34.2673 72.9171C34.3232 72.9281 34.3794 72.9336 34.436 72.9336ZM35.3007 71.2042V43.5359H47.4066V71.2042H35.3007ZM47.4066 40.0775V41.8065H35.3007V40.0775H47.4066Z" fill="white"/>
<path d="M42.2178 45.2651H37.0297C36.9731 45.2651 36.9169 45.2706 36.861 45.2817C36.8056 45.2927 36.7515 45.3092 36.699 45.3309C36.6464 45.3526 36.5965 45.3794 36.5494 45.4107C36.5024 45.4423 36.4587 45.4783 36.4182 45.5183C36.3782 45.5584 36.3425 45.6021 36.3109 45.6495C36.2793 45.6966 36.2529 45.7465 36.2308 45.7987C36.2091 45.8513 36.193 45.9053 36.1816 45.9611C36.1706 46.0166 36.165 46.0729 36.165 46.1298C36.165 46.1864 36.1706 46.2426 36.1816 46.2985C36.193 46.354 36.2091 46.408 36.2308 46.4606C36.2529 46.5131 36.2793 46.5627 36.3109 46.6101C36.3425 46.6572 36.3782 46.7009 36.4182 46.7409C36.4587 46.7814 36.5024 46.817 36.5494 46.8486C36.5965 46.8802 36.6464 46.9067 36.699 46.9284C36.7515 46.9504 36.8056 46.9666 36.861 46.9776C36.9169 46.9886 36.9731 46.9945 37.0297 46.9945H42.2178C42.2748 46.9945 42.331 46.9886 42.3865 46.9776C42.4423 46.9666 42.4964 46.9504 42.5489 46.9284C42.6015 46.9067 42.6511 46.8802 42.6985 46.8486C42.7455 46.817 42.7892 46.7814 42.8293 46.7409C42.8697 46.7009 42.9054 46.6572 42.937 46.6101C42.9686 46.5627 42.995 46.5131 43.0167 46.4606C43.0384 46.408 43.0549 46.354 43.066 46.2985C43.077 46.2426 43.0825 46.1864 43.0825 46.1298C43.0825 46.0729 43.077 46.0166 43.066 45.9611C43.0549 45.9053 43.0384 45.8513 43.0167 45.7987C42.995 45.7465 42.9686 45.6966 42.937 45.6495C42.9054 45.6021 42.8697 45.5584 42.8293 45.5183C42.7892 45.4783 42.7455 45.4423 42.6985 45.4107C42.6511 45.3794 42.6015 45.3526 42.5489 45.3309C42.4964 45.3092 42.4423 45.2927 42.3865 45.2817C42.331 45.2706 42.2748 45.2651 42.2178 45.2651Z" fill="white"/>
<path d="M42.2178 48.7236H37.0297C36.9731 48.7236 36.9169 48.7291 36.861 48.7405C36.8056 48.7516 36.7515 48.7677 36.699 48.7894C36.6464 48.8115 36.5965 48.8379 36.5494 48.8695C36.5024 48.9011 36.4587 48.9368 36.4182 48.9768C36.3782 49.0172 36.3425 49.061 36.3109 49.108C36.2793 49.1551 36.2529 49.205 36.2308 49.2576C36.2091 49.3101 36.193 49.3642 36.1816 49.4196C36.1706 49.4755 36.165 49.5317 36.165 49.5883C36.165 49.6453 36.1706 49.7015 36.1816 49.757C36.193 49.8128 36.2091 49.8669 36.2308 49.9194C36.2529 49.9716 36.2793 50.0216 36.3109 50.0686C36.3425 50.116 36.3782 50.1597 36.4182 50.1998C36.4587 50.2399 36.5024 50.2759 36.5494 50.3075C36.5965 50.3387 36.6464 50.3655 36.699 50.3872C36.7515 50.4089 36.8056 50.4254 36.861 50.4365C36.9169 50.4475 36.9731 50.453 37.0297 50.453H42.2178C42.2748 50.453 42.331 50.4475 42.3865 50.4365C42.4423 50.4254 42.4964 50.4089 42.5489 50.3872C42.6015 50.3655 42.6511 50.3387 42.6985 50.3075C42.7455 50.2759 42.7892 50.2399 42.8293 50.1998C42.8697 50.1597 42.9054 50.116 42.937 50.0686C42.9686 50.0216 42.995 49.9716 43.0167 49.9194C43.0384 49.8669 43.0549 49.8128 43.066 49.757C43.077 49.7015 43.0825 49.6453 43.0825 49.5883C43.0825 49.5317 43.077 49.4755 43.066 49.4196C43.0549 49.3642 43.0384 49.3101 43.0167 49.2576C42.995 49.205 42.9686 49.1551 42.937 49.108C42.9054 49.061 42.8697 49.0172 42.8293 48.9768C42.7892 48.9368 42.7455 48.9011 42.6985 48.8695C42.6511 48.8379 42.6015 48.8115 42.5489 48.7894C42.4964 48.7677 42.4423 48.7516 42.3865 48.7405C42.331 48.7291 42.2748 48.7236 42.2178 48.7236Z" fill="white"/>
<path d="M42.2178 52.1824H37.0297C36.9731 52.1824 36.9169 52.1879 36.861 52.1989C36.8056 52.2099 36.7515 52.2265 36.699 52.2482C36.6464 52.2698 36.5965 52.2967 36.5494 52.3279C36.5024 52.3595 36.4587 52.3955 36.4182 52.4356C36.3782 52.4756 36.3425 52.5194 36.3109 52.5664C36.2793 52.6138 36.2529 52.6638 36.2308 52.716C36.2091 52.7685 36.193 52.8225 36.1816 52.8784C36.1706 52.9339 36.165 52.9901 36.165 53.0471C36.165 53.1036 36.1706 53.1599 36.1816 53.2157C36.193 53.2712 36.2091 53.3252 36.2308 53.3778C36.2529 53.4303 36.2793 53.4799 36.3109 53.5274C36.3425 53.5744 36.3782 53.6181 36.4182 53.6582C36.4587 53.6986 36.5024 53.7342 36.5494 53.7658C36.5965 53.7975 36.6464 53.8239 36.699 53.8456C36.7515 53.8676 36.8056 53.8838 36.861 53.8948C36.9169 53.9059 36.9731 53.9117 37.0297 53.9117H42.2178C42.2748 53.9117 42.331 53.9059 42.3865 53.8948C42.4423 53.8838 42.4964 53.8676 42.5489 53.8456C42.6015 53.8239 42.6511 53.7975 42.6985 53.7658C42.7455 53.7342 42.7892 53.6986 42.8293 53.6582C42.8697 53.6181 42.9054 53.5744 42.937 53.5274C42.9686 53.4799 42.995 53.4303 43.0167 53.3778C43.0384 53.3252 43.0549 53.2712 43.066 53.2157C43.077 53.1599 43.0825 53.1036 43.0825 53.0471C43.0825 52.9901 43.077 52.9339 43.066 52.8784C43.0549 52.8225 43.0384 52.7685 43.0167 52.716C42.995 52.6638 42.9686 52.6138 42.937 52.5664C42.9054 52.5194 42.8697 52.4756 42.8293 52.4356C42.7892 52.3955 42.7455 52.3595 42.6985 52.3279C42.6511 52.2967 42.6015 52.2698 42.5489 52.2482C42.4964 52.2265 42.4423 52.2099 42.3865 52.1989C42.331 52.1879 42.2748 52.1824 42.2178 52.1824Z" fill="white"/>
<path d="M42.2178 55.6406H37.0297C36.9731 55.6406 36.9169 55.6461 36.861 55.6575C36.8056 55.6686 36.7515 55.6847 36.699 55.7064C36.6464 55.7285 36.5965 55.7549 36.5494 55.7865C36.5024 55.8181 36.4587 55.8538 36.4182 55.8938C36.3782 55.9342 36.3425 55.978 36.3109 56.025C36.2793 56.072 36.2529 56.122 36.2308 56.1746C36.2091 56.2268 36.193 56.2811 36.1816 56.3366C36.1706 56.3925 36.165 56.4487 36.165 56.5053C36.165 56.5623 36.1706 56.6185 36.1816 56.674C36.193 56.7298 36.2091 56.7839 36.2308 56.8364C36.2529 56.8886 36.2793 56.9386 36.3109 56.9856C36.3425 57.033 36.3782 57.0767 36.4182 57.1168C36.4587 57.1569 36.5024 57.1929 36.5494 57.2241C36.5965 57.2557 36.6464 57.2825 36.699 57.3042C36.7515 57.3259 36.8056 57.3424 36.861 57.3535C36.9169 57.3645 36.9731 57.37 37.0297 57.37H42.2178C42.2748 57.37 42.331 57.3645 42.3865 57.3535C42.4423 57.3424 42.4964 57.3259 42.5489 57.3042C42.6015 57.2825 42.6511 57.2557 42.6985 57.2241C42.7455 57.1929 42.7892 57.1569 42.8293 57.1168C42.8697 57.0767 42.9054 57.033 42.937 56.9856C42.9686 56.9386 42.995 56.8886 43.0167 56.8364C43.0384 56.7839 43.0549 56.7298 43.066 56.674C43.077 56.6185 43.0825 56.5623 43.0825 56.5053C43.0825 56.4487 43.077 56.3925 43.066 56.3366C43.0549 56.2811 43.0384 56.2268 43.0167 56.1746C42.995 56.122 42.9686 56.072 42.937 56.025C42.9054 55.978 42.8697 55.9342 42.8293 55.8938C42.7892 55.8538 42.7455 55.8181 42.6985 55.7865C42.6511 55.7549 42.6015 55.7285 42.5489 55.7064C42.4964 55.6847 42.4423 55.6686 42.3865 55.6575C42.331 55.6461 42.2748 55.6406 42.2178 55.6406Z" fill="white"/>
<path d="M42.2178 59.0994H37.0297C36.9731 59.0994 36.9169 59.1049 36.861 59.1159C36.8056 59.1269 36.7515 59.1435 36.699 59.1651C36.6464 59.1868 36.5965 59.2133 36.5494 59.2449C36.5024 59.2765 36.4587 59.3125 36.4182 59.3526C36.3782 59.3926 36.3425 59.4363 36.3109 59.4834C36.2793 59.5308 36.2529 59.5808 36.2308 59.6329C36.2091 59.6855 36.193 59.7395 36.1816 59.7954C36.1706 59.8509 36.165 59.9071 36.165 59.964C36.165 60.0206 36.1706 60.0769 36.1816 60.1327C36.193 60.1882 36.2091 60.2422 36.2308 60.2948C36.2529 60.3473 36.2793 60.3969 36.3109 60.4443C36.3425 60.4914 36.3782 60.5351 36.4182 60.5752C36.4587 60.6156 36.5024 60.6512 36.5494 60.6828C36.5965 60.7144 36.6464 60.7409 36.699 60.7626C36.7515 60.7846 36.8056 60.8008 36.861 60.8118C36.9169 60.8229 36.9731 60.8287 37.0297 60.8287H42.2178C42.2748 60.8287 42.331 60.8229 42.3865 60.8118C42.4423 60.8008 42.4964 60.7846 42.5489 60.7626C42.6015 60.7409 42.6511 60.7144 42.6985 60.6828C42.7455 60.6512 42.7892 60.6156 42.8293 60.5752C42.8697 60.5351 42.9054 60.4914 42.937 60.4443C42.9686 60.3969 42.995 60.3473 43.0167 60.2948C43.0384 60.2422 43.0549 60.1882 43.066 60.1327C43.077 60.0769 43.0825 60.0206 43.0825 59.964C43.0825 59.9071 43.077 59.8509 43.066 59.7954C43.0549 59.7395 43.0384 59.6855 43.0167 59.6329C42.995 59.5808 42.9686 59.5308 42.937 59.4834C42.9054 59.4363 42.8697 59.3926 42.8293 59.3526C42.7892 59.3125 42.7455 59.2765 42.6985 59.2449C42.6511 59.2133 42.6015 59.1868 42.5489 59.1651C42.4964 59.1435 42.4423 59.1269 42.3865 59.1159C42.331 59.1049 42.2748 59.0994 42.2178 59.0994Z" fill="white"/>
<path d="M42.2178 62.5579H37.0297C36.9731 62.5579 36.9169 62.5634 36.861 62.5744C36.8056 62.5858 36.7515 62.602 36.699 62.6236C36.6464 62.6453 36.5965 62.6721 36.5494 62.7038C36.5024 62.7354 36.4587 62.771 36.4182 62.8111C36.3782 62.8515 36.3425 62.8952 36.3109 62.9422C36.2793 62.9893 36.2529 63.0393 36.2308 63.0918C36.2091 63.144 36.193 63.1984 36.1816 63.2539C36.1706 63.3097 36.165 63.366 36.165 63.4225C36.165 63.4795 36.1706 63.5357 36.1816 63.5912C36.193 63.6471 36.2091 63.7011 36.2308 63.7536C36.2529 63.8058 36.2793 63.8558 36.3109 63.9028C36.3425 63.9502 36.3782 63.994 36.4182 64.034C36.4587 64.0741 36.5024 64.1101 36.5494 64.1413C36.5965 64.1729 36.6464 64.1998 36.699 64.2214C36.7515 64.2431 36.8056 64.2597 36.861 64.2707C36.9169 64.2817 36.9731 64.2872 37.0297 64.2872H42.2178C42.2748 64.2872 42.331 64.2817 42.3865 64.2707C42.4423 64.2597 42.4964 64.2431 42.5489 64.2214C42.6015 64.1998 42.6511 64.1729 42.6985 64.1413C42.7455 64.1101 42.7892 64.0741 42.8293 64.034C42.8697 63.994 42.9054 63.9502 42.937 63.9028C42.9686 63.8558 42.995 63.8058 43.0167 63.7536C43.0384 63.7011 43.0549 63.6471 43.066 63.5912C43.077 63.5357 43.0825 63.4795 43.0825 63.4225C43.0825 63.366 43.077 63.3097 43.066 63.2539C43.0549 63.1984 43.0384 63.144 43.0167 63.0918C42.995 63.0393 42.9686 62.9893 42.937 62.9422C42.9054 62.8952 42.8697 62.8515 42.8293 62.8111C42.7892 62.771 42.7455 62.7354 42.6985 62.7038C42.6511 62.6721 42.6015 62.6453 42.5489 62.6236C42.4964 62.602 42.4423 62.5858 42.3865 62.5744C42.331 62.5634 42.2748 62.5579 42.2178 62.5579Z" fill="white"/>
<path d="M50.8652 39.2128V72.0689C50.8652 72.1255 50.8707 72.1817 50.8818 72.2376C50.8928 72.2931 50.9093 72.3475 50.931 72.3996C50.9527 72.4522 50.9792 72.5022 51.0108 72.5492C51.0424 72.5966 51.0784 72.64 51.1184 72.6804C51.1585 72.7205 51.2022 72.7561 51.2493 72.7877C51.2967 72.8193 51.3463 72.8461 51.3988 72.8678C51.4514 72.8895 51.5054 72.9057 51.5612 72.9171C51.6167 72.9281 51.673 72.9336 51.7299 72.9336H65.5648C65.6218 72.9336 65.678 72.9281 65.7335 72.9171C65.7894 72.9057 65.8434 72.8895 65.8959 72.8678C65.9481 72.8461 65.9981 72.8193 66.0451 72.7877C66.0925 72.7561 66.1363 72.7205 66.1763 72.6804C66.2164 72.64 66.2524 72.5966 66.284 72.5492C66.3152 72.5022 66.3421 72.4522 66.3637 72.3996C66.3854 72.3475 66.402 72.2931 66.413 72.2376C66.424 72.1817 66.4295 72.1255 66.4295 72.0689V39.2128C66.4295 39.1559 66.424 39.0996 66.413 39.0442C66.402 38.9883 66.3854 38.9343 66.3637 38.8817C66.3421 38.8295 66.3152 38.7796 66.284 38.7325C66.2524 38.6851 66.2164 38.6414 66.1763 38.6013C66.1363 38.5613 66.0925 38.5253 66.0451 38.4937C65.9981 38.4624 65.9481 38.4356 65.8959 38.4139C65.8434 38.3922 65.7894 38.3757 65.7335 38.3647C65.678 38.3537 65.6218 38.3481 65.5648 38.3481H51.7299C51.673 38.3481 51.6167 38.3537 51.5612 38.3647C51.5054 38.3757 51.4514 38.3922 51.3988 38.4139C51.3463 38.4356 51.2967 38.4624 51.2493 38.4937C51.2022 38.5253 51.1585 38.5613 51.1184 38.6013C51.0784 38.6414 51.0424 38.6851 51.0108 38.7325C50.9792 38.7796 50.9527 38.8295 50.931 38.8817C50.9093 38.9343 50.8928 38.9883 50.8818 39.0442C50.8707 39.0996 50.8652 39.1559 50.8652 39.2128ZM52.5946 71.2042V43.5359H64.7002V71.2042H52.5946ZM64.7002 40.0775V41.8065H52.5946V40.0775H64.7002Z" fill="white"/>
<path d="M59.5118 45.2651H54.3237C54.2667 45.2651 54.2105 45.2706 54.155 45.2817C54.0991 45.2927 54.0451 45.3092 53.9926 45.3309C53.9404 45.3526 53.8904 45.3794 53.843 45.4107C53.796 45.4423 53.7522 45.4783 53.7122 45.5183C53.6721 45.5584 53.6361 45.6021 53.6045 45.6495C53.5729 45.6966 53.5464 45.7465 53.5248 45.7987C53.5031 45.8513 53.4865 45.9053 53.4755 45.9611C53.4645 46.0166 53.459 46.0729 53.459 46.1298C53.459 46.1864 53.4645 46.2426 53.4755 46.2985C53.4865 46.354 53.5031 46.408 53.5248 46.4606C53.5464 46.5131 53.5729 46.5627 53.6045 46.6101C53.6361 46.6572 53.6721 46.7009 53.7122 46.7409C53.7522 46.7814 53.796 46.817 53.843 46.8486C53.8904 46.8802 53.9404 46.9067 53.9926 46.9284C54.0451 46.9504 54.0991 46.9666 54.155 46.9776C54.2105 46.9886 54.2667 46.9945 54.3237 46.9945H59.5118C59.5684 46.9945 59.6246 46.9886 59.6804 46.9776C59.7359 46.9666 59.7903 46.9504 59.8425 46.9284C59.895 46.9067 59.945 46.8802 59.9921 46.8486C60.0395 46.817 60.0828 46.7814 60.1232 46.7409C60.1633 46.7009 60.1993 46.6572 60.2306 46.6101C60.2622 46.5627 60.289 46.5131 60.3107 46.4606C60.3323 46.408 60.3489 46.354 60.3599 46.2985C60.3709 46.2426 60.3764 46.1864 60.3764 46.1298C60.3764 46.0729 60.3709 46.0166 60.3599 45.9611C60.3489 45.9053 60.3323 45.8513 60.3107 45.7987C60.289 45.7465 60.2622 45.6966 60.2306 45.6495C60.1993 45.6021 60.1633 45.5584 60.1232 45.5183C60.0828 45.4783 60.0395 45.4423 59.9921 45.4107C59.945 45.3794 59.895 45.3526 59.8425 45.3309C59.7903 45.3092 59.7359 45.2927 59.6804 45.2817C59.6246 45.2706 59.5684 45.2651 59.5118 45.2651Z" fill="white"/>
<path d="M59.5118 48.7236H54.3237C54.2667 48.7236 54.2105 48.7291 54.155 48.7405C54.0991 48.7516 54.0451 48.7677 53.9926 48.7894C53.9404 48.8115 53.8904 48.8379 53.843 48.8695C53.796 48.9011 53.7522 48.9368 53.7122 48.9768C53.6721 49.0172 53.6361 49.061 53.6045 49.108C53.5729 49.1551 53.5464 49.205 53.5248 49.2576C53.5031 49.3101 53.4865 49.3642 53.4755 49.4196C53.4645 49.4755 53.459 49.5317 53.459 49.5883C53.459 49.6453 53.4645 49.7015 53.4755 49.757C53.4865 49.8128 53.5031 49.8669 53.5248 49.9194C53.5464 49.9716 53.5729 50.0216 53.6045 50.0686C53.6361 50.116 53.6721 50.1597 53.7122 50.1998C53.7522 50.2399 53.796 50.2759 53.843 50.3075C53.8904 50.3387 53.9404 50.3655 53.9926 50.3872C54.0451 50.4089 54.0991 50.4254 54.155 50.4365C54.2105 50.4475 54.2667 50.453 54.3237 50.453H59.5118C59.5684 50.453 59.6246 50.4475 59.6804 50.4365C59.7359 50.4254 59.7903 50.4089 59.8425 50.3872C59.895 50.3655 59.945 50.3387 59.9921 50.3075C60.0395 50.2759 60.0828 50.2399 60.1232 50.1998C60.1633 50.1597 60.1993 50.116 60.2306 50.0686C60.2622 50.0216 60.289 49.9716 60.3107 49.9194C60.3323 49.8669 60.3489 49.8128 60.3599 49.757C60.3709 49.7015 60.3764 49.6453 60.3764 49.5883C60.3764 49.5317 60.3709 49.4755 60.3599 49.4196C60.3489 49.3642 60.3323 49.3101 60.3107 49.2576C60.289 49.205 60.2622 49.1551 60.2306 49.108C60.1993 49.061 60.1633 49.0172 60.1232 48.9768C60.0828 48.9368 60.0395 48.9011 59.9921 48.8695C59.945 48.8379 59.895 48.8115 59.8425 48.7894C59.7903 48.7677 59.7359 48.7516 59.6804 48.7405C59.6246 48.7291 59.5684 48.7236 59.5118 48.7236Z" fill="white"/>
<path d="M59.5118 52.1824H54.3237C54.2667 52.1824 54.2105 52.1879 54.155 52.1989C54.0991 52.2099 54.0451 52.2265 53.9926 52.2482C53.9404 52.2698 53.8904 52.2967 53.843 52.3279C53.796 52.3595 53.7522 52.3955 53.7122 52.4356C53.6721 52.4756 53.6361 52.5194 53.6045 52.5664C53.5729 52.6138 53.5464 52.6638 53.5248 52.716C53.5031 52.7685 53.4865 52.8225 53.4755 52.8784C53.4645 52.9339 53.459 52.9901 53.459 53.0471C53.459 53.1036 53.4645 53.1599 53.4755 53.2157C53.4865 53.2712 53.5031 53.3252 53.5248 53.3778C53.5464 53.4303 53.5729 53.4799 53.6045 53.5274C53.6361 53.5744 53.6721 53.6181 53.7122 53.6582C53.7522 53.6986 53.796 53.7342 53.843 53.7658C53.8904 53.7975 53.9404 53.8239 53.9926 53.8456C54.0451 53.8676 54.0991 53.8838 54.155 53.8948C54.2105 53.9059 54.2667 53.9117 54.3237 53.9117H59.5118C59.5684 53.9117 59.6246 53.9059 59.6804 53.8948C59.7359 53.8838 59.7903 53.8676 59.8425 53.8456C59.895 53.8239 59.945 53.7975 59.9921 53.7658C60.0395 53.7342 60.0828 53.6986 60.1232 53.6582C60.1633 53.6181 60.1993 53.5744 60.2306 53.5274C60.2622 53.4799 60.289 53.4303 60.3107 53.3778C60.3323 53.3252 60.3489 53.2712 60.3599 53.2157C60.3709 53.1599 60.3764 53.1036 60.3764 53.0471C60.3764 52.9901 60.3709 52.9339 60.3599 52.8784C60.3489 52.8225 60.3323 52.7685 60.3107 52.716C60.289 52.6638 60.2622 52.6138 60.2306 52.5664C60.1993 52.5194 60.1633 52.4756 60.1232 52.4356C60.0828 52.3955 60.0395 52.3595 59.9921 52.3279C59.945 52.2967 59.895 52.2698 59.8425 52.2482C59.7903 52.2265 59.7359 52.2099 59.6804 52.1989C59.6246 52.1879 59.5684 52.1824 59.5118 52.1824Z" fill="white"/>
<path d="M59.5118 55.6406H54.3237C54.2667 55.6406 54.2105 55.6461 54.155 55.6575C54.0991 55.6686 54.0451 55.6847 53.9926 55.7064C53.9404 55.7285 53.8904 55.7549 53.843 55.7865C53.796 55.8181 53.7522 55.8538 53.7122 55.8938C53.6721 55.9342 53.6361 55.978 53.6045 56.025C53.5729 56.072 53.5464 56.122 53.5248 56.1746C53.5031 56.2268 53.4865 56.2811 53.4755 56.3366C53.4645 56.3925 53.459 56.4487 53.459 56.5053C53.459 56.5623 53.4645 56.6185 53.4755 56.674C53.4865 56.7298 53.5031 56.7839 53.5248 56.8364C53.5464 56.8886 53.5729 56.9386 53.6045 56.9856C53.6361 57.033 53.6721 57.0767 53.7122 57.1168C53.7522 57.1569 53.796 57.1929 53.843 57.2241C53.8904 57.2557 53.9404 57.2825 53.9926 57.3042C54.0451 57.3259 54.0991 57.3424 54.155 57.3535C54.2105 57.3645 54.2667 57.37 54.3237 57.37H59.5118C59.5684 57.37 59.6246 57.3645 59.6804 57.3535C59.7359 57.3424 59.7903 57.3259 59.8425 57.3042C59.895 57.2825 59.945 57.2557 59.9921 57.2241C60.0395 57.1929 60.0828 57.1569 60.1232 57.1168C60.1633 57.0767 60.1993 57.033 60.2306 56.9856C60.2622 56.9386 60.289 56.8886 60.3107 56.8364C60.3323 56.7839 60.3489 56.7298 60.3599 56.674C60.3709 56.6185 60.3764 56.5623 60.3764 56.5053C60.3764 56.4487 60.3709 56.3925 60.3599 56.3366C60.3489 56.2811 60.3323 56.2268 60.3107 56.1746C60.289 56.122 60.2622 56.072 60.2306 56.025C60.1993 55.978 60.1633 55.9342 60.1232 55.8938C60.0828 55.8538 60.0395 55.8181 59.9921 55.7865C59.945 55.7549 59.895 55.7285 59.8425 55.7064C59.7903 55.6847 59.7359 55.6686 59.6804 55.6575C59.6246 55.6461 59.5684 55.6406 59.5118 55.6406Z" fill="white"/>
<path d="M59.5118 59.0994H54.3237C54.2667 59.0994 54.2105 59.1049 54.155 59.1159C54.0991 59.1269 54.0451 59.1435 53.9926 59.1651C53.9404 59.1868 53.8904 59.2133 53.843 59.2449C53.796 59.2765 53.7522 59.3125 53.7122 59.3526C53.6721 59.3926 53.6361 59.4363 53.6045 59.4834C53.5729 59.5308 53.5464 59.5808 53.5248 59.6329C53.5031 59.6855 53.4865 59.7395 53.4755 59.7954C53.4645 59.8509 53.459 59.9071 53.459 59.964C53.459 60.0206 53.4645 60.0769 53.4755 60.1327C53.4865 60.1882 53.5031 60.2422 53.5248 60.2948C53.5464 60.3473 53.5729 60.3969 53.6045 60.4443C53.6361 60.4914 53.6721 60.5351 53.7122 60.5752C53.7522 60.6156 53.796 60.6512 53.843 60.6828C53.8904 60.7144 53.9404 60.7409 53.9926 60.7626C54.0451 60.7846 54.0991 60.8008 54.155 60.8118C54.2105 60.8229 54.2667 60.8287 54.3237 60.8287H59.5118C59.5684 60.8287 59.6246 60.8229 59.6804 60.8118C59.7359 60.8008 59.7903 60.7846 59.8425 60.7626C59.895 60.7409 59.945 60.7144 59.9921 60.6828C60.0395 60.6512 60.0828 60.6156 60.1232 60.5752C60.1633 60.5351 60.1993 60.4914 60.2306 60.4443C60.2622 60.3969 60.289 60.3473 60.3107 60.2948C60.3323 60.2422 60.3489 60.1882 60.3599 60.1327C60.3709 60.0769 60.3764 60.0206 60.3764 59.964C60.3764 59.9071 60.3709 59.8509 60.3599 59.7954C60.3489 59.7395 60.3323 59.6855 60.3107 59.6329C60.289 59.5808 60.2622 59.5308 60.2306 59.4834C60.1993 59.4363 60.1633 59.3926 60.1232 59.3526C60.0828 59.3125 60.0395 59.2765 59.9921 59.2449C59.945 59.2133 59.895 59.1868 59.8425 59.1651C59.7903 59.1435 59.7359 59.1269 59.6804 59.1159C59.6246 59.1049 59.5684 59.0994 59.5118 59.0994Z" fill="white"/>
<path d="M59.5118 62.5579H54.3237C54.2667 62.5579 54.2105 62.5634 54.155 62.5744C54.0991 62.5858 54.0451 62.602 53.9926 62.6236C53.9404 62.6453 53.8904 62.6721 53.843 62.7038C53.796 62.7354 53.7522 62.771 53.7122 62.8111C53.6721 62.8515 53.6361 62.8952 53.6045 62.9422C53.5729 62.9893 53.5464 63.0393 53.5248 63.0918C53.5031 63.144 53.4865 63.1984 53.4755 63.2539C53.4645 63.3097 53.459 63.366 53.459 63.4225C53.459 63.4795 53.4645 63.5357 53.4755 63.5912C53.4865 63.6471 53.5031 63.7011 53.5248 63.7536C53.5464 63.8058 53.5729 63.8558 53.6045 63.9028C53.6361 63.9502 53.6721 63.994 53.7122 64.034C53.7522 64.0741 53.796 64.1101 53.843 64.1413C53.8904 64.1729 53.9404 64.1998 53.9926 64.2214C54.0451 64.2431 54.0991 64.2597 54.155 64.2707C54.2105 64.2817 54.2667 64.2872 54.3237 64.2872H59.5118C59.5684 64.2872 59.6246 64.2817 59.6804 64.2707C59.7359 64.2597 59.7903 64.2431 59.8425 64.2214C59.895 64.1998 59.945 64.1729 59.9921 64.1413C60.0395 64.1101 60.0828 64.0741 60.1232 64.034C60.1633 63.994 60.1993 63.9502 60.2306 63.9028C60.2622 63.8558 60.289 63.8058 60.3107 63.7536C60.3323 63.7011 60.3489 63.6471 60.3599 63.5912C60.3709 63.5357 60.3764 63.4795 60.3764 63.4225C60.3764 63.366 60.3709 63.3097 60.3599 63.2539C60.3489 63.1984 60.3323 63.144 60.3107 63.0918C60.289 63.0393 60.2622 62.9893 60.2306 62.9422C60.1993 62.8952 60.1633 62.8515 60.1232 62.8111C60.0828 62.771 60.0395 62.7354 59.9921 62.7038C59.945 62.6721 59.895 62.6453 59.8425 62.6236C59.7903 62.602 59.7359 62.5858 59.6804 62.5744C59.6246 62.5634 59.5684 62.5579 59.5118 62.5579Z" fill="white"/>
<path d="M59.5118 66.0166H54.3237C54.2667 66.0166 54.2105 66.0221 54.155 66.0331C54.0991 66.0442 54.0451 66.0607 53.9926 66.0824C53.9404 66.1041 53.8904 66.1305 53.843 66.1621C53.796 66.1937 53.7522 66.2297 53.7122 66.2698C53.6721 66.3099 53.6361 66.3536 53.6045 66.4006C53.5729 66.448 53.5464 66.4976 53.5248 66.5502C53.5031 66.6027 53.4865 66.6568 53.4755 66.7126C53.4645 66.7681 53.459 66.8243 53.459 66.8813C53.459 66.9379 53.4645 66.9941 53.4755 67.05C53.4865 67.1054 53.5031 67.1595 53.5248 67.212C53.5464 67.2646 53.5729 67.3142 53.6045 67.3616C53.6361 67.4086 53.6721 67.4523 53.7122 67.4924C53.7522 67.5328 53.796 67.5685 53.843 67.6001C53.8904 67.6317 53.9404 67.6581 53.9926 67.6798C54.0451 67.7019 54.0991 67.718 54.155 67.7291C54.2105 67.7401 54.2667 67.746 54.3237 67.746H59.5118C59.5684 67.746 59.6246 67.7401 59.6804 67.7291C59.7359 67.718 59.7903 67.7019 59.8425 67.6798C59.895 67.6581 59.945 67.6317 59.9921 67.6001C60.0395 67.5685 60.0828 67.5328 60.1232 67.4924C60.1633 67.4523 60.1993 67.4086 60.2306 67.3616C60.2622 67.3142 60.289 67.2646 60.3107 67.212C60.3323 67.1595 60.3489 67.1054 60.3599 67.05C60.3709 66.9941 60.3764 66.9379 60.3764 66.8813C60.3764 66.8243 60.3709 66.7681 60.3599 66.7126C60.3489 66.6568 60.3323 66.6027 60.3107 66.5502C60.289 66.4976 60.2622 66.448 60.2306 66.4006C60.1993 66.3536 60.1633 66.3099 60.1232 66.2698C60.0828 66.2297 60.0395 66.1937 59.9921 66.1621C59.945 66.1305 59.895 66.1041 59.8425 66.0824C59.7903 66.0607 59.7359 66.0442 59.6804 66.0331C59.6246 66.0221 59.5684 66.0166 59.5118 66.0166Z" fill="white"/>
</g>
<defs>
<linearGradient id="paint0_linear_236_1702" x1="50" y1="0.5" x2="50" y2="100.5" gradientUnits="userSpaceOnUse">
<stop stop-color="#1B8540"/>
<stop offset="1" stop-color="#8BC43F"/>
</linearGradient>
<clipPath id="clip0_236_1702">
<rect width="39.7938" height="52" fill="white" transform="translate(30.1035 24.5)"/>
</clipPath>
</defs>
</svg>
