<svg width="100" height="101" viewBox="0 0 100 101" fill="none" xmlns="http://www.w3.org/2000/svg">
<rect y="0.5" width="100" height="100" rx="50" fill="url(#paint0_linear_236_1716)"/>
<g clip-path="url(#clip0_236_1716)">
<path d="M71.6314 67.29H28.3698C26.0242 67.29 24.1152 65.3816 24.1152 63.0355V28.0608C24.1152 26.096 25.7134 24.4978 27.6771 24.4978H72.323C74.2867 24.4978 75.8849 26.096 75.8849 28.0608V63.0355C75.8849 65.3816 73.9776 67.29 71.6314 67.29ZM27.6771 26.4243C26.7754 26.4243 26.0417 27.1585 26.0417 28.0608V63.0355C26.0417 64.3191 27.0856 65.3635 28.3698 65.3635H71.6314C72.9145 65.3635 73.9584 64.3191 73.9584 63.0355V28.0608C73.9584 27.1585 73.2247 26.4243 72.323 26.4243H27.6771Z" fill="white"/>
<mask id="mask0_236_1716" style="mask-type:luminance" maskUnits="userSpaceOnUse" x="20" y="64" width="60" height="13">
<path d="M20.4355 64.8394H79.5478V76.3949H20.4355V64.8394Z" fill="white"/>
</mask>
<g mask="url(#mask0_236_1716)">
<path d="M76.8375 76.3971H23.1616C21.68 76.3971 20.4746 75.1924 20.4746 73.7107V70.8694C20.4746 70.0558 20.8368 69.2953 21.4693 68.7821L26.0302 65.0829C26.4417 64.748 27.0485 64.8104 27.385 65.224C27.7204 65.6377 27.6569 66.2445 27.2438 66.5788L22.6829 70.2796C22.5039 70.4246 22.4005 70.6391 22.4005 70.8694V73.7107C22.4005 74.1298 22.7419 74.4707 23.1616 74.4707H76.8375C77.2577 74.4707 77.5986 74.1298 77.5986 73.7107V70.8694C77.5986 70.6391 77.4951 70.4246 77.3162 70.2796L72.7553 66.5788C72.3422 66.2445 72.2787 65.6377 72.6141 65.224C72.9506 64.8099 73.5568 64.748 73.9688 65.0829L78.5298 68.7821C79.1623 69.2953 79.5245 70.0558 79.5245 70.8694V73.7107C79.5245 75.1924 78.3191 76.3971 76.8375 76.3971Z" fill="white"/>
</g>
<mask id="mask1_236_1716" style="mask-type:luminance" maskUnits="userSpaceOnUse" x="36" y="69" width="28" height="8">
<path d="M36.9121 69.6016H63.1047V76.3948H36.9121V69.6016Z" fill="white"/>
</mask>
<g mask="url(#mask1_236_1716)">
<path d="M62.076 76.3971H37.9264C37.6277 76.3971 37.3464 76.2592 37.1642 76.0234C36.982 75.787 36.9186 75.4801 36.9941 75.1912L37.8394 71.9478C38.1907 70.6056 39.4031 69.6689 40.7885 69.6689H59.2128C60.5976 69.6689 61.8101 70.6056 62.1619 71.9472L63.0083 75.1907C63.0833 75.4796 63.0203 75.787 62.8376 76.0234C62.6554 76.2592 62.3747 76.3971 62.076 76.3971ZM39.1728 74.4712H60.8285L60.2967 72.4342C60.1687 71.9407 59.7216 71.5954 59.2128 71.5954H40.7885C40.2791 71.5954 39.8321 71.9407 39.7041 72.4342L39.1728 74.4712Z" fill="white"/>
</g>
<path d="M71.8124 63.2282C71.2811 63.2282 70.8494 62.7976 70.8494 62.2652V61.3383C70.8494 61.0254 70.5945 60.771 70.2815 60.771H29.7183C29.4054 60.771 29.1515 61.0254 29.1515 61.3383V62.2652C29.1515 62.7976 28.7198 63.2282 28.1885 63.2282C27.6573 63.2282 27.2256 62.7976 27.2256 62.2652V61.3383C27.2256 59.9628 28.3434 58.8445 29.7183 58.8445H70.2815C71.6576 58.8445 72.7754 59.9628 72.7754 61.3383V62.2652C72.7754 62.7976 72.3442 63.2282 71.8124 63.2282Z" fill="white"/>
<path d="M68.5463 60.7709H31.4542C29.8467 60.7709 28.5391 59.4633 28.5391 57.8552V32.1359C28.5391 30.5284 29.8467 29.2202 31.4542 29.2202H68.5463C70.1538 29.2202 71.4615 30.5284 71.4615 32.1359V57.8552C71.4615 59.4633 70.1538 60.7709 68.5463 60.7709ZM31.4542 31.1467C30.9087 31.1467 30.4655 31.591 30.4655 32.1359V57.8552C30.4655 58.4007 30.9087 58.8445 31.4542 58.8445H68.5463C69.0918 58.8445 69.5356 58.4007 69.5356 57.8552V32.1359C69.5356 31.591 69.0918 31.1467 68.5463 31.1467H31.4542Z" fill="white"/>
<path d="M50.0012 56.32C44.8286 56.32 40.6211 52.1119 40.6211 46.9398C40.6211 41.7666 44.8286 37.5586 50.0012 37.5586C55.1722 37.5586 59.3797 41.7666 59.3797 46.9398C59.3797 52.1119 55.1722 56.32 50.0012 56.32ZM50.0012 39.4851C45.8911 39.4851 42.547 42.8292 42.547 46.9398C42.547 51.0494 45.8911 54.3935 50.0012 54.3935C54.1102 54.3935 57.4538 51.0494 57.4538 46.9398C57.4538 42.8292 54.1108 39.4851 50.0012 39.4851Z" fill="white"/>
<path d="M48.4824 51.7178C47.984 51.7178 47.4867 51.58 47.0446 51.3064C46.231 50.8036 45.7451 49.9325 45.7451 48.9767V44.9027C45.7451 43.9463 46.231 43.0752 47.0446 42.5724C47.8571 42.0696 48.8518 42.0242 49.7091 42.4531L53.7809 44.4901C54.716 44.9569 55.2954 45.8952 55.2954 46.9397C55.2954 47.9842 54.716 48.9225 53.7809 49.3898L49.708 51.4262C49.3185 51.6215 48.8999 51.7178 48.4824 51.7178ZM48.4857 44.0875C48.2871 44.0875 48.1323 44.1651 48.0568 44.2117C47.9402 44.2833 47.671 44.494 47.671 44.9027V48.9767C47.671 49.3848 47.9402 49.5949 48.0568 49.6666C48.1733 49.7394 48.4824 49.8838 48.8468 49.7033L52.9203 47.6663C53.3246 47.4638 53.3695 47.0907 53.3695 46.9397C53.3695 46.7887 53.3246 46.4155 52.9203 46.2125L48.8468 44.1755C48.7177 44.111 48.5941 44.0875 48.4857 44.0875Z" fill="white"/>
<path d="M65.6255 56.7728H58.0186C57.4874 56.7728 57.0557 56.3417 57.0557 55.8093C57.0557 55.2775 57.4874 54.8463 58.0186 54.8463H64.6625V36.5134H61.0503V38.9328C61.0503 39.4652 60.6186 39.8958 60.0868 39.8958C59.5555 39.8958 59.1238 39.4652 59.1238 38.9328V36.2086C59.1238 35.3146 59.851 34.5869 60.7445 34.5869H64.9667C65.8602 34.5869 66.5885 35.3146 66.5885 36.2086V55.8093C66.5885 56.3417 66.1568 56.7728 65.6255 56.7728Z" fill="white"/>
<path d="M44.0909 41.8641C43.5596 41.8641 43.1279 41.4329 43.1279 40.9005V35.1802C43.1279 34.1286 43.9831 33.2734 45.0342 33.2734H51.654C52.7056 33.2734 53.5613 34.1286 53.5613 35.1802V38.933C53.5613 39.4654 53.1296 39.8965 52.5983 39.8965C52.0671 39.8965 51.6354 39.4654 51.6354 38.933V35.1802L45.0342 35.1994L45.0539 40.9005C45.0544 41.4329 44.6227 41.8641 44.0909 41.8641Z" fill="white"/>
<path d="M41.5834 56.7729H33.7692C33.2374 56.7729 32.8057 56.3417 32.8057 55.8094V37.6603C32.8057 36.7039 33.5842 35.9253 34.5412 35.9253H39.0945C40.0514 35.9253 40.83 36.7039 40.83 37.6603V40.9004C40.83 41.4328 40.3983 41.8639 39.867 41.8639C39.3352 41.8639 38.9041 41.4328 38.9041 40.9004V37.8512H34.7321V54.8464H41.5834C42.1152 54.8464 42.5469 55.2776 42.5469 55.8094C42.5469 56.3417 42.1152 56.7729 41.5834 56.7729Z" fill="white"/>
<path d="M43.4264 42.6486H39.8673C39.3354 42.6486 38.9043 42.218 38.9043 41.6857V40.9005C38.9043 40.3682 39.3354 39.937 39.8673 39.937C40.3383 39.937 40.7301 40.2757 40.8138 40.7222H43.4264C43.9577 40.7222 44.3894 41.1533 44.3894 41.6857C44.3894 42.218 43.9577 42.6486 43.4264 42.6486Z" fill="white"/>
<path d="M60.0873 41.6501H55.6325C55.1006 41.6501 54.6689 41.2195 54.6689 40.6871C54.6689 40.1548 55.1006 39.7236 55.6325 39.7236H59.1243V38.933C59.1243 38.4006 59.556 37.9695 60.0873 37.9695C60.6191 37.9695 61.0508 38.4006 61.0508 38.933V40.6871C61.0508 41.2195 60.6191 41.6501 60.0873 41.6501Z" fill="white"/>
</g>
<defs>
<linearGradient id="paint0_linear_236_1716" x1="50" y1="0.5" x2="50" y2="100.5" gradientUnits="userSpaceOnUse">
<stop stop-color="#1B8540"/>
<stop offset="1" stop-color="#8BC43F"/>
</linearGradient>
<clipPath id="clip0_236_1716">
<rect width="59.2485" height="52" fill="white" transform="translate(20.376 24.5)"/>
</clipPath>
</defs>
</svg>
