<svg width="101" height="101" viewBox="0 0 101 101" fill="none" xmlns="http://www.w3.org/2000/svg">
<rect x="0.5" y="0.5" width="100" height="100" rx="50" fill="url(#paint0_linear_236_1709)"/>
<g clip-path="url(#clip0_236_1709)">
<mask id="mask0_236_1709" style="mask-type:luminance" maskUnits="userSpaceOnUse" x="22" y="24" width="57" height="53">
<path d="M22.6572 24.6318H78.3274V76.1705H22.6572V24.6318Z" fill="white"/>
</mask>
<g mask="url(#mask0_236_1709)">
<path d="M25.2924 26.9308H75.6983C75.9455 26.9308 76.1432 27.1239 76.1432 27.371V61.4734C76.1432 61.7154 75.9455 61.9079 75.6983 61.9079H25.2924C25.0499 61.9079 24.8522 61.7154 24.8522 61.4734V27.371C24.8522 27.1239 25.0499 26.9308 25.2924 26.9308ZM23.7596 24.7368C23.1515 24.7368 22.6572 25.226 22.6572 25.8341V63.0149C22.6572 63.623 23.1515 64.1122 23.755 64.1122C23.7596 64.1122 23.7596 64.1122 23.7596 64.1122H44.9289C45.537 64.1122 46.0313 64.606 46.0313 65.214V67.2103C46.0313 70.8526 43.0748 73.8076 39.4314 73.8076H38.9124V76.0608H62.0882V73.8076H61.5692C57.9258 73.8076 54.9693 70.8526 54.9693 67.2103V65.214C54.9693 64.606 55.4641 64.1122 56.0717 64.1122H77.2461C77.849 64.1122 78.3433 63.623 78.3433 63.0149V25.8341C78.3433 25.226 77.849 24.7368 77.2461 24.7368H23.7596Z" fill="white"/>
</g>
<path d="M32.1299 53.8926C31.7788 53.8977 31.5018 54.184 31.5069 54.5352C31.5115 54.876 31.7886 55.1525 32.1299 55.1577H43.6784C44.0291 55.1525 44.3061 54.8662 44.301 54.5202C44.2963 54.1742 44.0193 53.8977 43.6784 53.8926H32.1299Z" fill="white"/>
<path d="M32.1299 51.2192C31.7788 51.2244 31.5018 51.5107 31.5069 51.8618C31.5115 52.2027 31.7886 52.4792 32.1299 52.4843H43.6784C44.0291 52.4792 44.3061 52.1929 44.301 51.8469C44.2963 51.5009 44.0193 51.2244 43.6784 51.2192H32.1299Z" fill="white"/>
<path d="M38.5361 31.9124V39.5616L45.1607 43.3816C47.0689 39.3742 45.3734 34.5805 41.3639 32.6734C40.4742 32.2481 39.5149 31.9911 38.5361 31.9124Z" fill="white"/>
<path d="M37.2713 31.9124V40.2881L44.5287 44.4788C42.0124 48.1356 37.0092 49.0598 33.3509 46.5446C29.6926 44.0293 28.7632 39.0282 31.2795 35.3714C32.6537 33.3746 34.8539 32.1049 37.2713 31.9124Z" fill="white"/>
<path d="M61.9548 41.8894L59.1965 37.5211C58.8258 36.9279 58.0442 36.7549 57.451 37.1256C57.3373 37.1946 57.2384 37.2837 57.1545 37.3877L53.595 41.6721L52.6162 40.8617L56.1808 36.5773C57.0757 35.5047 58.6724 35.3565 59.7449 36.2508C59.9478 36.4187 60.1259 36.6215 60.2691 36.844L63.0278 41.2123C63.4032 41.8055 64.1797 41.9831 64.7728 41.6078C64.9062 41.5238 65.02 41.4198 65.109 41.2963L69.2024 35.8307L68.5943 35.376L70.9078 34.6052L70.8192 37.0463L70.2157 36.5917L66.1224 42.0526C65.2872 43.1741 63.7003 43.4016 62.583 42.5665C62.3358 42.3786 62.1232 42.1515 61.96 41.8894H61.9548Z" fill="white"/>
<path d="M68.0059 41.5383H70.4186V53.0132H68.0059V41.5383Z" fill="white"/>
<path d="M62.415 53.0132V46.4854H64.8325V53.0132H62.415Z" fill="white"/>
<path d="M56.8232 53.0131V40.0903H59.2407V53.0131H56.8232Z" fill="white"/>
<path d="M53.6501 53.0131H51.2373V43.7327H53.6501V53.0131Z" fill="white"/>
</g>
<defs>
<linearGradient id="paint0_linear_236_1709" x1="50.5" y1="0.5" x2="50.5" y2="100.5" gradientUnits="userSpaceOnUse">
<stop stop-color="#1B8540"/>
<stop offset="1" stop-color="#8BC43F"/>
</linearGradient>
<clipPath id="clip0_236_1709">
<rect width="55.7567" height="52" fill="white" transform="translate(22.6221 24.5)"/>
</clipPath>
</defs>
</svg>
