<svg width="71" height="71" viewBox="0 0 71 71" fill="none" xmlns="http://www.w3.org/2000/svg">
    <path fill-rule="evenodd" clip-rule="evenodd"
        d="M35.1682 6.27519C36.8023 6.27519 38.1311 7.60401 38.1311 9.2381C38.1311 10.8722 36.8023 12.201 35.1682 12.201C33.535 12.201 32.2053 10.8722 32.2053 9.2381C32.2053 7.60401 33.535 6.27519 35.1682 6.27519ZM35.1682 14.1938C37.9022 14.1938 40.1248 11.9712 40.1248 9.2381C40.1248 6.50585 37.9022 4.28155 35.1682 4.28155C32.436 4.28155 30.2117 6.50585 30.2117 9.2381C30.2117 11.9712 32.436 14.1938 35.1682 14.1938ZM61.0983 34.4322C59.4643 34.4322 58.1354 33.1025 58.1354 31.4693C58.1354 29.8352 59.4643 28.5063 61.0983 28.5063C62.7324 28.5063 64.0613 29.8352 64.0613 31.4693C64.0613 33.1025 62.7324 34.4322 61.0983 34.4322ZM61.0983 26.5135C58.3652 26.5135 56.1418 28.737 56.1418 31.4693C56.1418 34.2015 58.3652 36.4258 61.0983 36.4258C63.8306 36.4258 66.0549 34.2015 66.0549 31.4693C66.0549 28.737 63.8306 26.5135 61.0983 26.5135ZM66.1948 33.5791C66.579 32.648 67.3803 32.023 68.3428 31.8737V31.0648C67.3803 30.9147 66.579 30.2905 66.1948 29.3594C65.809 28.4275 65.9328 27.4184 66.506 26.6323L65.9353 26.0616C65.1484 26.6357 64.1401 26.7586 63.2082 26.3736C62.2771 25.9869 61.6529 25.1873 61.5028 24.2256H60.6938C60.5446 25.1873 59.9196 25.9878 58.9885 26.3736C58.0574 26.7595 57.0491 26.6357 56.2622 26.0616L55.6915 26.6323C56.2648 27.4184 56.3886 28.4283 56.0027 29.3594C55.6169 30.2905 54.8172 30.9147 53.8547 31.0648V31.8737C54.8172 32.023 55.6169 32.648 56.0027 33.5791C56.3886 34.511 56.2648 35.5184 55.6915 36.3062L56.2622 36.8761C57.0491 36.3012 58.0574 36.1773 58.9885 36.5632C59.9196 36.9482 60.5446 37.7495 60.6938 38.7129H61.5028C61.6529 37.7512 62.2771 36.949 63.2082 36.5649C64.1401 36.179 65.1484 36.3028 65.9353 36.8761L66.506 36.3062C65.9328 35.5184 65.809 34.511 66.1948 33.5791ZM61.5088 51.7873C62.696 52.2783 63.99 52.0739 64.9533 51.2599L66.0617 52.3707C65.2476 53.3315 65.0441 54.6264 65.5351 55.8136C66.0278 57.0008 67.0869 57.7716 68.3437 57.8768V59.4456C67.0869 59.5507 66.0278 60.3207 65.5351 61.5088C65.0441 62.696 65.2476 63.99 66.0617 64.9533L64.9533 66.0617C63.99 65.2476 62.696 65.0441 61.5088 65.5351C60.3216 66.0278 59.5507 67.0869 59.4456 68.3428H57.8768C57.7708 67.0852 57.0025 66.0261 55.8145 65.5342C54.6264 65.0407 53.3332 65.2476 52.369 66.0617L51.2599 64.9533C52.0748 63.99 52.2775 62.696 51.7865 61.5088C51.2946 60.3207 50.2346 59.5507 48.9796 59.4456V57.8768C50.2346 57.7716 51.2946 57.0008 51.7865 55.8136C52.2775 54.6264 52.0748 53.3315 51.2599 52.3707L52.3707 51.2599C53.3315 52.0739 54.6264 52.2783 55.8136 51.7873C57.0008 51.2946 57.7708 50.2346 57.8768 48.9796H59.4456C59.5507 50.2346 60.3216 51.2946 61.5088 51.7873ZM46.9859 57.5936C46.9859 56.6565 47.7474 55.8942 48.6836 55.8942C49.5299 55.8942 49.8632 55.2497 49.9438 55.0504C50.0175 54.8757 50.1982 54.311 49.8217 53.7691L43.5897 49.4646L42.7443 50.3118C42.3872 50.6697 41.9115 50.8664 41.4061 50.8664C40.8999 50.8664 40.4267 50.668 40.0688 50.3118C39.4735 49.7148 38.6527 49.5528 37.8708 49.8768C37.0898 50.1999 36.6242 50.8961 36.6242 51.739C36.6242 52.7812 35.7762 53.6292 34.734 53.6292H32.0103C30.9664 53.6292 30.1175 52.7812 30.1175 51.739C30.1175 50.8944 29.652 50.1973 28.8718 49.8751C28.0925 49.552 27.27 49.714 26.6738 50.3118C26.316 50.6697 25.8428 50.8664 25.3365 50.8664C25.0923 50.8664 24.8557 50.8189 24.6344 50.7307L19.4862 55.5448C19.593 55.7568 19.6515 55.9917 19.6515 56.2368C19.6515 56.648 19.4904 57.0339 19.2004 57.3247C18.8383 57.686 18.9723 58.1066 19.0223 58.2253C19.0724 58.3457 19.2742 58.7367 19.7855 58.7367C20.402 58.7367 20.932 59.1013 21.1779 59.6254L46.9859 58.2745V57.5936ZM19.3293 61.5011C18.3677 61.6529 17.5672 62.2779 17.1805 63.209C16.7946 64.1401 16.9193 65.1492 17.4942 65.9353L16.9235 66.506C16.1366 65.9328 15.1283 65.809 14.1964 66.1948C13.2653 66.579 12.6394 67.3803 12.4893 68.3428H11.682C11.5311 67.3786 10.9061 66.5781 9.97501 66.1931C9.04561 65.8073 8.03564 65.9311 7.2487 66.506L6.67715 65.9353C7.25124 65.1475 7.37505 64.1393 6.99091 63.209C6.60422 62.2779 5.80286 61.6529 4.84123 61.5011V60.6938C5.80286 60.5446 6.60422 59.9179 6.99091 58.9885C7.37505 58.0574 7.25124 57.0483 6.67715 56.2622L7.2487 55.6898C8.03564 56.2648 9.04391 56.3886 9.97501 56.0027C10.9061 55.6169 11.5311 54.8172 11.682 53.8539H12.4893C12.6386 54.8172 13.2653 55.6169 14.1964 56.0027C15.1283 56.3886 16.1366 56.2648 16.9235 55.6898L17.4942 56.2622C16.9193 57.0483 16.7946 58.0574 17.1805 58.9885C17.5672 59.9179 18.3677 60.5446 19.3293 60.6938V61.5011ZM7.12743 27.5311C6.19803 27.1453 5.18806 27.2691 4.40112 27.8441L3.83041 27.2734C4.40366 26.4856 4.52747 25.4773 4.14332 24.547C3.75748 23.6159 2.95613 22.9901 1.9928 22.84V22.0327C2.95613 21.8826 3.75748 21.2568 4.14332 20.3265C4.52747 19.3954 4.40366 18.3855 3.83041 17.5994L4.40112 17.0278C5.18806 17.6028 6.19633 17.7266 7.12743 17.3416C8.05854 16.9549 8.68351 16.1544 8.83446 15.1919H9.6426C9.79185 16.1544 10.4185 16.9549 11.3479 17.3416C12.279 17.7266 13.2881 17.6028 14.0742 17.0278L14.6466 17.5994C14.0717 18.3855 13.9479 19.3954 14.3337 20.3265C14.7196 21.2568 15.5192 21.8826 16.4817 22.0327V22.84C15.5192 22.9901 14.7196 23.6159 14.3337 24.547C13.9479 25.4773 14.0717 26.4856 14.6466 27.2734L14.0742 27.8441C13.2881 27.27 12.279 27.1462 11.3479 27.5311C10.4185 27.917 9.79185 28.7192 9.6426 29.6808H8.83446C8.68351 28.7166 8.05854 27.9153 7.12743 27.5311ZM27.9238 8.83446V9.64175C28.8862 9.79185 29.6876 10.4185 30.0717 11.3479C30.4576 12.279 30.3338 13.2881 29.7605 14.0742L30.3312 14.6466C31.119 14.0717 32.1273 13.9462 33.0584 14.332C33.9895 14.7179 34.6145 15.5184 34.7654 16.4826H35.5727C35.722 15.5192 36.3486 14.7196 37.278 14.3337C38.21 13.9479 39.2191 14.0717 40.0052 14.6466L40.5759 14.0742C40.0018 13.2881 39.878 12.279 40.2639 11.3479C40.6497 10.4185 41.4502 9.79185 42.4127 9.64175V8.83446C41.4502 8.68351 40.6497 8.05854 40.2639 7.12743C39.878 6.19633 40.0018 5.18806 40.5759 4.40112L40.0052 3.82956C39.2191 4.40366 38.21 4.52747 37.278 4.14332C36.3486 3.75664 35.722 2.95613 35.5727 1.9928H34.7637C34.6145 2.95613 33.9895 3.75748 33.0584 4.14332C32.1264 4.52747 31.119 4.40366 30.3312 3.82956L29.7605 4.40112C30.3338 5.18806 30.4576 6.19633 30.0717 7.12743C29.6876 8.05854 28.8862 8.68351 27.9238 8.83446ZM52.4038 33.4646L45.8895 35.7491C45.1407 35.6779 44.5318 35.2284 44.235 34.5136C43.9119 33.7326 44.0739 32.9117 44.6684 32.3147C45.0262 31.9569 45.2238 31.4828 45.2238 30.9774C45.2238 30.4729 45.0262 29.998 44.6684 29.641L42.7443 27.7143C42.0073 26.9766 40.8066 26.9766 40.0688 27.7143C39.4735 28.3096 38.651 28.4724 37.8708 28.1493C37.0898 27.8254 36.6242 27.1309 36.6242 26.288C36.6242 25.4451 36.0713 24.7302 35.309 24.4868L35.6465 18.4754H35.9925C36.8405 18.4754 37.5299 17.7859 37.5299 16.9379C37.5299 16.4266 37.9217 16.2248 38.0412 16.1747C38.1608 16.1247 38.5806 15.9916 38.9427 16.3528C39.2327 16.6428 39.6194 16.804 40.0307 16.804C40.4402 16.804 40.8278 16.6428 41.1178 16.3528L41.496 15.9755L53.5605 26.3194C53.5427 26.4135 53.5325 26.5093 53.5325 26.6068C53.5325 27.0181 53.6936 27.4039 53.9836 27.694C54.3449 28.0561 54.2109 28.4758 54.1617 28.5962C54.1117 28.715 53.9099 29.1076 53.3985 29.1076C52.5497 29.1076 51.8611 29.797 51.8611 30.645V32.2935C51.8611 32.7616 52.0714 33.1805 52.4038 33.4646ZM23.554 47.047C24.6632 45.8818 24.9693 44.2461 24.3495 42.7502C23.7296 41.2535 22.3567 40.3122 20.748 40.274V37.7512C22.3567 37.7139 23.7296 36.7726 24.3495 35.2768C24.9693 33.78 24.6632 32.1426 23.554 30.9791L25.3365 29.1949C26.5017 30.3041 28.1383 30.6111 29.635 29.992C31.1317 29.3722 32.073 27.9975 32.1103 26.3889H34.6323C34.6713 27.9975 35.6117 29.3722 37.1093 29.992C38.606 30.6111 40.241 30.3041 41.4061 29.1949L43.1886 30.9791C42.0794 32.1426 41.7733 33.78 42.3923 35.2768C43.0131 36.7726 44.3877 37.7139 45.9946 37.7512V40.274C44.3877 40.3122 43.0131 41.2535 42.3923 42.7502C41.7733 44.2461 42.0794 45.8818 43.1886 47.047L41.4061 48.8303C40.241 47.7203 38.606 47.4142 37.1093 48.0358C35.6126 48.6548 34.6713 50.0286 34.6323 51.6355H32.1103C32.0722 50.0277 31.1317 48.6523 29.635 48.0324C28.1409 47.4133 26.5034 47.7195 25.3365 48.8303L23.554 47.047ZM16.9379 20.0747C17.7859 20.0747 18.4754 20.7633 18.4754 21.6121V23.2606C18.4754 24.1078 17.7859 24.7989 16.9379 24.7989C16.4266 24.7989 16.2239 25.1907 16.1747 25.3094C16.1247 25.4298 15.9916 25.8487 16.352 26.2108C16.586 26.4423 16.7268 26.7332 16.7794 27.0351L21.5375 30.7349C21.5892 30.3346 21.7656 29.9471 22.0734 29.641L24.0001 27.7143C24.737 26.9766 25.9361 26.9766 26.6738 27.7143C27.27 28.3096 28.0917 28.4724 28.8718 28.1493C29.652 27.8254 30.1175 27.1309 30.1175 26.288C30.1175 25.2441 30.9664 24.3961 32.0103 24.3961H33.317L33.6605 18.3134C33.1542 18.0615 32.8057 17.54 32.8057 16.9379C32.8057 16.4249 32.4156 16.2231 32.2952 16.173C32.1748 16.123 31.7567 15.9907 31.3938 16.3528C31.1029 16.6428 30.7171 16.804 30.3058 16.804C29.8954 16.804 29.5087 16.6428 29.2178 16.3528L28.0535 15.1877C27.7796 14.9146 27.6329 14.5627 27.6092 14.204L16.4215 19.8975C16.5419 19.9941 16.709 20.0747 16.9379 20.0747ZM18.1319 54.0812L18.0352 53.9836C17.4366 53.3849 16.4597 53.3849 15.8601 53.9836C15.498 54.3457 15.08 54.2117 14.9587 54.1617C14.8383 54.1125 14.4474 53.9099 14.4474 53.3985C14.4474 52.5505 13.7579 51.8611 12.9099 51.8611H12.4037L10.8993 31.4243C11.3208 31.1504 11.5989 30.6747 11.5989 30.1362C11.5989 29.6249 11.9916 29.423 12.1103 29.373C12.2315 29.3238 12.6505 29.1898 13.0125 29.5511C13.6121 30.1506 14.5881 30.1506 15.1877 29.5511L15.8788 28.8608L22.6297 34.1108C22.6034 34.2439 22.5636 34.3796 22.5076 34.5136C22.1845 35.2937 21.4883 35.7593 20.6471 35.7593C19.6032 35.7593 18.7544 36.6073 18.7544 37.6512V40.3749C18.7544 41.4171 19.6032 42.266 20.6471 42.266C21.4883 42.266 22.1845 42.7315 22.5076 43.5117C22.8307 44.2935 22.6687 45.1153 22.0734 45.7097C21.3357 46.4475 21.3357 47.6474 22.0734 48.3851L23.1131 49.4248L18.1319 54.0812ZM57.5936 46.9859C56.6565 46.9859 55.895 47.7474 55.895 48.6845C55.895 49.5291 55.2497 49.8632 55.0504 49.9446C54.8528 50.0269 54.1609 50.2473 53.5622 49.6495C53.2416 49.329 52.8151 49.1526 52.3606 49.1526C51.9077 49.1526 51.4803 49.329 51.1606 49.6495L49.6495 51.1606C49.6368 51.1734 49.6258 51.1886 49.613 51.2022L44.9686 47.9942C45.1331 47.7093 45.2246 47.3853 45.2246 47.0487C45.2246 46.5424 45.0271 46.0667 44.6692 45.7097C44.0739 45.1153 43.9119 44.2935 44.235 43.5117C44.5581 42.7315 45.2543 42.266 46.0964 42.266C47.1394 42.266 47.9883 41.4171 47.9883 40.3749V37.6512C47.9883 37.4773 47.9628 37.3094 47.9187 37.15L54.1761 34.9545C54.1388 35.0495 54.0786 35.1487 53.9845 35.2437C53.6936 35.5346 53.5325 35.9204 53.5325 36.3317C53.5325 36.7413 53.6936 37.128 53.9845 37.418L55.1488 38.584C55.4388 38.874 55.8272 39.0334 56.2359 39.0334C56.648 39.0334 57.0339 38.874 57.3239 38.584C57.6877 38.221 58.1058 38.355 58.2253 38.4042C58.3449 38.4542 58.7367 38.656 58.7367 39.1691C58.7367 39.6474 58.958 40.0764 59.3023 40.358L58.707 46.9859H57.5936ZM68.799 33.8309C69.647 33.8309 70.3364 33.1407 70.3364 32.2935V30.645C70.3364 29.7978 69.647 29.1076 68.799 29.1076C68.2877 29.1076 68.085 28.715 68.0358 28.5962C67.9858 28.4767 67.8518 28.0561 68.2131 27.694C68.5039 27.4039 68.6633 27.0181 68.6633 26.6068C68.6633 26.1972 68.5039 25.8097 68.2131 25.5188L67.0471 24.3545C66.4475 23.755 65.4723 23.755 64.8736 24.3545C64.5115 24.7166 64.0918 24.5826 63.9714 24.5318C63.8526 24.4826 63.4609 24.2799 63.4609 23.7686C63.4609 22.9206 62.7706 22.2311 61.9226 22.2311H60.2741C59.4269 22.2311 58.7367 22.9206 58.7367 23.7686C58.7367 24.2799 58.3457 24.4826 58.2253 24.5318C58.1058 24.5826 57.686 24.7166 57.3247 24.3545C56.7244 23.755 55.75 23.755 55.1488 24.3545L54.7714 24.7319L42.7061 14.388C42.7247 14.293 42.7349 14.1972 42.7349 14.0997C42.7349 13.6884 42.573 13.3034 42.2829 13.0125C41.9217 12.6505 42.0557 12.2307 42.1049 12.1111C42.1549 11.9916 42.3567 11.5998 42.8681 11.5998C43.7169 11.5998 44.4055 10.9104 44.4055 10.0615V8.41385C44.4055 7.56585 43.7169 6.87558 42.8681 6.87558C42.3567 6.87558 42.1549 6.4838 42.1049 6.36423C42.0557 6.24467 41.9217 5.82491 42.2829 5.46281C42.573 5.1728 42.7349 4.78696 42.7349 4.37737C42.7349 3.96524 42.573 3.5794 42.2829 3.28854L41.1178 2.12254C40.5183 1.52385 39.5422 1.52385 38.9427 2.12254C38.5806 2.48464 38.1608 2.35065 38.0412 2.30062C37.9217 2.25144 37.5308 2.04877 37.5308 1.53742C37.5299 0.691119 36.8405 0 35.9925 0H34.344C33.4968 0 32.8065 0.690271 32.8065 1.53742C32.8065 2.04877 32.4139 2.25144 32.2952 2.30062C32.1756 2.35065 31.755 2.48464 31.3938 2.12254C30.7942 1.52385 29.819 1.52385 29.2195 2.12254L28.0535 3.28939C27.454 3.88892 27.454 4.86328 28.0535 5.46281C28.4156 5.82491 28.2816 6.24467 28.2316 6.36423C28.1816 6.4838 27.9789 6.87558 27.4684 6.87558C26.6212 6.87558 25.9301 7.56585 25.9301 8.41385V10.0615C25.9301 10.9104 26.6212 11.5998 27.4684 11.5998C27.6974 11.5998 27.8636 11.6795 27.984 11.7762L16.798 17.4705C16.7734 17.1118 16.6259 16.7599 16.352 16.486L15.1877 15.3217C14.5881 14.7221 13.6121 14.7204 13.0125 15.3217C12.6505 15.6837 12.2307 15.5481 12.1103 15.4997C11.9916 15.4497 11.5998 15.2479 11.5998 14.7365C11.5998 13.8885 10.9104 13.1991 10.0624 13.1991H8.41385C7.5667 13.1991 6.87558 13.8885 6.87558 14.7365C6.87558 15.2479 6.4838 15.4497 6.36423 15.4997C6.24467 15.5498 5.82491 15.6837 5.46281 15.3217C4.86412 14.7221 3.88892 14.7204 3.28939 15.3217L2.12339 16.486C1.52385 17.0855 1.52385 18.0624 2.12339 18.6619C2.48464 19.0232 2.35065 19.4438 2.30062 19.5633C2.25144 19.6829 2.05046 20.0747 1.53742 20.0747C0.691119 20.0747 0 20.7633 0 21.6121V23.2606C0 24.1078 0.690271 24.7989 1.53742 24.7989C2.05046 24.7989 2.25144 25.1907 2.30062 25.3094C2.35065 25.4298 2.48464 25.8487 2.12339 26.2108C1.52385 26.8103 1.52385 27.7855 2.12339 28.3851L3.28939 29.5511C3.88892 30.1506 4.86412 30.1506 5.46281 29.5511C5.82576 29.1881 6.24467 29.3221 6.36508 29.3722C6.4855 29.4213 6.87558 29.624 6.87558 30.1362C6.87558 30.9833 7.56585 31.6736 8.41385 31.6736H8.91841L10.4236 52.1104C10.0038 52.3852 9.72316 52.8592 9.72316 53.3985C9.72316 53.9099 9.33138 54.1117 9.21182 54.1617C9.09225 54.2117 8.67249 54.3449 8.31039 53.9836C7.71171 53.3841 6.73566 53.3841 6.13612 53.9836L4.97012 55.1488C4.68011 55.4388 4.52068 55.8263 4.52068 56.2368C4.52068 56.648 4.68011 57.033 4.97012 57.3239C5.33222 57.686 5.19824 58.1058 5.14905 58.2253C5.09817 58.3449 4.8972 58.7367 4.385 58.7367C3.53785 58.7367 2.84758 59.4261 2.84758 60.2749V61.9226C2.84758 62.7706 3.53785 63.46 4.385 63.46C4.8972 63.46 5.09817 63.8526 5.14905 63.9722C5.19824 64.0918 5.33222 64.5115 4.97012 64.8736C4.37059 65.4732 4.37059 66.4475 4.97012 67.0488L6.13612 68.2139C6.73566 68.8126 7.71171 68.8126 8.31039 68.2139C8.67334 67.8501 9.09225 67.9841 9.21351 68.0341C9.33308 68.0842 9.72316 68.286 9.72316 68.799C9.72316 69.647 10.4134 70.3364 11.2623 70.3364H12.9099C13.7579 70.3364 14.4474 69.647 14.4474 68.799C14.4474 68.2877 14.8383 68.085 14.9587 68.0358C15.08 67.9858 15.498 67.8518 15.8601 68.2139C16.4597 68.8126 17.4366 68.8126 18.0352 68.2139L19.2004 67.0479C19.7999 66.4484 19.7999 65.4732 19.2004 64.8736C18.8383 64.5115 18.9723 64.0918 19.0223 63.9722C19.0724 63.8526 19.2742 63.4609 19.7855 63.4609C20.6344 63.4609 21.3229 62.7706 21.3229 61.9226V61.6131L47.0741 60.2665C47.2989 60.9398 47.9357 61.4274 48.6836 61.4274C49.5291 61.4274 49.8632 62.0727 49.9438 62.272C50.0269 62.4696 50.2473 63.1615 49.6495 63.7602C48.9872 64.4217 48.9872 65.5003 49.6495 66.1618L51.1606 67.6729C51.4803 67.9926 51.9077 68.1698 52.3606 68.1698C52.8151 68.1698 53.2416 67.9926 53.5622 67.6729C54.1617 67.0733 54.8537 67.2938 55.0513 67.3761C55.2497 67.4575 55.895 67.7908 55.895 68.6379C55.895 69.5749 56.6557 70.3364 57.5936 70.3364H59.7288C60.6659 70.3364 61.4274 69.5749 61.4274 68.6379C61.4274 67.7941 62.0735 67.4592 62.2711 67.3778C62.4696 67.2955 63.1615 67.0742 63.7594 67.6729C64.4217 68.3343 65.4995 68.3343 66.1618 67.6729L67.672 66.1618C68.3343 65.5003 68.3343 64.4217 67.672 63.7602C67.0742 63.1615 67.2947 62.4696 67.3778 62.272C67.4583 62.0727 67.7924 61.4274 68.6371 61.4274C69.5741 61.4274 70.3356 60.6659 70.3356 59.7288V57.5936C70.3356 56.6574 69.5741 55.8942 68.6371 55.8942C67.7924 55.8942 67.4583 55.2497 67.3778 55.0504C67.2947 54.8528 67.0742 54.1609 67.672 53.563C68.3343 52.9007 68.3343 51.8229 67.672 51.1606L66.1618 49.6495C65.4995 48.9881 64.4217 48.9881 63.7594 49.6495C63.1615 50.2482 62.4696 50.0277 62.2711 49.9455C62.0735 49.8632 61.4274 49.5291 61.4274 48.6853C61.4274 48.1011 61.1314 47.5855 60.6811 47.2794L61.2705 40.7065H61.9226C62.7698 40.7065 63.46 40.0171 63.46 39.1691C63.46 38.6577 63.8518 38.4568 63.9714 38.4059C64.0909 38.3567 64.5115 38.2227 64.8728 38.584C65.1628 38.8748 65.5486 39.0343 65.9599 39.0343C66.3704 39.0343 66.7579 38.8748 67.0471 38.584L68.2131 37.418C68.5031 37.128 68.6625 36.7421 68.6625 36.3317C68.6625 35.9204 68.5031 35.5346 68.2131 35.2437C67.851 34.8825 67.9849 34.4627 68.035 34.3431C68.085 34.2236 68.2877 33.8309 68.799 33.8309ZM9.2381 25.3993C10.8722 25.3993 12.2002 24.0696 12.2002 22.4364C12.2002 20.8023 10.8722 19.4735 9.2381 19.4735C7.60401 19.4735 6.27435 20.8023 6.27435 22.4364C6.27435 24.0696 7.60401 25.3993 9.2381 25.3993ZM14.1938 22.4364C14.1938 19.7024 11.9712 17.4807 9.2381 17.4807C6.50585 17.4807 4.28155 19.7024 4.28155 22.4364C4.28155 25.1686 6.50585 27.3929 9.2381 27.3929C11.9712 27.3929 14.1938 25.1686 14.1938 22.4364ZM62.796 58.6612C62.796 56.3818 60.9406 54.5264 58.6603 54.5264C56.3818 54.5264 54.5264 56.3818 54.5264 58.6612C54.5264 60.9406 56.3818 62.796 58.6603 62.796C60.9406 62.796 62.796 60.9406 62.796 58.6612ZM52.5327 58.6612C52.5327 62.0396 55.2819 64.7888 58.6603 64.7888C62.0405 64.7888 64.7888 62.0396 64.7888 58.6612C64.7888 55.2828 62.0405 52.5327 58.6603 52.5327C55.2819 52.5327 52.5327 55.2828 52.5327 58.6612ZM12.0848 64.0613C13.7198 64.0613 15.0486 62.7324 15.0486 61.0983C15.0486 59.4643 13.7198 58.1354 12.0848 58.1354C10.4524 58.1354 9.12278 59.4643 9.12278 61.0983C9.12278 62.7324 10.4524 64.0613 12.0848 64.0613ZM12.0848 56.1426C9.35258 56.1426 7.12828 58.3652 7.12828 61.0992C7.12828 63.8314 9.35343 66.0549 12.0848 66.0549C14.8188 66.0549 17.0414 63.8314 17.0414 61.0992C17.0414 58.3652 14.8188 56.1426 12.0848 56.1426ZM33.3713 33.4654C30.3134 33.4654 27.8246 35.9543 27.8246 39.0122C27.8246 42.0726 30.3134 44.5598 33.3713 44.5598C36.4292 44.5598 38.9181 42.0726 38.9181 39.0122C38.9181 35.9543 36.4292 33.4654 33.3713 33.4654ZM33.3713 46.5526C37.5291 46.5526 40.9117 43.1699 40.9117 39.0122C40.9117 34.8553 37.5291 31.4726 33.3713 31.4726C29.2136 31.4726 25.8301 34.8553 25.8301 39.0122C25.8301 43.1699 29.2136 46.5526 33.3713 46.5526Z"
        fill="url(#paint0_linear_142_861)" />
    <defs>
        <linearGradient id="paint0_linear_142_861" x1="35.1682" y1="0" x2="35.1682" y2="70.3364"
            gradientUnits="userSpaceOnUse">
            <stop stop-color="#1B8540" />
            <stop offset="1" stop-color="#8BC43F" />
        </linearGradient>
    </defs>
</svg>