<svg width="92" height="71" viewBox="0 0 92 71" fill="none" xmlns="http://www.w3.org/2000/svg">
<g clip-path="url(#clip0_142_846)">
<mask id="mask0_142_846" style="mask-type:luminance" maskUnits="userSpaceOnUse" x="18" y="3" width="51" height="68">
<path d="M18.3018 3.06787H68.85V70.9366H18.3018V3.06787Z" fill="white"/>
</mask>
<g mask="url(#mask0_142_846)">
<path d="M24.1539 70.9201C23.3275 70.9201 22.5019 70.6359 21.8074 70.0684C20.4542 68.9625 20.0423 67.1546 20.7827 65.5676L31.4563 42.7158H21.0381C19.9784 42.7158 19.0329 42.0798 18.6278 41.0954C18.2243 40.111 18.4482 38.9888 19.1988 38.2364L53.075 4.34564C54.2989 3.12071 56.1168 2.8913 57.602 3.77726C59.0863 4.66151 59.7612 6.37436 59.282 8.04014L51.789 34.1156H66.1589C67.2806 34.1156 68.2738 34.8355 68.6305 35.9046C68.9871 36.9746 68.6237 38.1499 67.7274 38.8296L26.3983 70.1514C25.7216 70.6642 24.9369 70.9201 24.1539 70.9201ZM22.7794 39.3723H32.5883C33.4853 39.3723 34.3075 39.826 34.7884 40.5878C35.2692 41.3488 35.3288 42.2912 34.9475 43.107L23.7939 66.9894C23.7573 67.0673 23.6611 67.2736 23.9037 67.4722C24.1471 67.669 24.3275 67.5321 24.3973 67.4807L64.0099 37.46H50.8332C50.0068 37.46 49.2476 37.0782 48.7497 36.4148C48.2535 35.7497 48.0995 34.9108 48.3276 34.1113L56.0879 7.11223C56.1091 7.03862 56.1738 6.81349 55.9074 6.65513C55.6393 6.4942 55.4751 6.66198 55.4206 6.71505L22.7794 39.3723Z" fill="url(#paint0_linear_142_846)"/>
</g>
<path d="M25.5712 60.9222H12.1911C5.46914 60.9222 0 55.4224 0 48.6635V19.5133C0 12.7552 5.46914 7.25537 12.1911 7.25537H32.4318C33.3493 7.25537 34.0949 8.00437 34.0949 8.92799C34.0949 9.85076 33.3493 10.5998 32.4318 10.5998H12.1911C7.3024 10.5998 3.32608 14.5981 3.32608 19.5141V48.6643C3.32608 53.5795 7.3024 57.5779 12.1911 57.5779H25.5712C26.4895 57.5779 27.2342 58.3269 27.2342 59.2505C27.2342 60.1732 26.4895 60.9222 25.5712 60.9222Z" fill="url(#paint1_linear_142_846)"/>
<path d="M26.4434 17.7639C26.0621 17.7639 25.6791 17.633 25.3659 17.365C24.6663 16.7667 24.5829 15.7104 25.1787 15.0076L30.247 9.02417L25.1787 3.04159C24.5829 2.33881 24.6672 1.28251 25.3659 0.685024C26.0672 0.0849685 27.1166 0.170568 27.7098 0.872488L33.6973 7.93962C34.2267 8.56535 34.2267 9.48298 33.6973 10.1087L27.7098 17.1767C27.3813 17.5645 26.9141 17.7639 26.4434 17.7639Z" fill="url(#paint2_linear_142_846)"/>
<mask id="mask1_142_846" style="mask-type:luminance" maskUnits="userSpaceOnUse" x="55" y="7" width="37" height="55">
<path d="M55.5596 7.23145H91.8367V61.1389H55.5596V7.23145Z" fill="white"/>
</mask>
<g mask="url(#mask1_142_846)">
<path d="M79.6457 60.9222H64.1388C63.2205 60.9222 62.4757 60.1724 62.4757 59.2496C62.4757 58.3269 63.2205 57.5779 64.1388 57.5779H79.6457C84.5344 57.5779 88.5116 53.5795 88.5116 48.6635V19.5133C88.5116 14.5981 84.5353 10.5998 79.6457 10.5998H57.2968C56.3785 10.5998 55.6338 9.85076 55.6338 8.92714C55.6338 8.00437 56.3785 7.25537 57.2968 7.25537H79.6457C86.3677 7.25537 91.8368 12.7552 91.8368 19.5133V48.6635C91.8368 55.4224 86.3677 60.9222 79.6457 60.9222Z" fill="url(#paint3_linear_142_846)"/>
</g>
<path d="M70.1265 67.8929C69.655 67.8929 69.1877 67.6934 68.8592 67.3056L62.8726 60.2368C62.3432 59.6119 62.3432 58.6934 62.8726 58.0685L68.8592 51.0006C69.4558 50.2986 70.5044 50.213 71.2031 50.8122C71.9027 51.4106 71.987 52.466 71.3904 53.1688L66.3221 59.1531L71.3904 65.1365C71.987 65.8393 71.9027 66.8948 71.2031 67.4931C70.8899 67.7619 70.5069 67.8929 70.1265 67.8929Z" fill="url(#paint4_linear_142_846)"/>
</g>
<defs>
<linearGradient id="paint0_linear_142_846" x1="43.5978" y1="3.2417" x2="43.5978" y2="70.9201" gradientUnits="userSpaceOnUse">
<stop stop-color="#1B8540"/>
<stop offset="1" stop-color="#8BC43F"/>
</linearGradient>
<linearGradient id="paint1_linear_142_846" x1="17.0474" y1="7.25537" x2="17.0474" y2="60.9222" gradientUnits="userSpaceOnUse">
<stop stop-color="#1B8540"/>
<stop offset="1" stop-color="#8BC43F"/>
</linearGradient>
<linearGradient id="paint2_linear_142_846" x1="29.4378" y1="0.285156" x2="29.4378" y2="17.7639" gradientUnits="userSpaceOnUse">
<stop stop-color="#1B8540"/>
<stop offset="1" stop-color="#8BC43F"/>
</linearGradient>
<linearGradient id="paint3_linear_142_846" x1="73.7353" y1="7.25537" x2="73.7353" y2="60.9222" gradientUnits="userSpaceOnUse">
<stop stop-color="#1B8540"/>
<stop offset="1" stop-color="#8BC43F"/>
</linearGradient>
<linearGradient id="paint4_linear_142_846" x1="67.1319" y1="50.4131" x2="67.1319" y2="67.8929" gradientUnits="userSpaceOnUse">
<stop stop-color="#1B8540"/>
<stop offset="1" stop-color="#8BC43F"/>
</linearGradient>
<clipPath id="clip0_142_846">
<rect width="92" height="71" fill="white"/>
</clipPath>
</defs>
</svg>
