<svg width="70" height="71" viewBox="0 0 70 71" fill="none" xmlns="http://www.w3.org/2000/svg">
<g clip-path="url(#clip0_142_841)">
<path d="M21.5423 22.9656H48.4568C49.6868 22.9656 50.6886 21.9606 50.6886 20.7254V2.17765C50.6886 0.942443 49.6868 -0.0625 48.4568 -0.0625H21.5423C20.3123 -0.0625 19.3105 0.942443 19.3105 2.17765V20.7254C19.3105 21.9606 20.3123 22.9656 21.5423 22.9656ZM22.5952 3.96412C22.5952 3.56094 22.9206 3.23481 23.3218 3.23481H46.6773C47.0785 3.23481 47.4039 3.56094 47.4039 3.96412V18.9398C47.4039 19.343 47.0785 19.6691 46.6773 19.6691H23.3218C22.9206 19.6691 22.5952 19.343 22.5952 18.9398V3.96412Z" fill="url(#paint0_linear_142_841)"/>
<path d="M67.7412 41.9724H55.0097V38.6503H59.09C59.9699 38.6503 60.6872 37.9381 60.6872 37.0616V36.1576H64.4471C64.8483 36.1576 65.1729 35.8315 65.1729 35.4283C65.1729 35.026 64.8483 34.6999 64.4471 34.6999H60.6872V33.7959C60.6872 32.9194 59.9699 32.2072 59.09 32.2072H49.4634C48.5835 32.2072 47.8663 32.9194 47.8663 33.7959V34.6999H35.726V28.8833H40.3454C40.348 28.8833 40.3497 28.8816 40.3514 28.8816H43.849C44.2502 28.8816 44.5748 28.5555 44.5748 28.1523C44.5748 27.75 44.2502 27.4239 43.849 27.4239H41.0712V24.4219H28.9335V27.4239H26.378C25.9768 27.4239 25.6514 27.75 25.6514 28.1523C25.6514 28.5555 25.9768 28.8816 26.378 28.8816H29.6533C29.655 28.8816 29.6575 28.8833 29.6592 28.8833H34.2736V34.6999H22.1239V33.7959C22.1239 32.9194 21.4135 32.2072 20.5412 32.2072H10.9011C10.0135 32.2072 9.31753 32.9048 9.31753 33.7959V34.6999H5.55755C5.15634 34.6999 4.83179 35.026 4.83179 35.4283C4.83179 35.8315 5.15634 36.1576 5.55755 36.1576H9.31753V37.0616C9.31753 37.9381 10.028 38.6503 10.9011 38.6503H14.995V41.9724H2.25926C1.02922 41.9724 0.0283203 42.9774 0.0283203 44.2126V62.7604C0.0283203 63.9956 1.02922 65.0005 2.25926 65.0005H29.1737C30.4046 65.0005 31.4055 63.9956 31.4055 62.7604V44.2126C31.4055 42.9774 30.4046 41.9724 29.1737 41.9724H16.4465V38.6503H20.5412C21.4135 38.6503 22.1239 37.9381 22.1239 37.0616V36.1576H47.8663V37.0616C47.8663 37.9381 48.5835 38.6503 49.4634 38.6503H53.5582V41.9724H40.8259C39.5958 41.9724 38.5949 42.9774 38.5949 44.2126V62.7604C38.5949 63.9956 39.5958 65.0005 40.8259 65.0005H67.7412C68.9712 65.0005 69.9721 63.9956 69.9721 62.7604V44.2126C69.9721 42.9774 68.9712 41.9724 67.7412 41.9724ZM28.1208 45.9982V60.9748C28.1208 61.3779 27.7963 61.7041 27.3951 61.7041H4.03874C3.63753 61.7041 3.31298 61.3779 3.31298 60.9748V45.9982C3.31298 45.5959 3.63753 45.2697 4.03874 45.2697H27.3951C27.7963 45.2697 28.1208 45.5959 28.1208 45.9982ZM66.6874 60.9748C66.6874 61.3779 66.3629 61.7041 65.9617 61.7041H42.6054C42.2041 61.7041 41.8796 61.3779 41.8796 60.9748V45.9982C41.8796 45.5959 42.2041 45.2697 42.6054 45.2697H65.9617C66.3629 45.2697 66.6874 45.5959 66.6874 45.9982V60.9748Z" fill="url(#paint1_linear_142_841)"/>
<path d="M24.565 69.4585H21.7897V66.4531H9.65197V69.4585H7.09392C6.69271 69.4585 6.36816 69.7847 6.36816 70.1878C6.36816 70.591 6.69271 70.9172 7.09392 70.9172H24.565C24.9662 70.9172 25.2916 70.591 25.2916 70.1878C25.2916 69.7847 24.9662 69.4585 24.565 69.4585Z" fill="url(#paint2_linear_142_841)"/>
<path d="M63.1314 69.4585H60.3527V66.4531H48.2141V69.4585H45.6603C45.2591 69.4585 44.9346 69.7847 44.9346 70.1878C44.9346 70.591 45.2591 70.9172 45.6603 70.9172H63.1314C63.5326 70.9172 63.858 70.591 63.858 70.1878C63.858 69.7847 63.5326 69.4585 63.1314 69.4585Z" fill="url(#paint3_linear_142_841)"/>
</g>
<defs>
<linearGradient id="paint0_linear_142_841" x1="34.9996" y1="-0.0625" x2="34.9996" y2="22.9656" gradientUnits="userSpaceOnUse">
<stop stop-color="#1B8540"/>
<stop offset="1" stop-color="#8BC43F"/>
</linearGradient>
<linearGradient id="paint1_linear_142_841" x1="35.0002" y1="24.4219" x2="35.0002" y2="65.0005" gradientUnits="userSpaceOnUse">
<stop stop-color="#1B8540"/>
<stop offset="1" stop-color="#8BC43F"/>
</linearGradient>
<linearGradient id="paint2_linear_142_841" x1="15.8299" y1="66.4531" x2="15.8299" y2="70.9172" gradientUnits="userSpaceOnUse">
<stop stop-color="#1B8540"/>
<stop offset="1" stop-color="#8BC43F"/>
</linearGradient>
<linearGradient id="paint3_linear_142_841" x1="54.3963" y1="66.4531" x2="54.3963" y2="70.9172" gradientUnits="userSpaceOnUse">
<stop stop-color="#1B8540"/>
<stop offset="1" stop-color="#8BC43F"/>
</linearGradient>
<clipPath id="clip0_142_841">
<rect width="70" height="71" fill="white"/>
</clipPath>
</defs>
</svg>
