<svg width="69" height="71" viewBox="0 0 69 71" fill="none" xmlns="http://www.w3.org/2000/svg">
    <g clip-path="url(#clip0_142_862)">
        <path
            d="M34.3625 41.4046C35.0142 41.4046 35.5472 40.873 35.5472 40.2233V36.6812H36.7328C38.6879 36.6812 40.287 35.0865 40.287 33.1382C40.287 31.1899 38.6879 29.5952 36.7328 29.5952H34.3625C33.7108 29.5952 33.1777 30.1268 33.1777 30.7765V40.2233C33.1777 40.873 33.7108 41.4046 34.3625 41.4046ZM35.5472 31.9569H36.7328C37.3845 31.9569 37.9175 32.4885 37.9175 33.1382C37.9175 33.7879 37.3845 34.3186 36.7328 34.3186H35.5472V31.9569Z"
            fill="url(#paint0_linear_142_862)" />
        <path
            d="M43.842 41.4046C44.4937 41.4046 45.0267 40.873 45.0267 40.2233V30.7765C45.0267 30.1268 44.4937 29.5952 43.842 29.5952C43.1903 29.5952 42.6572 30.1268 42.6572 30.7765V40.2233C42.6572 40.873 43.1903 41.4046 43.842 41.4046Z"
            fill="url(#paint1_linear_142_862)" />
        <path
            d="M24.8838 41.4046C25.5355 41.4046 26.0686 40.873 26.0686 40.2233V36.6812H28.438V40.2233C28.438 40.873 28.9711 41.4046 29.6228 41.4046C30.2745 41.4046 30.8084 40.873 30.8084 40.2233V33.1382C30.8084 31.1899 29.2084 29.5952 27.2533 29.5952C25.2982 29.5952 23.6982 31.1899 23.6982 33.1382V40.2233C23.6982 40.873 24.2321 41.4046 24.8838 41.4046ZM26.0686 33.1382C26.0686 32.4885 26.6016 31.9569 27.2533 31.9569C27.905 31.9569 28.438 32.4885 28.438 33.1382V34.3186H26.0686V33.1382Z"
            fill="url(#paint2_linear_142_862)" />
        <path
            d="M34.3625 53.213C44.1679 53.213 52.136 45.2719 52.136 35.4998C52.136 25.7277 44.1679 17.7866 34.3625 17.7866C24.5579 17.7866 16.5889 25.7277 16.5889 35.4998C16.5889 45.2719 24.5579 53.213 34.3625 53.213ZM34.3625 20.1483C42.8499 20.1483 49.7666 27.0417 49.7666 35.4998C49.7666 43.9579 42.8499 50.8513 34.3625 50.8513C25.8759 50.8513 18.9583 43.9579 18.9583 35.4998C18.9583 27.0417 25.8759 20.1483 34.3625 20.1483Z"
            fill="url(#paint3_linear_142_862)" />
        <mask id="mask0_142_862" style="mask-type:luminance" maskUnits="userSpaceOnUse" x="0" y="0"
            width="69" height="71">
            <path d="M0 0.0566406H68.7257V70.9436H0V0.0566406Z" fill="white" />
        </mask>
        <g mask="url(#mask0_142_862)">
            <path
                d="M3.55519 61.4796C5.51026 61.4796 7.10939 59.8857 7.10939 57.9374C7.10939 56.4018 6.11725 55.0878 4.73993 54.6008V51.4276L13.6564 44.3125C14.1894 45.5374 14.8265 46.7333 15.5667 47.8401L13.3899 50.01C12.9308 50.468 12.9308 51.2204 13.3899 51.6784L18.1297 56.4018C18.5888 56.8597 19.3436 56.8597 19.8027 56.4018L21.9805 54.2318C24.3061 55.7521 26.9128 56.8452 29.6228 57.435V61.4796C29.6228 62.1293 30.1567 62.6608 30.8084 62.6608H37.9176C38.5693 62.6608 39.1024 62.1293 39.1024 61.4796V57.435C40.0945 57.2287 41.0721 56.9479 42.0204 56.5935L43.8568 67.576C43.9462 68.1521 44.4491 68.5655 45.0269 68.5655H48.7892C49.2784 69.9377 50.5964 70.9272 52.1362 70.9272C54.0921 70.9272 55.6912 69.3325 55.6912 67.3842C55.6912 65.436 54.0921 63.8413 52.1362 63.8413C50.5964 63.8413 49.2784 64.8308 48.7892 66.2038H46.0345L44.272 55.6494C45.1309 55.2359 45.9606 54.7634 46.7602 54.2318L48.937 56.4018C49.3961 56.8597 50.1519 56.8597 50.611 56.4018L55.3508 51.6784C55.8099 51.2204 55.8099 50.468 55.3508 50.01L53.173 47.8401C53.2917 47.6629 53.4103 47.4865 53.5143 47.3094H61.823C62.3121 48.6815 63.6301 49.6711 65.1708 49.6711C67.1259 49.6711 68.725 48.0763 68.725 46.1281C68.725 44.1798 67.1259 42.5851 65.1708 42.5851C63.6301 42.5851 62.3121 43.5746 61.823 44.9468H54.7876C55.4986 43.442 56.0317 41.8472 56.3876 40.2234H60.431C61.0827 40.2234 61.6157 39.6918 61.6157 39.043V31.957C61.6157 31.3082 61.0827 30.7766 60.431 30.7766H56.373C55.7952 28.0751 54.6991 25.4771 53.1584 23.1599L55.3361 20.99C55.7952 20.532 55.7952 19.7796 55.3361 19.3216L50.5964 14.5982C50.1372 14.1402 49.3815 14.1402 48.9224 14.5982L46.7455 16.7682C45.9451 16.2511 45.1163 15.7786 44.272 15.3506L50.4485 4.79616H54.7137C55.2029 6.16918 56.5209 7.15872 58.0616 7.15872C60.0166 7.15872 61.6157 5.56399 61.6157 3.61573C61.6157 1.66748 60.0166 0.0727539 58.0616 0.0727539C56.5209 0.0727539 55.2029 1.06229 54.7137 2.43446H49.7667C49.3523 2.43446 48.9525 2.65616 48.7445 3.0251L42.0797 14.421C41.1168 14.0666 40.1246 13.7859 39.117 13.565V9.52042C39.117 8.87071 38.5839 8.33914 37.9323 8.33914H30.823C30.1713 8.33914 29.6383 8.87071 29.6383 9.52042V13.565C26.9275 14.1402 24.3207 15.2325 21.9951 16.7682L19.8182 14.5982C19.3591 14.1402 18.6034 14.1402 18.1443 14.5982L16.4411 16.2657L10.6645 12.4282V6.95156C12.0418 6.4645 13.0339 5.15054 13.0339 3.61573C13.0339 1.66748 11.4348 0.0727539 9.47972 0.0727539C7.52465 0.0727539 5.92466 1.66748 5.92466 3.61573C5.92466 5.15054 6.91681 6.4645 8.29499 6.95156V13.0625C8.29499 13.4614 8.48671 13.8304 8.82803 14.0521L14.7379 17.9785L13.3899 19.3216C12.9308 19.7796 12.9308 20.532 13.3899 20.99L15.5667 23.1599C14.0415 25.4771 12.9454 28.0751 12.353 30.7766H8.29499C7.64244 30.7766 7.10939 31.3082 7.10939 31.957V39.043C7.10939 39.6918 7.64244 40.2234 8.29499 40.2234H12.353C12.4863 40.814 12.6341 41.3901 12.8121 41.9654L2.82871 49.9364C2.54757 50.1581 2.38508 50.4971 2.38508 50.8515V54.6008C1.0069 55.0878 0.0147478 56.4018 0.0147478 57.9374C0.000132064 59.8857 1.60012 61.4796 3.55519 61.4796ZM52.1362 66.2038C52.7887 66.2038 53.3218 66.7345 53.3218 67.3842C53.3218 68.034 52.7887 68.5655 52.1362 68.5655C51.4845 68.5655 50.9514 68.034 50.9514 67.3842C50.9514 66.7345 51.4845 66.2038 52.1362 66.2038ZM65.1708 44.9468C65.8225 44.9468 66.3555 45.4784 66.3555 46.1281C66.3555 46.7778 65.8225 47.3094 65.1708 47.3094C64.5191 47.3094 63.9861 46.7778 63.9861 46.1281C63.9861 45.4784 64.5191 44.9468 65.1708 44.9468ZM58.0616 2.43446C58.7132 2.43446 59.2463 2.96603 59.2463 3.61573C59.2463 4.26544 58.7132 4.79616 58.0616 4.79616C57.4099 4.79616 56.876 4.26544 56.876 3.61573C56.876 2.96603 57.4099 2.43446 58.0616 2.43446ZM9.47972 4.79616C8.82803 4.79616 8.29499 4.26544 8.29499 3.61573C8.29499 2.96603 8.82803 2.43446 9.47972 2.43446C10.1314 2.43446 10.6645 2.96603 10.6645 3.61573C10.6645 4.26544 10.1314 4.79616 9.47972 4.79616ZM9.47972 37.8617V33.1383H13.3305C13.9083 33.1383 14.3966 32.7248 14.5007 32.1488C15.0045 29.1228 16.2485 26.2004 18.0557 23.706C18.3962 23.2335 18.3515 22.5838 17.9371 22.1704L15.8926 20.1485L18.9585 17.0926L21.0029 19.1299C21.4173 19.5433 22.069 19.587 22.5436 19.248C25.0463 17.4324 27.9789 16.2066 31.0156 15.705C31.5933 15.6168 32.0077 15.1144 32.0077 14.5391V10.7008H36.7475V14.5391C36.7475 15.1144 37.1619 15.6014 37.7397 15.705C40.7763 16.2066 43.7089 17.447 46.2116 19.248C46.6862 19.587 47.3379 19.5433 47.7523 19.1299L49.7968 17.0926L52.8626 20.1485L50.8182 22.1849C50.4038 22.5984 50.3591 23.2481 50.6995 23.7206C52.5213 26.215 53.7508 29.1382 54.2546 32.1642C54.3431 32.7394 54.847 33.1528 55.4247 33.1528H59.2755V37.8762H55.4247C54.847 37.8762 54.3586 38.2897 54.2546 38.8658C53.7508 41.8917 52.5067 44.8141 50.6995 47.3094C50.3591 47.781 50.4038 48.4307 50.8182 48.8442L52.8626 50.8814L49.7667 53.9074L47.7231 51.8701C47.3078 51.4567 46.6561 51.413 46.1824 51.752C43.6788 53.5676 40.7462 54.7934 37.7104 55.295C37.1327 55.3831 36.7174 55.8856 36.7174 56.4608V60.2991H31.9785V56.4608C31.9785 55.8856 31.5632 55.3985 30.9855 55.295C27.9497 54.7934 25.0171 53.5676 22.5135 51.752C22.0398 51.413 21.3881 51.4567 20.9728 51.8701L18.9585 53.9074L15.8926 50.8515L17.9371 48.8151C18.3515 48.4016 18.3962 47.7519 18.0557 47.2794C16.2339 44.785 15.0045 41.8618 14.5007 38.8358C14.4121 38.2606 13.9083 37.8471 13.3305 37.8471H9.47972V37.8617ZM3.55519 56.7562C4.20688 56.7562 4.73993 57.2877 4.73993 57.9374C4.73993 58.5863 4.20688 59.1179 3.55519 59.1179C2.9035 59.1179 2.3696 58.5863 2.3696 57.9374C2.3696 57.2877 2.9035 56.7562 3.55519 56.7562Z"
                fill="url(#paint4_linear_142_862)" />
        </g>
    </g>
    <defs>
        <linearGradient id="paint0_linear_142_862" x1="36.7324" y1="29.5952" x2="36.7324"
            y2="41.4046" gradientUnits="userSpaceOnUse">
            <stop stop-color="#1B8540" />
            <stop offset="1" stop-color="#8BC43F" />
        </linearGradient>
        <linearGradient id="paint1_linear_142_862" x1="43.842" y1="29.5952" x2="43.842" y2="41.4046"
            gradientUnits="userSpaceOnUse">
            <stop stop-color="#1B8540" />
            <stop offset="1" stop-color="#8BC43F" />
        </linearGradient>
        <linearGradient id="paint2_linear_142_862" x1="27.2533" y1="29.5952" x2="27.2533"
            y2="41.4046" gradientUnits="userSpaceOnUse">
            <stop stop-color="#1B8540" />
            <stop offset="1" stop-color="#8BC43F" />
        </linearGradient>
        <linearGradient id="paint3_linear_142_862" x1="34.3625" y1="17.7866" x2="34.3625"
            y2="53.213" gradientUnits="userSpaceOnUse">
            <stop stop-color="#1B8540" />
            <stop offset="1" stop-color="#8BC43F" />
        </linearGradient>
        <linearGradient id="paint4_linear_142_862" x1="34.3698" y1="0.0727539" x2="34.3698"
            y2="70.9272" gradientUnits="userSpaceOnUse">
            <stop stop-color="#1B8540" />
            <stop offset="1" stop-color="#8BC43F" />
        </linearGradient>
        <clipPath id="clip0_142_862">
            <rect width="69" height="71" fill="white" />
        </clipPath>
    </defs>
</svg>