<svg width="50" height="50" viewBox="0 0 50 50" fill="none" xmlns="http://www.w3.org/2000/svg">
    <rect x="0.778809" y="0.634766" width="48.7305" height="48.7305" rx="4.87305" fill="#0C2314" />
    <path
        d="M25.2079 38.7141H13.5082C11.3739 38.7129 10.2839 37.6242 10.2828 35.5003C10.2828 34.8539 10.3178 34.2062 10.2828 33.5621C10.0762 30.2141 10.641 26.9444 11.2163 23.6688C11.7975 20.2824 12.3342 16.8831 12.8804 13.4897C13.0974 12.129 13.9855 11.29 15.3543 11.2877C21.8891 11.2791 28.4213 11.2791 34.9507 11.2877C36.2996 11.2877 37.2005 12.0718 37.4409 13.4897C38.0325 16.9741 38.5927 20.4644 39.1645 23.9524C39.3617 25.1532 39.5997 26.3516 39.7374 27.5594C39.8856 28.8617 39.979 30.1721 40.0222 31.4814C40.07 32.9156 40.0385 34.3521 40.0315 35.7874C40.0233 37.567 38.8984 38.7047 37.1247 38.7117C33.1524 38.7203 29.1802 38.7211 25.2079 38.7141ZM37.9929 27.3505C37.8412 26.3411 37.7046 25.4204 37.5658 24.5008C37.0115 20.8425 36.4513 17.1842 35.9087 13.5223C35.8422 13.0731 35.701 12.8724 35.1922 12.8735C28.543 12.8906 21.8938 12.8906 15.2446 12.8735C14.8023 12.8735 14.6343 12.9786 14.5713 13.457C14.1302 16.7956 13.6471 20.1283 13.1826 23.4634C13.0041 24.7471 12.8407 26.0412 12.6668 27.3517L37.9929 27.3505ZM25.1706 36.7209C29.3108 36.7209 33.4558 36.7116 37.5926 36.7303C38.2111 36.7303 38.4433 36.5284 38.4351 35.8994C38.4079 33.9133 38.4079 31.9272 38.4351 29.9411C38.4445 29.2794 38.1772 29.0554 37.5413 29.0565C29.2607 29.0674 20.9797 29.0674 12.6983 29.0565C12.0869 29.0565 11.8523 29.2771 11.8628 29.9061C11.892 31.8677 11.871 33.8305 11.8745 35.7932C11.8745 36.6708 11.927 36.7186 12.8209 36.7198L25.1706 36.7209Z"
        fill="#48A345" />
    <path d="M28.7451 33.3379H31.652V34.8141H28.7451V33.3379Z" fill="#48A345" />
    <path d="M33.7671 33.3242H36.6634V34.8179H33.7671V33.3242Z" fill="#48A345" />
    <path d="M18.5195 33.3379H21.3949V34.8106H18.5195V33.3379Z" fill="#48A345" />
    <path d="M26.407 34.8209H23.52V33.3447H26.407V34.8209Z" fill="#48A345" />
    <path d="M21.4147 31.0181V32.3892H18.5195V31.0181H21.4147Z" fill="#48A345" />
    <path d="M23.5088 32.3919V31.0161H26.4156V32.3919H23.5088Z" fill="#48A345" />
    <path d="M31.6676 31.0269V32.4027H28.7305V31.0269H31.6676Z" fill="#48A345" />
    <path d="M33.7607 30.9863H36.6676V32.3866H33.7607V30.9863Z" fill="#48A345" />
    <path
        d="M15.2585 33.7061C15.1271 33.7084 14.9966 33.6839 14.875 33.634C14.7535 33.5841 14.6433 33.5099 14.5514 33.4159C14.4596 33.3219 14.3878 33.2102 14.3407 33.0875C14.2935 32.9649 14.2719 32.8338 14.2771 32.7025C14.2771 32.1611 14.7614 31.6523 15.2772 31.7106C15.8327 31.7736 16.1991 32.0864 16.2224 32.6862C16.2313 32.8177 16.2129 32.9496 16.1683 33.0736C16.1237 33.1976 16.054 33.3111 15.9635 33.4069C15.8729 33.5027 15.7636 33.5787 15.6423 33.6302C15.521 33.6817 15.3903 33.7075 15.2585 33.7061Z"
        fill="#48A345" />
    <path fill-rule="evenodd" clip-rule="evenodd"
        d="M23.8783 21.1312L19.7339 19.1088C19.4791 18.8965 19.066 18.8965 18.8112 19.1088C18.5564 19.3211 18.5564 19.6654 18.8112 19.8777L23.3782 23.6836C23.6548 23.9141 24.1109 23.8913 24.3526 23.635L31.5294 16.0233C31.752 15.7872 31.6521 15.2705 31.3688 15.0849C31.0854 14.8994 30.5584 14.9405 30.3358 15.1766L23.8783 21.1312Z"
        fill="#8EC374" />
</svg>