<svg width="49" height="50" viewBox="0 0 49 50" fill="none" xmlns="http://www.w3.org/2000/svg">
<rect x="0.104004" y="0.959961" width="48.08" height="48.08" rx="4.87437" fill="#0C2314"/>
<path d="M36.4964 8.08301C36.9233 8.27722 37.0558 8.57561 37.0547 8.9817C37.0456 18.7625 37.0432 28.543 37.0474 38.3232C37.0474 38.9986 36.795 39.206 35.9863 39.2104H33.9389C33.8978 39.2176 33.8577 39.2283 33.8191 39.2422C33.8191 39.8416 33.8191 40.4543 33.8191 41.067C33.8191 41.6982 33.5551 41.9171 32.7969 41.9171C31.615 41.9171 30.434 41.9171 29.2531 41.9171C28.6032 41.9171 28.312 41.6743 28.3067 41.134C28.3067 40.5073 28.3067 39.8805 28.3067 39.2299H20.4272C20.4272 39.8425 20.4272 40.4555 20.4272 41.0687C20.4272 41.6982 20.1612 41.9171 19.403 41.9171C18.221 41.9171 17.0401 41.9171 15.8592 41.9171C15.2093 41.9171 14.9202 41.6734 14.9128 41.1332C14.9128 40.5064 14.9128 39.8796 14.9128 39.206H14.4806C13.837 39.206 13.1945 39.2113 12.552 39.206C12.0073 39.199 11.7044 38.9412 11.6876 38.4857C11.6876 38.4309 11.6876 38.3762 11.6876 38.3206C11.6876 28.5415 11.6848 18.7619 11.6792 8.9817C11.6792 8.57561 11.8106 8.27722 12.2386 8.08301H36.4964ZM35.4448 31.9477V9.42133H13.2923V31.9432H14.8339V11.7069C14.8339 10.9803 15.0632 10.7879 15.9307 10.7879H32.7833C33.6697 10.7879 33.8927 10.9768 33.8927 11.729V31.945L35.4448 31.9477ZM35.4448 37.8721V33.3142H13.2818V37.8721H35.4448ZM32.2995 28.0192H16.4334V31.9441H32.2995V28.0192ZM16.4302 21.3514H32.2901V17.4221H16.4302V21.3514ZM32.2985 22.7224H16.4439V26.6518H32.2985V22.7224ZM16.4428 12.1227V16.0644H32.2901V12.1227H16.4428ZM16.5196 39.2246V40.5699H18.8299V39.2246H16.5196ZM32.2091 40.5876V39.2263H29.8956V40.5876H32.2091Z" fill="#48A345"/>
<path d="M21.6972 35.5803C21.7051 35.7124 21.7051 35.8446 21.6972 35.9767C21.6803 36.1319 21.5969 36.2766 21.4625 36.3841C21.3281 36.4916 21.1518 36.5545 20.9663 36.5611C20.6077 36.5779 20.2386 36.3784 20.1882 36.0694C20.1372 35.7433 20.1372 35.4129 20.1882 35.0868C20.2376 34.7602 20.6088 34.5633 20.9926 34.5863C21.1767 34.5972 21.3497 34.6641 21.4792 34.7745C21.6087 34.8848 21.6858 35.031 21.6961 35.1857C21.7108 35.3172 21.6961 35.4505 21.6961 35.5821L21.6972 35.5803Z" fill="#48A345"/>
<path d="M32.0122 35.5835C32.0201 35.7152 32.0201 35.8472 32.0122 35.979C31.9951 36.1284 31.9164 36.2681 31.7897 36.374C31.663 36.4798 31.4962 36.5453 31.3182 36.559C30.9638 36.5908 30.5652 36.4001 30.5148 36.0982C30.458 35.7511 30.458 35.3991 30.5148 35.052C30.5642 34.7448 30.9354 34.563 31.3108 34.5859C31.4892 34.5953 31.6579 34.6576 31.7866 34.7617C31.9153 34.8659 31.9956 35.0051 32.0133 35.1544C32.0219 35.2974 32.0215 35.4406 32.0122 35.5835Z" fill="#48A345"/>
<path d="M16.7146 35.5641C16.7067 35.4323 16.7067 35.3003 16.7146 35.1686C16.7295 35.0192 16.8068 34.879 16.9328 34.7727C17.0588 34.6664 17.2255 34.6009 17.4034 34.5877C17.7893 34.5568 18.1658 34.7484 18.2236 35.0715C18.2778 35.3865 18.2831 35.7061 18.2394 36.0223C18.2126 36.1828 18.113 36.3285 17.9614 36.4288C17.8097 36.5292 17.6177 36.5765 17.4255 36.5608C17.2338 36.5486 17.0543 36.4771 16.9218 36.3601C16.7893 36.2432 16.7132 36.0891 16.7083 35.9278C16.6988 35.8069 16.7083 35.6859 16.7083 35.5641H16.7146Z" fill="#48A345"/>
<path d="M28.609 35.6198C28.6025 35.7703 28.5831 35.9202 28.5511 36.0683C28.5116 36.2199 28.4085 36.3545 28.2606 36.4475C28.1127 36.5405 27.9298 36.5857 27.7455 36.5749C27.5611 36.5641 27.3875 36.4979 27.2565 36.3885C27.1254 36.2792 27.0456 36.1339 27.0316 35.9791C27.01 35.7265 27.0079 35.4729 27.0253 35.2199C27.0265 35.0586 27.1007 34.9036 27.2329 34.7864C27.3651 34.6692 27.5453 34.5986 27.7372 34.5887C27.9358 34.5746 28.1333 34.6254 28.2885 34.7305C28.4436 34.8356 28.5445 34.9869 28.57 35.1529C28.5924 35.3079 28.6054 35.4637 28.609 35.6198Z" fill="#48A345"/>
<path d="M25.1517 35.6029C25.1517 35.7124 25.1612 35.8227 25.1517 35.9313C25.1413 36.0994 25.0545 36.2577 24.9091 36.3736C24.7637 36.4895 24.5709 36.5541 24.3704 36.5541C24.1699 36.5541 23.9771 36.4895 23.8317 36.3736C23.6863 36.2577 23.5995 36.0994 23.5891 35.9313C23.5712 35.6908 23.5712 35.4497 23.5891 35.2092C23.5995 35.0411 23.6863 34.8828 23.8317 34.7669C23.9771 34.651 24.1699 34.5864 24.3704 34.5864C24.5709 34.5864 24.7637 34.651 24.9091 34.7669C25.0545 34.8828 25.1413 35.0411 25.1517 35.2092C25.1622 35.3398 25.1517 35.4714 25.1517 35.6029Z" fill="#48A345"/>
<path d="M25.9824 30.6428C24.71 30.6428 23.4376 30.6428 22.1652 30.6428C21.6394 30.6428 21.324 30.4265 21.2766 30.0593C21.2492 29.8991 21.2966 29.7361 21.4089 29.6045C21.5212 29.4729 21.6897 29.3828 21.8792 29.353C22.0339 29.3293 22.191 29.3193 22.3482 29.323C24.7752 29.323 27.2019 29.323 29.6283 29.323C29.7593 29.3202 29.8904 29.3258 30.0205 29.3398C30.2189 29.3572 30.4012 29.4395 30.5279 29.5689C30.6547 29.6982 30.7156 29.8642 30.6977 30.031C30.6933 30.1925 30.6138 30.346 30.4762 30.4589C30.3387 30.5717 30.1539 30.6349 29.9616 30.6349C29.1203 30.6508 28.2791 30.6428 27.4431 30.6437C26.9488 30.6437 26.463 30.6428 25.9824 30.6428Z" fill="#48A345"/>
<path d="M19.6706 29.9933C19.6654 30.1646 19.5814 30.3275 19.436 30.4479C19.2907 30.5682 19.0955 30.6366 18.8914 30.6386C18.787 30.6389 18.6836 30.6214 18.5875 30.5873C18.4913 30.5532 18.4044 30.503 18.332 30.4399C18.2596 30.3768 18.2031 30.302 18.1661 30.2201C18.129 30.1382 18.1121 30.0508 18.1164 29.9632C18.1211 29.7902 18.2075 29.6259 18.3566 29.5063C18.5057 29.3868 18.7053 29.3219 18.9114 29.3259C19.1175 29.3298 19.3132 29.4024 19.4556 29.5275C19.598 29.6527 19.6753 29.8202 19.6706 29.9933Z" fill="#48A345"/>
<path d="M25.9579 20.0498C24.6729 20.0498 23.3868 20.0551 22.1008 20.0498C21.514 20.0498 21.1543 19.6693 21.2889 19.2217C21.3752 18.9313 21.6707 18.7344 22.0808 18.7335C24.6789 18.7288 27.277 18.7288 29.8751 18.7335C30.364 18.7335 30.6869 19.0098 30.6921 19.3841C30.6974 19.7734 30.3672 20.0471 29.8509 20.0489C28.5564 20.0542 27.2577 20.0498 25.9579 20.0498Z" fill="#48A345"/>
<path d="M18.8732 20.0462C18.6683 20.043 18.4732 19.9718 18.3306 19.8483C18.188 19.7247 18.1093 19.5588 18.1119 19.3868C18.1145 19.2149 18.1962 19.0506 18.3399 18.9282C18.4836 18.8058 18.6781 18.7348 18.8827 18.73C19.0946 18.7337 19.2961 18.8076 19.4433 18.9356C19.5904 19.0637 19.6713 19.2354 19.6682 19.4133C19.6622 19.5855 19.5751 19.7488 19.4262 19.8674C19.2772 19.986 19.0784 20.0503 18.8732 20.0462Z" fill="#48A345"/>
<path d="M25.9575 25.3445C24.6714 25.3445 23.3854 25.3498 22.1003 25.3445C21.4967 25.3445 21.1308 24.9375 21.2969 24.4864C21.4021 24.1986 21.706 24.03 22.1603 24.0274C23.092 24.0229 24.0237 24.0274 24.9554 24.0274C26.5422 24.0274 28.1301 24.0212 29.7169 24.0353C29.9626 24.0365 30.2033 24.0938 30.413 24.2013C30.7075 24.3619 30.758 24.6427 30.6476 24.9119C30.599 25.0454 30.4981 25.1612 30.3612 25.2404C30.2243 25.3195 30.0594 25.3575 29.8936 25.348H26.3908L25.9575 25.3445Z" fill="#48A345"/>
<path d="M18.884 25.3423C18.6793 25.3397 18.4839 25.2701 18.3397 25.1481C18.1954 25.0262 18.1137 24.8617 18.1121 24.6899C18.1093 24.6022 18.1276 24.5149 18.1658 24.4332C18.2041 24.3515 18.2615 24.2772 18.3348 24.2146C18.408 24.152 18.4955 24.1024 18.5921 24.0688C18.6887 24.0352 18.7923 24.0183 18.8968 24.0191C19.0013 24.0198 19.1046 24.0383 19.2005 24.0733C19.2963 24.1083 19.3828 24.1592 19.4547 24.2228C19.5266 24.2865 19.5825 24.3617 19.619 24.4439C19.6556 24.5261 19.672 24.6137 19.6674 24.7014C19.6638 24.8733 19.5795 25.0371 19.4327 25.1571C19.286 25.2772 19.0888 25.3437 18.884 25.3423Z" fill="#48A345"/>
<path d="M25.9591 14.7585H22.102C21.7392 14.7585 21.4563 14.6305 21.3206 14.3463C21.2018 14.0947 21.2271 13.8263 21.4857 13.648C21.654 13.5298 21.8622 13.4591 22.0809 13.4458C24.6783 13.4326 27.2768 13.4352 29.8742 13.4396C30.3621 13.4396 30.687 13.7115 30.6923 14.0876C30.6975 14.4637 30.3673 14.7532 29.8563 14.7559C28.5576 14.7629 27.2578 14.7585 25.9591 14.7585Z" fill="#48A345"/>
<path d="M19.6699 14.0863C19.6718 14.2154 19.628 14.3421 19.544 14.4503C19.4601 14.5585 19.3398 14.6433 19.1985 14.6941C19.0571 14.7448 18.9009 14.7593 18.7497 14.7355C18.5986 14.7117 18.4592 14.6508 18.3493 14.5605C18.2394 14.4702 18.1639 14.3546 18.1323 14.2282C18.1007 14.1019 18.1145 13.9705 18.1719 13.8508C18.2293 13.731 18.3277 13.6282 18.4547 13.5554C18.5818 13.4826 18.7316 13.4431 18.8854 13.4419C19.09 13.4434 19.286 13.5114 19.4322 13.6315C19.5785 13.7516 19.6637 13.9146 19.6699 14.0863Z" fill="#48A345"/>
</svg>
