<svg width="50" height="49" viewBox="0 0 50 49" fill="none" xmlns="http://www.w3.org/2000/svg">
    <rect x="0.174805" y="0.0307617" width="48.9385" height="48.9385" rx="4.89385" fill="#0C2314" />
    <path fill-rule="evenodd" clip-rule="evenodd"
        d="M16.0796 33.0231H23.4203V33.1052H20.9734C20.2977 33.1052 19.75 33.653 19.75 34.3287C19.75 35.0044 20.2977 35.5522 20.9734 35.5522H28.3142C28.9899 35.5522 29.6217 34.8774 29.6217 34.2017C29.6217 33.526 28.9899 33.1052 28.3142 33.1052H25.8673V33.0231H33.208C35.2351 33.0231 36.8784 31.3799 36.8784 29.3528V17.1181C36.8784 15.091 35.2351 13.4478 33.208 13.4478H16.0796C14.0525 13.4478 12.4092 15.091 12.4092 17.1181V29.3528C12.4092 31.3799 14.0525 33.0231 16.0796 33.0231ZM16.0796 15.8946H33.208C33.8837 15.8946 34.4315 16.4423 34.4315 17.118V29.3527C34.4315 30.0284 33.8837 30.5761 33.208 30.5761H16.0796C15.4039 30.5761 14.8561 30.0284 14.8561 29.3527V17.118C14.8561 16.4423 15.4039 15.8946 16.0796 15.8946Z"
        fill="#48A345" />
</svg>