<svg width="51" height="49" viewBox="0 0 51 49" fill="none" xmlns="http://www.w3.org/2000/svg">
    <rect x="0.169434" y="0.760254" width="49.9489" height="47.479" rx="5.60277" fill="#0C2314" />
    <path
        d="M25.2107 38.7845H13.0241C10.801 38.7832 9.66568 37.6492 9.66447 35.437C9.66447 34.7636 9.70093 34.089 9.66447 33.418C9.44933 29.9308 10.0376 26.525 10.6369 23.1131C11.2422 19.5857 11.8013 16.045 12.3702 12.5103C12.5962 11.093 13.5212 10.2191 14.947 10.2166C21.7538 10.2077 28.5577 10.2077 35.3588 10.2166C36.764 10.2166 37.7023 11.0335 37.9527 12.5103C38.569 16.1398 39.1524 19.7753 39.748 23.4084C39.9534 24.6592 40.2014 25.9075 40.3448 27.1655C40.4992 28.522 40.5964 29.887 40.6414 31.2508C40.6912 32.7447 40.6584 34.2409 40.6511 35.736C40.6426 37.5896 39.4709 38.7747 37.6233 38.782C33.4858 38.7909 29.3482 38.7918 25.2107 38.7845ZM38.5276 26.948C38.3696 25.8966 38.2274 24.9375 38.0828 23.9797C37.5054 20.1691 36.922 16.3586 36.3568 12.5443C36.2875 12.0764 36.1404 11.8673 35.6105 11.8685C28.6846 11.8863 21.7587 11.8863 14.8328 11.8685C14.3721 11.8685 14.1971 11.9779 14.1314 12.4763C13.672 15.9538 13.1687 19.4252 12.685 22.8991C12.499 24.2362 12.3288 25.5842 12.1477 26.9492L38.5276 26.948ZM25.1718 36.7084C29.4843 36.7084 33.8018 36.6987 38.1107 36.7181C38.7549 36.7181 38.9968 36.5078 38.9883 35.8527C38.96 33.7839 38.96 31.7151 38.9883 29.6464C38.998 28.9572 38.7197 28.7238 38.0572 28.725C29.4321 28.7364 20.8065 28.7364 12.1805 28.725C11.5436 28.725 11.2993 28.9547 11.3103 29.6099C11.3406 31.6531 11.3188 33.6976 11.3224 35.7421C11.3224 36.6561 11.3771 36.706 12.3082 36.7072L25.1718 36.7084Z"
        fill="#48A345" />
    <path
        d="M19.5984 13.8857L19.6749 15.0076C20.5768 15.0076 21.4666 15.0465 22.349 14.9943C22.9568 14.9578 23.3372 15.1474 23.6861 15.6701C25.0231 17.6526 26.4295 19.5864 27.7774 21.5616C28.0667 21.9858 28.3791 22.1438 28.8787 22.1232C29.7295 22.0867 30.5731 22.0989 31.4203 22.1232C32.1702 22.1414 32.4243 22.4355 32.4206 23.2001C32.4206 23.871 32.0827 24.2223 31.4142 24.2272C30.1987 24.2357 28.9686 24.2722 27.7507 24.2029C27.4298 24.1846 27.0311 23.8929 26.8342 23.6109C25.468 21.6491 24.137 19.663 22.8158 17.6708C22.5581 17.2806 22.2931 17.0776 21.7972 17.1141C21.1068 17.1652 20.4091 17.1275 19.6786 17.1275C19.6409 17.5942 19.6093 18.0014 19.5704 18.5022L16.9146 16.5064L19.5984 13.8857Z"
        fill="#8EC374" />
    <path
        d="M31.0463 18.5465V17.1548C29.4662 17.1475 27.7997 16.6297 26.8492 18.668L25.5645 17.0308C26.7374 15.154 28.6603 14.6302 30.9977 15.1042C31.0305 14.5876 31.0536 14.2035 31.0731 13.8984L33.6755 16.5725L31.0463 18.5465Z"
        fill="#8EC374" />
    <path
        d="M23.2001 20.0063L24.5371 21.5318C24.0363 22.2611 23.4845 23.1119 22.8767 23.9288C22.7442 24.1062 22.41 24.2059 22.1657 24.2132C21.169 24.2448 20.171 24.2059 19.1743 24.2326C18.3843 24.2545 18.2773 23.7136 18.2603 23.1472C18.2433 22.5808 18.4402 22.1104 19.1476 22.1152C19.855 22.1201 20.5466 22.1566 21.2395 22.0934C21.5607 22.0516 21.8564 21.8964 22.0733 21.6558C22.4793 21.1635 22.8026 20.5983 23.2001 20.0063Z"
        fill="#8EC374" />
    <path d="M28.8955 33.1836H31.9233V34.7212H28.8955V33.1836Z" fill="#48A345" />
    <path d="M34.1245 33.1699H37.1414V34.7258H34.1245V33.1699Z" fill="#48A345" />
    <path d="M18.2437 33.1836H21.2386V34.7175H18.2437V33.1836Z" fill="#48A345" />
    <path d="M26.4598 34.728H23.4526V33.1904H26.4598V34.728Z" fill="#48A345" />
    <path d="M21.2593 30.7681V32.1963H18.2437V30.7681H21.2593Z" fill="#48A345" />
    <path d="M23.4404 32.1987V30.7656H26.4682V32.1987H23.4404Z" fill="#48A345" />
    <path d="M31.9398 30.7783V32.2114H28.8804V30.7783H31.9398Z" fill="#48A345" />
    <path d="M34.1182 30.7339H37.146V32.1925H34.1182V30.7339Z" fill="#48A345" />
    <path
        d="M14.8463 33.5686C14.7094 33.571 14.5735 33.5455 14.4468 33.4935C14.3202 33.4415 14.2055 33.3642 14.1098 33.2664C14.0141 33.1685 13.9393 33.0521 13.8902 32.9243C13.8411 32.7965 13.8186 32.6601 13.824 32.5233C13.824 31.9593 14.3285 31.4293 14.8657 31.4901C15.4443 31.5558 15.826 31.8815 15.8503 32.5063C15.8595 32.6432 15.8403 32.7806 15.7939 32.9098C15.7475 33.039 15.6748 33.1572 15.5805 33.257C15.4863 33.3567 15.3724 33.4359 15.246 33.4895C15.1196 33.5432 14.9835 33.5701 14.8463 33.5686Z"
        fill="#48A345" />
</svg>