<svg width="61" height="60" viewBox="0 0 61 60" fill="none" xmlns="http://www.w3.org/2000/svg">
<rect x="0.450195" width="60" height="60" rx="30" fill="url(#paint0_linear_110_428)"/>
<path d="M16.1328 18.8V41.2C16.1328 41.9426 16.3983 42.6548 16.8709 43.1799C17.3435 43.705 17.9845 44 18.6528 44H43.8528C44.187 44 44.5075 43.8525 44.7438 43.59C44.9801 43.3274 45.1128 42.9713 45.1128 42.6V23C45.1128 22.6287 44.9801 22.2726 44.7438 22.0101C44.5075 21.7475 44.187 21.6 43.8528 21.6H18.6528C17.9845 21.6 17.3435 21.305 16.8709 20.7799C16.3983 20.2548 16.1328 19.5426 16.1328 18.8ZM16.1328 18.8C16.1328 18.0574 16.3983 17.3452 16.8709 16.8201C17.3435 16.295 17.9845 16 18.6528 16H40.0728" stroke="white" stroke-width="2.5" stroke-linecap="round" stroke-linejoin="round"/>
<path d="M38.183 34.8992C39.2268 34.8992 40.073 33.959 40.073 32.7992C40.073 31.6394 39.2268 30.6992 38.183 30.6992C37.1392 30.6992 36.293 31.6394 36.293 32.7992C36.293 33.959 37.1392 34.8992 38.183 34.8992Z" fill="white"/>
<defs>
<linearGradient id="paint0_linear_110_428" x1="30.4502" y1="0" x2="30.4502" y2="60" gradientUnits="userSpaceOnUse">
<stop stop-color="#1B8540"/>
<stop offset="1" stop-color="#8BC43F"/>
</linearGradient>
</defs>
</svg>
