<svg width="61" height="60" viewBox="0 0 61 60" fill="none" xmlns="http://www.w3.org/2000/svg">
<rect x="0.149902" width="60" height="60" rx="30" fill="url(#paint0_linear_110_421)"/>
<path d="M40.3989 19.392C37.5666 16.5584 33.7961 15 29.791 15C25.7859 15 22.0213 16.5584 19.189 19.392C16.3508 22.2255 14.791 25.9917 14.791 30C14.791 34.0083 16.3508 37.7745 19.189 40.608C22.0213 43.4357 25.7859 45 29.791 45C33.7961 45 37.5608 43.4416 40.393 40.608C43.2312 37.7745 44.791 34.0083 44.791 30C44.791 25.9917 43.2312 22.2255 40.3989 19.392ZM41.4955 25.183H35.9306C35.9247 25.1653 35.9247 25.1476 35.9188 25.1299C35.3794 22.196 34.5877 19.7285 33.972 18.0697C37.379 19.2621 40.1233 21.8713 41.4955 25.183ZM28.0963 17.4793C28.6534 17.4026 29.2163 17.3672 29.791 17.3672C30.266 17.3672 30.7292 17.3967 31.1866 17.4439C31.6909 18.6187 32.8227 21.5112 33.5381 25.183H26.2785C26.8884 21.098 27.9028 18.046 28.0963 17.4793ZM17.1366 30C17.1366 29.1617 17.2187 28.3412 17.377 27.5443H23.6339C23.4169 29.9115 23.3993 32.1901 23.5811 34.3329H17.9048C17.4063 32.9811 17.1366 31.523 17.1366 30ZM19.0658 36.6942H23.8743C24.1675 38.4947 24.6073 40.1948 25.2054 41.771C22.6546 40.7792 20.5025 38.9787 19.0658 36.6942ZM23.9095 25.183H18.0924C19.4411 21.9303 22.1092 19.3625 25.4224 18.1405C24.9826 19.6517 24.3375 22.1488 23.9095 25.183ZM31.4798 42.5207C30.9286 42.5915 30.3657 42.6328 29.7969 42.6328C29.2105 42.6328 28.6358 42.5915 28.067 42.5148C27.1757 40.6493 26.601 38.6718 26.2609 36.6942H33.6554C33.239 38.66 32.5471 40.6375 31.4798 42.5207ZM34.0189 34.3329H25.9443C25.7273 31.9185 25.7977 29.5868 25.9912 27.5443H33.9192C34.1773 29.5927 34.2769 31.9244 34.0189 34.3329ZM34.4998 41.7296C35.1917 40.1535 35.7136 38.4711 36.0479 36.6942H40.5221C39.1088 38.9492 36.9978 40.7261 34.4998 41.7296ZM36.388 34.3329L36.4056 34.1204C36.5932 32.0307 36.5522 29.8229 36.2824 27.5443H42.2109C42.3692 28.3412 42.4513 29.1617 42.4513 30C42.4513 31.523 42.1816 32.9811 41.6831 34.3329H36.388Z" fill="white"/>
<defs>
<linearGradient id="paint0_linear_110_421" x1="30.1499" y1="0" x2="30.1499" y2="60" gradientUnits="userSpaceOnUse">
<stop stop-color="#1B8540"/>
<stop offset="1" stop-color="#8BC43F"/>
</linearGradient>
</defs>
</svg>
