<svg width="61" height="60" viewBox="0 0 61 60" fill="none" xmlns="http://www.w3.org/2000/svg">
    <rect x="0.25" width="60" height="60" rx="30" fill="url(#paint0_linear_110_414)" />
    <path fill-rule="evenodd" clip-rule="evenodd"
        d="M45.2982 15.4473C45.5425 15.8302 45.4878 16.3314 45.1666 16.6526L28.739 33.0803C28.4384 33.3808 27.9771 33.4501 27.6016 33.2512L15.9653 27.0909C15.6274 26.912 15.4264 26.551 15.4524 26.1696C15.4785 25.7881 15.7266 25.4577 16.0856 25.3264L44.1495 15.059C44.5761 14.903 45.0537 15.0645 45.2982 15.4473ZM18.793 26.3974L27.8755 31.2057L40.698 18.3833L18.793 26.3974Z"
        fill="white" />
    <path fill-rule="evenodd" clip-rule="evenodd"
        d="M45.0025 15.152C45.3853 15.3964 45.5468 15.8741 45.3907 16.3006L35.1234 44.3645C34.9921 44.7236 34.6617 44.9717 34.2802 44.9977C33.8988 45.0237 33.5377 44.8227 33.3589 44.4848L27.1984 32.8486C26.9996 32.473 27.069 32.0117 27.3695 31.7112L43.7972 15.2835C44.1184 14.9624 44.6196 14.9077 45.0025 15.152ZM42.0665 19.7522L29.244 32.5746L34.0524 41.6572L42.0665 19.7522Z"
        fill="white" />
    <defs>
        <linearGradient id="paint0_linear_110_414" x1="30.25" y1="0" x2="30.25" y2="60"
            gradientUnits="userSpaceOnUse">
            <stop stop-color="#1B8540" />
            <stop offset="1" stop-color="#8BC43F" />
        </linearGradient>
    </defs>
</svg>