<svg width="61" height="60" viewBox="0 0 61 60" fill="none" xmlns="http://www.w3.org/2000/svg">
<rect x="0.5" width="60" height="60" rx="30" fill="url(#paint0_linear_72_1191)"/>
<g clip-path="url(#clip0_72_1191)">
<mask id="mask0_72_1191" style="mask-type:luminance" maskUnits="userSpaceOnUse" x="15" y="15" width="30" height="30">
<path d="M15.6797 15.3696H44.6868V44.9815H15.6797V15.3696Z" fill="white"/>
</mask>
<g mask="url(#mask0_72_1191)">
<path d="M36.1849 25.005C36.1849 25.0116 36.1849 25.0116 36.1849 25.0185V32.293C36.1849 32.9489 35.5945 33.4976 34.6448 33.8456C33.8558 34.14 32.7715 34.3208 31.5844 34.3208C30.0188 36.817 26.644 37.1916 24.6163 35.0769C22.8518 33.2365 22.8518 30.2585 24.6163 28.4182C25.2322 27.7756 26.0215 27.3207 26.9069 27.1333V25.0116C26.9069 24.3493 27.4972 23.8072 28.4469 23.4592C30.1729 22.8232 32.9125 22.8232 34.6448 23.4592C35.5945 23.8139 36.1785 24.3491 36.1849 25.005ZM26.214 32.8351C26.1882 32.5607 26.3808 32.3198 26.644 32.293C26.9069 32.2661 27.1379 32.4668 27.1637 32.7412C27.1955 33.1294 27.9078 33.357 28.3184 33.0089C28.4148 32.9287 28.4724 32.8218 28.4724 32.708C28.4724 32.3799 28.1004 32.3063 27.7283 32.2326C26.9711 32.079 26.2076 31.925 26.2076 30.7804C26.2076 30.0913 26.708 29.5625 27.3305 29.3817V29.1743C27.3305 28.8999 27.5421 28.6724 27.818 28.6724C28.0876 28.6724 28.2993 28.8999 28.2929 29.181L28.2865 29.3817C28.9151 29.5558 29.4157 30.0844 29.4157 30.7804C29.4157 31.0548 29.2041 31.2758 28.9409 31.2758C28.6777 31.2758 28.466 31.0548 28.466 30.7804C28.466 30.3723 27.7283 30.1245 27.3111 30.4795C27.2149 30.5598 27.157 30.6666 27.157 30.7804C27.157 31.1085 27.5294 31.1822 27.9014 31.2555C28.6586 31.4095 29.4221 31.5634 29.4221 32.708C29.4221 33.3971 28.9151 33.9326 28.2865 34.1065V34.3141C28.2865 34.5885 28.0746 34.8161 27.8117 34.8161C27.5485 34.8161 27.3305 34.5951 27.3305 34.3141V34.1065C26.7528 33.9392 26.2716 33.4708 26.214 32.8351ZM32.072 33.3168C32.9574 33.27 33.7467 33.1227 34.3371 32.9087C34.8953 32.7011 35.2352 32.4804 35.2352 32.293V31.1553C34.4844 31.577 33.381 31.7976 32.3285 31.8713C32.3158 32.3799 32.226 32.8619 32.072 33.3168ZM32.2518 30.8876C33.1051 30.8272 33.8622 30.6736 34.4204 30.4526C34.9208 30.2519 35.2288 30.0442 35.2288 29.8704V28.7327C34.3498 29.2211 32.9959 29.4487 31.7575 29.4756C31.995 29.9039 32.1617 30.379 32.2518 30.8876ZM31.0519 28.4716C32.2066 28.532 33.4771 28.3781 34.3304 28.0566C34.8886 27.8492 35.2288 27.6286 35.2288 27.4411V26.3035C33.458 27.2938 29.6338 27.2938 27.8629 26.3035V27.0394C29.1204 27.0596 30.2432 27.6017 31.0519 28.4716ZM27.4524 28.0566C27.446 28.0566 27.446 28.0566 27.4396 28.0566C25.6558 28.244 24.2634 29.8369 24.2634 31.7442C24.2634 33.7919 25.8547 35.4584 27.818 35.4584C29.7814 35.4584 31.3727 33.7989 31.3727 31.7442C31.3727 29.5492 29.5567 27.8359 27.4524 28.0566ZM40.7148 43.7099H38.809C38.655 43.7099 38.5267 43.6365 38.437 43.5294L37.141 42.0235C33.2591 44.3392 28.4982 44.4796 24.4944 42.3984C24.257 42.2713 24.1609 41.9701 24.2955 41.709L25.8356 38.4765C25.9508 38.229 26.2398 38.1285 26.4705 38.2559C30.2563 40.2233 34.8501 39.1659 37.5067 35.7195C38.3087 34.6754 38.9054 33.4439 39.2196 32.1055C39.2775 31.8447 39.5277 31.6839 39.7715 31.7376L43.1979 32.4336C43.4672 32.4871 43.6406 32.7681 43.5636 33.0627C43.1078 35.0971 42.2224 36.9574 41.0226 38.5435C40.1565 39.6878 39.1171 40.6851 37.9557 41.5016L39.0207 42.7196H40.7148C41.0741 41.4482 42.6202 41.0199 43.5314 41.9701C44.5966 43.0809 43.8395 44.9816 42.3379 44.9816C41.5744 44.9749 40.9201 44.4527 40.7148 43.7099ZM36.4863 41.2674L35.7998 40.4708C35.6267 40.2701 35.6394 39.9556 35.832 39.7681C36.0309 39.5876 36.3259 39.6009 36.5057 39.8086L37.3141 40.7455C39.8485 39.012 41.7157 36.3685 42.5241 33.3035L40.0283 32.7949C38.7769 37.2118 34.8759 40.2299 30.4807 40.2299C29.0949 40.2299 27.7347 39.929 26.4836 39.3534L25.3541 41.7226C28.9088 43.4023 33.0538 43.2282 36.4863 41.2674ZM42.3316 43.9776C42.9859 43.9776 43.3134 43.1479 42.8513 42.6661C42.3892 42.1841 41.5938 42.5255 41.5938 43.2082C41.6002 43.6365 41.9274 43.9776 42.3316 43.9776ZM17.8471 19.4103V22.094L18.7711 22.9572C20.5934 19.5842 23.7118 17.0879 27.4075 16.1914C27.664 16.1311 27.9142 16.2916 27.9848 16.5793L28.8639 20.0728C28.9281 20.3472 28.7677 20.6216 28.4918 20.6819C26.4705 21.1571 24.6997 22.3481 23.4486 23.9811C20.3751 27.9899 20.9655 33.839 24.7703 37.098C24.9693 37.2722 25.0014 37.5731 24.8474 37.7874L22.7108 40.6649C22.5438 40.8859 22.2424 40.9194 22.0307 40.7455C17.2249 36.6966 15.6785 29.7164 18.3284 23.874L17.0836 22.7028C16.9745 22.6092 16.9105 22.4752 16.9105 22.3146V19.4103C15.6912 19.0354 15.2806 17.4226 16.1918 16.4724C17.257 15.368 19.0791 16.151 19.0791 17.7172C19.0597 18.5069 18.553 19.1893 17.8471 19.4103ZM19.4897 23.6331L20.5419 24.6168C20.7344 24.7976 20.7538 25.1188 20.574 25.3195C20.4009 25.5271 20.0992 25.5404 19.9003 25.3596L19.047 24.5567C16.8207 29.7901 18.1488 35.9 22.2424 39.6411L23.8015 37.5396C19.9003 33.8722 19.4063 27.6618 22.6978 23.3653C23.9874 21.6856 25.7649 20.4275 27.8117 19.8386L27.1701 17.2753C23.8655 18.2189 21.1001 20.5413 19.4897 23.6331ZM17.3659 16.9475C16.7116 16.9475 16.3844 17.7773 16.8462 18.2591C17.3083 18.7411 18.104 18.3997 18.104 17.7172C18.104 17.2956 17.7765 16.9475 17.3659 16.9475ZM41.3434 17.697H39.6496L38.7256 18.768C41.921 21.3578 43.9229 25.3798 43.9229 29.8435C43.9229 30.1179 43.7109 30.3455 43.448 30.3455H39.9576C39.6944 30.3455 39.4764 30.1245 39.4764 29.8435C39.4764 24.6569 35.4469 20.4544 30.4743 20.4544C30.2114 20.4544 29.9995 20.2334 29.9995 19.959V16.3185C29.9995 16.0441 30.2114 15.8232 30.4743 15.8232C33.2397 15.8232 35.8062 16.6931 37.943 18.1857L39.0658 16.8872C39.1556 16.7734 39.2902 16.7 39.4379 16.7H41.3434C41.7027 15.4284 43.2491 15 44.1603 15.9503C45.2189 17.0613 44.4617 18.9551 42.9668 18.9551C42.2033 18.9551 41.5487 18.4332 41.3434 17.697ZM38.0776 19.5039L37.1279 20.6014C36.9548 20.8024 36.6467 20.8223 36.4542 20.6349C36.2553 20.4544 36.2425 20.1398 36.4157 19.9322L37.2884 18.9216C35.4532 17.6702 33.2782 16.9074 30.9428 16.8205V19.4637C36.063 19.7182 40.1693 24.0013 40.4067 29.3349H42.9411C42.8128 25.3732 40.9586 21.8196 38.0776 19.5039ZM43.4865 16.6529C43.0244 16.1712 42.2288 16.5126 42.2288 17.1951C42.2288 17.8778 43.0244 18.2189 43.4865 17.7372C43.7688 17.4429 43.7688 16.9542 43.4865 16.6529ZM34.3304 24.4028C32.8097 23.8404 30.2884 23.8404 28.7677 24.4028C28.2095 24.6101 27.8693 24.8311 27.8693 25.0185C27.8693 25.2057 28.2159 25.4333 28.7677 25.634C30.2884 26.1963 32.8097 26.1963 34.3304 25.634C34.8886 25.4266 35.2288 25.2057 35.2288 25.0185C35.2352 24.8244 34.8886 24.6035 34.3304 24.4028Z" fill="white"/>
</g>
</g>
<defs>
<linearGradient id="paint0_linear_72_1191" x1="30.5" y1="0" x2="30.5" y2="60" gradientUnits="userSpaceOnUse">
<stop stop-color="#1B8540"/>
<stop offset="1" stop-color="#8BC43F"/>
</linearGradient>
<clipPath id="clip0_72_1191">
<rect width="30" height="30" fill="white" transform="translate(15.25 15)"/>
</clipPath>
</defs>
</svg>
