<svg width="61" height="60" viewBox="0 0 61 60" fill="none" xmlns="http://www.w3.org/2000/svg">
<rect x="0.5" width="60" height="60" rx="30" fill="url(#paint0_linear_72_1198)"/>
<g clip-path="url(#clip0_72_1198)">
<path d="M42.949 18.5052C43.6035 18.5052 44.1175 17.991 44.1175 17.3367C44.1175 17.033 44.0007 16.7292 43.7669 16.5188C43.5566 16.2852 43.2764 16.1685 42.949 16.1685C42.3182 16.1685 41.7808 16.6825 41.7808 17.3367C41.7808 17.9677 42.2948 18.5052 42.949 18.5052ZM42.949 17.1032C43.0426 17.1032 43.0893 17.1498 43.1127 17.1733C43.1361 17.1965 43.1828 17.2432 43.1828 17.3367C43.1828 17.477 43.066 17.5705 42.949 17.5705C42.809 17.5705 42.7155 17.4535 42.7155 17.3367C42.7155 17.1965 42.8322 17.1032 42.949 17.1032Z" fill="white"/>
<mask id="mask0_72_1198" style="mask-type:luminance" maskUnits="userSpaceOnUse" x="44" y="15" width="2" height="1">
<path d="M44.3242 15H45.286V15.9744H44.3242V15Z" fill="white"/>
</mask>
<g mask="url(#mask0_72_1198)">
<path d="M45.2858 15.4673C45.2858 15.498 45.2828 15.5284 45.2768 15.5585C45.2707 15.5885 45.2619 15.6178 45.2501 15.6462C45.2383 15.6745 45.2239 15.7015 45.2068 15.727C45.1898 15.7526 45.1706 15.776 45.1488 15.7979C45.1271 15.8195 45.1035 15.8389 45.078 15.856C45.0524 15.873 45.0256 15.8874 44.9971 15.899C44.9689 15.9109 44.9396 15.9197 44.9096 15.9257C44.8793 15.9317 44.8491 15.9347 44.8184 15.9347C44.7876 15.9347 44.7573 15.9317 44.7271 15.9257C44.697 15.9197 44.6678 15.9109 44.6395 15.899C44.6111 15.8874 44.5842 15.873 44.5586 15.856C44.5332 15.8389 44.5095 15.8195 44.4879 15.7979C44.4663 15.776 44.4468 15.7526 44.4298 15.727C44.4128 15.7015 44.3983 15.6745 44.3865 15.6462C44.3747 15.6178 44.3659 15.5885 44.3599 15.5585C44.3539 15.5284 44.3511 15.498 44.3511 15.4673C44.3511 15.4367 44.3539 15.4062 44.3599 15.3762C44.3659 15.3462 44.3747 15.3169 44.3865 15.2885C44.3983 15.2602 44.4128 15.2332 44.4298 15.2077C44.4468 15.1821 44.4663 15.1587 44.4879 15.1368C44.5095 15.1152 44.5332 15.0958 44.5586 15.0787C44.5842 15.0617 44.6111 15.0473 44.6395 15.0357C44.6678 15.0238 44.697 15.015 44.7271 15.009C44.7573 15.003 44.7876 15 44.8184 15C44.8491 15 44.8793 15.003 44.9096 15.009C44.9396 15.015 44.9689 15.0238 44.9971 15.0357C45.0256 15.0473 45.0524 15.0617 45.078 15.0787C45.1035 15.0958 45.1271 15.1152 45.1488 15.1368C45.1706 15.1587 45.1898 15.1821 45.2068 15.2077C45.2239 15.2332 45.2383 15.2602 45.2501 15.2885C45.2619 15.3169 45.2707 15.3462 45.2768 15.3762C45.2828 15.4062 45.2858 15.4367 45.2858 15.4673Z" fill="white"/>
</g>
<path d="M17.7124 18.5052C18.3667 18.5052 18.8807 17.9677 18.8807 17.3367C18.8807 16.6825 18.3432 16.1685 17.7124 16.1685C17.3853 16.1685 17.1048 16.2852 16.8945 16.5188C16.6609 16.7292 16.5439 17.033 16.5439 17.3367C16.5439 17.991 17.0814 18.5052 17.7124 18.5052ZM17.5488 17.1733C17.5722 17.1498 17.6189 17.1032 17.7124 17.1032C17.8526 17.1032 17.946 17.1965 17.946 17.3367C17.946 17.477 17.8526 17.5705 17.7124 17.5705C17.5722 17.5705 17.4786 17.477 17.4786 17.3367C17.4786 17.2432 17.5255 17.1965 17.5488 17.1733Z" fill="white"/>
<mask id="mask1_72_1198" style="mask-type:luminance" maskUnits="userSpaceOnUse" x="15" y="15" width="2" height="1">
<path d="M15.376 15H16.3247V15.9744H15.376V15Z" fill="white"/>
</mask>
<g mask="url(#mask1_72_1198)">
<path d="M16.3107 15.4673C16.3107 15.498 16.3077 15.5284 16.3017 15.5585C16.2956 15.5885 16.2868 15.6178 16.275 15.6462C16.2634 15.6745 16.249 15.7015 16.2319 15.727C16.2149 15.7526 16.1955 15.776 16.1737 15.7979C16.152 15.8195 16.1284 15.8389 16.1029 15.856C16.0775 15.873 16.0505 15.8874 16.0222 15.899C15.9938 15.9109 15.9645 15.9197 15.9345 15.9257C15.9044 15.9317 15.874 15.9347 15.8433 15.9347C15.8127 15.9347 15.7822 15.9317 15.7522 15.9257C15.7219 15.9197 15.6929 15.9109 15.6644 15.899C15.636 15.8874 15.6091 15.873 15.5837 15.856C15.5581 15.8389 15.5344 15.8195 15.5128 15.7979C15.4912 15.776 15.4717 15.7526 15.4547 15.727C15.4377 15.7015 15.4233 15.6745 15.4114 15.6462C15.3998 15.6178 15.3908 15.5885 15.385 15.5585C15.379 15.5284 15.376 15.498 15.376 15.4673C15.376 15.4367 15.379 15.4062 15.385 15.3762C15.3908 15.3462 15.3998 15.3169 15.4114 15.2885C15.4233 15.2602 15.4377 15.2332 15.4547 15.2077C15.4717 15.1821 15.4912 15.1587 15.5128 15.1368C15.5344 15.1152 15.5581 15.0958 15.5837 15.0787C15.6091 15.0617 15.636 15.0473 15.6644 15.0357C15.6929 15.0238 15.7219 15.015 15.7522 15.009C15.7822 15.003 15.8127 15 15.8433 15C15.874 15 15.9044 15.003 15.9345 15.009C15.9645 15.015 15.9938 15.0238 16.0222 15.0357C16.0505 15.0473 16.0775 15.0617 16.1029 15.0787C16.1284 15.0958 16.152 15.1152 16.1737 15.1368C16.1955 15.1587 16.2149 15.1821 16.2319 15.2077C16.249 15.2332 16.2634 15.2602 16.275 15.2885C16.2868 15.3169 16.2956 15.3462 16.3017 15.3762C16.3077 15.4062 16.3107 15.4367 16.3107 15.4673Z" fill="white"/>
</g>
<mask id="mask2_72_1198" style="mask-type:luminance" maskUnits="userSpaceOnUse" x="35" y="23" width="5" height="22">
<path d="M35.4526 23.8718H39.2475V44.9105H35.4526V23.8718Z" fill="white"/>
</mask>
<g mask="url(#mask2_72_1198)">
<path d="M38.2758 23.8796H36.4064C35.8924 23.8796 35.4717 24.3003 35.4717 24.8143V44.4431C35.4717 44.7002 35.682 44.9105 35.939 44.9105H38.7431C39.0003 44.9105 39.2105 44.7002 39.2105 44.4431V24.8143C39.2105 24.3003 38.79 23.8796 38.2758 23.8796ZM38.2758 43.9758H36.4064V24.8143H38.2758V43.9758Z" fill="white"/>
</g>
<mask id="mask3_72_1198" style="mask-type:luminance" maskUnits="userSpaceOnUse" x="30" y="28" width="5" height="17">
<path d="M30.7861 28.5386H34.581V44.9106H30.7861V28.5386Z" fill="white"/>
</mask>
<g mask="url(#mask3_72_1198)">
<path d="M33.6024 28.5532H31.733C31.219 28.5532 30.7983 28.9739 30.7983 29.4879V44.4432C30.7983 44.7003 31.0087 44.9106 31.2657 44.9106H34.0698C34.3268 44.9106 34.5371 44.7003 34.5371 44.4432V29.4879C34.5371 28.9739 34.1166 28.5532 33.6024 28.5532ZM33.6024 43.9759H31.733V29.4879H33.6024V43.9759Z" fill="white"/>
</g>
<mask id="mask4_72_1198" style="mask-type:luminance" maskUnits="userSpaceOnUse" x="26" y="33" width="4" height="12">
<path d="M26.1191 33.2051H29.914V44.9104H26.1191V33.2051Z" fill="white"/>
</mask>
<g mask="url(#mask4_72_1198)">
<path d="M28.9286 33.2266H27.0592C26.5452 33.2266 26.1245 33.6472 26.1245 34.1613V44.4431C26.1245 44.7001 26.3348 44.9105 26.5919 44.9105H29.3959C29.653 44.9105 29.8633 44.7001 29.8633 44.4431V34.1613C29.8633 33.6472 29.4426 33.2266 28.9286 33.2266ZM28.9286 43.9758H27.0592V34.1613H28.9286V43.9758Z" fill="white"/>
</g>
<mask id="mask5_72_1198" style="mask-type:luminance" maskUnits="userSpaceOnUse" x="21" y="37" width="5" height="8">
<path d="M21.4014 37.8718H25.1962V44.9105H21.4014V37.8718Z" fill="white"/>
</mask>
<g mask="url(#mask5_72_1198)">
<path d="M24.2553 37.9004H22.3859C21.8718 37.9004 21.4512 38.3209 21.4512 38.8351V44.4433C21.4512 44.7003 21.6615 44.9106 21.9185 44.9106H24.7226C24.9796 44.9106 25.19 44.7003 25.19 44.4433V38.8351C25.19 38.3209 24.7693 37.9004 24.2553 37.9004ZM24.2553 43.9759H22.3859V38.8351H24.2553V43.9759Z" fill="white"/>
</g>
<path d="M23.7881 29.9552C23.7881 30.6329 23.8816 31.2639 24.0685 31.8715C24.3255 31.6846 24.606 31.4743 24.8864 31.2639C24.7695 30.8667 24.7228 30.4226 24.7228 29.9552C24.7228 27.081 26.8726 24.721 29.6533 24.3939C29.5365 24.09 29.513 23.7629 29.6066 23.4592C26.3352 23.8096 23.7881 26.5904 23.7881 29.9552Z" fill="white"/>
<path d="M19.8623 35.7504C19.9324 35.9373 20.1193 36.0309 20.2828 36.0309C20.3529 36.0309 20.3998 36.0309 20.4699 35.984C23.2271 34.839 29.7467 31.4508 32.3871 24.3003L32.434 24.5339C32.4807 24.7442 32.6676 24.9079 32.8779 24.9079C32.9014 24.9079 32.948 24.9079 32.9947 24.8845C33.2517 24.8378 33.392 24.5808 33.3453 24.3238L32.9014 22.3843C32.8545 22.2206 32.7377 22.0804 32.5742 22.0337C32.4106 21.987 32.2471 22.0337 32.1301 22.127L30.6347 23.5058C30.4476 23.6693 30.4244 23.9732 30.6113 24.1601C30.775 24.347 31.0787 24.3704 31.2656 24.1835L31.5226 23.9498C29.0224 30.7965 22.7597 34.0213 20.0959 35.1429C19.8623 35.2362 19.7453 35.4934 19.8623 35.7504Z" fill="white"/>
<path d="M33.7891 25.5386C34.0463 25.7489 34.3033 25.9827 34.5369 26.2632V24.9545C34.4435 24.8844 34.3734 24.8143 34.2798 24.7441C34.2097 25.048 34.0228 25.3285 33.7891 25.5386Z" fill="white"/>
<path d="M40.145 36.241V37.5729L40.9629 38.3908C41.1733 38.6011 41.1032 39.0218 40.8227 39.3023L40.145 39.9797V41.2884C40.2151 41.2418 40.262 41.1949 40.3087 41.1248L41.477 39.9565C42.1314 39.3023 42.1781 38.3207 41.6172 37.7366L40.145 36.241Z" fill="white"/>
<path d="M20.283 36.9656C20.143 36.9656 20.0027 36.9421 19.8625 36.8954L19.0446 37.7131C18.4605 38.2975 18.5306 39.2789 19.1848 39.9331L20.3531 41.1016C20.4 41.1482 20.4701 41.1949 20.5168 41.2418V39.9331L19.8391 39.2554C19.5586 38.9752 19.5119 38.5545 19.6988 38.3676L21.1944 36.872C21.2645 36.8019 21.3347 36.7083 21.3813 36.5916C21.171 36.6851 20.9841 36.7552 20.8204 36.8253C20.6335 36.9421 20.4701 36.9656 20.283 36.9656Z" fill="white"/>
<mask id="mask6_72_1198" style="mask-type:luminance" maskUnits="userSpaceOnUse" x="15" y="15" width="31" height="22">
<path d="M15.376 15H45.2864V36.1795H15.376V15Z" fill="white"/>
</mask>
<g mask="url(#mask6_72_1198)">
<path d="M43.8143 27.4549H41.6877C41.384 26.0996 40.8465 24.8143 40.1222 23.6693L41.6176 22.1739C42.2019 21.5895 42.1318 20.6082 41.4775 19.9539L40.3091 18.7855C39.9585 18.4351 39.5146 18.248 39.0705 18.248C38.6967 18.248 38.3461 18.3882 38.0891 18.6452L36.5937 20.1408C35.4719 19.4399 34.1869 18.9024 32.8315 18.5986V16.4722C32.8315 15.6542 32.0837 15 31.1725 15H29.5132C28.6019 15 27.8541 15.6542 27.8541 16.4722V18.5986C26.4755 18.9024 25.1903 19.4399 24.0687 20.1643L22.5731 18.6687C22.3161 18.4117 21.9423 18.2714 21.5917 18.2714C21.171 18.2714 20.7037 18.4583 20.3531 18.8089L19.1849 19.9774C18.5306 20.6316 18.4837 21.613 19.0446 22.1971L20.5402 23.6927C19.8157 24.8143 19.2782 26.0996 18.9745 27.4549H16.8481C16.0302 27.4549 15.376 28.2027 15.376 29.114V30.773C15.376 31.6845 16.0302 32.4321 16.8481 32.4321H18.9745C19.1148 33.0865 19.3251 33.7408 19.5821 34.3484C19.6288 34.3249 19.6989 34.2782 19.769 34.2548C19.9793 34.1613 20.1897 34.0679 20.4467 33.9511C20.2129 33.3902 20.0495 32.8061 19.9092 32.2218C19.8157 31.8013 19.4419 31.4974 18.998 31.4974H16.8481C16.5442 31.4974 16.3107 31.1703 16.3107 30.773V29.114C16.3107 28.7167 16.5677 28.3896 16.8481 28.3896H18.9745C19.4184 28.3896 19.7924 28.0857 19.8858 27.6653C20.143 26.4267 20.6336 25.2584 21.3347 24.1835C21.5683 23.8095 21.5216 23.3189 21.2177 23.015L19.7223 21.5196C19.512 21.3093 19.5821 20.8886 19.8626 20.6316L21.0308 19.4631C21.1945 19.2997 21.4048 19.2061 21.5917 19.2061C21.6851 19.2061 21.8253 19.2296 21.9188 19.3229L23.4144 20.8185C23.6013 21.0054 23.8349 21.099 24.0687 21.099C24.2321 21.099 24.4192 21.0523 24.5827 20.9587C25.6576 20.2811 26.8261 19.7903 28.0645 19.51C28.4852 19.4165 28.7888 19.0427 28.7888 18.5986V16.4722C28.7888 16.1685 29.116 15.9347 29.5132 15.9347H31.1725C31.5697 15.9347 31.8968 16.1917 31.8968 16.4722V18.5986C31.8968 19.0427 32.2005 19.4165 32.6212 19.51C33.8596 19.7903 35.028 20.2576 36.1029 20.9587C36.2664 21.0523 36.4301 21.099 36.617 21.099C36.8507 21.099 37.1077 21.0054 37.2712 20.8185L38.7668 19.3229C38.8604 19.2296 39.0006 19.2061 39.0939 19.2061C39.3043 19.2061 39.4912 19.2997 39.6548 19.4631L40.8231 20.6316C41.1035 20.9121 41.1502 21.3325 40.9633 21.5196L39.4679 23.015C39.3978 23.0851 39.3509 23.1552 39.3043 23.2488C39.8183 23.5759 40.1454 24.1601 40.1454 24.8143V25.7023C40.4259 26.3333 40.6362 26.9876 40.7764 27.6653C40.87 28.0857 41.2438 28.3896 41.6877 28.3896H43.8143C44.118 28.3896 44.3517 28.7167 44.3517 29.114V30.773C44.3517 31.1703 44.0945 31.4974 43.8143 31.4974H41.6877C41.2438 31.4974 40.87 31.8013 40.7764 32.2218C40.6362 32.8994 40.4259 33.5539 40.1454 34.1847V36.1709C40.87 35.0493 41.4074 33.7875 41.6877 32.4321H43.8143C44.632 32.4321 45.2864 31.6845 45.2864 30.773V29.114C45.2864 28.2027 44.632 27.4549 43.8143 27.4549Z" fill="white"/>
</g>
</g>
<defs>
<linearGradient id="paint0_linear_72_1198" x1="30.5" y1="0" x2="30.5" y2="60" gradientUnits="userSpaceOnUse">
<stop stop-color="#1B8540"/>
<stop offset="1" stop-color="#8BC43F"/>
</linearGradient>
<clipPath id="clip0_72_1198">
<rect width="30" height="30" fill="white" transform="translate(15.3501 15)"/>
</clipPath>
</defs>
</svg>
