<svg width="61" height="60" viewBox="0 0 61 60" fill="none" xmlns="http://www.w3.org/2000/svg">
<rect x="0.5" width="60" height="60" rx="30" fill="url(#paint0_linear_72_1205)"/>
<g clip-path="url(#clip0_72_1205)">
<mask id="mask0_72_1205" style="mask-type:luminance" maskUnits="userSpaceOnUse" x="15" y="19" width="30" height="26">
<path d="M15.1958 19.2375H44.9121V44.9518H15.1958V19.2375Z" fill="white"/>
</mask>
<g mask="url(#mask0_72_1205)">
<path d="M30.0496 44.9519C38.2309 44.9519 44.8876 38.9251 44.8876 31.5169C44.8876 26.3975 41.6008 21.6558 36.5155 19.4365C35.7203 19.0884 34.7618 19.3908 34.3784 20.1126C33.9947 20.8339 34.3293 21.7002 35.1255 22.0473C39.1113 23.7869 41.6864 27.5038 41.6864 31.5169C41.6864 37.3267 36.4667 42.0533 30.0496 42.0533C23.6331 42.0533 18.4129 37.3267 18.4129 31.5169C18.4129 27.5038 20.9877 23.7869 24.9732 22.0473C25.7694 21.7002 26.1038 20.8334 25.7198 20.1126C25.3364 19.3918 24.3798 19.0884 23.583 19.4365C18.4977 21.6558 15.2114 26.398 15.2114 31.5169C15.2114 38.9251 21.8678 44.9519 30.0496 44.9519Z" fill="white"/>
</g>
<path d="M30.05 25.2611C30.934 25.2611 31.6504 24.6123 31.6504 23.8117V16.4494C31.6504 15.6486 30.934 15 30.05 15C29.1656 15 28.4492 15.6486 28.4492 16.4494V23.8117C28.4492 24.6123 29.1656 25.2611 30.05 25.2611Z" fill="white"/>
</g>
<defs>
<linearGradient id="paint0_linear_72_1205" x1="30.5" y1="0" x2="30.5" y2="60" gradientUnits="userSpaceOnUse">
<stop stop-color="#1B8540"/>
<stop offset="1" stop-color="#8BC43F"/>
</linearGradient>
<clipPath id="clip0_72_1205">
<rect width="30" height="30" fill="white" transform="translate(15.0498 15)"/>
</clipPath>
</defs>
</svg>
