<svg width="711" height="482" viewBox="0 0 711 482" fill="none" xmlns="http://www.w3.org/2000/svg">
<g filter="url(#filter0_dd_72_1236)">
<g clip-path="url(#clip0_72_1236)">
<rect x="24" y="23" width="663" height="434" rx="12" fill="white" fill-opacity="0.01" shape-rendering="crispEdges"/>
<rect x="18.0039" y="23" width="679" height="436" rx="7" fill="white"/>
<path d="M60.1516 68V56.3636H62.2596V61.2898H67.6516V56.3636H69.7653V68H67.6516V63.0568H62.2596V68H60.1516ZM75.8306 68.1705C74.9556 68.1705 74.1999 67.9886 73.5636 67.625C72.931 67.2576 72.4442 66.7386 72.1033 66.0682C71.7624 65.3939 71.592 64.6004 71.592 63.6875C71.592 62.7898 71.7624 62.0019 72.1033 61.3239C72.448 60.642 72.9291 60.1117 73.5465 59.733C74.1639 59.3504 74.8893 59.1591 75.7227 59.1591C76.2605 59.1591 76.7681 59.2462 77.2454 59.4205C77.7264 59.5909 78.1507 59.8561 78.5181 60.2159C78.8893 60.5758 79.181 61.0341 79.3931 61.5909C79.6052 62.1439 79.7113 62.803 79.7113 63.5682V64.1989H72.5579V62.8125H77.7397C77.7359 62.4186 77.6507 62.0682 77.484 61.7614C77.3174 61.4508 77.0844 61.2064 76.7852 61.0284C76.4897 60.8504 76.145 60.7614 75.7511 60.7614C75.3306 60.7614 74.9613 60.8636 74.6431 61.0682C74.3249 61.2689 74.0768 61.5341 73.8988 61.8636C73.7246 62.1894 73.6355 62.5473 73.6317 62.9375V64.1477C73.6317 64.6553 73.7246 65.0909 73.9102 65.4545C74.0958 65.8144 74.3552 66.0909 74.6886 66.2841C75.0219 66.4735 75.4121 66.5682 75.859 66.5682C76.1583 66.5682 76.4291 66.5265 76.6715 66.4432C76.9139 66.3561 77.1242 66.2292 77.3022 66.0625C77.4802 65.8958 77.6147 65.6894 77.7056 65.4432L79.6261 65.6591C79.5049 66.1667 79.2738 66.6098 78.9329 66.9886C78.5958 67.3636 78.1639 67.6553 77.6374 67.8636C77.1109 68.0682 76.5086 68.1705 75.8306 68.1705ZM83.9627 68.1761C83.4097 68.1761 82.9116 68.0777 82.4684 67.8807C82.029 67.6799 81.6805 67.3845 81.4229 66.9943C81.1692 66.6042 81.0423 66.1231 81.0423 65.5511C81.0423 65.0587 81.1332 64.6515 81.315 64.3295C81.4968 64.0076 81.7449 63.75 82.0593 63.5568C82.3737 63.3636 82.7279 63.2178 83.1218 63.1193C83.5195 63.017 83.9305 62.9432 84.3548 62.8977C84.8661 62.8447 85.2809 62.7973 85.5991 62.7557C85.9173 62.7102 86.1483 62.642 86.2923 62.5511C86.44 62.4564 86.5138 62.3106 86.5138 62.1136V62.0795C86.5138 61.6515 86.387 61.3201 86.1332 61.0852C85.8794 60.8504 85.5138 60.733 85.0366 60.733C84.5328 60.733 84.1332 60.8428 83.8377 61.0625C83.546 61.2822 83.3491 61.5417 83.2468 61.8409L81.3263 61.5682C81.4779 61.0379 81.7279 60.5947 82.0763 60.2386C82.4248 59.8788 82.851 59.6098 83.3548 59.4318C83.8585 59.25 84.4154 59.1591 85.0252 59.1591C85.4457 59.1591 85.8642 59.2083 86.2809 59.3068C86.6976 59.4053 87.0782 59.5682 87.4229 59.7955C87.7676 60.0189 88.0442 60.3239 88.2525 60.7102C88.4646 61.0966 88.5707 61.5795 88.5707 62.1591V68H86.5934V66.8011H86.5252C86.4002 67.0436 86.2241 67.2708 85.9968 67.483C85.7733 67.6913 85.4911 67.8598 85.1502 67.9886C84.8131 68.1136 84.4173 68.1761 83.9627 68.1761ZM84.4968 66.6648C84.9097 66.6648 85.2676 66.5833 85.5707 66.4205C85.8737 66.2538 86.1067 66.0341 86.2695 65.7614C86.4362 65.4886 86.5195 65.1913 86.5195 64.8693V63.8409C86.4551 63.8939 86.3453 63.9432 86.19 63.9886C86.0385 64.0341 85.868 64.0739 85.6786 64.108C85.4892 64.142 85.3017 64.1723 85.1161 64.1989C84.9305 64.2254 84.7695 64.2481 84.6332 64.267C84.3263 64.3087 84.0517 64.3769 83.8093 64.4716C83.5669 64.5663 83.3756 64.6989 83.2354 64.8693C83.0953 65.036 83.0252 65.2519 83.0252 65.517C83.0252 65.8958 83.1635 66.1818 83.44 66.375C83.7165 66.5682 84.0688 66.6648 84.4968 66.6648ZM94.9968 59.2727V60.8636H89.9798V59.2727H94.9968ZM91.2184 57.1818H93.2752V65.375C93.2752 65.6515 93.3169 65.8636 93.4002 66.0114C93.4873 66.1553 93.601 66.2538 93.7411 66.3068C93.8813 66.3598 94.0366 66.3864 94.207 66.3864C94.3358 66.3864 94.4532 66.3769 94.5593 66.358C94.6692 66.339 94.7525 66.322 94.8093 66.3068L95.1559 67.9148C95.046 67.9527 94.8888 67.9943 94.6843 68.0398C94.4835 68.0852 94.2373 68.1117 93.9457 68.1193C93.4305 68.1345 92.9665 68.0568 92.5536 67.8864C92.1407 67.7121 91.8131 67.4432 91.5707 67.0795C91.332 66.7159 91.2146 66.2614 91.2184 65.7159V57.1818ZM100.777 56.3636H103.356L106.811 64.7955H106.947L110.402 56.3636H112.981V68H110.958V60.0057H110.85L107.635 67.9659H106.123L102.907 59.9886H102.799V68H100.777V56.3636ZM117.697 68.1761C117.144 68.1761 116.646 68.0777 116.203 67.8807C115.763 67.6799 115.415 67.3845 115.157 66.9943C114.904 66.6042 114.777 66.1231 114.777 65.5511C114.777 65.0587 114.868 64.6515 115.049 64.3295C115.231 64.0076 115.479 63.75 115.794 63.5568C116.108 63.3636 116.462 63.2178 116.856 63.1193C117.254 63.017 117.665 62.9432 118.089 62.8977C118.6 62.8447 119.015 62.7973 119.333 62.7557C119.652 62.7102 119.883 62.642 120.027 62.5511C120.174 62.4564 120.248 62.3106 120.248 62.1136V62.0795C120.248 61.6515 120.121 61.3201 119.868 61.0852C119.614 60.8504 119.248 60.733 118.771 60.733C118.267 60.733 117.868 60.8428 117.572 61.0625C117.28 61.2822 117.083 61.5417 116.981 61.8409L115.061 61.5682C115.212 61.0379 115.462 60.5947 115.811 60.2386C116.159 59.8788 116.585 59.6098 117.089 59.4318C117.593 59.25 118.15 59.1591 118.76 59.1591C119.18 59.1591 119.599 59.2083 120.015 59.3068C120.432 59.4053 120.813 59.5682 121.157 59.7955C121.502 60.0189 121.779 60.3239 121.987 60.7102C122.199 61.0966 122.305 61.5795 122.305 62.1591V68H120.328V66.8011H120.26C120.135 67.0436 119.958 67.2708 119.731 67.483C119.508 67.6913 119.225 67.8598 118.885 67.9886C118.547 68.1136 118.152 68.1761 117.697 68.1761ZM118.231 66.6648C118.644 66.6648 119.002 66.5833 119.305 66.4205C119.608 66.2538 119.841 66.0341 120.004 65.7614C120.171 65.4886 120.254 65.1913 120.254 64.8693V63.8409C120.19 63.8939 120.08 63.9432 119.924 63.9886C119.773 64.0341 119.602 64.0739 119.413 64.108C119.224 64.142 119.036 64.1723 118.85 64.1989C118.665 64.2254 118.504 64.2481 118.368 64.267C118.061 64.3087 117.786 64.3769 117.544 64.4716C117.301 64.5663 117.11 64.6989 116.97 64.8693C116.83 65.036 116.76 65.2519 116.76 65.517C116.76 65.8958 116.898 66.1818 117.174 66.375C117.451 66.5682 117.803 66.6648 118.231 66.6648ZM124.373 71.2727V59.2727H126.396V60.7159H126.515C126.621 60.5038 126.771 60.2784 126.964 60.0398C127.157 59.7973 127.419 59.5909 127.748 59.4205C128.078 59.2462 128.498 59.1591 129.01 59.1591C129.684 59.1591 130.292 59.3314 130.833 59.6761C131.379 60.017 131.811 60.5227 132.129 61.1932C132.451 61.8598 132.612 62.678 132.612 63.6477C132.612 64.6061 132.455 65.4205 132.14 66.0909C131.826 66.7614 131.398 67.2727 130.856 67.625C130.315 67.9773 129.701 68.1534 129.015 68.1534C128.515 68.1534 128.1 68.0701 127.771 67.9034C127.441 67.7367 127.176 67.536 126.975 67.3011C126.779 67.0625 126.625 66.8371 126.515 66.625H126.43V71.2727H124.373ZM126.39 63.6364C126.39 64.2008 126.47 64.6951 126.629 65.1193C126.792 65.5436 127.025 65.875 127.328 66.1136C127.635 66.3485 128.006 66.4659 128.441 66.4659C128.896 66.4659 129.277 66.3447 129.583 66.1023C129.89 65.8561 130.121 65.5208 130.277 65.0966C130.436 64.6686 130.515 64.1818 130.515 63.6364C130.515 63.0947 130.438 62.6136 130.282 62.1932C130.127 61.7727 129.896 61.4432 129.589 61.2045C129.282 60.9659 128.9 60.8466 128.441 60.8466C128.002 60.8466 127.629 60.9621 127.322 61.1932C127.015 61.4242 126.782 61.7481 126.623 62.1648C126.468 62.5814 126.39 63.072 126.39 63.6364ZM142.149 68.1705C141.297 68.1705 140.558 67.983 139.933 67.608C139.308 67.233 138.823 66.7083 138.478 66.0341C138.137 65.3598 137.967 64.572 137.967 63.6705C137.967 62.7689 138.137 61.9792 138.478 61.3011C138.823 60.6231 139.308 60.0966 139.933 59.7216C140.558 59.3466 141.297 59.1591 142.149 59.1591C143.001 59.1591 143.74 59.3466 144.365 59.7216C144.99 60.0966 145.473 60.6231 145.814 61.3011C146.158 61.9792 146.331 62.7689 146.331 63.6705C146.331 64.572 146.158 65.3598 145.814 66.0341C145.473 66.7083 144.99 67.233 144.365 67.608C143.74 67.983 143.001 68.1705 142.149 68.1705ZM142.16 66.5227C142.622 66.5227 143.009 66.3958 143.319 66.142C143.63 65.8845 143.861 65.5398 144.012 65.108C144.168 64.6761 144.245 64.1951 144.245 63.6648C144.245 63.1307 144.168 62.6477 144.012 62.2159C143.861 61.7803 143.63 61.4337 143.319 61.1761C143.009 60.9186 142.622 60.7898 142.16 60.7898C141.687 60.7898 141.293 60.9186 140.978 61.1761C140.668 61.4337 140.435 61.7803 140.279 62.2159C140.128 62.6477 140.052 63.1307 140.052 63.6648C140.052 64.1951 140.128 64.6761 140.279 65.108C140.435 65.5398 140.668 65.8845 140.978 66.142C141.293 66.3958 141.687 66.5227 142.16 66.5227ZM152.497 59.2727V60.8636H147.338V59.2727H152.497ZM148.627 68V58.4489C148.627 57.8617 148.749 57.3731 148.991 56.983C149.237 56.5928 149.567 56.3011 149.98 56.108C150.393 55.9148 150.851 55.8182 151.355 55.8182C151.711 55.8182 152.027 55.8466 152.304 55.9034C152.58 55.9602 152.785 56.0114 152.917 56.0568L152.508 57.6477C152.421 57.6212 152.311 57.5947 152.179 57.5682C152.046 57.5379 151.898 57.5227 151.735 57.5227C151.353 57.5227 151.082 57.6155 150.923 57.8011C150.768 57.983 150.69 58.2443 150.69 58.5852V68H148.627ZM158.167 68V56.3636H162.531C163.425 56.3636 164.175 56.5189 164.781 56.8295C165.391 57.1402 165.851 57.5758 166.162 58.1364C166.476 58.6932 166.633 59.3428 166.633 60.0852C166.633 60.8314 166.474 61.4792 166.156 62.0284C165.842 62.5739 165.377 62.9962 164.764 63.2955C164.15 63.5909 163.396 63.7386 162.502 63.7386H159.395V61.9886H162.218C162.741 61.9886 163.169 61.9167 163.502 61.7727C163.836 61.625 164.082 61.411 164.241 61.1307C164.404 60.8466 164.485 60.4981 164.485 60.0852C164.485 59.6723 164.404 59.3201 164.241 59.0284C164.078 58.733 163.83 58.5095 163.497 58.358C163.163 58.2027 162.734 58.125 162.207 58.125H160.275V68H158.167ZM164.179 62.7273L167.059 68H164.707L161.877 62.7273H164.179ZM170.994 68.1761C170.441 68.1761 169.943 68.0777 169.5 67.8807C169.06 67.6799 168.712 67.3845 168.454 66.9943C168.2 66.6042 168.074 66.1231 168.074 65.5511C168.074 65.0587 168.164 64.6515 168.346 64.3295C168.528 64.0076 168.776 63.75 169.091 63.5568C169.405 63.3636 169.759 63.2178 170.153 63.1193C170.551 63.017 170.962 62.9432 171.386 62.8977C171.897 62.8447 172.312 62.7973 172.63 62.7557C172.949 62.7102 173.18 62.642 173.324 62.5511C173.471 62.4564 173.545 62.3106 173.545 62.1136V62.0795C173.545 61.6515 173.418 61.3201 173.164 61.0852C172.911 60.8504 172.545 60.733 172.068 60.733C171.564 60.733 171.164 60.8428 170.869 61.0625C170.577 61.2822 170.38 61.5417 170.278 61.8409L168.358 61.5682C168.509 61.0379 168.759 60.5947 169.108 60.2386C169.456 59.8788 169.882 59.6098 170.386 59.4318C170.89 59.25 171.447 59.1591 172.056 59.1591C172.477 59.1591 172.895 59.2083 173.312 59.3068C173.729 59.4053 174.109 59.5682 174.454 59.7955C174.799 60.0189 175.075 60.3239 175.284 60.7102C175.496 61.0966 175.602 61.5795 175.602 62.1591V68H173.625V66.8011H173.556C173.431 67.0436 173.255 67.2708 173.028 67.483C172.805 67.6913 172.522 67.8598 172.181 67.9886C171.844 68.1136 171.449 68.1761 170.994 68.1761ZM171.528 66.6648C171.941 66.6648 172.299 66.5833 172.602 66.4205C172.905 66.2538 173.138 66.0341 173.301 65.7614C173.467 65.4886 173.551 65.1913 173.551 64.8693V63.8409C173.486 63.8939 173.377 63.9432 173.221 63.9886C173.07 64.0341 172.899 64.0739 172.71 64.108C172.52 64.142 172.333 64.1723 172.147 64.1989C171.962 64.2254 171.801 64.2481 171.664 64.267C171.358 64.3087 171.083 64.3769 170.841 64.4716C170.598 64.5663 170.407 64.6989 170.267 64.8693C170.127 65.036 170.056 65.2519 170.056 65.517C170.056 65.8958 170.195 66.1818 170.471 66.375C170.748 66.5682 171.1 66.6648 171.528 66.6648ZM181.477 68.1705C180.606 68.1705 179.858 67.9792 179.233 67.5966C178.611 67.214 178.132 66.6856 177.795 66.0114C177.462 65.3333 177.295 64.553 177.295 63.6705C177.295 62.7841 177.466 62.0019 177.806 61.3239C178.147 60.642 178.628 60.1117 179.25 59.733C179.875 59.3504 180.613 59.1591 181.466 59.1591C182.174 59.1591 182.801 59.2898 183.346 59.5511C183.895 59.8087 184.333 60.1742 184.659 60.6477C184.984 61.1174 185.17 61.6667 185.216 62.2955H183.25C183.17 61.875 182.981 61.5246 182.681 61.2443C182.386 60.9602 181.99 60.8182 181.494 60.8182C181.074 60.8182 180.704 60.9318 180.386 61.1591C180.068 61.3826 179.82 61.7045 179.642 62.125C179.467 62.5455 179.38 63.0492 179.38 63.6364C179.38 64.2311 179.467 64.7424 179.642 65.1705C179.816 65.5947 180.06 65.9223 180.375 66.1534C180.693 66.3807 181.066 66.4943 181.494 66.4943C181.797 66.4943 182.068 66.4375 182.306 66.3239C182.549 66.2064 182.752 66.0379 182.914 65.8182C183.077 65.5985 183.189 65.3314 183.25 65.017H185.216C185.166 65.6345 184.984 66.1818 184.67 66.6591C184.356 67.1326 183.928 67.5038 183.386 67.7727C182.844 68.0379 182.208 68.1705 181.477 68.1705ZM188.779 65.2614L188.774 62.7784H189.103L192.24 59.2727H194.643L190.785 63.5682H190.359L188.779 65.2614ZM186.904 68V56.3636H188.961V68H186.904ZM192.382 68L189.541 64.0284L190.927 62.5795L194.842 68H192.382ZM202.912 61.5795L201.037 61.7841C200.984 61.5947 200.891 61.4167 200.758 61.25C200.629 61.0833 200.455 60.9489 200.235 60.8466C200.016 60.7443 199.747 60.6932 199.429 60.6932C199.001 60.6932 198.641 60.786 198.349 60.9716C198.061 61.1572 197.919 61.3977 197.923 61.6932C197.919 61.947 198.012 62.1534 198.201 62.3125C198.395 62.4716 198.713 62.6023 199.156 62.7045L200.645 63.0227C201.47 63.2008 202.084 63.483 202.485 63.8693C202.891 64.2557 203.095 64.7614 203.099 65.3864C203.095 65.9356 202.934 66.4205 202.616 66.8409C202.302 67.2576 201.864 67.5833 201.304 67.8182C200.743 68.053 200.099 68.1705 199.372 68.1705C198.304 68.1705 197.444 67.947 196.792 67.5C196.141 67.0492 195.752 66.4223 195.627 65.6193L197.633 65.4261C197.724 65.8201 197.917 66.1174 198.213 66.3182C198.508 66.5189 198.893 66.6193 199.366 66.6193C199.855 66.6193 200.247 66.5189 200.542 66.3182C200.842 66.1174 200.991 65.8693 200.991 65.5739C200.991 65.3239 200.895 65.1174 200.701 64.9545C200.512 64.7917 200.217 64.6667 199.815 64.5795L198.326 64.267C197.489 64.0928 196.87 63.7992 196.468 63.3864C196.067 62.9697 195.868 62.4432 195.872 61.8068C195.868 61.2689 196.014 60.803 196.309 60.4091C196.609 60.0114 197.023 59.7045 197.554 59.4886C198.088 59.2689 198.703 59.1591 199.4 59.1591C200.423 59.1591 201.228 59.3769 201.815 59.8125C202.406 60.2481 202.771 60.8371 202.912 61.5795Z" fill="#212123"/>
<rect x="520.004" y="48" width="120" height="30" rx="5" fill="#E4E5E8"/>
<path d="M554.061 58.2727H555.322L558.288 65.517H558.39L561.356 58.2727H562.618V67H561.629V60.3693H561.544L558.816 67H557.862L555.135 60.3693H555.049V67H554.061V58.2727ZM567.259 67.1364C566.668 67.1364 566.15 66.9957 565.704 66.7145C565.261 66.4332 564.914 66.0398 564.664 65.5341C564.417 65.0284 564.293 64.4375 564.293 63.7614C564.293 63.0795 564.417 62.4844 564.664 61.9759C564.914 61.4673 565.261 61.0724 565.704 60.7912C566.15 60.5099 566.668 60.3693 567.259 60.3693C567.85 60.3693 568.367 60.5099 568.81 60.7912C569.256 61.0724 569.603 61.4673 569.85 61.9759C570.1 62.4844 570.225 63.0795 570.225 63.7614C570.225 64.4375 570.1 65.0284 569.85 65.5341C569.603 66.0398 569.256 66.4332 568.81 66.7145C568.367 66.9957 567.85 67.1364 567.259 67.1364ZM567.259 66.233C567.708 66.233 568.077 66.1179 568.367 65.8878C568.657 65.6577 568.871 65.3551 569.011 64.9801C569.15 64.6051 569.219 64.1989 569.219 63.7614C569.219 63.3239 569.15 62.9162 569.011 62.5384C568.871 62.1605 568.657 61.8551 568.367 61.6222C568.077 61.3892 567.708 61.2727 567.259 61.2727C566.81 61.2727 566.441 61.3892 566.151 61.6222C565.862 61.8551 565.647 62.1605 565.508 62.5384C565.369 62.9162 565.299 63.3239 565.299 63.7614C565.299 64.1989 565.369 64.6051 565.508 64.9801C565.647 65.3551 565.862 65.6577 566.151 65.8878C566.441 66.1179 566.81 66.233 567.259 66.233ZM572.766 63.0625V67H571.76V60.4545H572.732V61.4773H572.817C572.971 61.1449 573.203 60.8778 573.516 60.6761C573.828 60.4716 574.232 60.3693 574.726 60.3693C575.169 60.3693 575.557 60.4602 575.89 60.642C576.222 60.821 576.48 61.0938 576.665 61.4602C576.85 61.8239 576.942 62.2841 576.942 62.8409V67H575.936V62.9091C575.936 62.3949 575.803 61.9943 575.536 61.7074C575.269 61.4176 574.902 61.2727 574.436 61.2727C574.115 61.2727 573.828 61.3423 573.576 61.4815C573.326 61.6207 573.128 61.8239 572.983 62.0909C572.838 62.358 572.766 62.6818 572.766 63.0625ZM581.626 60.4545V61.3068H578.234V60.4545H581.626ZM579.223 58.8864H580.229V65.125C580.229 65.4091 580.27 65.6222 580.352 65.7642C580.438 65.9034 580.545 65.9972 580.676 66.0455C580.81 66.0909 580.95 66.1136 581.098 66.1136C581.209 66.1136 581.3 66.108 581.371 66.0966C581.442 66.0824 581.499 66.071 581.541 66.0625L581.746 66.9659C581.678 66.9915 581.582 67.017 581.46 67.0426C581.338 67.071 581.183 67.0852 580.996 67.0852C580.712 67.0852 580.433 67.0241 580.161 66.902C579.891 66.7798 579.666 66.5938 579.487 66.3438C579.311 66.0938 579.223 65.7784 579.223 65.3977V58.8864ZM584.286 63.0625V67H583.28V58.2727H584.286V61.4773H584.371C584.524 61.1392 584.754 60.8707 585.061 60.6719C585.371 60.4702 585.783 60.3693 586.297 60.3693C586.743 60.3693 587.134 60.4588 587.469 60.6378C587.804 60.8139 588.064 61.0852 588.249 61.4517C588.436 61.8153 588.53 62.2784 588.53 62.8409V67H587.524V62.9091C587.524 62.3892 587.389 61.9872 587.119 61.7031C586.852 61.4162 586.482 61.2727 586.007 61.2727C585.678 61.2727 585.382 61.3423 585.121 61.4815C584.862 61.6207 584.658 61.8239 584.507 62.0909C584.359 62.358 584.286 62.6818 584.286 63.0625Z" fill="#212123"/>
<path d="M621.474 61.2427C621.767 60.9498 621.767 60.475 621.474 60.1821C621.181 59.8892 620.707 59.8892 620.414 60.1821L621.474 61.2427ZM616.054 65.6024L616.562 66.1543L616.573 66.1437L616.584 66.1327L616.054 65.6024ZM613.954 65.6024L613.424 66.1328L613.429 66.138L613.954 65.6024ZM609.594 60.1821C609.301 59.8892 608.827 59.8892 608.534 60.1821C608.241 60.475 608.241 60.9498 608.534 61.2427L609.594 60.1821ZM620.414 60.1821L615.524 65.0721L616.584 66.1327L621.474 61.2427L620.414 60.1821ZM615.546 65.0505C615.262 65.3123 615.102 65.466 614.969 65.5711C614.832 65.6796 614.863 65.618 614.982 65.6127C615.117 65.6067 615.163 65.6778 615.043 65.5869C614.923 65.4966 614.759 65.3413 614.479 65.0668L613.429 66.138C613.689 66.3929 613.926 66.6231 614.138 66.7831C614.348 66.9425 614.655 67.1287 615.048 67.1112C615.426 67.0944 615.714 66.8947 615.9 66.7472C616.091 66.5962 616.321 66.3759 616.562 66.1543L615.546 65.0505ZM614.484 65.0721L609.594 60.1821L608.534 61.2427L613.424 66.1327L614.484 65.0721Z" fill="#979797"/>
<circle cx="207.218" cy="410.5" r="4.21053" fill="#42AE46"/>
<path d="M221.692 415H218.857V405.813H221.818C222.709 405.813 223.471 405.997 224.105 406.365C224.739 406.73 225.225 407.255 225.563 407.94C225.901 408.621 226.07 409.438 226.07 410.389C226.07 411.346 225.9 412.17 225.559 412.86C225.218 413.548 224.721 414.077 224.069 414.448C223.417 414.816 222.625 415 221.692 415ZM219.97 414.013H221.62C222.38 414.013 223.009 413.867 223.509 413.574C224.008 413.281 224.38 412.863 224.626 412.322C224.871 411.781 224.993 411.136 224.993 410.389C224.993 409.647 224.872 409.009 224.63 408.473C224.388 407.935 224.026 407.522 223.545 407.235C223.063 406.945 222.464 406.8 221.746 406.8H219.97V414.013ZM230.681 415.144C230.017 415.144 229.445 414.997 228.963 414.704C228.485 414.408 228.115 413.995 227.855 413.466C227.598 412.934 227.47 412.315 227.47 411.609C227.47 410.903 227.598 410.281 227.855 409.743C228.115 409.202 228.477 408.78 228.941 408.478C229.407 408.173 229.952 408.02 230.574 408.02C230.932 408.02 231.287 408.08 231.637 408.2C231.987 408.319 232.305 408.514 232.592 408.783C232.879 409.049 233.108 409.402 233.278 409.842C233.449 410.281 233.534 410.822 233.534 411.465V411.914H228.223V410.999H232.458C232.458 410.61 232.38 410.263 232.224 409.958C232.072 409.653 231.853 409.412 231.569 409.236C231.288 409.06 230.956 408.971 230.574 408.971C230.152 408.971 229.787 409.076 229.479 409.285C229.174 409.492 228.939 409.761 228.775 410.093C228.61 410.425 228.528 410.781 228.528 411.16V411.77C228.528 412.291 228.618 412.732 228.797 413.094C228.98 413.452 229.232 413.726 229.555 413.914C229.878 414.1 230.254 414.193 230.681 414.193C230.959 414.193 231.211 414.154 231.435 414.076C231.662 413.995 231.858 413.876 232.022 413.717C232.187 413.556 232.314 413.355 232.404 413.116L233.426 413.403C233.319 413.75 233.138 414.055 232.884 414.318C232.629 414.578 232.316 414.782 231.942 414.928C231.568 415.072 231.148 415.144 230.681 415.144ZM240.569 408.11L238.021 415H236.944L234.396 408.11H235.545L237.447 413.6H237.518L239.42 408.11H240.569ZM241.966 415V408.11H243.025V415H241.966ZM242.504 406.962C242.298 406.962 242.12 406.891 241.97 406.751C241.824 406.61 241.751 406.441 241.751 406.244C241.751 406.047 241.824 405.878 241.97 405.737C242.12 405.597 242.298 405.526 242.504 405.526C242.711 405.526 242.887 405.597 243.034 405.737C243.183 405.878 243.258 406.047 243.258 406.244C243.258 406.441 243.183 406.61 243.034 406.751C242.887 406.891 242.711 406.962 242.504 406.962ZM247.763 415.144C247.117 415.144 246.56 414.991 246.094 414.686C245.627 414.381 245.269 413.961 245.017 413.426C244.766 412.89 244.641 412.279 244.641 411.591C244.641 410.891 244.769 410.274 245.026 409.738C245.286 409.2 245.648 408.78 246.112 408.478C246.578 408.173 247.123 408.02 247.745 408.02C248.229 408.02 248.666 408.11 249.054 408.289C249.443 408.469 249.762 408.72 250.01 409.043C250.258 409.366 250.412 409.743 250.472 410.173H249.413C249.333 409.859 249.153 409.581 248.875 409.339C248.6 409.094 248.229 408.971 247.763 408.971C247.35 408.971 246.988 409.079 246.677 409.294C246.369 409.507 246.128 409.807 245.955 410.196C245.784 410.582 245.699 411.035 245.699 411.555C245.699 412.087 245.783 412.551 245.95 412.946C246.121 413.34 246.36 413.647 246.668 413.865C246.979 414.083 247.344 414.193 247.763 414.193C248.038 414.193 248.287 414.145 248.512 414.049C248.736 413.953 248.926 413.816 249.081 413.636C249.237 413.457 249.347 413.242 249.413 412.99H250.472C250.412 413.397 250.264 413.763 250.028 414.089C249.795 414.412 249.485 414.67 249.099 414.861C248.717 415.049 248.271 415.144 247.763 415.144ZM254.908 415.144C254.244 415.144 253.672 414.997 253.19 414.704C252.712 414.408 252.342 413.995 252.082 413.466C251.825 412.934 251.696 412.315 251.696 411.609C251.696 410.903 251.825 410.281 252.082 409.743C252.342 409.202 252.704 408.78 253.168 408.478C253.634 408.173 254.179 408.02 254.801 408.02C255.159 408.02 255.514 408.08 255.864 408.2C256.214 408.319 256.532 408.514 256.819 408.783C257.106 409.049 257.335 409.402 257.505 409.842C257.676 410.281 257.761 410.822 257.761 411.465V411.914H252.45V410.999H256.685C256.685 410.61 256.607 410.263 256.451 409.958C256.299 409.653 256.08 409.412 255.796 409.236C255.515 409.06 255.183 408.971 254.801 408.971C254.379 408.971 254.014 409.076 253.706 409.285C253.401 409.492 253.166 409.761 253.002 410.093C252.837 410.425 252.755 410.781 252.755 411.16V411.77C252.755 412.291 252.845 412.732 253.024 413.094C253.207 413.452 253.459 413.726 253.782 413.914C254.105 414.1 254.481 414.193 254.908 414.193C255.186 414.193 255.438 414.154 255.662 414.076C255.889 413.995 256.085 413.876 256.249 413.717C256.414 413.556 256.541 413.355 256.631 413.116L257.653 413.403C257.546 413.75 257.365 414.055 257.111 414.318C256.856 414.578 256.542 414.782 256.169 414.928C255.795 415.072 255.375 415.144 254.908 415.144ZM266.136 405.813V415H265.023V406.98H264.97L262.727 408.469V407.339L265.023 405.813H266.136Z" fill="#212123"/>
<circle cx="286.955" cy="410.5" r="4.21053" fill="#760903"/>
<path d="M301.429 415H298.594V405.813H301.554C302.446 405.813 303.208 405.997 303.842 406.365C304.476 406.73 304.962 407.255 305.3 407.94C305.638 408.621 305.807 409.438 305.807 410.389C305.807 411.346 305.636 412.17 305.295 412.86C304.955 413.548 304.458 414.077 303.806 414.448C303.154 414.816 302.362 415 301.429 415ZM299.706 414.013H301.357C302.117 414.013 302.746 413.867 303.246 413.574C303.745 413.281 304.117 412.863 304.362 412.322C304.608 411.781 304.73 411.136 304.73 410.389C304.73 409.647 304.609 409.009 304.367 408.473C304.125 407.935 303.763 407.522 303.281 407.235C302.8 406.945 302.2 406.8 301.483 406.8H299.706V414.013ZM310.418 415.144C309.754 415.144 309.182 414.997 308.7 414.704C308.222 414.408 307.852 413.995 307.592 413.466C307.335 412.934 307.206 412.315 307.206 411.609C307.206 410.903 307.335 410.281 307.592 409.743C307.852 409.202 308.214 408.78 308.678 408.478C309.144 408.173 309.688 408.02 310.31 408.02C310.669 408.02 311.024 408.08 311.373 408.2C311.723 408.319 312.042 408.514 312.329 408.783C312.616 409.049 312.845 409.402 313.015 409.842C313.186 410.281 313.271 410.822 313.271 411.465V411.914H307.96V410.999H312.194C312.194 410.61 312.117 410.263 311.961 409.958C311.809 409.653 311.59 409.412 311.306 409.236C311.025 409.06 310.693 408.971 310.31 408.971C309.889 408.971 309.524 409.076 309.216 409.285C308.911 409.492 308.676 409.761 308.512 410.093C308.347 410.425 308.265 410.781 308.265 411.16V411.77C308.265 412.291 308.355 412.732 308.534 413.094C308.716 413.452 308.969 413.726 309.292 413.914C309.615 414.1 309.99 414.193 310.418 414.193C310.696 414.193 310.947 414.154 311.172 414.076C311.399 413.995 311.595 413.876 311.759 413.717C311.924 413.556 312.051 413.355 312.141 413.116L313.163 413.403C313.056 413.75 312.875 414.055 312.62 414.318C312.366 414.578 312.052 414.782 311.679 414.928C311.305 415.072 310.885 415.144 310.418 415.144ZM320.306 408.11L317.758 415H316.681L314.133 408.11H315.282L317.184 413.6H317.255L319.157 408.11H320.306ZM321.703 415V408.11H322.761V415H321.703ZM322.241 406.962C322.035 406.962 321.857 406.891 321.707 406.751C321.561 406.61 321.488 406.441 321.488 406.244C321.488 406.047 321.561 405.878 321.707 405.737C321.857 405.597 322.035 405.526 322.241 405.526C322.447 405.526 322.624 405.597 322.77 405.737C322.92 405.878 322.995 406.047 322.995 406.244C322.995 406.441 322.92 406.61 322.77 406.751C322.624 406.891 322.447 406.962 322.241 406.962ZM327.499 415.144C326.853 415.144 326.297 414.991 325.831 414.686C325.364 414.381 325.005 413.961 324.754 413.426C324.503 412.89 324.377 412.279 324.377 411.591C324.377 410.891 324.506 410.274 324.763 409.738C325.023 409.2 325.385 408.78 325.849 408.478C326.315 408.173 326.859 408.02 327.481 408.02C327.966 408.02 328.402 408.11 328.791 408.289C329.18 408.469 329.498 408.72 329.747 409.043C329.995 409.366 330.149 409.743 330.209 410.173H329.15C329.069 409.859 328.89 409.581 328.612 409.339C328.337 409.094 327.966 408.971 327.499 408.971C327.087 408.971 326.725 409.079 326.414 409.294C326.106 409.507 325.865 409.807 325.692 410.196C325.521 410.582 325.436 411.035 325.436 411.555C325.436 412.087 325.52 412.551 325.687 412.946C325.858 413.34 326.097 413.647 326.405 413.865C326.716 414.083 327.081 414.193 327.499 414.193C327.775 414.193 328.024 414.145 328.248 414.049C328.473 413.953 328.663 413.816 328.818 413.636C328.974 413.457 329.084 413.242 329.15 412.99H330.209C330.149 413.397 330.001 413.763 329.765 414.089C329.531 414.412 329.222 414.67 328.836 414.861C328.453 415.049 328.008 415.144 327.499 415.144ZM334.645 415.144C333.981 415.144 333.408 414.997 332.927 414.704C332.449 414.408 332.079 413.995 331.819 413.466C331.562 412.934 331.433 412.315 331.433 411.609C331.433 410.903 331.562 410.281 331.819 409.743C332.079 409.202 332.441 408.78 332.905 408.478C333.371 408.173 333.915 408.02 334.537 408.02C334.896 408.02 335.251 408.08 335.6 408.2C335.95 408.319 336.269 408.514 336.556 408.783C336.843 409.049 337.072 409.402 337.242 409.842C337.413 410.281 337.498 410.822 337.498 411.465V411.914H332.187V410.999H336.421C336.421 410.61 336.344 410.263 336.188 409.958C336.036 409.653 335.817 409.412 335.533 409.236C335.252 409.06 334.92 408.971 334.537 408.971C334.116 408.971 333.751 409.076 333.443 409.285C333.138 409.492 332.903 409.761 332.739 410.093C332.574 410.425 332.492 410.781 332.492 411.16V411.77C332.492 412.291 332.582 412.732 332.761 413.094C332.943 413.452 333.196 413.726 333.519 413.914C333.842 414.1 334.217 414.193 334.645 414.193C334.923 414.193 335.174 414.154 335.399 414.076C335.626 413.995 335.822 413.876 335.986 413.717C336.151 413.556 336.278 413.355 336.368 413.116L337.39 413.403C337.283 413.75 337.102 414.055 336.847 414.318C336.593 414.578 336.279 414.782 335.905 414.928C335.532 415.072 335.112 415.144 334.645 415.144ZM342.643 415V414.193L345.675 410.873C346.031 410.484 346.324 410.147 346.554 409.859C346.785 409.569 346.955 409.297 347.066 409.043C347.179 408.786 347.236 408.517 347.236 408.236C347.236 407.913 347.158 407.633 347.003 407.397C346.85 407.161 346.641 406.978 346.375 406.85C346.109 406.721 345.81 406.657 345.478 406.657C345.125 406.657 344.817 406.73 344.554 406.876C344.294 407.02 344.092 407.222 343.948 407.482C343.808 407.742 343.737 408.047 343.737 408.397H342.679C342.679 407.859 342.803 407.386 343.051 406.98C343.299 406.573 343.637 406.256 344.065 406.029C344.495 405.801 344.978 405.688 345.514 405.688C346.052 405.688 346.529 405.801 346.945 406.029C347.36 406.256 347.686 406.562 347.923 406.948C348.159 407.334 348.277 407.763 348.277 408.236C348.277 408.574 348.216 408.904 348.093 409.227C347.973 409.547 347.764 409.904 347.465 410.299C347.169 410.691 346.758 411.169 346.231 411.734L344.168 413.941V414.013H348.438V415H342.643Z" fill="#212123"/>
<circle cx="367.692" cy="410.5" r="4.21053" fill="#FB923C"/>
<path d="M382.166 415H379.331V405.813H382.291C383.182 405.813 383.945 405.997 384.579 406.365C385.213 406.73 385.699 407.255 386.037 407.94C386.375 408.621 386.544 409.438 386.544 410.389C386.544 411.346 386.373 412.17 386.032 412.86C385.691 413.548 385.195 414.077 384.543 414.448C383.891 414.816 383.099 415 382.166 415ZM380.443 414.013H382.094C382.853 414.013 383.483 413.867 383.982 413.574C384.482 413.281 384.854 412.863 385.099 412.322C385.344 411.781 385.467 411.136 385.467 410.389C385.467 409.647 385.346 409.009 385.104 408.473C384.862 407.935 384.5 407.522 384.018 407.235C383.537 406.945 382.937 406.8 382.219 406.8H380.443V414.013ZM391.155 415.144C390.491 415.144 389.918 414.997 389.437 414.704C388.958 414.408 388.589 413.995 388.329 413.466C388.072 412.934 387.943 412.315 387.943 411.609C387.943 410.903 388.072 410.281 388.329 409.743C388.589 409.202 388.951 408.78 389.414 408.478C389.881 408.173 390.425 408.02 391.047 408.02C391.406 408.02 391.76 408.08 392.11 408.2C392.46 408.319 392.779 408.514 393.066 408.783C393.353 409.049 393.582 409.402 393.752 409.842C393.923 410.281 394.008 410.822 394.008 411.465V411.914H388.697V410.999H392.931C392.931 410.61 392.853 410.263 392.698 409.958C392.545 409.653 392.327 409.412 392.043 409.236C391.762 409.06 391.43 408.971 391.047 408.971C390.626 408.971 390.261 409.076 389.953 409.285C389.648 409.492 389.413 409.761 389.248 410.093C389.084 410.425 389.002 410.781 389.002 411.16V411.77C389.002 412.291 389.091 412.732 389.271 413.094C389.453 413.452 389.706 413.726 390.029 413.914C390.352 414.1 390.727 414.193 391.155 414.193C391.433 414.193 391.684 414.154 391.908 414.076C392.136 413.995 392.332 413.876 392.496 413.717C392.661 413.556 392.788 413.355 392.877 413.116L393.9 413.403C393.792 413.75 393.612 414.055 393.357 414.318C393.103 414.578 392.789 414.782 392.415 414.928C392.042 415.072 391.621 415.144 391.155 415.144ZM401.042 408.11L398.495 415H397.418L394.87 408.11H396.018L397.92 413.6H397.992L399.894 408.11H401.042ZM402.44 415V408.11H403.498V415H402.44ZM402.978 406.962C402.772 406.962 402.594 406.891 402.444 406.751C402.298 406.61 402.224 406.441 402.224 406.244C402.224 406.047 402.298 405.878 402.444 405.737C402.594 405.597 402.772 405.526 402.978 405.526C403.184 405.526 403.361 405.597 403.507 405.737C403.657 405.878 403.731 406.047 403.731 406.244C403.731 406.441 403.657 406.61 403.507 406.751C403.361 406.891 403.184 406.962 402.978 406.962ZM408.236 415.144C407.59 415.144 407.034 414.991 406.568 414.686C406.101 414.381 405.742 413.961 405.491 413.426C405.24 412.89 405.114 412.279 405.114 411.591C405.114 410.891 405.243 410.274 405.5 409.738C405.76 409.2 406.122 408.78 406.585 408.478C407.052 408.173 407.596 408.02 408.218 408.02C408.703 408.02 409.139 408.11 409.528 408.289C409.917 408.469 410.235 408.72 410.484 409.043C410.732 409.366 410.886 409.743 410.946 410.173H409.887C409.806 409.859 409.627 409.581 409.349 409.339C409.074 409.094 408.703 408.971 408.236 408.971C407.824 408.971 407.462 409.079 407.151 409.294C406.843 409.507 406.602 409.807 406.428 410.196C406.258 410.582 406.173 411.035 406.173 411.555C406.173 412.087 406.257 412.551 406.424 412.946C406.594 413.34 406.834 413.647 407.142 413.865C407.453 414.083 407.818 414.193 408.236 414.193C408.511 414.193 408.761 414.145 408.985 414.049C409.21 413.953 409.399 413.816 409.555 413.636C409.71 413.457 409.821 413.242 409.887 412.99H410.946C410.886 413.397 410.738 413.763 410.501 414.089C410.268 414.412 409.959 414.67 409.573 414.861C409.19 415.049 408.745 415.144 408.236 415.144ZM415.382 415.144C414.718 415.144 414.145 414.997 413.664 414.704C413.185 414.408 412.816 413.995 412.556 413.466C412.299 412.934 412.17 412.315 412.17 411.609C412.17 410.903 412.299 410.281 412.556 409.743C412.816 409.202 413.178 408.78 413.641 408.478C414.108 408.173 414.652 408.02 415.274 408.02C415.633 408.02 415.987 408.08 416.337 408.2C416.687 408.319 417.006 408.514 417.293 408.783C417.58 409.049 417.809 409.402 417.979 409.842C418.149 410.281 418.235 410.822 418.235 411.465V411.914H412.924V410.999H417.158C417.158 410.61 417.08 410.263 416.925 409.958C416.772 409.653 416.554 409.412 416.27 409.236C415.989 409.06 415.657 408.971 415.274 408.971C414.853 408.971 414.488 409.076 414.18 409.285C413.875 409.492 413.64 409.761 413.475 410.093C413.311 410.425 413.229 410.781 413.229 411.16V411.77C413.229 412.291 413.318 412.732 413.498 413.094C413.68 413.452 413.933 413.726 414.256 413.914C414.579 414.1 414.954 414.193 415.382 414.193C415.66 414.193 415.911 414.154 416.135 414.076C416.363 413.995 416.559 413.876 416.723 413.717C416.888 413.556 417.015 413.355 417.104 413.116L418.127 413.403C418.019 413.75 417.838 414.055 417.584 414.318C417.33 414.578 417.016 414.782 416.642 414.928C416.268 415.072 415.848 415.144 415.382 415.144ZM426.484 415.126C425.892 415.126 425.364 415.024 424.9 414.821C424.44 414.617 424.074 414.335 423.801 413.973C423.532 413.608 423.386 413.185 423.362 412.703H424.492C424.516 412.999 424.618 413.255 424.797 413.47C424.977 413.683 425.211 413.847 425.501 413.964C425.792 414.08 426.113 414.139 426.466 414.139C426.861 414.139 427.21 414.07 427.516 413.932C427.821 413.795 428.06 413.603 428.233 413.358C428.407 413.113 428.493 412.829 428.493 412.506C428.493 412.168 428.41 411.871 428.242 411.613C428.075 411.353 427.83 411.15 427.507 411.003C427.184 410.857 426.789 410.783 426.322 410.783H425.587V409.797H426.322C426.687 409.797 427.007 409.731 427.282 409.599C427.56 409.468 427.777 409.282 427.933 409.043C428.091 408.804 428.17 408.523 428.17 408.2C428.17 407.889 428.102 407.618 427.964 407.388C427.827 407.158 427.632 406.978 427.381 406.85C427.133 406.721 426.84 406.657 426.502 406.657C426.185 406.657 425.886 406.715 425.605 406.832C425.327 406.945 425.099 407.111 424.923 407.33C424.746 407.545 424.651 407.805 424.636 408.11H423.559C423.577 407.629 423.722 407.207 423.994 406.845C424.266 406.48 424.622 406.196 425.062 405.993C425.504 405.789 425.99 405.688 426.52 405.688C427.088 405.688 427.575 405.803 427.982 406.033C428.389 406.26 428.701 406.561 428.92 406.935C429.138 407.309 429.247 407.712 429.247 408.146C429.247 408.663 429.111 409.104 428.839 409.469C428.57 409.834 428.203 410.087 427.74 410.227V410.299C428.32 410.395 428.773 410.641 429.099 411.039C429.425 411.434 429.588 411.923 429.588 412.506C429.588 413.005 429.452 413.454 429.18 413.852C428.911 414.246 428.543 414.557 428.076 414.785C427.61 415.012 427.079 415.126 426.484 415.126Z" fill="#212123"/>
<circle cx="449.429" cy="410.5" r="4.21053" fill="#C084FC"/>
<path d="M463.902 415H461.068V405.813H464.028C464.919 405.813 465.682 405.997 466.316 406.365C466.95 406.73 467.436 407.255 467.774 407.94C468.111 408.621 468.28 409.438 468.28 410.389C468.28 411.346 468.11 412.17 467.769 412.86C467.428 413.548 466.932 414.077 466.28 414.448C465.628 414.816 464.835 415 463.902 415ZM462.18 414.013H463.831C464.59 414.013 465.22 413.867 465.719 413.574C466.219 413.281 466.591 412.863 466.836 412.322C467.081 411.781 467.204 411.136 467.204 410.389C467.204 409.647 467.083 409.009 466.841 408.473C466.598 407.935 466.236 407.522 465.755 407.235C465.274 406.945 464.674 406.8 463.956 406.8H462.18V414.013ZM472.892 415.144C472.228 415.144 471.655 414.997 471.174 414.704C470.695 414.408 470.326 413.995 470.066 413.466C469.809 412.934 469.68 412.315 469.68 411.609C469.68 410.903 469.809 410.281 470.066 409.743C470.326 409.202 470.688 408.78 471.151 408.478C471.618 408.173 472.162 408.02 472.784 408.02C473.143 408.02 473.497 408.08 473.847 408.2C474.197 408.319 474.515 408.514 474.803 408.783C475.09 409.049 475.318 409.402 475.489 409.842C475.659 410.281 475.745 410.822 475.745 411.465V411.914H470.434V410.999H474.668C474.668 410.61 474.59 410.263 474.435 409.958C474.282 409.653 474.064 409.412 473.78 409.236C473.499 409.06 473.167 408.971 472.784 408.971C472.362 408.971 471.998 409.076 471.69 409.285C471.385 409.492 471.15 409.761 470.985 410.093C470.821 410.425 470.739 410.781 470.739 411.16V411.77C470.739 412.291 470.828 412.732 471.008 413.094C471.19 413.452 471.443 413.726 471.766 413.914C472.089 414.1 472.464 414.193 472.892 414.193C473.17 414.193 473.421 414.154 473.645 414.076C473.873 413.995 474.068 413.876 474.233 413.717C474.397 413.556 474.524 413.355 474.614 413.116L475.637 413.403C475.529 413.75 475.348 414.055 475.094 414.318C474.84 414.578 474.526 414.782 474.152 414.928C473.778 415.072 473.358 415.144 472.892 415.144ZM482.779 408.11L480.231 415H479.155L476.607 408.11H477.755L479.657 413.6H479.729L481.631 408.11H482.779ZM484.176 415V408.11H485.235V415H484.176ZM484.715 406.962C484.508 406.962 484.33 406.891 484.181 406.751C484.034 406.61 483.961 406.441 483.961 406.244C483.961 406.047 484.034 405.878 484.181 405.737C484.33 405.597 484.508 405.526 484.715 405.526C484.921 405.526 485.097 405.597 485.244 405.737C485.394 405.878 485.468 406.047 485.468 406.244C485.468 406.441 485.394 406.61 485.244 406.751C485.097 406.891 484.921 406.962 484.715 406.962ZM489.973 415.144C489.327 415.144 488.771 414.991 488.304 414.686C487.838 414.381 487.479 413.961 487.228 413.426C486.977 412.89 486.851 412.279 486.851 411.591C486.851 410.891 486.98 410.274 487.237 409.738C487.497 409.2 487.859 408.78 488.322 408.478C488.789 408.173 489.333 408.02 489.955 408.02C490.44 408.02 490.876 408.11 491.265 408.289C491.654 408.469 491.972 408.72 492.22 409.043C492.469 409.366 492.623 409.743 492.682 410.173H491.624C491.543 409.859 491.364 409.581 491.085 409.339C490.81 409.094 490.44 408.971 489.973 408.971C489.56 408.971 489.198 409.079 488.887 409.294C488.579 409.507 488.339 409.807 488.165 410.196C487.995 410.582 487.91 411.035 487.91 411.555C487.91 412.087 487.993 412.551 488.161 412.946C488.331 413.34 488.571 413.647 488.879 413.865C489.19 414.083 489.554 414.193 489.973 414.193C490.248 414.193 490.498 414.145 490.722 414.049C490.946 413.953 491.136 413.816 491.292 413.636C491.447 413.457 491.558 413.242 491.624 412.99H492.682C492.623 413.397 492.475 413.763 492.238 414.089C492.005 414.412 491.696 414.67 491.31 414.861C490.927 415.049 490.481 415.144 489.973 415.144ZM497.119 415.144C496.455 415.144 495.882 414.997 495.401 414.704C494.922 414.408 494.553 413.995 494.293 413.466C494.036 412.934 493.907 412.315 493.907 411.609C493.907 410.903 494.036 410.281 494.293 409.743C494.553 409.202 494.915 408.78 495.378 408.478C495.845 408.173 496.389 408.02 497.011 408.02C497.37 408.02 497.724 408.08 498.074 408.2C498.424 408.319 498.742 408.514 499.03 408.783C499.317 409.049 499.545 409.402 499.716 409.842C499.886 410.281 499.972 410.822 499.972 411.465V411.914H494.661V410.999H498.895C498.895 410.61 498.817 410.263 498.662 409.958C498.509 409.653 498.291 409.412 498.007 409.236C497.726 409.06 497.394 408.971 497.011 408.971C496.589 408.971 496.225 409.076 495.917 409.285C495.611 409.492 495.377 409.761 495.212 410.093C495.048 410.425 494.966 410.781 494.966 411.16V411.77C494.966 412.291 495.055 412.732 495.235 413.094C495.417 413.452 495.67 413.726 495.993 413.914C496.316 414.1 496.691 414.193 497.119 414.193C497.397 414.193 497.648 414.154 497.872 414.076C498.1 413.995 498.295 413.876 498.46 413.717C498.624 413.556 498.751 413.355 498.841 413.116L499.864 413.403C499.756 413.75 499.575 414.055 499.321 414.318C499.067 414.578 498.753 414.782 498.379 414.928C498.005 415.072 497.585 415.144 497.119 415.144ZM504.901 413.116V412.201L508.938 405.813H509.602V407.231H509.154L506.103 412.057V412.129H511.54V413.116H504.901ZM509.225 415V412.838V412.412V405.813H510.284V415H509.225Z" fill="#212123"/>
<g clip-path="url(#clip1_72_1236)">
<rect opacity="0.5" x="62.0078" y="118.25" width="76.2703" height="34.6564" fill="#42AE46"/>
<rect opacity="0.8" x="145.629" y="118.25" width="76.2703" height="34.6564" fill="#760903"/>
<rect opacity="0.8" x="229.251" y="118.25" width="76.2703" height="34.6564" fill="#760903"/>
<rect x="312.873" y="118.25" width="76.2703" height="34.6564" fill="#42AE46"/>
<rect x="396.494" y="118.25" width="76.2703" height="34.6564" fill="#2268D1"/>
<rect opacity="0.3" x="480.116" y="118.25" width="76.2703" height="34.6564" fill="#2268D1"/>
<rect opacity="0.1" x="563.738" y="118.25" width="76.2703" height="34.6564" fill="#2268D1"/>
<rect opacity="0.3" x="62.0078" y="160.258" width="76.2703" height="34.6564" fill="#2268D1"/>
<rect opacity="0.3" x="145.629" y="160.258" width="76.2703" height="34.6564" fill="#760903"/>
<rect opacity="0.8" x="229.251" y="160.258" width="76.2703" height="34.6564" fill="#760903"/>
<rect x="312.873" y="160.258" width="76.2703" height="34.6564" fill="#42AE46"/>
<rect opacity="0.8" x="396.494" y="160.258" width="76.2703" height="34.6564" fill="#42AE46"/>
<rect opacity="0.5" x="480.116" y="160.258" width="76.2703" height="34.6564" fill="#2268D1"/>
<rect opacity="0.3" x="563.737" y="160.258" width="76.2703" height="34.6564" fill="#760903"/>
<rect opacity="0.3" x="62.0078" y="202.266" width="76.2703" height="34.6564" fill="#42AE46"/>
<rect opacity="0.5" x="145.629" y="202.266" width="76.2703" height="34.6564" fill="#2268D1"/>
<rect opacity="0.5" x="229.251" y="202.266" width="76.2703" height="34.6564" fill="#42AE46"/>
<rect opacity="0.8" x="312.873" y="202.266" width="76.2703" height="34.6564" fill="#760903"/>
<rect opacity="0.5" x="396.494" y="202.266" width="76.2703" height="34.6564" fill="#2268D1"/>
<rect opacity="0.3" x="480.116" y="202.266" width="76.2703" height="34.6564" fill="#760903"/>
<rect opacity="0.3" x="563.738" y="202.266" width="76.2703" height="34.6564" fill="#760903"/>
<rect opacity="0.1" x="62.0078" y="244.273" width="76.2703" height="34.6564" fill="#760903"/>
<rect opacity="0.3" x="145.629" y="244.273" width="76.2703" height="34.6564" fill="#42AE46"/>
<rect opacity="0.5" x="229.251" y="244.273" width="76.2703" height="34.6564" fill="#2268D1"/>
<rect opacity="0.5" x="312.873" y="244.273" width="76.2703" height="34.6564" fill="#760903"/>
<rect opacity="0.5" x="396.494" y="244.273" width="76.2703" height="34.6564" fill="#760903"/>
<rect opacity="0.3" x="480.116" y="244.273" width="76.2703" height="34.6564" fill="#760903"/>
<rect opacity="0.3" x="563.737" y="244.273" width="76.2703" height="34.6564" fill="#2268D1"/>
<rect opacity="0.1" x="62.0078" y="286.281" width="76.2703" height="34.6564" fill="#2268D1"/>
<rect opacity="0.3" x="145.629" y="286.281" width="76.2703" height="34.6564" fill="#42AE46"/>
<rect opacity="0.5" x="229.251" y="286.281" width="76.2703" height="34.6564" fill="#42AE46"/>
<rect opacity="0.5" x="312.873" y="286.281" width="76.2703" height="34.6564" fill="#2268D1"/>
<rect opacity="0.5" x="396.494" y="286.281" width="76.2703" height="34.6564" fill="#42AE46"/>
<rect opacity="0.3" x="480.116" y="286.281" width="76.2703" height="34.6564" fill="#2268D1"/>
<rect opacity="0.1" x="563.738" y="286.281" width="76.2703" height="34.6564" fill="#760903"/>
<rect opacity="0.1" x="62.0078" y="328.289" width="76.2703" height="34.6564" fill="#42AE46"/>
<rect opacity="0.3" x="145.629" y="328.289" width="76.2703" height="34.6564" fill="#2268D1"/>
<rect opacity="0.3" x="229.251" y="328.289" width="76.2703" height="34.6564" fill="#2268D1"/>
<rect opacity="0.5" x="312.873" y="328.289" width="76.2703" height="34.6564" fill="#760903"/>
<rect opacity="0.3" x="396.494" y="328.289" width="76.2703" height="34.6564" fill="#2268D1"/>
<rect opacity="0.3" x="480.116" y="328.289" width="76.2703" height="34.6564" fill="#42AE46"/>
<rect opacity="0.1" x="563.737" y="328.289" width="76.2703" height="34.6564" fill="#42AE46"/>
</g>
</g>
</g>
<defs>
<filter id="filter0_dd_72_1236" x="0" y="0" width="711" height="482" filterUnits="userSpaceOnUse" color-interpolation-filters="sRGB">
<feFlood flood-opacity="0" result="BackgroundImageFix"/>
<feColorMatrix in="SourceAlpha" type="matrix" values="0 0 0 0 0 0 0 0 0 0 0 0 0 0 0 0 0 0 127 0" result="hardAlpha"/>
<feOffset dy="1"/>
<feGaussianBlur stdDeviation="1.5"/>
<feComposite in2="hardAlpha" operator="out"/>
<feColorMatrix type="matrix" values="0 0 0 0 0 0 0 0 0 0 0 0 0 0 0 0 0 0 0.1 0"/>
<feBlend mode="normal" in2="BackgroundImageFix" result="effect1_dropShadow_72_1236"/>
<feColorMatrix in="SourceAlpha" type="matrix" values="0 0 0 0 0 0 0 0 0 0 0 0 0 0 0 0 0 0 127 0" result="hardAlpha"/>
<feOffset dy="1"/>
<feGaussianBlur stdDeviation="12"/>
<feComposite in2="hardAlpha" operator="out"/>
<feColorMatrix type="matrix" values="0 0 0 0 0 0 0 0 0 0 0 0 0 0 0 0 0 0 0.08 0"/>
<feBlend mode="normal" in2="effect1_dropShadow_72_1236" result="effect2_dropShadow_72_1236"/>
<feBlend mode="normal" in="SourceGraphic" in2="effect2_dropShadow_72_1236" result="shape"/>
</filter>
<clipPath id="clip0_72_1236">
<rect x="24" y="23" width="663" height="434" rx="12" fill="white"/>
</clipPath>
<clipPath id="clip1_72_1236">
<rect width="578" height="250" fill="white" transform="translate(62.0039 113)"/>
</clipPath>
</defs>
</svg>
