<svg width="63" height="63" viewBox="0 0 63 63" fill="none" xmlns="http://www.w3.org/2000/svg">
    <g clip-path="url(#clip0_142_719)">
        <path fill-rule="evenodd" clip-rule="evenodd"
            d="M6.3125 10.1875V41.1875H56.6875V10.1875H6.3125ZM4.375 47H19.875V52.8125H15.0312C14.2605 52.8125 13.5212 53.1187 12.9762 53.6637C12.4312 54.2088 12.125 54.948 12.125 55.7188C12.125 56.4895 12.4312 57.2287 12.9762 57.7738C13.5212 58.3188 14.2605 58.625 15.0312 58.625H47.9688C48.7395 58.625 49.4787 58.3188 50.0238 57.7738C50.5688 57.2287 50.875 56.4895 50.875 55.7188C50.875 54.948 50.5688 54.2088 50.0238 53.6637C49.4787 53.1187 48.7395 52.8125 47.9688 52.8125H43.125V47H58.625C59.6527 47 60.6383 46.5917 61.365 45.865C62.0917 45.1383 62.5 44.1527 62.5 43.125V8.25C62.5 7.22229 62.0917 6.23666 61.365 5.50996C60.6383 4.78326 59.6527 4.375 58.625 4.375H4.375C3.34729 4.375 2.36166 4.78326 1.63496 5.50996C0.908258 6.23666 0.5 7.22229 0.5 8.25L0.5 43.125C0.5 44.1527 0.908258 45.1383 1.63496 45.865C2.36166 46.5917 3.34729 47 4.375 47ZM25.6875 52.8125V47H37.3125V52.8125H25.6875Z"
            fill="url(#paint0_linear_142_719)" />
        <rect x="8.25" y="12.125" width="38.75" height="2.21429" rx="1.10714" fill="#35494D" />
        <rect x="8.25" y="19.875" width="27.125" height="2.21429" rx="1.10714" fill="#35494D" />
        <rect x="8.25" y="27.625" width="27.125" height="2.21429" rx="1.10714" fill="#35494D" />
        <rect x="39.25" y="17.9375" width="15.5" height="15.5" rx="0.607143"
            fill="url(#paint1_linear_142_719)" />
        <rect x="8.25" y="35.375" width="31" height="2.21429" rx="1.10714" fill="#35494D" />
    </g>
    <defs>
        <linearGradient id="paint0_linear_142_719" x1="31.5" y1="4.375" x2="31.5" y2="58.625"
            gradientUnits="userSpaceOnUse">
            <stop stop-color="#1B8540" />
            <stop offset="1" stop-color="#8BC43F" />
        </linearGradient>
        <linearGradient id="paint1_linear_142_719" x1="47" y1="17.9375" x2="47" y2="33.4375"
            gradientUnits="userSpaceOnUse">
            <stop stop-color="#1B8540" />
            <stop offset="1" stop-color="#8BC43F" />
        </linearGradient>
        <clipPath id="clip0_142_719">
            <rect width="62" height="62" fill="white" transform="translate(0.5 0.5)" />
        </clipPath>
    </defs>
</svg>