<svg width="63" height="62" viewBox="0 0 63 62" fill="none" xmlns="http://www.w3.org/2000/svg">
    <g clip-path="url(#clip0_151_364)">
        <mask id="mask0_151_364" style="mask-type:luminance" maskUnits="userSpaceOnUse" x="0" y="0"
            width="62" height="58">
            <path d="M0.640625 0H61.9468V57.3595H0.640625V0Z" fill="white" />
        </mask>
        <g mask="url(#mask0_151_364)">
            <path
                d="M59.1606 0.00756836H3.42678C3.24531 0.00756836 3.06384 0.0314031 2.88503 0.0756671C2.70356 0.123337 2.53009 0.191434 2.36196 0.279963C2.19383 0.371897 2.03104 0.480855 1.87892 0.613648C1.7268 0.743035 1.58803 0.892852 1.45726 1.05969C1.32916 1.22313 1.21173 1.407 1.11032 1.60108C1.00891 1.79856 0.923511 2.00286 0.854123 2.22078C0.784737 2.43869 0.731362 2.66342 0.694 2.89155C0.659306 3.12308 0.640625 3.35802 0.640625 3.59296V53.7715C0.640625 54.0064 0.659306 54.238 0.694 54.4695C0.731362 54.701 0.784737 54.9258 0.854123 55.1403C0.923511 55.3582 1.00891 55.5659 1.11032 55.76C1.21173 55.9575 1.32916 56.1379 1.45726 56.3048C1.58803 56.4716 1.7268 56.618 1.87892 56.7508C2.03104 56.8802 2.19383 56.9926 2.36196 57.0811C2.53009 57.1696 2.70356 57.2377 2.88503 57.2854C3.06384 57.3297 3.24531 57.3535 3.42678 57.3535H59.1606C59.3447 57.3535 59.5262 57.3297 59.705 57.2854C59.8838 57.2377 60.06 57.1696 60.2281 57.0811C60.3962 56.9926 60.5564 56.8802 60.7085 56.7508C60.8606 56.618 61.002 56.4716 61.1328 56.3048C61.2609 56.1379 61.3757 55.9575 61.4797 55.76C61.5811 55.5659 61.6665 55.3582 61.7359 55.1403C61.8053 54.9258 61.8587 54.701 61.8934 54.4695C61.9308 54.238 61.9468 54.0064 61.9468 53.7715V3.59296C61.9468 3.35802 61.9308 3.12308 61.8934 2.89155C61.8587 2.66342 61.8053 2.43869 61.7359 2.22078C61.6665 2.00286 61.5811 1.79856 61.4797 1.60108C61.3757 1.407 61.2609 1.22313 61.1328 1.05969C61.002 0.892852 60.8606 0.743035 60.7085 0.613648C60.5564 0.480855 60.3962 0.371897 60.2281 0.279963C60.06 0.191434 59.8838 0.123337 59.705 0.0756671C59.5262 0.0314031 59.3447 0.00756836 59.1606 0.00756836ZM3.42678 3.59296H59.1606V10.7604H3.42678V3.59296ZM3.42678 53.7715V14.3457H59.1606V34.0586V53.7715H3.42678Z"
                fill="url(#paint0_linear_151_364)" />
        </g>
        <path
            d="M7.5 6C7.29885 6 7.1092 6.03989 6.92529 6.11396C6.74138 6.19088 6.57759 6.29915 6.43678 6.43875C6.29885 6.5812 6.18966 6.74359 6.11207 6.92593C6.03736 7.11111 6 7.30199 6 7.49858C6 7.69801 6.03736 7.88889 6.11207 8.07407C6.18966 8.25641 6.29885 8.4188 6.43678 8.56125C6.57759 8.70086 6.74138 8.80912 6.92529 8.88604C7.1092 8.96011 7.29885 9 7.5 9C7.69828 9 7.88793 8.96011 8.07184 8.88604C8.25575 8.80912 8.41954 8.70086 8.56034 8.56125C8.70115 8.4188 8.81035 8.25641 8.88506 8.07407C8.95977 7.88889 9 7.69801 9 7.49858C9 7.30199 8.95977 7.11111 8.88506 6.92593C8.81035 6.74359 8.70115 6.5812 8.56034 6.43875C8.41954 6.29915 8.25575 6.19088 8.07184 6.11396C7.88793 6.03989 7.69828 6 7.5 6Z"
            fill="url(#paint1_linear_151_364)" />
        <path
            d="M11.6797 6C11.4814 6 11.2889 6.03989 11.105 6.11396C10.9211 6.19088 10.7601 6.29915 10.6193 6.43875C10.4785 6.5812 10.3693 6.74359 10.2946 6.92593C10.217 7.11111 10.1797 7.30199 10.1797 7.49858C10.1797 7.69801 10.217 7.88889 10.2946 8.07407C10.3693 8.25641 10.4785 8.4188 10.6193 8.56125C10.7601 8.70086 10.9211 8.80912 11.105 8.88604C11.2889 8.96011 11.4814 9 11.6797 9C11.878 9 12.0705 8.96011 12.2544 8.88604C12.4383 8.80912 12.5992 8.70086 12.74 8.56125C12.8808 8.4188 12.99 8.25641 13.0647 8.07407C13.1423 7.88889 13.1797 7.69801 13.1797 7.49858C13.1797 7.30199 13.1423 7.11111 13.0647 6.92593C12.99 6.74359 12.8808 6.5812 12.74 6.43875C12.5992 6.29915 12.4383 6.19088 12.2544 6.11396C12.0705 6.03989 11.878 6 11.6797 6Z"
            fill="url(#paint2_linear_151_364)" />
        <path
            d="M15.8584 6C15.6601 6 15.4676 6.03989 15.2837 6.11396C15.0998 6.19088 14.9389 6.29915 14.7981 6.43875C14.6572 6.5812 14.5481 6.74359 14.4733 6.92593C14.3958 7.11111 14.3584 7.30199 14.3584 7.49858C14.3584 7.69801 14.3958 7.88889 14.4733 8.07407C14.5481 8.25641 14.6572 8.4188 14.7981 8.56125C14.9389 8.70086 15.0998 8.80912 15.2837 8.88604C15.4676 8.96011 15.6601 9 15.8584 9C16.0567 9 16.2492 8.96011 16.4331 8.88604C16.617 8.80912 16.7779 8.70086 16.9187 8.56125C17.0595 8.4188 17.1687 8.25641 17.2463 8.07407C17.321 7.88889 17.3584 7.69801 17.3584 7.49858C17.3584 7.30199 17.321 7.11111 17.2463 6.92593C17.1687 6.74359 17.0595 6.5812 16.9187 6.43875C16.7779 6.29915 16.617 6.19088 16.4331 6.11396C16.2492 6.03989 16.0567 6 15.8584 6Z"
            fill="url(#paint3_linear_151_364)" />
        <g clip-path="url(#clip1_151_364)">
            <path
                d="M47.7185 29.0618V55.4146C47.7185 58.6492 40.2581 61.2708 31.0546 61.2708C21.8511 61.2708 14.3906 58.6492 14.3906 55.4146V29.0618"
                fill="white" />
            <path
                d="M47.7185 29.0618V55.4146C47.7185 58.6492 40.2581 61.2708 31.0546 61.2708C21.8511 61.2708 14.3906 58.6492 14.3906 55.4146V29.0618"
                stroke="url(#paint4_linear_151_364)" stroke-width="0.717013" stroke-linecap="round"
                stroke-linejoin="round" />
            <path
                d="M47.7185 46.6293C47.7185 49.8638 40.2581 52.4854 31.0546 52.4854C21.8511 52.4854 14.3906 49.8638 14.3906 46.6293M47.7185 37.845C47.7185 41.0795 40.2581 43.7012 31.0546 43.7012C21.8511 43.7012 14.3906 41.0795 14.3906 37.845"
                fill="white" />
            <path
                d="M47.7185 46.6293C47.7185 49.8638 40.2581 52.4854 31.0546 52.4854C21.8511 52.4854 14.3906 49.8638 14.3906 46.6293M47.7185 37.845C47.7185 41.0795 40.2581 43.7012 31.0546 43.7012C21.8511 43.7012 14.3906 41.0795 14.3906 37.845"
                stroke="url(#paint5_linear_151_364)" stroke-width="0.717013" stroke-linecap="round"
                stroke-linejoin="round" />
            <path
                d="M31.0546 33.9411C40.2578 33.9411 47.7185 31.3192 47.7185 28.0849C47.7185 24.8507 40.2578 22.2288 31.0546 22.2288C21.8513 22.2288 14.3906 24.8507 14.3906 28.0849C14.3906 31.3192 21.8513 33.9411 31.0546 33.9411Z"
                fill="white" stroke="url(#paint6_linear_151_364)" stroke-width="0.717013"
                stroke-linecap="round" stroke-linejoin="round" />
        </g>
    </g>
    <defs>
        <linearGradient id="paint0_linear_151_364" x1="31.2937" y1="0.00756836" x2="31.2937"
            y2="57.3535" gradientUnits="userSpaceOnUse">
            <stop stop-color="#1B8540" />
            <stop offset="1" stop-color="#8BC43F" />
        </linearGradient>
        <linearGradient id="paint1_linear_151_364" x1="7.5" y1="6" x2="7.5" y2="9"
            gradientUnits="userSpaceOnUse">
            <stop stop-color="#1B8540" />
            <stop offset="1" stop-color="#8BC43F" />
        </linearGradient>
        <linearGradient id="paint2_linear_151_364" x1="11.6797" y1="6" x2="11.6797" y2="9"
            gradientUnits="userSpaceOnUse">
            <stop stop-color="#1B8540" />
            <stop offset="1" stop-color="#8BC43F" />
        </linearGradient>
        <linearGradient id="paint3_linear_151_364" x1="15.8584" y1="6" x2="15.8584" y2="9"
            gradientUnits="userSpaceOnUse">
            <stop stop-color="#1B8540" />
            <stop offset="1" stop-color="#8BC43F" />
        </linearGradient>
        <linearGradient id="paint4_linear_151_364" x1="31.0546" y1="29.0618" x2="31.0546"
            y2="61.2708" gradientUnits="userSpaceOnUse">
            <stop stop-color="#1B8540" />
            <stop offset="1" stop-color="#8BC43F" />
        </linearGradient>
        <linearGradient id="paint5_linear_151_364" x1="31.0546" y1="37.845" x2="31.0546"
            y2="52.4854" gradientUnits="userSpaceOnUse">
            <stop stop-color="#1B8540" />
            <stop offset="1" stop-color="#8BC43F" />
        </linearGradient>
        <linearGradient id="paint6_linear_151_364" x1="31.0546" y1="22.2288" x2="31.0546"
            y2="33.9411" gradientUnits="userSpaceOnUse">
            <stop stop-color="#1B8540" />
            <stop offset="1" stop-color="#8BC43F" />
        </linearGradient>
        <clipPath id="clip0_151_364">
            <rect width="62" height="62" fill="white" transform="translate(0.636719)" />
        </clipPath>
        <clipPath id="clip1_151_364">
            <rect width="35" height="41" fill="white" transform="translate(13.5518 21)" />
        </clipPath>
    </defs>
</svg>