<svg width="61" height="61" viewBox="0 0 61 61" fill="none" xmlns="http://www.w3.org/2000/svg">
    <path
        d="M26.0129 26.5149C24.9412 27.581 24.3361 29.0288 24.3306 30.5405C24.3306 32.0544 24.9319 33.5062 26.0024 34.5767C27.0729 35.6472 28.5247 36.2485 30.0386 36.2485C31.5503 36.243 32.9981 35.6379 34.0642 34.5662"
        stroke="url(#paint0_linear_142_456)" stroke-width="3" stroke-linecap="round"
        stroke-linejoin="round" />
    <path
        d="M30.04 13.4153C26.6532 13.4153 23.3425 14.4196 20.5264 16.3012C17.7104 18.1828 15.5156 20.8572 14.2195 23.9862C12.9234 27.1152 12.5843 30.5583 13.2451 33.88C13.9058 37.2017 15.5367 40.2529 17.9315 42.6478C20.3264 45.0426 23.3776 46.6735 26.6993 47.3342C30.021 47.995 33.4641 47.6559 36.5931 46.3598C39.7221 45.0637 42.3965 42.8689 44.2781 40.0529C46.1597 37.2368 47.164 33.9261 47.164 30.5393"
        stroke="url(#paint1_linear_142_456)" stroke-width="3" stroke-linecap="round"
        stroke-linejoin="round" />
    <path
        d="M30.04 2C24.3953 2 18.8774 3.67384 14.184 6.80986C9.49066 9.94587 5.83262 14.4032 3.67249 19.6182C1.51237 24.8332 0.947179 30.5717 2.0484 36.1079C3.14962 41.6441 5.86779 46.7294 9.85918 50.7208C13.8506 54.7122 18.9359 57.4304 24.4721 58.5316C30.0083 59.6328 35.7468 59.0676 40.9618 56.9075C46.1768 54.7474 50.6341 51.0893 53.7701 46.396C56.9062 41.7026 58.58 36.1847 58.58 30.54M40.6298 19.9532L32.894 27.686"
        stroke="url(#paint2_linear_142_456)" stroke-width="3" stroke-linecap="round"
        stroke-linejoin="round" />
    <path
        d="M56.8988 12.0451L47.1651 13.415L48.5351 3.6814C48.5451 3.56834 48.5212 3.45485 48.4665 3.35544C48.4117 3.25602 48.3285 3.17519 48.2276 3.12327C48.1266 3.07135 48.0125 3.05071 47.8998 3.06397C47.7871 3.07723 47.6809 3.1238 47.5947 3.19772L41.1417 9.61772C40.4789 10.2853 39.9914 11.1064 39.7225 12.0079C39.4536 12.9094 39.4117 13.8634 39.6005 14.785L40.628 19.9522L45.7952 20.9766C46.7168 21.1655 47.6708 21.1236 48.5723 20.8547C49.4738 20.5858 50.2949 20.0983 50.9625 19.4355L57.3795 12.9854C57.4536 12.8991 57.5003 12.7926 57.5135 12.6795C57.5267 12.5665 57.5058 12.4521 57.4535 12.351C57.4012 12.2499 57.3198 12.1668 57.2199 12.1123C57.12 12.0578 57.0061 12.0344 56.8928 12.0451"
        stroke="url(#paint3_linear_142_456)" stroke-width="3" stroke-linecap="round"
        stroke-linejoin="round" />
    <defs>
        <linearGradient id="paint0_linear_142_456" x1="29.1974" y1="26.5149" x2="29.1974"
            y2="36.2485" gradientUnits="userSpaceOnUse">
            <stop stop-color="#1B8540" />
            <stop offset="1" stop-color="#8BC43F" />
        </linearGradient>
        <linearGradient id="paint1_linear_142_456" x1="30.04" y1="13.4153" x2="30.04" y2="47.6633"
            gradientUnits="userSpaceOnUse">
            <stop stop-color="#1B8540" />
            <stop offset="1" stop-color="#8BC43F" />
        </linearGradient>
        <linearGradient id="paint2_linear_142_456" x1="30.04" y1="2" x2="30.04" y2="59.08"
            gradientUnits="userSpaceOnUse">
            <stop stop-color="#1B8540" />
            <stop offset="1" stop-color="#8BC43F" />
        </linearGradient>
        <linearGradient id="paint3_linear_142_456" x1="48.5009" y1="3.06006" x2="48.5009"
            y2="21.0928" gradientUnits="userSpaceOnUse">
            <stop stop-color="#1B8540" />
            <stop offset="1" stop-color="#8BC43F" />
        </linearGradient>
    </defs>
</svg>