<svg width="63" height="63" viewBox="0 0 63 63" fill="none" xmlns="http://www.w3.org/2000/svg">
    <path
        d="M54.75 14.0625H43.125V4.375C43.125 3.86114 42.9209 3.36833 42.5575 3.00498C42.1942 2.64163 41.7014 2.4375 41.1875 2.4375C40.6736 2.4375 40.1808 2.64163 39.8175 3.00498C39.4541 3.36833 39.25 3.86114 39.25 4.375V14.0625H23.75V4.375C23.75 3.86114 23.5459 3.36833 23.1825 3.00498C22.8192 2.64163 22.3264 2.4375 21.8125 2.4375C21.2986 2.4375 20.8058 2.64163 20.4425 3.00498C20.0791 3.36833 19.875 3.86114 19.875 4.375V14.0625H8.3832C6.86469 14.0625 6.3125 15.2202 6.3125 16C6.3125 16.5139 6.51663 17.0067 6.87998 17.37C7.24333 17.7334 7.73614 17.9375 8.25 17.9375H12.125V39.25C12.125 41.8193 13.1456 44.2833 14.9624 46.1001C16.7792 47.9169 19.2432 48.9375 21.8125 48.9375H29.5625V58.625C29.5625 59.1389 29.7666 59.6317 30.13 59.995C30.4933 60.3584 30.9861 60.5625 31.5 60.5625C32.0139 60.5625 32.5067 60.3584 32.87 59.995C33.2334 59.6317 33.4375 59.1389 33.4375 58.625V48.9375H41.1875C43.7568 48.9375 46.2208 47.9169 48.0376 46.1001C49.8544 44.2833 50.875 41.8193 50.875 39.25V17.9375H54.75C55.2639 17.9375 55.7567 17.7334 56.12 17.37C56.4834 17.0067 56.6875 16.5139 56.6875 16C56.6875 15.4861 56.4834 14.9933 56.12 14.63C55.7567 14.2666 55.2639 14.0625 54.75 14.0625ZM41.1875 45.0625H21.8125C20.2709 45.0625 18.7925 44.4501 17.7024 43.3601C16.6124 42.27 16 40.7916 16 39.25V17.9375H47V39.25C47 40.7916 46.3876 42.27 45.2976 43.3601C44.2075 44.4501 42.7291 45.0625 41.1875 45.0625Z"
        fill="url(#paint0_linear_151_353)" />
    <path
        d="M37.2984 31.2615C37.26 30.9506 37.1468 30.6537 36.9685 30.3961C36.79 30.1388 36.5518 29.9286 36.2742 29.7835C35.9967 29.6384 35.6881 29.5627 35.3749 29.563H30.4125L32.35 24.431C32.5305 23.9493 32.5122 23.4156 32.2992 22.9473C32.0862 22.4791 31.6959 22.1146 31.2142 21.9341C30.7324 21.7536 30.1987 21.7719 29.7304 21.9849C29.2622 22.1979 28.8977 22.5882 28.7172 23.07L25.811 30.82C25.701 31.1131 25.6637 31.4285 25.7023 31.7392C25.7408 32.0499 25.8541 32.3466 26.0324 32.604C26.2107 32.8613 26.4488 33.0716 26.7261 33.2169C27.0034 33.3621 27.3119 33.438 27.6249 33.438H32.5874L30.6499 38.57C30.4694 39.0517 30.4876 39.5854 30.7007 40.0537C30.9137 40.5219 31.304 40.8864 31.7857 41.0669C32.2675 41.2474 32.8012 41.2291 33.2694 41.0161C33.7377 40.8031 34.1022 40.4128 34.2827 39.9311L37.1889 32.181C37.2992 31.8879 37.3368 31.5723 37.2984 31.2615Z"
        fill="#35494D" />
    <defs>
        <linearGradient id="paint0_linear_151_353" x1="31.5" y1="2.4375" x2="31.5" y2="60.5625"
            gradientUnits="userSpaceOnUse">
            <stop stop-color="#1B8540" />
            <stop offset="1" stop-color="#8BC43F" />
        </linearGradient>
    </defs>
</svg>