<svg width="85" height="59" viewBox="0 0 85 59" fill="none" xmlns="http://www.w3.org/2000/svg">
    <g clip-path="url(#clip0_151_327)">
        <mask id="mask0_151_327" style="mask-type:luminance" maskUnits="userSpaceOnUse" x="0" y="0"
            width="85" height="59">
            <path d="M0.476562 0H84.6502V59H0.476562V0Z" fill="white" />
        </mask>
        <g mask="url(#mask0_151_327)">
            <path
                d="M75.8919 3H16.4123C14.1477 3 12.3056 4.75487 12.3056 6.91234V31.9994C8.51622 34.3179 6 38.3695 6 42.9695C6 50.1539 12.1366 56 19.6779 56C21.3589 56 22.9709 55.7092 24.4601 55.1782H75.8933C78.1579 55.1782 80 53.4233 80 51.2658V6.91106C79.9987 4.75359 78.1559 3 75.8919 3ZM7.84272 42.9695C7.84272 37.0473 12.6598 32.1764 18.7562 31.7278V42.9695C18.7562 43.4539 19.1694 43.847 19.6779 43.847H31.4775C31.0059 49.6554 25.8936 54.2451 19.6779 54.2451C13.1515 54.2451 7.84272 49.187 7.84272 42.9695ZM78.1559 51.2658C78.1559 52.4551 77.1397 53.4233 75.8919 53.4233H27.8356C31.1843 51.0447 33.3564 47.2448 33.3564 42.9695C33.3564 42.4851 32.9438 42.0921 32.4354 42.0921H20.6002V30.8165C20.6002 30.3321 20.187 29.939 19.6792 29.939C17.7124 29.939 15.8408 30.3365 14.149 31.0536V6.91106C14.149 5.72177 15.1653 4.75359 16.4137 4.75359H75.8946C77.143 4.75359 78.1593 5.72177 78.1593 6.91106V51.2658H78.1559ZM48.6355 33.7459H41.0278C40.52 33.7459 40.1068 34.1396 40.1068 34.6234V49.5806C40.1068 50.065 40.52 50.458 41.0278 50.458H48.6355C49.1433 50.458 49.5565 50.065 49.5565 49.5806V34.6234C49.5565 34.1396 49.1446 33.7459 48.6355 33.7459ZM47.7138 48.7032H41.9495V35.5014H47.7138V48.7032ZM61.2166 25.5902H53.6096C53.1011 25.5902 52.6879 25.9839 52.6879 26.4676V49.5806C52.6879 50.065 53.1011 50.458 53.6096 50.458H61.2166C61.7244 50.458 62.1376 50.065 62.1376 49.5806V26.4676C62.1376 25.9839 61.7264 25.5902 61.2166 25.5902ZM60.2956 48.7032H54.5306V27.3457H60.2956V48.7032ZM73.7977 29.1063H66.1907C65.6822 29.1063 65.2696 29.5 65.2696 29.9844V49.5806C65.2696 50.065 65.6822 50.458 66.1907 50.458H73.7977C74.3055 50.458 74.7187 50.065 74.7187 49.5806V29.9844C74.7187 29.4987 74.3075 29.1063 73.7977 29.1063ZM72.8766 48.7032H67.1117V30.8618H72.8766V48.7032ZM18.9883 14.6616H24.4614C24.9692 14.6616 25.3825 14.2679 25.3825 13.7835V8.56943C25.3825 8.08566 24.9692 7.692 24.4614 7.692H18.9883C18.4798 7.692 18.0672 8.08566 18.0672 8.56943V13.7835C18.0672 14.2679 18.4798 14.6616 18.9883 14.6616ZM19.9093 9.44686H23.5404V12.9061H19.9093V9.44686ZM27.5163 9.38998C27.5163 8.90621 27.9295 8.51255 28.4373 8.51255H42.089C42.5968 8.51255 43.0101 8.90621 43.0101 9.38998C43.0101 9.87439 42.5968 10.2674 42.089 10.2674H28.4373C27.9295 10.2674 27.5163 9.87439 27.5163 9.38998ZM27.5163 12.963C27.5163 12.4792 27.9295 12.0855 28.4373 12.0855H39.2287C39.7372 12.0855 40.1497 12.4792 40.1497 12.963C40.1497 13.4474 39.7372 13.8411 39.2287 13.8411H28.4373C27.9295 13.8411 27.5163 13.4487 27.5163 12.963ZM25.3825 22.1795V16.9648C25.3825 16.481 24.9692 16.0874 24.4614 16.0874H18.9883C18.4798 16.0874 18.0672 16.481 18.0672 16.9648V22.1795C18.0672 22.6633 18.4798 23.057 18.9883 23.057H24.4614C24.9692 23.057 25.3825 22.6633 25.3825 22.1795ZM23.5404 21.3021H19.9093V17.8429H23.5404V21.3021ZM27.5163 17.7841C27.5163 17.3003 27.9295 16.9066 28.4373 16.9066H42.089C42.5968 16.9066 43.0101 17.3003 43.0101 17.7841C43.0101 18.2685 42.5968 18.6615 42.089 18.6615H28.4373C27.9295 18.6615 27.5163 18.2698 27.5163 17.7841ZM40.1497 21.359C40.1497 21.8428 39.7372 22.2364 39.2287 22.2364H28.4373C27.9295 22.2364 27.5163 21.8428 27.5163 21.359C27.5163 20.8746 27.9295 20.4816 28.4373 20.4816H39.2287C39.7385 20.4816 40.1497 20.8733 40.1497 21.359ZM23.362 26.4287C22.8542 26.4287 22.4409 26.8217 22.4409 27.3061V39.4591C22.4409 39.9436 22.8542 40.3366 23.362 40.3366H36.1181C36.6266 40.3366 37.0398 39.9436 37.0398 39.4591C37.0398 32.2748 30.9046 26.4287 23.362 26.4287ZM24.283 38.5817V28.2174C30.0775 28.6443 34.7135 33.0615 35.1622 38.5817H24.283Z"
                fill="url(#paint0_linear_151_327)" />
        </g>
    </g>
    <defs>
        <linearGradient id="paint0_linear_151_327" x1="43" y1="3" x2="43" y2="56"
            gradientUnits="userSpaceOnUse">
            <stop stop-color="#1B8540" />
            <stop offset="1" stop-color="#8BC43F" />
        </linearGradient>
        <clipPath id="clip0_151_327">
            <rect width="85" height="59" fill="white" />
        </clipPath>
    </defs>
</svg>