<svg width="63" height="62" viewBox="0 0 63 62" fill="none" xmlns="http://www.w3.org/2000/svg">
    <path
        d="M39.3328 46.3368L34.6341 54.9516C34.2424 55.7343 34.5033 56.7135 35.2867 57.1052L43.9015 61.8039C44.1624 61.9347 44.4233 61.9997 44.6849 61.9997C45.2717 61.9997 45.7942 61.6731 46.055 61.1513C46.2509 60.7597 46.3159 60.368 46.1859 59.9763C46.055 59.5853 45.7942 59.2587 45.4025 59.0628L40.1162 56.191L41.4213 55.8C51.4721 52.7974 58.2594 43.3999 57.9985 32.9574C57.9985 32.5007 57.7369 32.044 57.3459 31.7831C56.9542 31.4565 56.4317 31.3914 55.975 31.5215C55.3225 31.7173 54.8 32.3699 54.8657 33.1533C55.0616 42.1598 49.1878 50.2522 40.5729 52.7974L39.2678 53.1891L42.1389 47.9028C42.5306 47.1194 42.2697 46.1409 41.4864 45.7493C41.0947 45.5534 40.7037 45.4884 40.2463 45.6185C39.8553 45.6842 39.5287 46.0101 39.3328 46.3368Z"
        fill="url(#paint0_linear_151_334)" />
    <path
        d="M23.6671 15.663L28.3659 7.0481C28.7576 6.26548 28.4967 5.28626 27.7133 4.89458L19.0985 0.195843C18.8376 0.0650319 18.5767 0 18.3151 0C17.7283 0 17.2058 0.326654 16.9449 0.848404C16.7491 1.24009 16.6841 1.63178 16.8141 2.02346C16.9449 2.4144 17.2058 2.74105 17.5975 2.9369L22.8838 5.80876L21.5787 6.1997C11.4628 9.20238 4.60983 18.5998 4.93649 29.0423C4.93649 29.499 5.19736 29.9557 5.58905 30.2166C5.98073 30.5433 6.50248 30.6083 6.95995 30.4782C7.61251 30.2824 8.13426 29.6298 8.06923 28.8465C7.87338 19.905 13.7472 11.8126 22.4271 9.26741L23.7322 8.87572L20.8611 14.162C20.4694 14.9454 20.7303 15.9246 21.5136 16.3155C21.9053 16.5114 22.2962 16.5771 22.7537 16.4463C23.2104 16.3155 23.4713 15.9896 23.6671 15.663Z"
        fill="url(#paint1_linear_151_334)" />
    <path
        d="M31.5007 18.9265C24.8436 18.9265 19.4272 24.3428 19.4272 31C19.4272 37.6572 24.8436 43.0735 31.5007 43.0735C38.1579 43.0735 43.5742 37.6572 43.5742 31C43.5742 24.3428 38.1579 18.9265 31.5007 18.9265ZM37.5046 29.1074L31.4357 35.6337C31.1091 35.9604 30.6523 36.1555 30.1956 36.1555C29.7389 36.1555 29.2814 35.9604 28.9555 35.6337L25.4969 31.9792C24.8436 31.3267 24.9094 30.2166 25.5619 29.6299C26.2145 28.9765 27.3238 29.0423 27.9113 29.6949L30.1298 32.0443L34.9594 26.823C35.6119 26.1705 36.6562 26.1054 37.3095 26.758C38.0921 27.3455 38.0921 28.4548 37.5046 29.1074Z"
        fill="url(#paint2_linear_151_334)" />
    <circle cx="34.5999" cy="6.19948" r="2.06667" fill="#C1C1C1" />
    <circle cx="41.8342" cy="7.23195" r="2.06667" fill="#C1C1C1" />
    <circle cx="48.034" cy="10.3318" r="2.06667" fill="#C1C1C1" />
    <circle cx="52.1658" cy="15.4986" r="2.06667" fill="#C1C1C1" />
    <circle cx="55.2669" cy="21.699" r="2.06667" fill="#C1C1C1" />
    <circle cx="56.2996" cy="27.8987" r="2.06667" fill="#C1C1C1" />
    <circle cx="29.8944" cy="56.3519" r="2.06667" transform="rotate(177.511 29.8944 56.3519)"
        fill="#C1C1C1" />
    <circle cx="22.6234" cy="55.6334" r="2.06667" transform="rotate(177.511 22.6234 55.6334)"
        fill="#C1C1C1" />
    <circle cx="16.2933" cy="52.806" r="2.06667" transform="rotate(177.511 16.2933 52.806)"
        fill="#C1C1C1" />
    <circle cx="11.9412" cy="47.8236" r="2.06667" transform="rotate(177.511 11.9412 47.8236)"
        fill="#C1C1C1" />
    <circle cx="8.57454" cy="41.7636" r="2.06667" transform="rotate(177.511 8.57454 41.7636)"
        fill="#C1C1C1" />
    <circle cx="7.2718" cy="35.6144" r="2.06667" transform="rotate(177.511 7.2718 35.6144)"
        fill="#C1C1C1" />
    <defs>
        <linearGradient id="paint0_linear_151_334" x1="46.2299" y1="31.4587" x2="46.2299"
            y2="61.9997" gradientUnits="userSpaceOnUse">
            <stop stop-color="#1B8540" />
            <stop offset="1" stop-color="#8BC43F" />
        </linearGradient>
        <linearGradient id="paint1_linear_151_334" x1="16.7356" y1="0" x2="16.7356" y2="30.541"
            gradientUnits="userSpaceOnUse">
            <stop stop-color="#1B8540" />
            <stop offset="1" stop-color="#8BC43F" />
        </linearGradient>
        <linearGradient id="paint2_linear_151_334" x1="31.5007" y1="18.9265" x2="31.5007"
            y2="43.0735" gradientUnits="userSpaceOnUse">
            <stop stop-color="#1B8540" />
            <stop offset="1" stop-color="#8BC43F" />
        </linearGradient>
    </defs>
</svg>