<svg width="56" height="28" viewBox="0 0 56 28" fill="none" xmlns="http://www.w3.org/2000/svg">
    <path
        d="M7.4099 3.27381C7.14744 3.59179 7 4.02301 7 4.47263C7 4.92226 7.14744 5.35347 7.4099 5.67146L14.3399 14.0649L7.4099 22.4584C7.15488 22.7782 7.01377 23.2065 7.01696 23.6511C7.02015 24.0957 7.16738 24.521 7.42695 24.8354C7.68652 25.1498 8.03766 25.3281 8.40473 25.332C8.7718 25.3358 9.12544 25.1649 9.38949 24.856L17.3092 15.2637C17.5717 14.9458 17.7191 14.5146 17.7191 14.0649C17.7191 13.6153 17.5717 13.1841 17.3092 12.8661L9.38949 3.27381C9.12695 2.95592 8.77092 2.77734 8.39969 2.77734C8.02846 2.77734 7.67244 2.95592 7.4099 3.27381Z"
        fill="url(#paint0_linear_138_511)" />
    <path
        d="M18.6096 3.27381C18.3471 3.59179 18.1997 4.02301 18.1997 4.47263C18.1997 4.92226 18.3471 5.35347 18.6096 5.67146L25.5396 14.0649L18.6096 22.4584C18.3546 22.7782 18.2135 23.2065 18.2167 23.6511C18.2199 24.0957 18.3671 24.521 18.6267 24.8354C18.8862 25.1498 19.2374 25.3281 19.6044 25.332C19.9715 25.3358 20.3252 25.1649 20.5892 24.856L28.5089 15.2637C28.7714 14.9458 28.9188 14.5146 28.9188 14.0649C28.9188 13.6153 28.7714 13.1841 28.5089 12.8661L20.5892 3.27381C20.3267 2.95592 19.9706 2.77734 19.5994 2.77734C19.2282 2.77734 18.8721 2.95592 18.6096 3.27381Z"
        fill="url(#paint1_linear_138_511)" />
    <path
        d="M29.8088 3.27381C29.5464 3.59179 29.3989 4.02301 29.3989 4.47263C29.3989 4.92226 29.5464 5.35347 29.8088 5.67146L36.7388 14.0649L29.8088 22.4584C29.5538 22.7782 29.4127 23.2065 29.4159 23.6511C29.4191 24.0957 29.5663 24.521 29.8259 24.8354C30.0854 25.1498 30.4366 25.3281 30.8037 25.332C31.1707 25.3358 31.5244 25.1649 31.7884 24.856L39.7082 15.2637C39.9706 14.9458 40.1181 14.5146 40.1181 14.0649C40.1181 13.6153 39.9706 13.1841 39.7082 12.8661L31.7884 3.27381C31.5259 2.95592 31.1698 2.77734 30.7986 2.77734C30.4274 2.77734 30.0714 2.95592 29.8088 3.27381Z"
        fill="url(#paint2_linear_138_511)" />
    <path
        d="M41.01 3.27381C40.7475 3.59179 40.6001 4.02301 40.6001 4.47263C40.6001 4.92226 40.7475 5.35347 41.01 5.67146L47.94 14.0649L41.01 22.4584C40.755 22.7782 40.6139 23.2065 40.6171 23.6511C40.6202 24.0957 40.7675 24.521 41.0271 24.8354C41.2866 25.1498 41.6378 25.3281 42.0048 25.332C42.3719 25.3358 42.7255 25.1649 42.9896 24.856L50.9093 15.2637C51.1718 14.9458 51.3192 14.5146 51.3192 14.0649C51.3192 13.6153 51.1718 13.1841 50.9093 12.8661L42.9896 3.27381C42.727 2.95592 42.371 2.77734 41.9998 2.77734C41.6286 2.77734 41.2725 2.95592 41.01 3.27381Z"
        fill="url(#paint3_linear_138_511)" />
    <defs>
        <linearGradient id="paint0_linear_138_511" x1="12.3596" y1="2.77734" x2="12.3596"
            y2="25.332" gradientUnits="userSpaceOnUse">
            <stop stop-color="#1B8540" />
            <stop offset="1" stop-color="#8BC43F" />
        </linearGradient>
        <linearGradient id="paint1_linear_138_511" x1="23.5593" y1="2.77734" x2="23.5593"
            y2="25.332" gradientUnits="userSpaceOnUse">
            <stop stop-color="#1B8540" />
            <stop offset="1" stop-color="#8BC43F" />
        </linearGradient>
        <linearGradient id="paint2_linear_138_511" x1="34.7585" y1="2.77734" x2="34.7585"
            y2="25.332" gradientUnits="userSpaceOnUse">
            <stop stop-color="#1B8540" />
            <stop offset="1" stop-color="#8BC43F" />
        </linearGradient>
        <linearGradient id="paint3_linear_138_511" x1="45.9597" y1="2.77734" x2="45.9597"
            y2="25.332" gradientUnits="userSpaceOnUse">
            <stop stop-color="#1B8540" />
            <stop offset="1" stop-color="#8BC43F" />
        </linearGradient>
    </defs>
</svg>