<svg width="100" height="101" viewBox="0 0 100 101" fill="none" xmlns="http://www.w3.org/2000/svg">
    <rect y="0.5" width="100" height="100" rx="50" fill="url(#paint0_linear_138_404)" />
    <g clip-path="url(#clip0_138_404)">
        <path fill-rule="evenodd" clip-rule="evenodd"
            d="M51.8571 24.5H53.7143C59.6248 24.5 65.2933 26.8497 69.4727 31.0321C73.6521 35.2146 76 40.8872 76 46.8021V48.6607H51.8571V24.5ZM48.1317 24.5V52.3888H76.0037L75.6694 54.5298C74.6534 60.9943 71.24 66.838 66.1097 70.8956C60.9795 74.9533 54.5095 76.9268 47.9899 76.4226C41.4702 75.9184 35.38 72.9736 30.9337 68.1753C26.4873 63.3771 24.0115 57.0779 24 50.534C24.0012 44.3293 26.218 38.3292 30.2507 33.6161C34.2833 28.903 39.8662 25.7872 45.9923 24.8308L48.1317 24.5ZM44.4174 53.6415V28.9456C40.5509 29.9483 37.0246 31.9726 34.2078 34.8065C31.3909 37.6405 29.3869 41.18 28.4054 45.0547C27.424 48.9294 27.5012 52.9969 28.629 56.8315C29.7567 60.6661 31.8936 64.1269 34.816 66.8518L44.4174 53.6415ZM37.7429 69.1526C40.7039 71.1017 44.0868 72.316 47.6108 72.6946C51.1348 73.0732 54.6982 72.6053 58.0052 71.3296C61.3122 70.054 64.2676 68.0074 66.6259 65.3597C68.9842 62.712 70.6774 59.5396 71.5652 56.1059H47.2217L37.7429 69.1526Z"
            fill="white" />
    </g>
    <defs>
        <linearGradient id="paint0_linear_138_404" x1="50" y1="0.5" x2="50" y2="100.5"
            gradientUnits="userSpaceOnUse">
            <stop stop-color="#1B8540" />
            <stop offset="1" stop-color="#8BC43F" />
        </linearGradient>
        <clipPath id="clip0_138_404">
            <rect width="52" height="52" fill="white" transform="translate(24 24.5)" />
        </clipPath>
    </defs>
</svg>