<svg width="101" height="101" viewBox="0 0 101 101" fill="none" xmlns="http://www.w3.org/2000/svg">
    <rect x="0.5" y="0.5" width="100" height="100" rx="50" fill="url(#paint0_linear_138_395)" />
    <g clip-path="url(#clip0_138_395)">
        <path
            d="M32.4978 24.6262L29.7387 27.3814L33.844 31.4847L36.5991 28.7295L32.4958 24.6262H32.4978ZM68.5047 24.6262L64.3994 28.7295L67.1565 31.4847L71.2598 27.3833L68.5027 24.6262H68.5047ZM50.5002 25.849C49.8536 25.8568 49.1991 25.8941 48.5407 25.9744C48.5211 25.9744 48.5015 25.9705 48.4819 25.9744C40.5339 26.8856 34.2085 33.3071 33.1091 41.2198C32.2313 47.5883 34.8571 53.3632 39.2328 57.0824C41.0226 58.61 42.2333 60.7061 42.662 63.0199V74.7772H47.1298C47.8117 75.9471 49.056 76.7368 50.5002 76.7368C51.9444 76.7368 53.1888 75.9471 53.8707 74.7772H58.3385V66.939H58.5227V64.611C58.5227 61.7383 60.0159 58.8421 62.4418 56.5906C65.6868 53.3416 68.1363 48.7268 68.1363 43.4262C68.1363 33.746 60.1687 25.7588 50.5002 25.849ZM50.5002 29.7681C58.0739 29.6623 64.2172 35.8623 64.2172 43.4262C64.2172 47.5296 62.3164 51.143 59.6847 53.7727L59.7474 53.8354C57.1321 56.2471 55.441 59.4962 54.9661 63.0218H46.395C45.9639 59.6631 44.5236 56.4122 41.8018 54.0804C38.3392 51.141 36.2758 46.7124 36.9656 41.7116C37.8219 35.539 42.8305 30.5754 48.9679 29.8955C49.4746 29.8248 49.9849 29.783 50.4963 29.7701L50.5002 29.7681ZM23.0664 43.4262V47.3454H28.9451V43.4262H23.0664ZM72.0554 43.4262V47.3454H77.9341V43.4262H72.0554ZM33.844 59.2869L29.7407 63.3883L32.4978 66.1454L36.5972 62.042L33.844 59.2869ZM67.1565 59.2869L64.4014 62.042L68.5027 66.1454L71.2598 63.3883L67.1565 59.2869ZM46.5811 66.9409H54.4194V70.8601H46.5811V66.9409Z"
            fill="white" />
    </g>
    <defs>
        <linearGradient id="paint0_linear_138_395" x1="50.5" y1="0.5" x2="50.5" y2="100.5"
            gradientUnits="userSpaceOnUse">
            <stop stop-color="#1B8540" />
            <stop offset="1" stop-color="#8BC43F" />
        </linearGradient>
        <clipPath id="clip0_138_395">
            <rect width="55.0588" height="52" fill="white" transform="translate(22.9707 24.5)" />
        </clipPath>
    </defs>
</svg>