<svg width="100" height="101" viewBox="0 0 100 101" fill="none" xmlns="http://www.w3.org/2000/svg">
    <rect y="0.5" width="100" height="100" rx="50" fill="url(#paint0_linear_138_388)" />
    <path
        d="M50 29.3462C48.977 29.3462 47.9959 29.7514 47.2726 30.4727C46.5492 31.194 46.1429 32.1722 46.1429 33.1923C46.1429 34.2124 46.5492 35.1907 47.2726 35.9119C47.9959 36.6332 48.977 37.0385 50 37.0385C51.023 37.0385 52.0041 36.6332 52.7274 35.9119C53.4508 35.1907 53.8571 34.2124 53.8571 33.1923C53.8571 32.1722 53.4508 31.194 52.7274 30.4727C52.0041 29.7514 51.023 29.3462 50 29.3462ZM42.2857 33.1923C42.2857 31.1522 43.0985 29.1956 44.5452 27.753C45.9919 26.3104 47.954 25.5 50 25.5C52.046 25.5 54.0081 26.3104 55.4548 27.753C56.9015 29.1956 57.7143 31.1522 57.7143 33.1923C57.7143 35.2324 56.9015 37.189 55.4548 38.6316C54.0081 40.0742 52.046 40.8846 50 40.8846C47.954 40.8846 45.9919 40.0742 44.5452 38.6316C43.0985 37.189 42.2857 35.2324 42.2857 33.1923ZM68.3214 31.2692C67.5542 31.2692 66.8184 31.5731 66.2759 32.1141C65.7334 32.6551 65.4286 33.3888 65.4286 34.1538C65.4286 34.9189 65.7334 35.6526 66.2759 36.1936C66.8184 36.7345 67.5542 37.0385 68.3214 37.0385C69.0887 37.0385 69.8245 36.7345 70.367 36.1936C70.9095 35.6526 71.2143 34.9189 71.2143 34.1538C71.2143 33.3888 70.9095 32.6551 70.367 32.1141C69.8245 31.5731 69.0887 31.2692 68.3214 31.2692ZM61.5714 34.1538C61.5714 33.2699 61.746 32.3947 62.0852 31.5781C62.4245 30.7615 62.9217 30.0195 63.5485 29.3945C64.1753 28.7695 64.9194 28.2737 65.7383 27.9354C66.5573 27.5972 67.435 27.4231 68.3214 27.4231C69.2079 27.4231 70.0856 27.5972 70.9045 27.9354C71.7235 28.2737 72.4676 28.7695 73.0944 29.3945C73.7212 30.0195 74.2184 30.7615 74.5576 31.5781C74.8968 32.3947 75.0714 33.2699 75.0714 34.1538C75.0714 35.939 74.3603 37.651 73.0944 38.9132C71.8285 40.1755 70.1116 40.8846 68.3214 40.8846C66.5312 40.8846 64.8143 40.1755 63.5485 38.9132C62.2826 37.651 61.5714 35.939 61.5714 34.1538ZM28.7857 34.1538C28.7857 33.3888 29.0905 32.6551 29.633 32.1141C30.1755 31.5731 30.9113 31.2692 31.6786 31.2692C32.4458 31.2692 33.1816 31.5731 33.7241 32.1141C34.2666 32.6551 34.5714 33.3888 34.5714 34.1538C34.5714 34.9189 34.2666 35.6526 33.7241 36.1936C33.1816 36.7345 32.4458 37.0385 31.6786 37.0385C30.9113 37.0385 30.1755 36.7345 29.633 36.1936C29.0905 35.6526 28.7857 34.9189 28.7857 34.1538ZM31.6786 27.4231C29.8884 27.4231 28.1715 28.1322 26.9056 29.3945C25.6397 30.6567 24.9286 32.3687 24.9286 34.1538C24.9286 35.939 25.6397 37.651 26.9056 38.9132C28.1715 40.1755 29.8884 40.8846 31.6786 40.8846C33.4688 40.8846 35.1857 40.1755 36.4515 38.9132C37.7174 37.651 38.4286 35.939 38.4286 34.1538C38.4286 32.3687 37.7174 30.6567 36.4515 29.3945C35.1857 28.1322 33.4688 27.4231 31.6786 27.4231ZM35.8269 66.8558C34.9547 67.429 33.9431 67.7561 32.8994 67.8023C31.8558 67.8485 30.8191 67.6121 29.8993 67.1181C28.9796 66.6242 28.2111 65.8911 27.6755 64.9968C27.1399 64.1024 26.8571 63.0802 26.8571 62.0385V49.5385C26.8571 49.2834 26.9587 49.0389 27.1396 48.8586C27.3204 48.6782 27.5657 48.5769 27.8214 48.5769H35.5955C35.7733 47.1694 36.3379 45.8383 37.2271 44.7308H27.8214C26.5427 44.7308 25.3164 45.2373 24.4122 46.1389C23.508 47.0405 23 48.2634 23 49.5385V62.0385C22.9995 63.6944 23.4279 65.3223 24.2436 66.7647C25.0594 68.207 26.2348 69.4148 27.6562 70.2712C29.0775 71.1275 30.6965 71.6033 32.3564 71.6525C34.0163 71.7017 35.6608 71.3226 37.1306 70.5519C36.5295 69.3847 36.0909 68.1412 35.8269 66.8558ZM62.8694 70.5519C64.3392 71.3226 65.9837 71.7017 67.6436 71.6525C69.3035 71.6033 70.9225 71.1275 72.3438 70.2712C73.7652 69.4148 74.9406 68.207 75.7564 66.7647C76.5721 65.3223 77.0005 63.6944 77 62.0385V49.5385C77 48.2634 76.492 47.0405 75.5878 46.1389C74.6836 45.2373 73.4573 44.7308 72.1786 44.7308H62.7729C63.6621 45.8383 64.2267 47.1694 64.4045 48.5769H72.1786C72.4343 48.5769 72.6796 48.6782 72.8604 48.8586C73.0413 49.0389 73.1429 49.2834 73.1429 49.5385V62.0385C73.1429 63.0802 72.8601 64.1024 72.3245 64.9968C71.7889 65.8911 71.0204 66.6242 70.1007 67.1181C69.1809 67.6121 68.1442 67.8485 67.1006 67.8023C66.0569 67.7561 65.0453 67.429 64.1731 66.8558C63.9091 68.1412 63.4705 69.3847 62.8694 70.5519ZM43.25 44.7308C41.9713 44.7308 40.7449 45.2373 39.8407 46.1389C38.9365 47.0405 38.4286 48.2634 38.4286 49.5385V63.9615C38.4286 67.0217 39.6477 69.9566 41.8178 72.1205C43.9878 74.2843 46.9311 75.5 50 75.5C53.0689 75.5 56.0122 74.2843 58.1822 72.1205C60.3523 69.9566 61.5714 67.0217 61.5714 63.9615V49.5385C61.5714 48.2634 61.0635 47.0405 60.1593 46.1389C59.2551 45.2373 58.0287 44.7308 56.75 44.7308H43.25ZM42.2857 49.5385C42.2857 49.2834 42.3873 49.0389 42.5681 48.8586C42.749 48.6782 42.9943 48.5769 43.25 48.5769H56.75C57.0057 48.5769 57.251 48.6782 57.4319 48.8586C57.6127 49.0389 57.7143 49.2834 57.7143 49.5385V63.9615C57.7143 66.0017 56.9015 67.9582 55.4548 69.4008C54.0081 70.8434 52.046 71.6538 50 71.6538C47.954 71.6538 45.9919 70.8434 44.5452 69.4008C43.0985 67.9582 42.2857 66.0017 42.2857 63.9615V49.5385Z"
        fill="white" />
    <defs>
        <linearGradient id="paint0_linear_138_388" x1="50" y1="0.5" x2="50" y2="100.5"
            gradientUnits="userSpaceOnUse">
            <stop stop-color="#1B8540" />
            <stop offset="1" stop-color="#8BC43F" />
        </linearGradient>
    </defs>
</svg>