<svg width="100" height="100" viewBox="0 0 100 100" fill="none" xmlns="http://www.w3.org/2000/svg">
<rect width="100" height="100" rx="50" fill="url(#paint0_linear_138_414)"/>
<path d="M43.2723 42.6639C43.4915 42.535 43.6836 42.3635 43.8377 42.159C43.9918 41.9545 44.1049 41.7211 44.1704 41.472C44.236 41.223 44.2528 40.9633 44.2198 40.7077C44.1869 40.452 44.1049 40.2055 43.9784 39.9822C43.852 39.7589 43.6836 39.5631 43.4829 39.4061C43.2822 39.2491 43.0531 39.1339 42.8088 39.0671C42.5644 39.0003 42.3095 38.9831 42.0586 39.0167C41.8077 39.0503 41.5658 39.1339 41.3466 39.2627C37.5128 41.5178 34.7151 45.2324 33.5691 49.5894C32.423 53.9463 33.0226 58.5887 35.2357 62.4952C37.4489 66.4017 41.0944 69.2524 45.3703 70.4202C49.6462 71.5879 54.2022 70.977 58.0361 68.7219C58.4787 68.4617 58.8018 68.033 58.9342 67.5301C59.0666 67.0272 58.9975 66.4913 58.7422 66.0402C58.4868 65.5892 58.0661 65.26 57.5725 65.1251C57.0789 64.9902 56.553 65.0606 56.1104 65.3208C54.6498 66.1933 53.0342 66.7628 51.3568 66.9965C49.6793 67.2302 47.973 67.1235 46.3362 66.6825C44.6993 66.2416 43.1643 65.475 41.8193 64.4271C40.4744 63.3792 39.3462 62.0705 38.4996 60.5765C37.6531 59.0825 37.1049 57.4326 36.8867 55.7218C36.6684 54.011 36.7845 52.2732 37.2281 50.6083C37.6717 48.9434 38.4341 47.3843 39.4714 46.0209C40.5087 44.6574 41.8005 43.5165 43.2723 42.6639Z" fill="white"/>
<path d="M50.8692 40.972C50.8692 40.449 50.6654 39.9474 50.3026 39.5776C49.9398 39.2078 49.4477 39 48.9346 39C48.4215 39 47.9295 39.2078 47.5666 39.5776C47.2038 39.9474 47 40.449 47 40.972V54.0662C46.9998 54.4125 47.0891 54.7529 47.2589 55.0529C47.4287 55.3529 47.673 55.602 47.9673 55.7752L58.097 61.736C58.3172 61.8654 58.5602 61.9495 58.8123 61.9832C59.0643 62.0169 59.3204 61.9997 59.5659 61.9326C59.8114 61.8655 60.0416 61.7497 60.2432 61.5919C60.4448 61.4341 60.6139 61.2373 60.741 61.0129C60.868 60.7885 60.9504 60.5407 60.9835 60.2838C61.0166 60.0269 60.9998 59.7659 60.9339 59.5156C60.868 59.2653 60.7544 59.0308 60.5996 58.8252C60.4448 58.6197 60.2518 58.4473 60.0316 58.3178L50.8692 52.9277V40.972Z" fill="white"/>
<path fill-rule="evenodd" clip-rule="evenodd" d="M45.6428 24C45.1314 24 44.6408 24.2004 44.2791 24.5572C43.9175 24.914 43.7143 25.3979 43.7143 25.9025C43.7143 26.407 43.9175 26.8909 44.2791 27.2477C44.6408 27.6045 45.1314 27.8049 45.6428 27.8049H47.5714V31.691C42.5501 32.1171 37.8192 34.194 34.1371 37.5886C30.4549 40.9832 28.0347 45.499 27.2644 50.4121C26.4941 55.3253 27.4182 60.3514 29.8887 64.6847C32.3593 69.018 36.233 72.4076 40.8892 74.3103C45.5454 76.2129 50.7143 76.5184 55.5674 75.1778C60.4206 73.8371 64.6769 70.9279 67.6542 66.9166C70.6315 62.9052 72.1573 58.024 71.9872 53.0552C71.817 48.0864 69.9606 43.3179 66.7157 39.5139L68.8628 37.3958C69.2143 37.0372 69.4089 36.5567 69.4048 36.0579C69.4006 35.5591 69.198 35.0818 68.8406 34.7289C68.4832 34.376 67.9996 34.1757 67.4939 34.1711C66.9883 34.1666 66.501 34.3581 66.1371 34.7045L63.9874 36.8226C60.442 33.8684 56.0531 32.0751 51.4285 31.691V27.8049H53.3571C53.8686 27.8049 54.3591 27.6045 54.7208 27.2477C55.0825 26.8909 55.2857 26.407 55.2857 25.9025C55.2857 25.3979 55.0825 24.914 54.7208 24.5572C54.3591 24.2004 53.8686 24 53.3571 24H45.6428ZM30.8571 53.8052C30.8571 51.3901 31.3393 48.9987 32.2762 46.7675C33.2131 44.5362 34.5864 42.5089 36.3175 40.8012C38.0486 39.0935 40.1038 37.7388 42.3657 36.8146C44.6275 35.8904 47.0518 35.4147 49.5 35.4147C51.9482 35.4147 54.3724 35.8904 56.6343 36.8146C58.8961 37.7388 60.9513 39.0935 62.6825 40.8012C64.4136 42.5089 65.7868 44.5362 66.7237 46.7675C67.6606 48.9987 68.1428 51.3901 68.1428 53.8052C68.1428 58.6826 66.1787 63.3603 62.6825 66.8092C59.1862 70.258 54.4444 72.1956 49.5 72.1956C44.5556 72.1956 39.8137 70.258 36.3175 66.8092C32.8213 63.3603 30.8571 58.6826 30.8571 53.8052Z" fill="white"/>
<defs>
<linearGradient id="paint0_linear_138_414" x1="50" y1="0" x2="50" y2="100" gradientUnits="userSpaceOnUse">
<stop stop-color="#1B8540"/>
<stop offset="1" stop-color="#8BC43F"/>
</linearGradient>
</defs>
</svg>
